<svg width="73" height="61" viewBox="0 0 73 61" fill="none" xmlns="http://www.w3.org/2000/svg">
<path d="M34.8869 27.1914C34.6462 26.9025 34.2852 26.71 33.9 26.6618C33.5148 26.6137 33.1297 26.734 32.8408 26.9748C32.552 27.2155 32.3594 27.5766 32.3112 27.9617C32.2631 28.3469 32.3835 28.732 32.6242 29.0209L35.0073 31.9336C35.248 32.2465 35.6091 32.415 35.9942 32.4632C36.0424 32.4632 36.0905 32.4632 36.1387 32.4632C36.4757 32.4632 36.7886 32.3428 37.0534 32.1262C37.3664 31.8854 37.5349 31.5244 37.583 31.1392C37.6311 30.7541 37.5108 30.3689 37.2701 30.08L34.8869 27.1914Z" fill="url(#paint0_radial)"/>
<path d="M35.92 35.1844C35.6071 34.9677 35.2219 34.8714 34.8368 34.9436L31.1056 35.5936C30.3112 35.738 29.7817 36.4842 29.9261 37.2786C29.9983 37.6638 30.2149 38.0008 30.5279 38.2174C30.7686 38.3859 31.0575 38.4822 31.3704 38.4822C31.4426 38.4822 31.5389 38.4822 31.6111 38.4581L35.3423 37.8082C35.7274 37.736 36.0644 37.5193 36.2811 37.2064C36.4977 36.8935 36.594 36.5083 36.5218 36.1232C36.4496 35.738 36.257 35.401 35.92 35.1844Z" fill="url(#paint1_radial)"/>
<path d="M40.6427 32.3678C40.8112 32.44 41.0038 32.4641 41.1723 32.4641C41.3648 32.4641 41.5574 32.4159 41.75 32.3437C42.1111 32.1993 42.3759 31.9104 42.5203 31.5494L43.9165 28.0349C44.2053 27.2886 43.8442 26.4461 43.098 26.1572C42.7369 26.0128 42.3518 26.0128 41.9907 26.1813C41.6296 26.3257 41.3648 26.6146 41.2204 26.9757L39.8242 30.4902C39.6798 30.8513 39.6798 31.2364 39.8483 31.5975C39.9927 31.9586 40.2816 32.2234 40.6427 32.3678Z" fill="url(#paint2_radial)"/>
<path d="M69.1159 20.5957L26.7011 20.5957C25.1124 20.5957 23.8125 21.8956 23.8125 23.4843V41.2494C23.8125 42.8382 25.1124 44.1381 26.7011 44.1381H39.2185L42.3238 57.5221C42.6608 58.9423 43.4552 59.0867 43.7922 59.0867C44.1774 59.0867 44.7551 58.8942 45.3087 58.0276L47.4752 54.5853C47.6196 54.3686 47.7641 54.1279 47.9085 53.8391C48.1011 53.5261 48.2937 53.165 48.5103 52.8521L53.6617 59.0627C54.2635 59.7848 55.1301 60.194 56.0689 60.194C56.7911 60.194 57.4891 59.9533 58.0428 59.4719C58.6927 58.9423 59.0779 58.1961 59.1501 57.3776C59.2223 56.5592 58.9816 55.7407 58.452 55.0908L53.1081 48.6395C53.7339 48.3025 54.3598 48.0618 54.8653 47.9414L57.8021 47.2674C59.0298 46.9785 59.2945 46.3527 59.3668 45.9916C59.4149 45.6305 59.3668 44.9565 58.3076 44.2825L58.0669 44.1381H69.1159C70.7046 44.1381 72.0045 42.8382 72.0045 41.2494V23.4843C72.0045 21.8715 70.7046 20.5957 69.1159 20.5957ZM51.2304 46.3527L51.086 46.4249L48.9677 48.2303L56.1893 56.9443C56.2133 56.9925 56.2374 57.0406 56.2374 57.0888C56.2374 57.161 56.1893 57.2091 56.1652 57.2332C56.1411 57.2573 56.093 57.2813 56.0208 57.2813C55.9485 57.2813 55.9004 57.2573 55.8522 57.2091L48.2937 48.0859L46.5364 50.493C46.0791 51.1189 45.6939 51.7929 45.3328 52.3947C45.1884 52.6355 45.068 52.8521 44.9477 53.0447L44.4181 53.9113L40.3981 36.6276L54.095 45.1491C53.2766 45.3417 52.2415 45.7749 51.2304 46.3527ZM37.1484 32.5354C36.9317 32.8002 36.7151 33.3298 36.9317 34.2686L38.5445 41.2254H26.7011V23.5084L69.0677 23.5084V41.2254H53.3728L39.387 32.5113C38.9297 32.2224 38.4964 32.078 38.1353 32.078C37.7261 32.078 37.3891 32.2465 37.1484 32.5354Z" fill="url(#paint3_radial)"/>
<path d="M18.1743 12.3646C17.7892 12.1239 17.3077 11.9795 16.9226 11.9795C16.1041 11.9795 15.4542 12.6535 15.4542 13.4479C15.4542 14.2663 16.1041 14.8681 16.7541 15.3496C17.6447 16.2402 18.1262 17.4198 18.1262 18.6474C18.1262 19.8992 17.6447 21.0787 16.73 21.9693L10.9287 27.7707C9.07512 29.6242 6.16242 29.6242 4.30888 27.7707C2.45534 25.9171 2.45534 23.0044 4.30888 21.1509L9.82135 15.6384C10.3991 15.0848 10.4232 14.146 9.84542 13.5682C9.58063 13.2794 9.19548 13.1349 8.81033 13.1349C8.42518 13.1349 8.04003 13.2794 7.77524 13.5442L2.23869 19.0807C-0.74623 22.0656 -0.74623 26.88 2.23869 29.8649C3.73115 31.3574 5.68098 32.1036 7.6308 32.1036C9.58063 32.1036 11.5305 31.3574 13.0229 29.8649L18.8243 24.0636C21.7851 21.1028 21.8092 16.3124 18.8965 13.3516C18.8483 12.9664 18.6076 12.6294 18.1743 12.3646Z" fill="url(#paint4_radial)"/>
<path d="M29.8721 2.22967C26.8872 -0.755248 22.0728 -0.731176 19.0879 2.22967L13.2865 8.03101C10.3257 10.9919 10.3016 15.7822 13.2384 18.7671C13.3347 19.1282 13.5995 19.417 13.9846 19.6337C14.2735 19.7781 14.6105 19.8503 14.8994 19.8503C14.9957 19.8503 15.0919 19.8503 15.1882 19.8263C15.9826 19.6818 16.5122 18.9356 16.3918 18.1171C16.2715 17.4913 15.79 17.0339 15.3567 16.721C13.5032 14.8674 13.5032 11.9547 15.3567 10.1012L21.1581 4.29986C23.0116 2.44632 25.9243 2.44632 27.7779 4.29986C29.6314 6.1534 29.6314 9.0661 27.7779 10.9196L22.2654 16.4321C21.6876 16.9858 21.6636 17.9246 22.2413 18.5023C22.795 19.08 23.7338 19.1041 24.3356 18.5264L29.8721 12.9898C32.833 10.029 32.833 5.19052 29.8721 2.22967Z" fill="url(#paint5_radial)"/>
<defs>
<radialGradient id="paint0_radial" cx="0" cy="0" r="1" gradientUnits="userSpaceOnUse" gradientTransform="translate(34.952 29.5682) scale(2.7826)">
<stop offset="0.1797" stop-color="#F18B3C"/>
<stop offset="0.6125" stop-color="#ED701E"/>
<stop offset="1" stop-color="#E95400"/>
</radialGradient>
<radialGradient id="paint1_radial" cx="0" cy="0" r="1" gradientUnits="userSpaceOnUse" gradientTransform="translate(33.2308 36.6962) scale(2.65963)">
<stop offset="0.1797" stop-color="#F18B3C"/>
<stop offset="0.6125" stop-color="#ED701E"/>
<stop offset="1" stop-color="#E95400"/>
</radialGradient>
<radialGradient id="paint2_radial" cx="0" cy="0" r="1" gradientUnits="userSpaceOnUse" gradientTransform="translate(41.8619 29.2699) scale(2.73197)">
<stop offset="0.1797" stop-color="#F18B3C"/>
<stop offset="0.6125" stop-color="#ED701E"/>
<stop offset="1" stop-color="#E95400"/>
</radialGradient>
<radialGradient id="paint3_radial" cx="0" cy="0" r="1" gradientUnits="userSpaceOnUse" gradientTransform="translate(47.9045 40.3816) scale(22.05)">
<stop offset="0.1797" stop-color="#F18B3C"/>
<stop offset="0.6125" stop-color="#ED701E"/>
<stop offset="1" stop-color="#E95400"/>
</radialGradient>
<radialGradient id="paint4_radial" cx="0" cy="0" r="1" gradientUnits="userSpaceOnUse" gradientTransform="translate(10.5422 22.0191) scale(10.293)">
<stop offset="0.1797" stop-color="#F18B3C"/>
<stop offset="0.6125" stop-color="#ED701E"/>
<stop offset="1" stop-color="#E95400"/>
</radialGradient>
<radialGradient id="paint5_radial" cx="0" cy="0" r="1" gradientUnits="userSpaceOnUse" gradientTransform="translate(21.5699 9.92884) scale(10.2317)">
<stop offset="0.1797" stop-color="#F18B3C"/>
<stop offset="0.6125" stop-color="#ED701E"/>
<stop offset="1" stop-color="#E95400"/>
</radialGradient>
</defs>
</svg>
