<svg xmlns="http://www.w3.org/2000/svg" viewBox="0 0 128.34 138.11"><defs><style>.cls-1{fill:#ec610f;}</style></defs><g id="Слой_2" data-name="Слой 2"><g id="Слой_1-2" data-name="Слой 1"><g id="Слой_2-2" data-name="Слой 2"><g id="Capa_1" data-name="Capa 1"><path class="cls-1" d="M125.22,59.46,75.4,5.24l-.1-.12-.23-.22-.53-.58-.23-.22-.13-.2-.66-.59-.2-.16A10.15,10.15,0,0,0,72,2.23l-.24-.15c-.21-.14-.43-.26-.66-.39l-.61-.32L70,1.14,69.62,1l-.4-.16L68.86.69l-.15,0L68.32.51h-.18L67.71.35,66.58,4.7h0l1-4.38-.42-.1L66.85.16,66.4.08,65.87,0H62.26l-.78.13h-.32L61,.25c-.31.07-.62.15-.89.23l-.21.06h-.16c-.41.13-.81.28-1.13.41l-.22.1-.4.19c-.22.1-.44.2-.66.32l-.12.06-.47.28L56.59,2l-.37.24L56,2.4l-.48.35L55.13,3,55,3.16l-.13.1-.42.37-.14.13L54,4.07l-.17.17-.36.39-.07.08L53,5.1l-.13.15L3.32,59.19l-.22.27A14.51,14.51,0,0,0,25.8,77.54l23.89-26v72.07a14.5,14.5,0,1,0,29,0V51.55l23.89,26a14.49,14.49,0,0,0,22.64-18.09Z"/></g></g></g></g></svg>