<svg xmlns="http://www.w3.org/2000/svg" viewBox="0 0 480 320"><defs><style>.cls-1{fill:#ec6110;opacity:0.25;isolation:isolate;}</style></defs><g id="Слой_2" data-name="Слой 2"><g id="Outline"><path class="cls-1" d="M40,320H440a40,40,0,0,0,40-40V40A40,40,0,0,0,440,0H40A40,40,0,0,0,0,40V280A40,40,0,0,0,40,320ZM16,40A24,24,0,0,1,40,16H440a24,24,0,0,1,24,24V280a24,24,0,0,1-24,24H40a24,24,0,0,1-24-24Z"/><path class="cls-1" d="M72,128h32a24,24,0,0,0,24-24V72a24,24,0,0,0-24-24H72A24,24,0,0,0,48,72v32A24,24,0,0,0,72,128Zm0-64h32a8,8,0,0,1,8,8v8h-8a8,8,0,0,0,0,16h8v8a8,8,0,0,1-8,8H72a8,8,0,0,1-8-8V96h8a8,8,0,0,0,0-16H64V72A8,8,0,0,1,72,64Z"/><path class="cls-1" d="M56,240H176a8,8,0,0,0,0-16H56a8,8,0,0,0,0,16Z"/><path class="cls-1" d="M56,272H216a8,8,0,0,0,0-16H56a8,8,0,0,0,0,16Z"/><path class="cls-1" d="M368,288a39.66,39.66,0,0,0,20-5.38,40,40,0,1,0,0-69.24A40,40,0,1,0,368,288Zm64-40a24,24,0,0,1-31.22,22.88,39.85,39.85,0,0,0,0-45.76A24,24,0,0,1,432,248Zm-64-24a24,24,0,1,1-24,24A24,24,0,0,1,368,224Z"/><path class="cls-1" d="M412.42,127.15a8,8,0,0,0,10.73-3.56h0c.37-.73,8.85-17.89,8.85-35.58s-8.48-34.85-8.85-35.58a8,8,0,0,0-14.31,7.15c.07.14,7.16,14.59,7.16,28.43s-7.09,28.29-7.15,28.42A8,8,0,0,0,412.42,127.15Z"/><path class="cls-1" d="M346.34,109.66a8,8,0,0,0,11.32,0h0C358.72,108.6,368,99,368,88s-9.28-20.6-10.34-21.66a8,8,0,0,0-11.34,11.3C348.61,80,352,84.87,352,88s-3.39,8-5.66,10.34a8,8,0,0,0,0,11.32Z"/><path class="cls-1" d="M56,176h48a8,8,0,0,0,0-16H56a8,8,0,0,0,0,16Z"/><path class="cls-1" d="M152,176h48a8,8,0,0,0,0-16H152a8,8,0,0,0,0,16Z"/><path class="cls-1" d="M248,176h48a8,8,0,0,0,0-16H248a8,8,0,0,0,0,16Z"/><path class="cls-1" d="M344,176h48a8,8,0,0,0,0-16H344a8,8,0,0,0,0,16Z"/><path class="cls-1" d="M389.66,58.34a8,8,0,0,0-11.32,11.32c.06,0,5.66,6.2,5.66,18.34s-5.51,18.18-5.75,18.43l.09-.09h0a8,8,0,0,0,11.32,11.32h0C390.72,116.6,400,106.77,400,88S390.72,59.4,389.66,58.34Z"/></g></g></svg>