<?xml version="1.0" encoding="UTF-8" standalone="no"?>
<!DOCTYPE svg PUBLIC "-//W3C//DTD SVG 1.1//EN" "http://www.w3.org/Graphics/SVG/1.1/DTD/svg11.dtd">
<svg width="100%" height="100%" viewBox="0 0 72 63" version="1.1" xmlns="http://www.w3.org/2000/svg" xmlns:xlink="http://www.w3.org/1999/xlink" xml:space="preserve" xmlns:serif="http://www.serif.com/" style="fill-rule:evenodd;clip-rule:evenodd;stroke-linejoin:round;stroke-miterlimit:2;">
    <g transform="matrix(1,0,0,1,-311.868,-19.6998)">
        <g>
            <g transform="matrix(-0.133632,0.0595812,0.0595812,0.133632,361.741,-4.64581)">
                <path d="M53.86,253.519C53.86,253.519 79.924,151.663 184.196,108.991C184.196,108.991 225.268,49.743 353.236,86.079C353.236,86.079 391.156,111.359 397.476,125.567C397.476,125.567 453.556,135.055 453.556,199.823C453.556,199.823 464.612,216.415 461.46,257.487L470.148,345.167L428.276,377.551L425.908,361.759C425.908,361.759 385.62,300.927 383.252,281.983C383.252,281.983 372.196,273.295 372.196,294.623L383.252,327.791L75.972,303.983L53.86,253.519Z" style="fill:rgb(225,75,75);fill-rule:nonzero;"/>
            </g>
            <g transform="matrix(-0.133632,0.0595812,0.0595812,0.133632,361.741,-4.64581)">
                <path d="M399.636,206.895C390.628,166.991 377.46,128.031 360.196,90.863C368.26,96.639 381.62,106.687 390.148,115.695C395.94,145.743 399.06,176.271 399.636,206.895Z" style="fill:rgb(208,63,62);fill-rule:nonzero;"/>
            </g>
            <g transform="matrix(-0.133632,0.0595812,0.0595812,0.133632,361.741,-4.64581)">
                <path d="M283.316,119.487C286.82,119.295 289.86,120.719 292.516,122.991C289.492,121.759 286.356,120.623 283.316,119.487Z" style="fill:rgb(208,63,62);fill-rule:nonzero;"/>
            </g>
            <g transform="matrix(-0.133632,0.0595812,0.0595812,0.133632,361.741,-4.64581)">
                <path d="M383.14,281.871C382.004,281.103 372.34,274.575 372.244,294.383C367.972,288.703 364.372,282.255 360.292,276.463C348.916,260.159 332.42,248.127 316.308,236.367C285.492,213.903 253.748,191.055 217.156,180.255C235.172,179.311 252.708,185.759 269.476,192.287C302.66,205.183 336.868,220.063 358.772,248.031C358.676,229.263 348.628,212.191 338.868,196.175C326.068,175.135 313.268,154.079 300.468,133.039C298.292,129.439 295.636,125.551 292.5,122.991C306.724,128.399 320.468,135.023 331.172,145.647C345.396,159.775 352.5,179.295 358.756,198.351C367.78,225.855 375.94,253.807 383.14,281.871Z" style="fill:rgb(208,63,62);fill-rule:nonzero;"/>
            </g>
            <g transform="matrix(-0.133632,0.0595812,0.0595812,0.133632,361.741,-4.64581)">
                <path d="M0.34,359.407C0.34,347.071 0.228,361.231 0.116,356.063C-0.332,369.935 -0.044,293.503 11.764,285.439C20.212,276.943 27.94,251.183 34.708,261.055C40.484,256.239 44.516,263.343 47.764,254.847C51.012,253.151 53.476,245.487 56.1,253.647C58.724,251.759 61.524,259.167 65.444,256.895C69.364,262.751 74.388,259.167 81.508,264.015C81.508,269.567 84.148,257.343 88.132,263.247C92.132,268.335 97.476,264.303 102.916,261.023C108.356,255.327 113.892,252.111 118.228,257.487C121.492,261.311 126.036,262.271 131.044,256.671C136.036,252.031 141.492,253.679 146.516,258.895C151.556,265.903 156.18,266.431 159.556,261.903C162.932,266.863 165.028,260.287 165.028,263.407C165.028,263.631 166.308,268.175 168.612,263.263C170.916,261.999 174.212,265.839 178.26,263.039C182.308,268.879 187.092,261.999 192.324,263.055C197.572,257.743 203.268,253.455 209.156,263.615C215.044,259.199 221.108,260.639 227.092,265.039C233.076,263.135 238.964,264.543 244.5,267.647C250.02,266.383 255.188,275.455 259.7,271.727C264.228,267.311 268.1,263.423 271.06,277.615C271.06,274.671 272.452,281.679 274.948,278.543C277.444,280.111 281.028,277.023 285.412,281.151C289.796,280.815 294.964,283.151 300.644,285.167C306.308,279.087 312.468,289.199 318.82,290.351C325.172,293.599 331.716,301.423 338.132,296.415C344.564,290.159 350.868,299.471 356.772,303.103C362.676,314.415 368.164,305.663 372.932,310.159C377.7,312.511 381.764,310.943 384.788,317.311C384.788,317.455 387.364,325.727 387.812,326.127C388.644,327.407 389.556,337.135 390.436,336.431C394.004,346.047 396.084,389.183 390.132,406.175C390.132,406.127 389.428,403.199 387.988,408.671C386.548,409.663 384.372,406.463 381.46,413.967C378.548,418.047 374.868,415.695 370.436,418.719C366.004,426.191 360.788,422.911 354.804,419.599C348.82,416.255 342.036,413.647 334.452,413.279C334.452,405.711 334.004,410.943 333.14,412.831C332.276,416.799 330.98,409.039 329.284,411.583C327.588,401.919 325.492,412.655 323.028,409.663C320.548,407.023 317.7,409.775 314.484,407.231C311.268,415.151 307.7,404.047 303.796,404.415C299.892,398.719 295.636,394.207 291.076,401.343C286.516,402.127 281.636,392.351 276.468,398.175C271.3,392.975 265.828,403.423 260.084,395.039C254.34,397.359 248.324,390.415 242.068,392.079C235.796,389.679 229.284,393.407 222.532,389.439C215.78,389.919 208.804,391.215 201.62,387.247C194.436,386.399 187.028,381.407 179.444,385.663C171.86,382.527 164.084,384.799 156.148,384.815C148.212,382.015 140.1,383.807 131.844,384.831C117.428,381.199 104.772,383.935 93.684,385.039C82.596,386.287 73.076,384.047 64.9,383.951C56.724,381.983 49.892,381.151 44.18,381.999C38.468,388.799 33.876,379.055 30.196,379.567C26.516,378.511 23.732,372.351 21.636,377.023C19.54,376.815 18.116,371.007 17.156,374.735C16.196,373.615 15.7,375.615 15.444,373.087C15.188,376.367 15.172,380.911 15.172,372.447C15.172,382.495 12.356,374.751 9.108,369.711C5.828,370.383 2.116,375.663 0.34,359.407Z" style="fill:rgb(248,252,253);fill-rule:nonzero;"/>
            </g>
            <g transform="matrix(-0.133632,0.0595812,0.0595812,0.133632,361.741,-4.64581)">
                <path d="M505.476,359.663C519.588,381.983 508.98,416.047 486.66,430.159C464.34,444.271 434.804,437.599 420.692,415.279C406.58,392.959 413.252,363.423 435.572,349.311C457.876,335.199 491.364,337.327 505.476,359.663Z" style="fill:rgb(248,252,253);fill-rule:nonzero;"/>
            </g>
            <g transform="matrix(-0.133632,0.0595812,0.0595812,0.133632,361.741,-4.64581)">
                <path d="M503.716,411.695C499.556,419.215 493.636,425.615 486.596,430.095C464.356,444.335 434.756,437.615 420.676,415.215C406.596,392.975 413.156,363.375 435.556,349.295C436.676,348.655 437.636,348.015 438.756,347.535C431.076,362.095 431.236,380.335 440.676,395.215C454.116,416.655 481.956,423.695 503.716,411.695Z" style="fill:rgb(236,251,255);fill-rule:nonzero;"/>
            </g>
            <g transform="matrix(-0.133632,0.0595812,0.0595812,0.133632,361.741,-4.64581)">
                <path d="M440.948,348.511C441.14,347.871 441.044,347.215 440.836,346.591C440.756,346.623 440.692,346.671 440.612,346.703L440.948,348.511Z" style="fill:rgb(203,214,224);fill-rule:nonzero;"/>
            </g>
        </g>
    </g>
</svg>
