<svg xmlns="http://www.w3.org/2000/svg" viewBox="0 0 150 146"  fill-rule="evenodd" stroke-linejoin="round" stroke-miterlimit="2" xmlns:v="https://vecta.io/nano"><g transform="matrix(1.08474 0 0 1.08474 -99.6271 -71.5439)" fill="#ec6110" fill-rule="nonzero"><path d="M154.614 200.195a1.08 1.08 0 0 1-1.078-1.083c0-.143.029-.286.086-.42a6.84 6.84 0 0 0-1.89-7.887 6.85 6.85 0 0 0-2.033-1.169c-.482-.172-.773-.658-.701-1.169a8.15 8.15 0 0 0-6.895-9.228 8.14 8.14 0 0 0-6.208 1.665c-.434.344-1.064.301-1.446-.095a6.59 6.59 0 0 0-.563-.53 6.8 6.8 0 0 0-6.308-1.298 1.08 1.08 0 0 1-1.212-.444c-.224-.358-.501-.682-.821-.959a4.24 4.24 0 0 0-5.979.372 4.33 4.33 0 0 0-.506.706 1.08 1.08 0 0 1-1.479.382c-.019-.01-.038-.024-.052-.033-.592-.396-1.322-.525-2.009-.344a1.08 1.08 0 0 1-.692 0l-.358-.148c-.549-.239-.797-.873-.563-1.422a1.14 1.14 0 0 1 .291-.396l.11-.095a.86.86 0 0 0 0-1.136 1.08 1.08 0 0 1 .024-1.527c.014-.014.029-.029.043-.038a2.18 2.18 0 0 0 .215-.205c.658-.787.558-1.956-.229-2.615a1.82 1.82 0 0 0-.477-.272c-.425-.186-.687-.62-.649-1.078.21-1.737-1.031-3.311-2.768-3.521a3.17 3.17 0 0 0-.95.029c-.506.086-1.002-.191-1.188-.668a3.76 3.76 0 0 0-2.701-2.376 1.08 1.08 0 0 1-.811-.864c-.119-.744-.506-1.422-1.078-1.913a3.24 3.24 0 0 0-3.65-.301c-.511.296-1.164.129-1.47-.377a1.26 1.26 0 0 0-1.727-.458 1.53 1.53 0 0 0-.262.2c-.348.329-.873.391-1.284.153a.86.86 0 0 0-1.078.181c-.196.234-.248.558-.138.845a.78.78 0 0 1 0 .153 1.34 1.34 0 0 1 0 .196c.091.592-.31 1.14-.902 1.236-.511.081-1.012-.215-1.183-.706-.033-.095-.052-.191-.067-.291a3 3 0 0 1 1.99-3.75 3.01 3.01 0 0 1 1.708-.019 3.45 3.45 0 0 1 4.018.291l.11.086c2.744-1.026 5.797.367 6.823 3.111l.11.324a5.85 5.85 0 0 1 3.24 2.734 5.33 5.33 0 0 1 5.401 5.187l.334.248a4.02 4.02 0 0 1 .701 5.401c.239.525.32 1.112.239 1.684a4.73 4.73 0 0 1 1.145.272 6.48 6.48 0 0 1 9.128-.816c.296.253.563.525.797.821 2.677-.558 5.463.143 7.563 1.899a10.36 10.36 0 0 1 12.23.744c2.51 2.085 3.875 5.244 3.674 8.503.678.32 1.312.73 1.89 1.212 3.016 2.548 4.022 6.766 2.486 10.402a1.09 1.09 0 0 1-.95.616zm33.615 0c-.353 0-.682-.172-.888-.463a5.66 5.66 0 0 1 4.633-8.889 6.19 6.19 0 0 1 .888.076c1.451-1.799 3.631-2.853 5.941-2.872 1.179-3.674 4.581-6.179 8.436-6.213.992-.005 1.98.162 2.915.487a6.65 6.65 0 0 1 5.95-3.684c.534.005 1.069.072 1.589.196.191-2.496 2.271-4.423 4.776-4.428a4.73 4.73 0 0 1 3.531 1.579 3.72 3.72 0 0 1 3.445-.563c.554.224.825.854.601 1.408s-.854.825-1.408.601c-.301-.119-.864-.162-2.224.916a1.08 1.08 0 0 1-1.517-.172c-.043-.052-.081-.115-.115-.172-.673-1.284-2.262-1.775-3.545-1.102a2.63 2.63 0 0 0-1.231 3.264 1.08 1.08 0 0 1-.611 1.398c-.315.124-.668.091-.954-.081-.701-.434-1.508-.668-2.333-.668a4.53 4.53 0 0 0-4.323 3.24 1.08 1.08 0 0 1-1.346.725c-.057-.019-.115-.038-.167-.067a6.63 6.63 0 0 0-3.001-.711c-3.192.024-5.931 2.276-6.58 5.401-.115.544-.625.916-1.179.854h-.625a5.58 5.58 0 0 0-4.657 2.529 1.09 1.09 0 0 1-1.212.444c-.324-.115-.668-.177-1.016-.172a3.5 3.5 0 0 0-3.512 3.488c-.005.701.205 1.389.596 1.971a1.08 1.08 0 0 1-.272 1.503 1.18 1.18 0 0 1-.587.177zm.683-115.55a55.3 55.3 0 0 0-6.179-1.761c-1.307-9.548-10.707-16.929-21.725-16.929h-.11c-11.084 0-20.289 7.248-21.606 16.829-11.084 2.386-17.531 6.709-17.502 12.334 0 2.419 2.061 4.6 6.093 6.48 2.042 2.71 7.992 4.323 13.146 5.292h.196c.596.052 1.126-.386 1.179-.983s-.386-1.126-.983-1.179c-8.307-1.522-12.101-3.76-12.11-5.196 0-2.162 2.882-4.323 7.93-5.836 5.788-1.77 14.043-2.734 23.767-2.777 20.666-.095 31.736 4.776 31.75 8.326 0 1.46-3.846 3.75-12.306 5.401a1.1 1.1 0 0 0-.883 1.279 1.1 1.1 0 0 0 1.279.883c5.273-.992 11.352-2.71 13.375-5.487h.086c3.941-1.923 5.941-4.104 5.931-6.48-.029-4.042-4.046-7.606-11.328-10.197zm-1.847 4.609a1.52 1.52 0 0 1 1.007-.215 9.75 9.75 0 0 1 3.889.992c2.634 1.222 3.822 2.787 3.77 3.24-.291.324-2.257.434-4.896-.787s-3.846-2.839-3.77-3.23zm1.77-2.333c-1.727-.162-3.178.229-3.727 1.427-.272.582-.496 1.813 1.078 3.455l.215.205c-5.316-1.813-12.788-2.973-21.606-3.24l.477-.153c2.162-.854 2.515-2.076 2.515-2.734s-.301-1.828-2.548-2.648c-.31-.115-.63-.21-.95-.291 9.214.215 17.631 1.532 23.896 3.76l.649.219zm-28.324-2.3c3.135 0 4.896.916 5.101 1.317-.205.401-1.99 1.35-5.163 1.36h-.076c-3.24 0-4.982-.973-5.12-1.284.129-.377 1.923-1.374 5.172-1.393h.086zm.377-16.505c9.724 0 18.027 6.146 19.573 14.291-6.26-1.159-12.616-1.723-18.981-1.684h-.539a112.49 112.49 0 0 0-19.444 1.608c1.579-8.131 9.672-14.214 19.392-14.214zm-30.853 24.616c-2.624 1.241-4.59 1.145-4.881.83-.052-.42 1.078-2.009 3.736-3.24s4.633-1.145 4.881-.845c.091.406-1.078 2.014-3.736 3.254zm-6.036 2.648a3.82 3.82 0 0 0 2.162.539h.344a11.1 11.1 0 0 0 2.725-.549c-1.045.868-1.756 2.071-2.018 3.402-1.847-1.121-3.016-2.29-3.206-3.383l-.005-.01zm12.616-3.746c-.83.258-1.579.52-2.281.787 1.298-1.241 1.975-2.634 1.403-3.865-.272-.582-1.078-1.546-3.316-1.427h-.344c5.349-2.162 13.394-3.812 24.402-4.189-.301.086-.606.172-.873.282-2.162.854-2.515 2.076-2.515 2.734 0 1.393 1.284 2.333 3.059 2.882a79.33 79.33 0 0 0-19.535 2.796zm58.194 6.838a5.67 5.67 0 0 0-1.99-3.078 9.65 9.65 0 0 0 1.565.229h.291c2.018 0 2.753-.907 3.016-1.47.086-.186.143-.382.172-.582.129.372.2.763.205 1.155 0 1.198-1.155 2.505-3.264 3.76v-.014h.005zm-22.793 4.959a42.17 42.17 0 0 1-11.008 1.298c-3.817.095-7.625-.348-11.323-1.307a1.08 1.08 0 0 0-.649 2.061c3.812 1.016 7.754 1.489 11.7 1.403h.282a44.02 44.02 0 0 0 11.571-1.384c.573-.172.897-.773.73-1.346s-.773-.897-1.346-.73l.043.005zm4.752-2.577c-.215-1.097-1.87-1.931-5.101-2.507a59.61 59.61 0 0 0-10.65-.834c-5.616 0-14.949.761-15.675 3.345l-21.176 66.985c-.143.447.215.901.792 1.012h.253c.511.011.964-.258 1.078-.642l21.195-67.007c.487-.701 5.401-1.972 13.58-1.997h.272c7.916 0 12.745 1.185 13.298 1.846l23.672 74.122c.124.384.573.646 1.078.635h.258c.577-.111.93-.565.787-1.012l-23.662-73.945zm27.265 65.013c-1.556 0-2.82-1.264-2.82-2.82s1.264-2.82 2.82-2.82 2.82 1.264 2.82 2.82a2.83 2.83 0 0 1-2.82 2.82zm0-3.488a.66.66 0 0 0-.658.658.66.66 0 0 0 .658.658.66.66 0 0 0 .658-.658.66.66 0 0 0-.658-.658zm-88.586-21.059c-1.556 0-2.82-1.264-2.82-2.82s1.264-2.82 2.82-2.82 2.82 1.264 2.82 2.82c-.01 1.556-1.269 2.815-2.82 2.82zm0-3.488a.66.66 0 0 0-.658.658.66.66 0 0 0 .658.658.66.66 0 0 0 .658-.658.66.66 0 0 0-.658-.649v-.01zm101.818.526a1.08 1.08 0 0 1-1.078-.94l-.811-4.614a33.45 33.45 0 0 0-3.502-.778c-.596 0-1.078-.482-1.078-1.078s.482-1.078 1.078-1.078a34 34 0 0 0 3.502-.778c.215-.754.573-2.853.811-4.614 0-.596.482-1.078 1.078-1.078s1.078.482 1.078 1.078l.811 4.614a33.45 33.45 0 0 0 3.502.778c.596 0 1.078.482 1.078 1.078s-.482 1.078-1.078 1.078a34 34 0 0 0-3.502.778c-.215.754-.573 2.853-.811 4.614-.072.539-.534.945-1.078.94zm-.692-7.382a1.34 1.34 0 0 1 .41.282 1.19 1.19 0 0 1 .282.42c.062-.157.157-.301.282-.42a1.34 1.34 0 0 1 .41-.282 1.34 1.34 0 0 1-.41-.282 1.19 1.19 0 0 1-.282-.42c-.062.157-.157.301-.282.42a1.4 1.4 0 0 1-.41.272v.01zm-113.45-31.511a1.08 1.08 0 0 1-1.078-.907 46.8 46.8 0 0 0-1.274-6.069 37.75 37.75 0 0 0-5.511-1.398c-.596 0-1.078-.482-1.078-1.078s.482-1.078 1.078-1.078a37.69 37.69 0 0 0 5.511-1.384 45.63 45.63 0 0 0 1.284-6.041c0-.596.482-1.078 1.078-1.078s1.078.482 1.078 1.078a46.58 46.58 0 0 0 1.284 6.084 38.47 38.47 0 0 0 5.511 1.384c.596 0 1.078.482 1.078 1.078s-.482 1.078-1.078 1.078c-1.875.31-3.722.763-5.53 1.35a46.42 46.42 0 0 0-1.284 6.084c-.086.52-.539.902-1.069.897zm-2.839-9.429c1.684.496 1.975.811 2.095.95s.358.391.744 1.837c.391-1.446.639-1.718.744-1.837s.42-.453 2.095-.95c-1.675-.496-1.966-.787-2.095-.95s-.358-.391-.744-1.837c-.391 1.446-.639 1.718-.744 1.837s-.429.449-2.095.95zm106.433-8.621c-1.556 0-2.82-1.264-2.82-2.82s1.264-2.82 2.82-2.82 2.82 1.264 2.82 2.82a2.83 2.83 0 0 1-2.82 2.82zm0-3.488a.66.66 0 0 0-.658.658.66.66 0 0 0 .658.658.66.66 0 0 0 .658-.658c0-.367-.296-.658-.658-.658z" fill-opacity=".27"/><path d="M152.073 144.797c2.281-.833 4.837.424 5.709 2.809s-.272 4.994-2.553 5.828-4.837-.424-5.709-2.809.272-4.994 2.553-5.828zm2.367 6.478c1.14-.417 1.712-1.722 1.277-2.914s-1.714-1.821-2.854-1.405-1.712 1.722-1.277 2.914 1.714 1.821 2.854 1.405zm16.472-20.596a2.25 2.25 0 0 1 2.884 1.341l10.804 29.573a2.25 2.25 0 0 1-1.341 2.884l-29.573 10.804a2.25 2.25 0 0 1-2.884-1.341l-10.804-29.573a2.25 2.25 0 0 1 1.341-2.884l29.573-10.804zm-18.383 41.433a1.12 1.12 0 0 0 .585.635c-.262-.122-.478-.342-.585-.635zm29.573-10.804l-1.158-3.171-10.512-4.887c-.563-.262-1.232-.017-1.493.546l-3.941 8.479c-.713 1.532-1.476 1.792-2.987 1.091l-2.71-1.261c-.563-.262-1.232-.017-1.493.546l-4.693 10.096a1.12 1.12 0 0 0 .857.035l27.461-10.032c.583-.213.883-.859.67-1.442zm-2.25-6.158l-7.783-21.303c-.213-.584-.859-.884-1.442-.671l-27.461 10.032c-.584.213-.884.859-.67 1.442l9.328 25.534 4.417-9.501c.523-1.128 1.86-1.617 2.987-1.091l3.729 1.732 4.416-9.496c.523-1.128 1.86-1.617 2.987-1.091l9.493 4.412z" fill-opacity=".6"/></g></svg>