<svg xmlns="http://www.w3.org/2000/svg" viewBox="0 0 300 322"  fill-rule="evenodd" stroke-linejoin="round" stroke-miterlimit="2" xmlns:v="https://vecta.io/nano"><g opacity=".6" fill="#ec6110" fill-rule="nonzero"><path d="M127.05 266.49c-2.25 0-4.47-.59-6.47-1.75-2.98-1.73-5.11-4.52-5.99-7.85-.96-3.63-.3-7.47 1.82-10.57-2.14-2.86-4.27-7.57-5.47-12.13-5.76-21.81 11.53-47.13 29.21-51.81 8.71-2.3 19.95-.25 30.07 5.49 10.68 6.06 18.31 15.21 20.93 25.11 1.21 4.57 1.69 9.71 1.24 13.25 3.38 1.65 5.85 4.65 6.81 8.28.88 3.33.41 6.81-1.33 9.79a12.87 12.87 0 0 1-7.87 5.99 12.88 12.88 0 0 1-10.68-1.88c-5.37 4.5-11.97 7.87-19.12 9.76s-14.56 2.22-21.45.96a12.91 12.91 0 0 1-8.36 6.92 13.21 13.21 0 0 1-3.34.44zm20.66-80.67c-2.26 0-4.44.26-6.46.79-15.66 4.14-31.12 27.41-26.09 46.45 1.09 4.13 3.06 8.48 4.9 10.84l1.81 2.31-1.72 2.38c-1.51 2.08-2 4.7-1.34 7.17 1.2 4.54 5.89 7.26 10.44 6.05 2.52-.67 4.57-2.42 5.63-4.81l1.26-2.83 3.04.58c6.36 1.22 13.23.93 19.87-.83 6.65-1.76 12.76-4.91 17.68-9.1l2.35-2.01 2.49 1.84c2.11 1.55 4.76 2.06 7.27 1.39 4.56-1.21 7.29-5.88 6.09-10.43-.65-2.47-2.37-4.5-4.71-5.57l-2.67-1.22.43-2.9c.44-2.96 0-7.72-1.1-11.85-4.37-16.56-23.86-28.25-39.17-28.25zm4.12 66.03c-.35 0-.71-.01-1.06-.02a2.22 2.22 0 0 1-1.52-.71c-.4-.43-.6-.99-.57-1.58a2.18 2.18 0 0 1 .71-1.52c.43-.39.98-.61 1.58-.57 2.06.09 4.15-.14 6.21-.69s4-1.38 5.74-2.47c.5-.31 1.08-.41 1.66-.28.57.13 1.05.48 1.36.97a2.17 2.17 0 0 1 .28 1.65 2.16 2.16 0 0 1-.97 1.37c-2.12 1.33-4.46 2.34-6.95 3-2.16.57-4.32.85-6.47.85zm-18.2-70.5c-2.28 0-4.7-1.21-5.88-3.09l-5.31-8.45c-.83-1.32-.75-2.25-.54-2.79.24-.61.76-1.03 1.5-1.23.46-.12 1-.15 1.6-.08l6.71.73c1.14.13 2.6-.02 4.11-.42 1.5-.4 2.84-.99 3.78-1.66l5.47-3.95c.49-.36.98-.6 1.44-.72.74-.2 1.4-.08 1.91.33.45.37.98 1.13.91 2.69l-.44 9.97c-.12 2.71-2.35 5.47-4.96 6.16l-8.81 2.33a6.26 6.26 0 0 1-1.49.18zm-5.62-10.89l3.44 5.48c.43.68 1.75 1.21 2.53 1l8.81-2.33c.78-.21 1.67-1.32 1.71-2.12l.29-6.46-2.63 1.9c-1.36.98-3.22 1.82-5.23 2.35s-4.04.73-5.7.54l-3.22-.36zm31.11 45.5c1.26-1.88 1.75-4.27 1.13-6.64-1.15-4.36-5.62-6.95-9.97-5.8l-2.35.62-.53-1.99c-.23-.85-1.1-1.36-1.95-1.13s-1.36 1.1-1.13 1.95l.53 1.99-2.42.64-.53-1.99c-.23-.85-1.1-1.36-1.95-1.13s-1.36 1.1-1.13 1.95l.53 1.99-1.96.52c-.85.23-1.36 1.1-1.13 1.95s1.1 1.36 1.95 1.13l1.96-.52 6.16 23.32-1.96.52c-.85.23-1.36 1.1-1.13 1.95s1.1 1.36 1.95 1.13l1.96-.52.55 2.1c.23.85 1.1 1.36 1.95 1.13s1.36-1.1 1.13-1.95l-.55-2.1 2.42-.64.55 2.1c.23.85 1.1 1.36 1.95 1.13s1.36-1.1 1.13-1.95l-.55-2.1 3.36-.89a8.69 8.69 0 0 0 6.18-10.61c-.84-3.11-3.25-5.37-6.15-6.16zm-12.85-8.08l4.82-1.28a4.96 4.96 0 0 1 3.77.51 4.92 4.92 0 0 1 2.3 3.02 4.96 4.96 0 0 1-.51 3.77 4.92 4.92 0 0 1-3.02 2.3l-7.85 2.08-1.74-6.57v-.01l-.8-3.03 3.03-.79zm15.34 19.22a5.46 5.46 0 0 1-3.34 2.55l-8.87 2.34-.8-3.03v-.01l-2.01-7.58 8.86-2.35a5.46 5.46 0 0 1 6.72 3.9c.39 1.49.15 2.96-.56 4.18z"/><path d="M149.23 239.66a2.09 2.09 0 0 1-2.01-1.55l-.43-1.63-1.5.4c-.54.14-1.1.07-1.57-.21a2.06 2.06 0 0 1-.96-1.26 2.08 2.08 0 0 1 1.48-2.54l1.5-.4-5.92-22.38-1.5.4c-.54.14-1.1.07-1.58-.21a2.06 2.06 0 0 1-.96-1.26 2.08 2.08 0 0 1 1.48-2.54l1.5-.4-.4-1.53c-.14-.54-.07-1.1.21-1.58a2.06 2.06 0 0 1 1.26-.96c.53-.14 1.09-.07 1.58.21a2.06 2.06 0 0 1 .96 1.26l.4 1.53 1.48-.39-.4-1.53c-.14-.54-.07-1.1.21-1.58a2.06 2.06 0 0 1 1.26-.96 2.05 2.05 0 0 1 1.57.21 2.06 2.06 0 0 1 .96 1.26l.4 1.53 1.88-.5c4.61-1.21 9.34 1.54 10.56 6.14a8.62 8.62 0 0 1-.85 6.48c2.87 1 5.09 3.36 5.87 6.31a9.18 9.18 0 0 1-6.52 11.2l-2.89.76.43 1.63a2.08 2.08 0 0 1-1.48 2.54 2.08 2.08 0 0 1-2.54-1.48l-.43-1.63-1.48.39.43 1.63a2.08 2.08 0 0 1-1.48 2.54c-.16.07-.34.1-.52.1zm-1.75-4.36l.68 2.56a1.12 1.12 0 0 0 1.36.79c.59-.16.95-.77.79-1.36l-.68-2.56 3.35-.89.68 2.56c.16.59.77.94 1.36.79.59-.16.95-.77.79-1.36l-.68-2.56 3.83-1.01c4.37-1.16 6.98-5.65 5.83-10.02-.75-2.82-2.97-5.05-5.8-5.82l-.65-.18.38-.56c1.24-1.84 1.62-4.11 1.06-6.24a7.69 7.69 0 0 0-9.38-5.46l-2.81.74-.65-2.46c-.08-.29-.26-.53-.52-.68a1.08 1.08 0 0 0-.84-.11c-.29.08-.53.26-.68.52a1.08 1.08 0 0 0-.11.84l.65 2.46-3.35.89-.65-2.46c-.08-.29-.26-.53-.52-.68a1.08 1.08 0 0 0-.84-.11c-.29.08-.53.26-.68.52a1.08 1.08 0 0 0-.11.84l.65 2.46-2.43.64c-.59.16-.95.77-.79 1.36.08.29.26.53.52.68a1.08 1.08 0 0 0 .84.11l2.43-.64 6.41 24.24-2.43.64c-.59.16-.95.77-.79 1.36.08.29.26.53.52.68a1.08 1.08 0 0 0 .84.11l2.42-.63zm1.58-2.72L146 221.03l9.33-2.47a5.93 5.93 0 0 1 4.53.61 5.91 5.91 0 0 1 2.77 3.64c.41 1.54.19 3.15-.61 4.53s-2.1 2.36-3.64 2.77l-9.32 2.47zm-1.88-10.86l2.56 9.69 8.39-2.22a4.99 4.99 0 0 0 3.05-2.32c.67-1.16.86-2.51.51-3.8a4.99 4.99 0 0 0-2.32-3.05c-1.16-.67-2.51-.85-3.8-.51l-8.39 2.21zm-1.74-2.84l-2.79-10.54 3.49-.92.12.47-.12-.47 4.82-1.28c1.41-.37 2.87-.17 4.13.56s2.16 1.91 2.53 3.32.17 2.87-.56 4.13-1.91 2.16-3.32 2.53l-8.3 2.2zm-1.61-9.85l2.29 8.67 7.38-1.95c1.16-.31 2.13-1.05 2.73-2.08a4.49 4.49 0 0 0 .46-3.4 4.44 4.44 0 0 0-2.08-2.73c-1.04-.6-2.24-.77-3.4-.46l-7.38 1.95z"/></g><path d="M142.28 136.65h.45l7.54-1.52c1.25-.24 2.07-1.46 1.82-2.71-.24-1.25-1.46-2.07-2.71-1.82l-7.54 1.52c-1.25.13-2.16 1.24-2.04 2.49s1.24 2.16 2.49 2.04h-.01zm-6 184.79c-1.25 0-2.26-1.02-2.26-2.27 0-.3.06-.6.18-.88 2.44-5.78.84-12.48-3.96-16.53a14.37 14.37 0 0 0-4.26-2.45c-1.01-.36-1.62-1.38-1.47-2.45 1.35-9.33-5.12-17.99-14.45-19.34-4.63-.67-9.33.59-13.01 3.49a2.27 2.27 0 0 1-3.03-.2 13.81 13.81 0 0 0-1.18-1.11 14.25 14.25 0 0 0-13.22-2.72 2.27 2.27 0 0 1-2.54-.93c-.47-.75-1.05-1.43-1.72-2.01a8.89 8.89 0 0 0-12.53.78c-.4.46-.76.95-1.06 1.48-.64 1.08-2.02 1.43-3.1.8-.04-.02-.08-.05-.11-.07-1.24-.83-2.77-1.1-4.21-.72a2.25 2.25 0 0 1-1.45 0l-.75-.31c-1.15-.5-1.67-1.83-1.18-2.98.14-.32.35-.6.61-.83l.23-.2a1.8 1.8 0 0 0 0-2.38 2.26 2.26 0 0 1 .05-3.2c.03-.03.06-.06.09-.08.16-.13.31-.28.45-.43 1.38-1.65 1.17-4.1-.48-5.48a3.81 3.81 0 0 0-1-.57c-.89-.39-1.44-1.3-1.36-2.26.44-3.64-2.16-6.94-5.8-7.38-.66-.08-1.33-.06-1.99.06a2.26 2.26 0 0 1-2.49-1.4c-.92-2.51-3.05-4.39-5.66-4.98a2.26 2.26 0 0 1-1.7-1.81c-.25-1.56-1.06-2.98-2.26-4.01a6.79 6.79 0 0 0-7.65-.63 2.27 2.27 0 0 1-3.08-.79c-.73-1.27-2.35-1.7-3.62-.96a3.2 3.2 0 0 0-.55.42 2.27 2.27 0 0 1-2.69.32c-.75-.43-1.7-.27-2.26.38-.41.49-.52 1.17-.29 1.77a1.71 1.71 0 0 1 0 .32c.01.14.01.27 0 .41a2.27 2.27 0 0 1-1.89 2.59c-1.07.17-2.12-.45-2.48-1.48-.07-.2-.11-.4-.14-.61-1.02-3.32.84-6.84 4.17-7.86a6.32 6.32 0 0 1 3.58-.04c2.65-1.63 6.04-1.38 8.42.61l.23.18c5.75-2.15 12.15.77 14.3 6.52a13.55 13.55 0 0 1 .23.68 12.26 12.26 0 0 1 6.79 5.73 11.17 11.17 0 0 1 11.32 10.87l.7.52c3.36 2.81 4 7.74 1.47 11.32.5 1.1.67 2.33.5 3.53a9.88 9.88 0 0 1 2.4.57 13.58 13.58 0 0 1 19.13-1.71l.02.02c.6.51 1.16 1.08 1.65 1.7 5.61-1.17 11.45.3 15.85 3.98a21.71 21.71 0 0 1 25.63 1.56c5.26 4.37 8.12 10.99 7.7 17.82a18.54 18.54 0 0 1 3.96 2.54c6.32 5.34 8.43 14.18 5.21 21.8-.36.76-1.13 1.26-1.99 1.29zm70.45 0a2.27 2.27 0 0 1-1.86-.97c-3.74-5.38-2.41-12.77 2.97-16.51 1.98-1.38 4.33-2.11 6.74-2.12.62.01 1.24.06 1.86.16a16.17 16.17 0 0 1 12.45-6.02c2.47-7.7 9.6-12.95 17.68-13.02 2.08-.01 4.15.34 6.11 1.02a13.94 13.94 0 0 1 12.47-7.72 14.95 14.95 0 0 1 3.33.41c.4-5.23 4.76-9.27 10.01-9.28 2.82 0 5.52 1.2 7.4 3.31 2.06-1.57 4.77-2.01 7.22-1.18a2.27 2.27 0 0 1 1.26 2.95 2.27 2.27 0 0 1-2.95 1.26c-.63-.25-1.81-.34-4.66 1.92a2.26 2.26 0 0 1-3.18-.36c-.09-.11-.17-.24-.24-.36-1.41-2.69-4.74-3.72-7.43-2.31a5.51 5.51 0 0 0-2.58 6.84 2.26 2.26 0 0 1-1.28 2.93c-.66.26-1.4.19-2-.17a9.29 9.29 0 0 0-4.89-1.4c-4.19.02-7.87 2.78-9.06 6.79-.36 1.2-1.62 1.88-2.82 1.52-.12-.04-.24-.08-.35-.14-1.95-.98-4.11-1.5-6.29-1.49a14.2 14.2 0 0 0-13.79 11.32c-.24 1.14-1.31 1.92-2.47 1.79h-1.31c-3.94.01-7.6 2-9.76 5.3-.55.83-1.58 1.21-2.54.93-.68-.24-1.4-.37-2.13-.36-4.05-.02-7.35 3.26-7.36 7.31-.01 1.47.43 2.91 1.25 4.13.71 1.03.46 2.44-.57 3.15-.35.22-.79.36-1.23.37zm1.43-281.91a115.89 115.89 0 0 0-12.95-3.69C192.47 15.83 172.77.36 149.68.36h-.23c-23.23 0-42.52 15.19-45.28 35.27-23.23 5-36.74 14.06-36.68 25.85 0 5.07 4.32 9.64 12.77 13.58 4.28 5.68 16.75 9.06 27.55 11.09h.41c1.25.11 2.36-.81 2.47-2.06s-.81-2.36-2.06-2.47c-17.41-3.19-25.36-7.88-25.38-10.89 0-4.53 6.04-9.06 16.62-12.23 12.13-3.71 29.43-5.73 49.81-5.82 43.31-.2 66.51 10.01 66.54 17.45 0 3.06-8.06 7.86-25.79 11.32-1.25.23-2.08 1.43-1.85 2.68s1.43 2.08 2.68 1.85c11.05-2.08 23.79-5.68 28.03-11.5h.18c8.26-4.03 12.45-8.6 12.43-13.58-.06-8.47-8.48-15.94-23.74-21.37zm-3.87 9.66c.63-.39 1.37-.55 2.11-.45 2.83.12 5.61.83 8.15 2.08 5.52 2.56 8.01 5.84 7.9 6.79-.61.68-4.73.91-10.26-1.65-5.53-2.55-8.06-5.95-7.9-6.77zM208 44.3c-3.62-.34-6.66.48-7.81 2.99-.57 1.22-1.04 3.8 2.26 7.24l.45.43c-11.14-3.8-26.8-6.23-45.28-6.79l1-.32c4.53-1.79 5.27-4.35 5.27-5.73s-.63-3.83-5.34-5.55c-.65-.24-1.32-.44-1.99-.61 19.31.45 36.95 3.21 50.08 7.88l1.36.46zm-59.36-4.82c6.57 0 10.26 1.92 10.69 2.76-.43.84-4.17 2.83-10.82 2.85h-.16c-6.79 0-10.44-2.04-10.73-2.69.27-.79 4.03-2.88 10.84-2.92h.18zm.79-34.59c20.38 0 37.78 12.88 41.02 29.95a211.47 211.47 0 0 0-39.78-3.53h-1.13a235.75 235.75 0 0 0-40.75 3.37c3.31-17.04 20.27-29.79 40.64-29.79zM84.77 56.48c-5.5 2.6-9.62 2.4-10.23 1.74-.11-.88 2.26-4.21 7.83-6.79s9.71-2.4 10.23-1.77c.19.85-2.26 4.22-7.83 6.82zm-12.65 5.55c1.36.82 2.94 1.21 4.53 1.13h.72a23.25 23.25 0 0 0 5.71-1.15 12.38 12.38 0 0 0-4.23 7.13c-3.87-2.35-6.32-4.8-6.72-7.09l-.01-.02zm26.44-7.85a79.57 79.57 0 0 0-4.78 1.65c2.72-2.6 4.14-5.52 2.94-8.1-.57-1.22-2.26-3.24-6.95-2.99h-.72c11.21-4.53 28.07-7.99 51.14-8.78-.63.18-1.27.36-1.83.59-4.53 1.79-5.27 4.35-5.27 5.73 0 2.92 2.69 4.89 6.41 6.04-13.84.24-27.59 2.21-40.94 5.86zm121.96 14.33c-.64-2.55-2.1-4.82-4.17-6.45a20.27 20.27 0 0 0 3.28.48h.61c4.23 0 5.77-1.9 6.32-3.08.18-.39.3-.8.36-1.22.27.78.42 1.6.43 2.42 0 2.51-2.42 5.25-6.84 7.88v-.03h.01zM172.75 78.9a88.38 88.38 0 0 1-23.07 2.72c-8 .2-15.98-.73-23.73-2.74-1.19-.38-2.47.29-2.84 1.48-.38 1.19.29 2.47 1.48 2.84a87.8 87.8 0 0 0 24.52 2.94h.59c8.17.11 16.33-.86 24.25-2.9 1.2-.36 1.88-1.62 1.53-2.82-.36-1.2-1.62-1.88-2.82-1.53l.09.01zm9.96-3.35c-.45-2.97-3.92-5.23-10.69-6.79a97.39 97.39 0 0 0-22.32-2.26c-11.77 0-31.33 2.06-32.85 9.06L72.47 256.99c-.3 1.21.45 2.44 1.66 2.74h.53c1.07.03 2.02-.7 2.26-1.74L121.34 76.5c1.02-1.9 11.32-5.34 28.46-5.41h.57c16.59 0 26.71 3.21 27.87 5l49.61 200.76c.26 1.04 1.2 1.75 2.26 1.72h.54c1.21-.3 1.95-1.53 1.65-2.74L182.71 75.55zm57.14 134.2c-3.26 0-5.91-2.65-5.91-5.91s2.65-5.91 5.91-5.91 5.91 2.65 5.91 5.91a5.93 5.93 0 0 1-5.91 5.91zm0-7.31c-.76 0-1.38.62-1.38 1.38s.62 1.38 1.38 1.38 1.38-.62 1.38-1.38-.62-1.38-1.38-1.38zM41.13 114.71c-3.26 0-5.91-2.65-5.91-5.91s2.65-5.91 5.91-5.91 5.91 2.65 5.91 5.91c-.02 3.26-2.66 5.9-5.91 5.91zm0-7.31c-.76 0-1.38.62-1.38 1.38s.62 1.38 1.38 1.38 1.38-.62 1.38-1.38c-.01-.75-.63-1.36-1.38-1.36v-.02zm240.31-12.81a2.26 2.26 0 0 1-2.26-1.97l-1.7-9.67c-2.41-.67-4.86-1.22-7.34-1.63a2.26 2.26 0 0 1 0-4.52c2.47-.41 4.92-.96 7.34-1.63.45-1.58 1.2-5.98 1.7-9.67a2.26 2.26 0 0 1 4.52 0l1.7 9.67c2.41.67 4.86 1.22 7.34 1.63a2.26 2.26 0 1 1 0 4.52c-2.47.41-4.92.96-7.34 1.63-.45 1.58-1.2 5.98-1.7 9.67-.15 1.13-1.12 1.98-2.26 1.97zm-1.45-15.47c.32.14.61.34.86.59a2.48 2.48 0 0 1 .59.88 2.48 2.48 0 0 1 .59-.88c.25-.25.54-.45.86-.59-.32-.14-.61-.34-.86-.59a2.48 2.48 0 0 1-.59-.88 2.48 2.48 0 0 1-.59.88 2.93 2.93 0 0 1-.86.57v.02zM23.1 39.89a2.26 2.26 0 0 1-2.26-1.9c-.61-4.3-1.5-8.55-2.67-12.72-3.77-1.27-7.63-2.24-11.55-2.93a2.26 2.26 0 1 1 0-4.52 79.02 79.02 0 0 0 11.55-2.9 95.63 95.63 0 0 0 2.69-12.66 2.26 2.26 0 1 1 4.52 0 97.62 97.62 0 0 0 2.69 12.75c3.77 1.25 7.63 2.22 11.55 2.9a2.26 2.26 0 1 1 0 4.52 79.63 79.63 0 0 0-11.59 2.83c-1.18 4.18-2.08 8.44-2.69 12.75a2.25 2.25 0 0 1-2.24 1.88zm-5.95-19.76c3.53 1.04 4.14 1.7 4.39 1.99s.75.82 1.56 3.85c.82-3.03 1.34-3.6 1.56-3.85.23-.25.88-.95 4.39-1.99-3.51-1.04-4.12-1.65-4.39-1.99s-.75-.82-1.56-3.85c-.82 3.03-1.34 3.6-1.56 3.85s-.9.94-4.39 1.99zm211.38 8.51c-3.26 0-5.91-2.65-5.91-5.91s2.65-5.91 5.91-5.91 5.91 2.65 5.91 5.91a5.93 5.93 0 0 1-5.91 5.91zm0-7.31c-.76 0-1.38.62-1.38 1.38s.62 1.38 1.38 1.38 1.38-.62 1.38-1.38c0-.77-.62-1.38-1.38-1.38z" opacity=".25" fill="#ec6110" fill-rule="nonzero"/></svg>