<svg width="54" height="61" viewBox="0 0 54 61" fill="none" xmlns="http://www.w3.org/2000/svg">
<path d="M35.6446 25.3396C35.6446 23.4361 30.9335 23.0316 28.3639 22.9602V20.7713H32.7894C33.3842 20.7713 33.8601 20.2954 33.8601 19.7006C33.8601 19.1057 33.3842 18.6299 32.7894 18.6299H21.7732C21.1783 18.6299 20.7025 19.1057 20.7025 19.7006C20.7025 20.2954 21.1783 20.7713 21.7732 20.7713H26.1987V22.9602C23.629 23.0316 18.918 23.4361 18.918 25.3396C18.918 27.2668 23.7004 27.6475 26.2701 27.7189C26.2463 27.8141 26.2225 27.933 26.2225 28.052V37.0934C26.2225 37.6882 26.6983 38.1641 27.2932 38.1641C27.888 38.1641 28.3639 37.6882 28.3639 37.0934V28.052C28.3639 27.933 28.3401 27.8379 28.3163 27.7189C30.8622 27.6475 35.6446 27.243 35.6446 25.3396ZM27.2932 26.1961C23.8194 26.1961 21.559 25.6965 20.7262 25.3396C21.4638 25.0065 23.3435 24.5782 26.2225 24.483V24.6734C26.2225 25.2682 26.6983 25.7441 27.2932 25.7441C27.888 25.7441 28.3639 25.2682 28.3639 24.6734V24.483C31.2428 24.5782 33.1225 25.0065 33.8601 25.3396C33.0273 25.6965 30.767 26.1961 27.2932 26.1961Z" fill="url(#paint0_radial)"/>
<path d="M27.2907 38.2832C26.6245 38.2832 26.101 37.7598 26.101 37.0936V28.0522C26.101 27.9808 26.101 27.9094 26.1248 27.838C23.3172 27.7429 18.8203 27.3146 18.8203 25.3397C18.8203 23.3887 23.341 22.9366 26.101 22.8415V20.8666H21.7945C21.1283 20.8666 20.6048 20.3432 20.6048 19.677C20.6048 19.0108 21.1283 18.4873 21.7945 18.4873H32.8107C33.4769 18.4873 34.0004 19.0108 34.0004 19.677C34.0004 20.3432 33.4769 20.8666 32.8107 20.8666H28.5041V22.8415C31.288 22.9366 35.7849 23.3649 35.7849 25.3397C35.7849 27.2908 31.2641 27.7429 28.4803 27.838C28.5041 27.9094 28.5041 27.9808 28.5041 28.0522V37.0936C28.4804 37.736 27.9331 38.2832 27.2907 38.2832ZM21.7707 18.7252C21.2472 18.7252 20.8189 19.1535 20.8189 19.677C20.8189 20.2004 21.2472 20.6287 21.7707 20.6287H26.3152V23.0556H26.1962C24.031 23.127 19.0107 23.4601 19.0107 25.316C19.0107 27.1718 24.0548 27.5287 26.2438 27.5763H26.4103L26.3628 27.7191C26.339 27.8142 26.3152 27.9094 26.3152 28.0046V37.046C26.3152 37.5695 26.7434 37.9977 27.2669 37.9977C27.7903 37.9977 28.2186 37.5695 28.2186 37.046V28.0046C28.2186 27.9094 28.1948 27.8142 28.171 27.7191L28.1234 27.5763H28.29C30.4552 27.5049 35.5231 27.1718 35.5231 25.316C35.5231 23.4601 30.5028 23.127 28.3376 23.0556H28.2186V20.6287H32.7631C33.2866 20.6287 33.7148 20.2004 33.7148 19.677C33.7148 19.1535 33.2866 18.7252 32.7631 18.7252H21.7707ZM27.2907 26.3153C24.0548 26.3153 21.6517 25.8632 20.6762 25.4349L20.4382 25.316L20.6762 25.197C21.4376 24.8639 23.341 24.4356 26.22 24.3404H26.339V24.6497C26.339 25.1732 26.7672 25.6015 27.2907 25.6015C27.8141 25.6015 28.2424 25.1732 28.2424 24.6497V24.3404H28.3614C31.2404 24.4356 33.1438 24.8639 33.9052 25.197L34.1431 25.316L33.9052 25.4349C32.9297 25.887 30.5028 26.3153 27.2907 26.3153ZM21.0331 25.3397C21.9372 25.6491 24.031 26.0773 27.2907 26.0773C30.5504 26.0773 32.6204 25.6491 33.5483 25.3397C32.6918 25.0304 30.9548 24.6973 28.4803 24.6022V24.6735C28.4803 25.3397 27.9569 25.8632 27.2907 25.8632C26.6245 25.8632 26.101 25.3397 26.101 24.6735V24.6022C23.6265 24.6973 21.8896 25.0304 21.0331 25.3397Z" fill="url(#paint1_radial)"/>
<path d="M27.293 42.2575C35.3589 42.2575 41.9258 35.6905 41.9258 27.6247C41.9258 19.5588 35.3589 13.0156 27.293 13.0156C19.2271 13.0156 12.6839 19.5825 12.6602 27.6484C12.6602 35.6905 19.2271 42.2575 27.293 42.2575ZM27.293 15.9184C33.7647 15.9184 39.023 21.1767 39.023 27.6484C39.023 34.1202 33.7647 39.3785 27.293 39.3785C20.8212 39.3785 15.5629 34.1202 15.5629 27.6484C15.5629 21.1767 20.8212 15.9184 27.293 15.9184Z" fill="url(#paint2_radial)"/>
<path d="M53.1784 45.9446C51.7509 43.4225 48.6339 42.4708 46.0405 43.7794L38.8073 47.2056C37.6177 45.3259 35.5715 44.1363 33.3111 44.0649L26.2445 43.8746C25.1976 43.8508 24.1745 43.5652 23.2466 43.0894L22.5328 42.7087C18.9638 40.8528 14.7286 40.7338 11.0883 42.3756L11.1121 41.5428C11.1358 40.7338 10.4934 40.0676 9.70826 40.0438L1.97547 39.8297C1.57099 39.8059 1.21408 39.9487 0.928567 40.2342C0.643048 40.5197 0.476504 40.8528 0.476504 41.2573L0.000640339 58.2456C-0.0231529 59.0546 0.619255 59.7208 1.40443 59.7446L9.16102 59.9588H9.18481C9.96999 59.9588 10.6124 59.3401 10.6362 58.555L10.66 58.0077L12.4207 57.056C13.1107 56.6991 13.8959 56.6039 14.6335 56.8181L26.6252 60.1729C26.649 60.1729 26.6966 60.1967 26.7204 60.1967C27.6245 60.387 28.5287 60.4822 29.4566 60.4822C29.4566 60.4822 29.4566 60.4822 29.4804 60.4822C31.4315 60.4822 33.3349 60.0777 35.1194 59.245C35.1908 59.2212 35.2384 59.1736 35.3098 59.1498L52.7026 47.8956C53.345 47.4435 53.5353 46.6108 53.1784 45.9446ZM26.8156 49.1091C26.0304 49.0853 25.3404 49.7277 25.3166 50.5129C25.2928 51.3218 25.9352 51.988 26.7204 52.0118L38.3315 52.3211H38.3553C39.1404 52.3211 39.7829 51.7025 39.8066 50.9173C39.8066 50.5842 39.8067 50.2511 39.7591 49.918L47.2539 46.3728C47.2777 46.3728 47.3015 46.349 47.3015 46.349C48.0391 45.9684 48.8957 45.9921 49.6095 46.3728L33.7632 56.6277C31.7408 57.5318 29.5042 57.7698 27.339 57.3415L15.3948 53.9867C13.9197 53.5584 12.3731 53.7487 11.0169 54.4625L10.7076 54.6291L10.9455 45.7066C14.0148 43.7556 17.9169 43.589 21.1528 45.2784L21.8666 45.659C23.1752 46.3253 24.6504 46.7059 26.1256 46.7535L33.1922 46.9439C34.7625 46.9915 36.0949 47.967 36.6422 49.3946L26.8156 49.1091ZM8.16171 42.899L7.78101 56.9846L2.95099 56.8418L3.33169 42.7563L8.16171 42.899Z" fill="url(#paint3_radial)"/>
<path d="M27.2912 12.1821C28.1002 12.1821 28.7426 11.5397 28.7426 10.7307V1.45139C28.7426 0.642416 28.1002 0 27.2912 0C26.4823 0 25.8398 0.642416 25.8398 1.45139V10.7307C25.8398 11.5397 26.4823 12.1821 27.2912 12.1821Z" fill="url(#paint4_radial)"/>
<path d="M34.5959 12.1821C35.4049 12.1821 36.0473 11.5397 36.0473 10.7307V6.35275C36.0473 5.54378 35.4049 4.90137 34.5959 4.90137C33.7869 4.90137 33.1445 5.54378 33.1445 6.35275V10.7545C33.1445 11.5397 33.8107 12.1821 34.5959 12.1821Z" fill="url(#paint5_radial)"/>
<path d="M19.9631 12.1821C20.7721 12.1821 21.4145 11.5397 21.4145 10.7307V6.35275C21.4145 5.54378 20.7721 4.90137 19.9631 4.90137C19.1541 4.90137 18.5117 5.54378 18.5117 6.35275V10.7545C18.5117 11.5397 19.1779 12.1821 19.9631 12.1821Z" fill="url(#paint6_radial)"/>
<defs>
<radialGradient id="paint0_radial" cx="0" cy="0" r="1" gradientUnits="userSpaceOnUse" gradientTransform="translate(27.2883 28.3835) scale(9.09344)">
<stop offset="0.1797" stop-color="#F18B3C"/>
<stop offset="0.6125" stop-color="#ED701E"/>
<stop offset="1" stop-color="#E95400"/>
</radialGradient>
<radialGradient id="paint1_radial" cx="0" cy="0" r="1" gradientUnits="userSpaceOnUse" gradientTransform="translate(27.2858 28.3836) scale(9.21207)">
<stop offset="0.1797" stop-color="#F18B3C"/>
<stop offset="0.6125" stop-color="#ED701E"/>
<stop offset="1" stop-color="#E95400"/>
</radialGradient>
<radialGradient id="paint2_radial" cx="0" cy="0" r="1" gradientUnits="userSpaceOnUse" gradientTransform="translate(27.2881 27.6317) scale(14.6243)">
<stop offset="0.1797" stop-color="#F18B3C"/>
<stop offset="0.6125" stop-color="#ED701E"/>
<stop offset="1" stop-color="#E95400"/>
</radialGradient>
<radialGradient id="paint3_radial" cx="0" cy="0" r="1" gradientUnits="userSpaceOnUse" gradientTransform="translate(26.6769 50.1373) scale(20.2258)">
<stop offset="0.1797" stop-color="#F18B3C"/>
<stop offset="0.6125" stop-color="#ED701E"/>
<stop offset="1" stop-color="#E95400"/>
</radialGradient>
<radialGradient id="paint4_radial" cx="0" cy="0" r="1" gradientUnits="userSpaceOnUse" gradientTransform="translate(27.2865 6.10476) scale(4.42423)">
<stop offset="0.1797" stop-color="#F18B3C"/>
<stop offset="0.6125" stop-color="#ED701E"/>
<stop offset="1" stop-color="#E95400"/>
</radialGradient>
<radialGradient id="paint5_radial" cx="0" cy="0" r="1" gradientUnits="userSpaceOnUse" gradientTransform="translate(34.6042 8.54401) scale(2.77546)">
<stop offset="0.1797" stop-color="#F18B3C"/>
<stop offset="0.6125" stop-color="#ED701E"/>
<stop offset="1" stop-color="#E95400"/>
</radialGradient>
<radialGradient id="paint6_radial" cx="0" cy="0" r="1" gradientUnits="userSpaceOnUse" gradientTransform="translate(19.9689 8.54401) scale(2.77546)">
<stop offset="0.1797" stop-color="#F18B3C"/>
<stop offset="0.6125" stop-color="#ED701E"/>
<stop offset="1" stop-color="#E95400"/>
</radialGradient>
</defs>
</svg>
