<svg width="40" height="35" viewBox="0 0 40 35" fill="none" xmlns="http://www.w3.org/2000/svg">
<path d="M16.4709 17.0098C16.4709 16.4712 15.9905 16 15.4415 16H9.95129C9.40227 16 8.92188 16.4712 8.92188 17.0098C8.92188 17.5483 9.40227 18.0195 9.95129 18.0195H15.4415C15.9905 18.0195 16.4709 17.5483 16.4709 17.0098Z" fill="white"/>
<path d="M16.8136 21.043H14.0685C13.5195 21.043 13.0391 21.5143 13.0391 22.053C13.0391 22.5917 13.5195 23.063 14.0685 23.063H16.8136C17.3626 23.063 17.843 22.5917 17.843 22.053C17.843 21.5143 17.3626 21.043 16.8136 21.043Z" fill="white"/>
<path d="M17.1569 17.0099C17.1569 16.4713 16.6765 16 16.1275 16H12.0099C11.4609 16 10.9805 16.4713 10.9805 17.0099C10.9805 17.5485 11.4609 18.0198 12.0099 18.0198H16.1275C16.6765 18.0198 17.1569 17.5485 17.1569 17.0099Z" fill="white"/>
<path d="M30.9508 14.0871C30.8136 14.0197 30.6763 14.0197 30.5391 14.0197H18.8038L18.5293 12.8079C18.392 12.3366 17.9802 12 17.4998 12H14.0685C13.5195 12 13.0391 12.4713 13.0391 13.0099C13.0391 13.5485 13.5195 14.0197 14.0685 14.0197H16.6763L18.5293 21.9641C18.6665 22.4353 19.0783 22.772 19.5587 22.772H20.9312H26.4214H27.794C28.2057 22.772 28.6175 22.5027 28.7548 22.166L31.4999 15.4336C31.5685 15.1643 31.5685 14.895 31.4999 14.693C31.3626 14.3564 31.1567 14.2217 30.9508 14.0871ZM29.0293 16.0395L27.1077 20.7522H20.3822L19.2842 16.0395H29.0293Z" fill="white"/>
<path d="M38.0883 4.71288H33.6275V3.02971C33.6275 1.34654 32.2549 0 30.5392 0C28.8236 0 27.451 1.34654 27.451 3.02971V4.71288H24.0196V3.02971C24.0196 1.34654 22.6471 0 20.9314 0C19.2157 0 17.8432 1.34654 17.8432 3.02971V4.71288H14.4118V3.02971C14.4118 1.34654 13.0392 0 11.3235 0C9.60785 0 8.2353 1.34654 8.2353 3.02971V4.71288H3.77451C3.22549 4.71288 2.7451 5.18416 2.7451 5.72278V28.9505H1.02941C0.480392 28.9505 0 29.4218 0 29.9604V30.6337C0 32.6535 1.71569 34.3367 3.77451 34.3367H35.3432C37.402 34.3367 39.1177 32.6535 39.1177 30.6337V5.72278C39.1177 5.18416 38.6373 4.71288 38.0883 4.71288ZM2.12745 30.9703H31.6373C31.7059 31.4416 31.8432 31.9129 32.049 32.3169H3.77451C2.95098 32.3169 2.26471 31.7109 2.12745 30.9703ZM32.5981 28.9505H4.80393V13.4654H37.0588V30.6337C37.0588 31.5763 36.3039 32.3169 35.3432 32.3169C34.3824 32.3169 33.6275 31.5763 33.6275 30.6337V29.9604C33.6275 29.4218 33.1471 28.9505 32.5981 28.9505ZM11.3235 10.7723C13.0392 10.7723 14.4118 9.42575 14.4118 7.74258V7.40595H12.353V7.74258C12.353 8.2812 11.8726 8.75248 11.3235 8.75248C10.7745 8.75248 10.2941 8.2812 10.2941 7.74258V3.02971C10.2941 2.49109 10.7745 2.0198 11.3235 2.0198C11.8726 2.0198 12.353 2.49109 12.353 3.02971V4.71288H10.9804V6.73268H17.8432V7.74258C17.8432 9.42575 19.2157 10.7723 20.9314 10.7723C22.6471 10.7723 24.0196 9.42575 24.0196 7.74258V7.40595H21.9608V7.74258C21.9608 8.2812 21.4804 8.75248 20.9314 8.75248C20.3824 8.75248 19.902 8.2812 19.902 7.74258V3.02971C19.902 2.49109 20.3824 2.0198 20.9314 2.0198C21.4804 2.0198 21.9608 2.49109 21.9608 3.02971V4.71288H20.5882V6.73268H27.451V7.74258C27.451 9.42575 28.8236 10.7723 30.5392 10.7723C32.2549 10.7723 33.6275 9.42575 33.6275 7.74258V7.40595H31.5686V7.74258C31.5686 8.2812 31.0883 8.75248 30.5392 8.75248C29.9902 8.75248 29.5098 8.2812 29.5098 7.74258V3.02971C29.5098 2.49109 29.9902 2.0198 30.5392 2.0198C31.0883 2.0198 31.5686 2.49109 31.5686 3.02971V4.71288H30.1961V6.73268H37.0588V11.4456H4.80393V6.73268H8.2353V7.74258C8.2353 9.42575 9.60785 10.7723 11.3235 10.7723Z" fill="white"/>
<path d="M19.2148 25.4176C19.2148 26.3602 19.9697 27.1008 20.9305 27.1008C21.8913 27.1008 22.6462 26.3602 22.6462 25.4176C22.6462 24.475 21.8913 23.7344 20.9305 23.7344C19.9697 23.7344 19.2148 24.475 19.2148 25.4176Z" fill="white"/>
<path d="M24.7051 25.4176C24.7051 26.3602 25.46 27.1008 26.4208 27.1008C27.3816 27.1008 28.1365 26.3602 28.1365 25.4176C28.1365 24.475 27.3816 23.7344 26.4208 23.7344C25.46 23.7344 24.7051 24.475 24.7051 25.4176Z" fill="white"/>
</svg>
