<svg width="40" height="35" viewBox="0 0 40 35" fill="none" xmlns="http://www.w3.org/2000/svg">
<path d="M37.3762 8.85617C36.7427 8.85617 36.1092 8.85617 35.4757 8.85617C33.9712 8.85617 32.4666 8.85617 30.9621 8.85617C29.1408 8.85617 27.3195 8.85617 25.4191 8.85617C24.3896 8.85617 23.3602 8.85617 22.3308 8.85617C22.41 8.77849 22.4892 8.7008 22.5683 8.62312C24.1521 7.0694 25.815 5.438 27.3987 3.88429C27.7946 3.49586 28.1114 3.18511 28.5073 2.79669C29.1408 2.1752 29.1408 1.0876 28.5073 0.466114C27.8738 -0.155371 26.8444 -0.155371 26.1317 0.466114C25.1023 1.47603 24.0729 2.48594 23.1227 3.41817C21.5389 4.97189 19.876 6.60329 18.2923 8.157C17.8964 8.54543 17.5004 8.93386 17.1837 9.32229C17.1045 9.39997 17.0253 9.47766 16.9461 9.55534C16.7878 9.7884 16.6294 10.0991 16.7086 10.4876C16.7086 10.5653 16.7086 10.6429 16.7086 10.7206C16.7877 11.0314 16.8669 11.4198 17.1837 11.6529C18.2131 12.6628 19.2425 13.6727 20.1928 14.6049C21.7765 16.1586 23.4394 17.79 25.0231 19.3437C25.4191 19.7322 25.7358 20.0429 26.1317 20.4313C26.7652 21.0528 27.8738 21.0528 28.5073 20.4313C29.1408 19.8099 29.1408 18.7999 28.5073 18.1008C27.4779 17.0909 26.4485 16.0809 25.4982 15.1487C24.4688 14.1388 23.4394 13.1289 22.3308 12.0413C23.1227 12.0413 23.9937 12.0413 24.7856 12.0413C26.6068 12.0413 28.4281 12.0413 30.3286 12.0413C31.9123 12.0413 33.4961 12.0413 35.0798 12.0413C35.8716 12.0413 36.5843 12.0413 37.3762 12.0413C38.2472 12.0413 39.0391 11.2644 39.0391 10.4099C39.0391 9.55534 38.3264 8.85617 37.3762 8.85617Z" fill="white"/>
<path d="M22.1722 23.6158C22.1722 23.2274 22.0138 22.839 21.697 22.6059C20.6676 21.596 19.6382 20.5861 18.688 19.6539C17.1042 18.1001 15.4413 16.4687 13.8576 14.915C13.4617 14.5266 13.1449 14.2159 12.749 13.8274C12.1155 13.206 11.0069 13.206 10.3734 13.8274C9.73991 14.4489 9.73991 15.4588 10.3734 16.158C11.4028 17.1679 12.4322 18.1778 13.3825 19.1101C14.4119 20.12 15.4413 21.1299 16.5499 22.2175C15.7581 22.2175 14.9662 22.2175 14.1743 22.2175C12.3531 22.2175 10.5318 22.2175 8.71049 22.2175C7.12677 22.2175 5.54304 22.2175 3.95931 22.2175C3.16745 22.2175 2.45477 22.2175 1.66291 22.2175C0.791862 22.2175 0 22.9943 0 23.8489C0.0791863 24.7034 0.712675 25.4803 1.66291 25.4803C2.2964 25.4803 2.92989 25.4803 3.56338 25.4803C5.06792 25.4803 6.57246 25.4803 8.077 25.4803C9.89829 25.4803 11.7196 25.4803 13.5409 25.4803C14.5703 25.4803 15.5997 25.4803 16.6291 25.4803C16.5499 25.558 16.4707 25.6356 16.3916 25.7133C14.8078 27.267 13.1449 28.8984 11.5612 30.4521C11.1653 30.8406 10.8485 31.1513 10.4526 31.5397C9.8191 32.1612 9.8191 33.2488 10.4526 33.8703C11.0861 34.4918 12.1155 34.4918 12.8282 33.8703C13.8576 32.8604 14.887 31.8505 15.8373 30.9183C17.421 29.3646 19.0839 27.7332 20.6676 26.1794C21.0635 25.791 21.3803 25.4803 21.7762 25.0918C21.8554 25.0142 21.9346 24.8588 22.0138 24.7811C22.1722 24.548 22.2513 24.2373 22.2513 24.0042C22.1722 23.6935 22.1722 23.6158 22.1722 23.6158Z" fill="white"/>
</svg>
