<svg width="35" height="35" viewBox="0 0 35 35" fill="none" xmlns="http://www.w3.org/2000/svg">
<path d="M18.3841 13.1802V11.9316H16.6165V13.1802C15.6266 13.5271 14.9902 14.4982 14.9902 15.5387C14.9902 16.926 16.1215 18.0359 17.5357 18.0359C17.9599 18.0359 18.3134 18.3827 18.3134 18.7989C18.3134 19.2151 17.9599 19.562 17.5357 19.562C17.1114 19.562 16.7579 19.2151 16.7579 18.7989V18.4521H14.9902V18.7989C14.9902 19.8394 15.6266 20.7412 16.6165 21.1574V22.406H18.3841V21.1574C19.374 20.8106 20.0104 19.8394 20.0104 18.7989C20.0104 17.4116 18.8791 16.3017 17.465 16.3017C17.0407 16.3017 16.6872 15.9549 16.6872 15.5387C16.6872 15.1225 17.0407 14.7757 17.465 14.7757C17.8892 14.7757 18.2427 15.1225 18.2427 15.5387V15.8855H20.0104V15.5387C20.0811 14.4982 19.374 13.5271 18.3841 13.1802Z" fill="white"/>
<path d="M31.8889 14.0813C31.8182 14.0813 31.7475 14.0813 31.6768 14.0813L29.8384 9.29505C31.0404 8.11582 31.0404 6.17358 29.8384 4.99435C29.2727 4.43943 28.4949 4.16196 27.6465 4.16196C26.798 4.16196 26.0909 4.43943 25.4545 5.06372L20.5758 3.2602C20.5758 3.19084 20.5758 3.12147 20.5758 3.05211C20.5758 1.38732 19.1616 0 17.4646 0C15.7677 0 14.3535 1.38732 14.3535 3.05211C14.3535 3.12147 14.3535 3.19084 14.3535 3.2602L9.54545 4.99435C8.90909 4.43943 8.13131 4.16196 7.35354 4.16196C6.50505 4.16196 5.72727 4.43943 5.16162 4.99435C3.9596 6.17358 3.9596 8.11582 5.16162 9.29505L3.32323 14.0813C3.25253 14.0813 3.18182 14.0813 3.11111 14.0813C1.41414 14.0813 0 15.4686 0 17.1334C0 18.7982 1.41414 20.1855 3.11111 20.1855C3.18182 20.1855 3.25253 20.1855 3.32323 20.1855L5.09091 24.9718C4.52525 25.5267 4.17172 26.2897 4.17172 27.1221C4.17172 27.9545 4.52525 28.7175 5.09091 29.2725C5.65657 29.8274 6.43434 30.1742 7.28283 30.1742C8.13131 30.1742 8.83838 29.8968 9.47475 29.2725L14.3535 31.076C14.3535 31.1453 14.3535 31.2147 14.3535 31.2841C14.3535 32.9489 15.7677 34.3362 17.4646 34.3362C19.1616 34.3362 20.5758 32.9489 20.5758 31.2841C20.5758 31.2147 20.5758 31.1453 20.5758 31.076L25.4545 29.2725C26.0202 29.8274 26.798 30.1742 27.6465 30.1742C28.4949 30.1742 29.2727 29.8274 29.8384 29.2725C31.0404 28.0932 31.0404 26.151 29.8384 24.9718L31.6768 20.1855C31.7475 20.1855 31.8182 20.1855 31.8889 20.1855C33.5859 20.1855 35 18.7982 35 17.1334C35 15.4686 33.5859 14.0813 31.8889 14.0813ZM4.45455 17.1334C4.45455 17.8271 3.88889 18.4514 3.11111 18.4514C2.33333 18.4514 1.76768 17.8964 1.76768 17.1334C1.76768 16.4397 2.33333 15.8155 3.11111 15.8155C3.88889 15.8155 4.45455 16.4397 4.45455 17.1334ZM26.7273 26.2204C27.0101 25.9429 27.2929 25.8735 27.6465 25.8735C28 25.8735 28.3535 26.0123 28.5657 26.2204C29.0606 26.7059 29.0606 27.5383 28.5657 28.0239C28.0707 28.5094 27.2222 28.5094 26.7273 28.0239C26.2323 27.5383 26.2323 26.7059 26.7273 26.2204ZM24.6768 27.7464L20.0101 29.4112C19.5859 28.9256 19.0202 28.5094 18.4545 28.3013V24.4168C19.798 24.2781 21.1414 23.7232 22.202 22.8908L24.9596 25.5961C24.6061 26.2897 24.4646 27.0528 24.6768 27.7464ZM10.1111 25.6654L12.8687 22.9602C13.9293 23.7925 15.2727 24.3475 16.6162 24.4862V28.3707C15.9798 28.5788 15.4141 28.9256 15.0606 29.4806L10.3939 27.7464C10.5354 27.0528 10.3939 26.2897 10.1111 25.6654ZM6.43434 26.2204C6.71717 25.9429 7 25.8735 7.35354 25.8735C7.70707 25.8735 8.06061 26.0123 8.27273 26.2204C8.55556 26.4978 8.62626 26.7753 8.62626 27.1221C8.62626 27.4689 8.48485 27.8158 8.27273 28.0239C7.77778 28.5094 6.85859 28.5094 6.43434 28.0239C5.86869 27.5383 5.86869 26.7059 6.43434 26.2204ZM8.27273 8.11582C7.77778 8.60139 6.85859 8.60139 6.43434 8.11582C5.93939 7.63026 5.93939 6.79787 6.43434 6.31231C6.92929 5.82675 7.77778 5.82675 8.27273 6.31231C8.55556 6.58977 8.62626 6.86724 8.62626 7.21407C8.62626 7.5609 8.48485 7.83836 8.27273 8.11582ZM10.3939 6.58977L15.0606 4.85562C15.4848 5.34118 16.0505 5.75738 16.6162 5.96548V9.84998C15.2727 9.98871 13.9293 10.5436 12.8687 11.376L10.1111 8.67075C10.3939 7.97709 10.5354 7.28343 10.3939 6.58977ZM24.9596 8.60139L22.202 11.3067C21.1414 10.4743 19.798 9.91934 18.4545 9.78061V5.96548C19.0909 5.75738 19.6566 5.41055 20.0101 4.85562L24.6768 6.52041C24.4646 7.28343 24.6061 7.97709 24.9596 8.60139ZM28.6364 8.11582C28.1414 8.60139 27.2929 8.60139 26.798 8.11582C26.303 7.63026 26.303 6.79787 26.798 6.31231C27.2222 5.75738 28.1414 5.75738 28.6364 6.24294C29.1313 6.79787 29.1313 7.5609 28.6364 8.11582ZM26.2323 24.4168L23.4747 21.7116C24.3232 20.6711 24.8889 19.3531 25.0303 18.0352H28.9899C29.202 18.6595 29.5556 19.2144 30.1212 19.5612L28.4242 24.1394C27.5051 24.0006 26.798 24.1394 26.2323 24.4168ZM28.2828 10.1274L29.9798 14.7056C29.4848 15.1218 29.0606 15.6767 28.8485 16.2316H24.8889C24.7475 14.9137 24.1818 13.5957 23.3333 12.5553L26.0909 9.84998C26.8687 10.1968 27.5758 10.3355 28.2828 10.1274ZM17.5354 22.8214C14.3535 22.8214 11.8081 20.3242 11.8081 17.2028C11.8081 14.0813 14.3535 11.5841 17.5354 11.5841C20.7172 11.5841 23.2626 14.0813 23.2626 17.2028C23.2626 20.3242 20.6465 22.8214 17.5354 22.8214ZM17.5354 4.37006C16.8283 4.37006 16.1919 3.81513 16.1919 3.05211C16.1919 2.28908 16.7576 1.73415 17.5354 1.73415C18.2424 1.73415 18.8788 2.28908 18.8788 3.05211C18.8788 3.81513 18.2424 4.37006 17.5354 4.37006ZM7.35354 24.07C7.14141 24.07 6.92929 24.07 6.71717 24.1394L5.0202 19.5612C5.51515 19.145 5.93939 18.5901 6.15152 18.0352H10.1111C10.2525 19.3531 10.8182 20.6711 11.6667 21.7116L8.83838 24.4168C8.34343 24.2087 7.84848 24.07 7.35354 24.07ZM8.83838 9.84998L11.596 12.5553C10.7475 13.5957 10.1818 14.9137 10.0404 16.2316H6.08081C5.86869 15.6074 5.51515 15.0524 4.94949 14.7056L6.64646 10.1274C7.49495 10.3355 8.20202 10.1968 8.83838 9.84998ZM17.5354 29.9661C18.2424 29.9661 18.8788 30.5211 18.8788 31.2841C18.8788 32.0471 18.3131 32.602 17.5354 32.602C16.8283 32.602 16.1919 32.0471 16.1919 31.2841C16.1919 30.5211 16.7576 29.9661 17.5354 29.9661ZM31.8889 18.4514C31.1818 18.4514 30.5455 17.8964 30.5455 17.1334C30.5455 16.4397 31.1111 15.8155 31.8889 15.8155C32.6667 15.8155 33.2323 16.3704 33.2323 17.1334C33.2323 17.8964 32.596 18.4514 31.8889 18.4514Z" fill="white"/>
<path d="M22.84 16.3008H21.0723V18.0349H22.84V16.3008Z" fill="white"/>
<path d="M13.9298 16.3008H12.1621V18.0349H13.9298V16.3008Z" fill="white"/>
</svg>
