<svg width="36" height="35" viewBox="0 0 36 35" fill="none" xmlns="http://www.w3.org/2000/svg">
<path d="M27.8564 18.3366C27.4956 18.2658 27.2069 18.2658 26.8461 18.4074C26.5575 18.549 26.341 18.8322 26.1966 19.1862C25.042 22.9385 21.5059 25.558 17.4647 25.558C13.4956 25.558 9.88734 22.9385 8.7327 19.1862C8.51621 18.4782 7.79456 18.1242 7.07291 18.3366C6.35126 18.549 5.99043 19.257 6.20693 19.965C7.65023 24.85 12.2688 28.2483 17.4647 28.2483C22.6605 28.2483 27.2791 24.85 28.7224 19.965C28.9389 19.257 28.5059 18.549 27.8564 18.3366Z" fill="white"/>
<path d="M8.4407 13.1691L11.2551 10.408L14.0696 13.1691C14.286 13.3815 14.6469 13.5231 15.0077 13.5231C15.3685 13.5231 15.6572 13.3815 15.9458 13.1691C16.451 12.6735 16.451 11.824 15.9458 11.3284L12.1933 7.64695C11.9768 7.43456 11.616 7.29297 11.2551 7.29297C10.8943 7.29297 10.6056 7.43456 10.317 7.64695L6.56441 11.3284C6.05926 11.824 6.05926 12.6735 6.56441 13.1691C7.14173 13.6647 7.93555 13.6647 8.4407 13.1691Z" fill="white"/>
<path d="M23.743 7.29297C23.3821 7.29297 23.0935 7.43456 22.8048 7.64695L19.0522 11.3284C18.8357 11.5408 18.6914 11.8947 18.6914 12.2487C18.6914 12.6027 18.8357 12.8859 19.0522 13.1691C19.5574 13.6647 20.4234 13.6647 20.9285 13.1691L23.743 10.408L26.5574 13.1691C26.7739 13.3815 27.1347 13.5231 27.4955 13.5231C27.8563 13.5231 28.145 13.3815 28.4337 13.1691C28.6502 12.9567 28.7945 12.6027 28.7945 12.2487C28.7945 11.8947 28.6502 11.6116 28.4337 11.3284L24.6811 7.64695C24.3924 7.43456 24.1038 7.29297 23.743 7.29297Z" fill="white"/>
<path d="M17.5361 0C7.86598 0 0 7.71679 0 17.1327C0 26.5486 7.86598 34.3362 17.5361 34.3362C27.2062 34.3362 35.0721 26.6194 35.0721 17.1327C35.0721 7.646 27.134 0 17.5361 0ZM17.5361 31.7875C9.30927 31.7875 2.67011 25.2743 2.67011 17.2035C2.67011 9.13272 9.30927 2.54867 17.5361 2.54867C25.7629 2.54867 32.402 9.06192 32.402 17.1327C32.402 25.2035 25.6907 31.7875 17.5361 31.7875Z" fill="white"/>
</svg>
