<svg width="61" height="61" viewBox="0 0 61 61" fill="none" xmlns="http://www.w3.org/2000/svg">
<path d="M57.7244 17.8302C59.4179 15.919 60.4824 13.3787 60.4824 10.6933C60.4824 4.76601 55.6438 0 49.7891 0C47.0311 0 44.5634 0.991912 42.6522 2.68542C38.7329 0.991912 34.5718 0.0725789 30.1928 0.0725789C13.5239 0.0725789 0 13.5964 0 30.2896C0 46.9827 13.5239 60.4824 30.1928 60.4824C46.8618 60.4824 60.3856 46.9586 60.3856 30.3622C60.3856 26.0558 59.4663 21.9188 57.7728 18.0721C57.797 17.9754 57.7244 17.9028 57.7244 17.8302ZM30.1928 57.4099C24.6526 57.4099 19.4995 55.789 15.2174 52.9584C15.2174 52.8132 15.29 52.6439 15.29 52.5713C15.29 44.3457 21.9672 37.6685 30.1928 37.6685C38.4184 37.6685 45.0957 44.3457 45.0957 52.5713C45.0957 52.7165 45.0957 52.8858 45.1683 52.9584C40.8861 55.789 35.733 57.4099 30.1928 57.4099ZM23.443 27.0477C23.443 23.2736 26.5155 20.2737 30.217 20.2737C33.9185 20.2737 36.991 23.2736 36.991 27.0477C36.991 30.5073 34.4508 33.3379 31.0638 33.725C30.7493 33.725 30.5315 33.7976 30.217 33.7976C29.9025 33.7976 29.6848 33.7976 29.3703 33.725C25.9832 33.3621 23.443 30.4348 23.443 27.0477ZM48.7972 50.0311C47.8779 43.1844 43.257 37.4991 37.0394 35.0556C39.3378 33.1444 40.8135 30.217 40.8135 27.0719C40.8135 21.2414 36.0475 16.4754 30.217 16.4754C24.3865 16.4754 19.5963 21.1447 19.5963 26.9752C19.5963 30.1928 21.0479 33.1202 23.3704 35.0556C17.1286 37.4991 12.532 43.1844 11.6126 50.0311C6.38694 45.1199 3.07251 38.0313 3.07251 30.2896C3.07251 15.29 15.2174 3.14509 30.1928 3.14509C33.7976 3.14509 37.3297 3.91926 40.5716 5.22568C39.6523 6.84661 39.12 8.68528 39.12 10.6933C39.12 16.6206 43.9586 21.3866 49.8133 21.3866C51.8213 21.3866 53.66 20.8543 55.2809 19.8382C56.6599 23.1527 57.3615 26.6123 57.3615 30.2896C57.3373 38.0313 54.0229 45.1199 48.7972 50.0311ZM49.7891 18.3625C45.5554 18.3625 42.1925 14.9754 42.1925 10.7659C42.1925 6.55629 45.6521 3.14509 49.7891 3.14509C53.9261 3.14509 57.3857 6.5321 57.3857 10.7417C57.3857 14.9513 54.0229 18.3625 49.7891 18.3625Z" fill="url(#paint0_radial)"/>
<path d="M54.4844 10.6942C54.4844 11.5409 53.7828 12.2425 52.9361 12.2425H51.2425V13.936C51.2425 14.7828 50.5409 15.4844 49.6942 15.4844C48.8474 15.4844 48.1458 14.7828 48.1458 13.936V12.2425H46.5249C45.6782 12.2425 44.9766 11.5409 44.9766 10.6942C44.9766 9.84744 45.6782 9.14584 46.5249 9.14584H48.1458V7.52491C48.1458 6.67816 48.8474 5.97656 49.6942 5.97656C50.5409 5.97656 51.2425 6.67816 51.2425 7.52491V9.14584H52.9361C53.807 9.14584 54.4844 9.84744 54.4844 10.6942Z" fill="url(#paint1_radial)"/>
<defs>
<radialGradient id="paint0_radial" cx="0" cy="0" r="1" gradientUnits="userSpaceOnUse" gradientTransform="translate(30.2412 30.2412) scale(30.2412)">
<stop offset="0.1797" stop-color="#F18B3C"/>
<stop offset="0.6125" stop-color="#ED701E"/>
<stop offset="1" stop-color="#E95400"/>
</radialGradient>
<radialGradient id="paint1_radial" cx="0" cy="0" r="1" gradientUnits="userSpaceOnUse" gradientTransform="translate(49.7634 10.7217) scale(4.72639)">
<stop offset="0.1797" stop-color="#F18B3C"/>
<stop offset="0.6125" stop-color="#ED701E"/>
<stop offset="1" stop-color="#E95400"/>
</radialGradient>
</defs>
</svg>
