<svg xmlns="http://www.w3.org/2000/svg" width="50" height="35" xmlns:v="https://vecta.io/nano"><radialGradient id="A" cx="-747.415" cy="453.851" r="1" gradientTransform="matrix(5.0076 0 0 -5.0045 3760.8245 2290.6921)" gradientUnits="userSpaceOnUse"><stop offset=".18" stop-color="#f18b3c"/><stop offset=".613" stop-color="#ed701e"/><stop offset="1" stop-color="#e95400"/></radialGradient><path fill="url(#A)" d="M17 24.5v.1a.94.94 0 0 0 1 1 .94.94 0 0 0 1-1v-.1c.8-.2 1.5-.8 1.8-1.5.7-1.5.1-3.3-1.4-4l-2-1c-.3-.1-.5-.4-.5-.8 0-.5.4-.9.9-.9h.3c.5 0 .9.4.9.9v.1a.94.94 0 0 0 1 1 .94.94 0 0 0 1-1v-.1c0-1.3-.9-2.5-2.1-2.8v-.1a.94.94 0 0 0-1-1 .94.94 0 0 0-1 1v.1c-.8.2-1.5.8-1.8 1.5-.7 1.5-.1 3.3 1.4 4l2 1c.3.1.5.4.5.8 0 .5-.4.9-.9.9h-.3c-.5 0-.9-.4-.9-.9v-.1a.94.94 0 0 0-1-1 .94.94 0 0 0-1 1v.1c.1 1.2.9 2.4 2.1 2.8z"/><radialGradient id="B" cx="-791.246" cy="478.316" r="1" gradientTransform="matrix(6.5452 0 0 -6.5412 5196.9312 3162.5337)" gradientUnits="userSpaceOnUse"><stop offset=".18" stop-color="#f18b3c"/><stop offset=".613" stop-color="#ed701e"/><stop offset="1" stop-color="#e95400"/></radialGradient><path fill="url(#B)" d="M26.1 32.5h-16c-.7 0-1.2.6-1.2 1.2 0 .7.5 1.2 1.2 1.2h16.1c.7 0 1.2-.6 1.2-1.2-.1-.6-.7-1.2-1.3-1.2z"/><radialGradient id="C" cx="-881.018" cy="528.424" r="1.002" gradientTransform="matrix(17.6344 0 0 -17.6237 15554.2803 9330.293)" gradientUnits="userSpaceOnUse"><stop offset=".18" stop-color="#f18b3c"/><stop offset=".613" stop-color="#ed701e"/><stop offset="1" stop-color="#e95400"/></radialGradient><path fill="url(#C)" d="M34.5 27.6H32V11.3h2.5c.6 0 1.1-.4 1.2-.9.1-.6-.1-1.2-.7-1.4L18.6.2c-.4-.2-.8-.2-1.2 0L1 8.9c-.5.3-.7.9-.7 1.4.1.6.7.9 1.2.9h2.6v16.2H1.6c-.7 0-1.2.6-1.2 1.2v5c0 .7.6 1.2 1.2 1.2h5c.7 0 1.2-.6 1.2-1.2s-.6-1.2-1.2-1.2H2.8V30h30.5v2.5h-3.8c-.7 0-1.2.6-1.2 1.2s.5 1.2 1.2 1.2h5c.7 0 1.2-.6 1.2-1.2v-5c.2-.6-.4-1.1-1.2-1.1zm-5 0H6.7V11.2h22.8v16.4zM14 8.7H6.7l11.4-6.1 11.4 6.1H14.3"/><radialGradient id="D" cx="-774.264" cy="467.442" r="1.001" gradientTransform="matrix(6.1022 0 0 -5.9767 4769.4507 2821.262)" gradientUnits="userSpaceOnUse"><stop offset=".18" stop-color="#f18b3c"/><stop offset=".613" stop-color="#ed701e"/><stop offset="1" stop-color="#e95400"/></radialGradient><path fill="url(#D)" d="M48.5 23l-2.6-2.5c-.6-.6-1.6-.6-2.3 0l-1 .9-1.6 1.5c-.4.4-.3 1 .1 1.4.4.3 1 .3 1.4 0l1.3-1.3v2c-.7.2-1.2.7-1.5 1.3-.7 1.3-.1 2.9 1.2 3.5l1.8.9c.3.1.5.4.5.7 0 .4-.3.8-.8.8h-.3c-.5 0-.8-.3-.8-.8v-.1c0-.5-.4-.9-1-.9-.5 0-1 .4-1 .9v.1a2.58 2.58 0 0 0 1.9 2.5v.1c0 .5.4.9 1 .9s1-.4 1-.9v-.1c.7-.2 1.3-.7 1.6-1.3.7-1.3.1-2.9-1.2-3.5l-1.8-.9c-.3-.1-.5-.4-.5-.7 0-.4.3-.8.8-.8h.3c.5 0 .8.3.8.8v.1c0 .5.4.9 1 .9.5 0 1-.4 1-.9v-.2c0-1.1-.7-2.1-1.9-2.5v-2l1.3 1.3a1.08 1.08 0 0 0 .7.3c.3 0 .5-.1.7-.3s.3-.4.3-.7c-.2-.1-.3-.3-.4-.5z"/><radialGradient id="E" cx="-765.171" cy="470.374" r=".999" gradientTransform="matrix(5.775 0 0 -5.948 4463.6401 2805.2996)" gradientUnits="userSpaceOnUse"><stop offset=".18" stop-color="#f18b3c"/><stop offset=".613" stop-color="#ed701e"/><stop offset="1" stop-color="#e95400"/></radialGradient><path fill="url(#E)" d="M48.2 10.7a1.05 1.05 0 0 0-1.3 0L45.7 12V9.9c.6-.2 1.2-.7 1.4-1.3A2.72 2.72 0 0 0 46 5.1l-1.7-.9c-.3-.1-.4-.4-.4-.7 0-.4.3-.8.7-.8h.3c.4 0 .7.3.7.8v.1c0 .5.4.9.9.9s.9-.4.9-.9v-.1c0-1.1-.7-2.2-1.8-2.5V.9c0-.5-.4-.9-.9-.9s-.9.4-.9.9V1a2.73 2.73 0 0 0-1.5 1.3 2.72 2.72 0 0 0 1.1 3.5l1.7.9c.3.1.4.4.4.7 0 .4-.3.8-.7.8h-.2c-.4 0-.7-.3-.7-.8v-.1c0-.5-.4-.9-.9-.9s-1 .4-1 .9v.1c0 1.1.7 2.1 1.7 2.4v2.1l-1.2-1.2c-.4-.4-1-.4-1.3-.1a1.07 1.07 0 0 0-.1 1.4l2.5 2.5c.3.3.7.4 1.1.4s.7-.2 1.1-.4l2.4-2.4c.4-.4.4-1 0-1.4z"/></svg>