<svg width="50" height="60" viewBox="0 0 50 60" fill="none" xmlns="http://www.w3.org/2000/svg">
<path d="M45.6753 8.26739L44.5293 8.02183C41.5825 7.44884 38.6357 6.63029 35.8527 5.40246C32.9059 4.17462 30.1228 2.70123 27.4216 1.06412C25.8663 0.245566 25.457 0 24.5566 0C23.6562 0 23.2469 0.245566 21.6917 1.14598C18.9904 2.78308 16.1255 4.25648 13.1787 5.48431C9.49522 6.87585 5.56617 8.02183 1.63711 8.84038C1.06412 8.92224 0.654843 9.24966 0.327422 9.74079C0.163711 9.98636 0 10.3138 0 10.7231V33.2333C0.0818554 38.6357 4.01091 44.6112 12.0327 51.4052C16.6985 55.3342 23.4106 60 24.5566 60C25.7026 60 32.5784 55.2524 37.1623 51.487C45.1842 44.6112 49.1132 38.6357 49.1132 33.1514V13.7517C49.1132 9.08595 49.1132 9.00409 45.6753 8.26739ZM45.3479 12.3602C45.3479 12.6057 45.3479 13.015 45.3479 13.6699V33.1514C45.3479 37.4079 41.6644 42.7285 34.7067 48.5402C32.251 50.5866 29.7135 52.4693 27.0941 54.2701C26.3574 54.7613 25.5389 55.3342 24.6385 55.9072C23.9836 55.498 23.0832 54.925 22.1828 54.2701C19.5634 52.4693 17.0259 50.5866 14.6521 48.5402C7.69441 42.6467 4.01091 37.3261 3.92906 33.1514V12.2783C7.69441 11.4598 11.3779 10.3138 14.9795 8.92224C18.09 7.61255 21.1187 6.0573 23.9836 4.33834C24.2292 4.17462 24.4748 4.01091 24.8022 3.8472C25.0477 4.01091 25.2933 4.17462 25.6207 4.33834C28.4857 6.0573 31.5143 7.61255 34.543 8.92224C37.5716 10.2319 40.764 11.1323 44.0382 11.7053C44.6112 11.7872 44.8568 11.869 45.1023 11.9509C45.266 11.9509 45.3479 11.9509 45.4297 11.9509C45.5116 11.9509 45.5116 11.9509 45.5116 11.9509C45.3479 12.0327 45.3479 12.1965 45.3479 12.3602Z" fill="url(#paint0_radial)"/>
<path d="M17.6808 25.8663C16.6167 24.8022 15.0614 24.8022 13.9973 25.8663C12.9332 26.9304 12.9332 28.4857 13.9973 29.5498L20.3002 35.8527C20.7094 36.2619 21.4461 36.5894 22.101 36.5894C22.8377 36.5894 23.4107 36.2619 23.9018 35.6889L35.116 23.4106C36.1801 22.3465 36.0164 20.7913 34.9523 19.8909C33.8882 18.8267 32.3329 18.9905 31.4325 20.0546L21.9373 30.2865L17.6808 25.8663Z" fill="url(#paint1_radial)"/>
<defs>
<radialGradient id="paint0_radial" cx="0" cy="0" r="1" gradientUnits="userSpaceOnUse" gradientTransform="translate(24.5566 29.9899) scale(27.4082)">
<stop offset="0.1797" stop-color="#F18B3C"/>
<stop offset="0.6125" stop-color="#ED701E"/>
<stop offset="1" stop-color="#E95400"/>
</radialGradient>
<radialGradient id="paint1_radial" cx="0" cy="0" r="1" gradientUnits="userSpaceOnUse" gradientTransform="translate(24.4929 27.9659) scale(10.0703)">
<stop offset="0.1797" stop-color="#F18B3C"/>
<stop offset="0.6125" stop-color="#ED701E"/>
<stop offset="1" stop-color="#E95400"/>
</radialGradient>
</defs>
</svg>
