<svg xmlns="http://www.w3.org/2000/svg" viewBox="0 0 512 348.85"><defs><style>.cls-1,.cls-2,.cls-4{fill:#ec6110;}.cls-1{opacity:0.6;}.cls-1,.cls-2,.cls-3,.cls-5{isolation:isolate;}.cls-2,.cls-3{opacity:0.25;}.cls-5{opacity:0.5;}</style></defs><g id="Слой_2" data-name="Слой 2"><g id="Outline"><path class="cls-1" d="M275.21,263.6l125.88-21.14a12.79,12.79,0,0,0,10.48-14.71l-12.69-75.53a12.78,12.78,0,0,0-14.7-10.47L258.3,162.9a12.78,12.78,0,0,0-10.48,14.7l12.69,75.53A12.77,12.77,0,0,0,275.21,263.6Zm-22.35-86.84a7.66,7.66,0,0,1,6.28-8.82L385,146.79a7.66,7.66,0,0,1,8.82,6.28l12.69,75.53a7.66,7.66,0,0,1-6.28,8.82L274.37,258.57a7.67,7.67,0,0,1-8.82-6.28Z"/><path class="cls-1" d="M275.13,201.49l10.07-1.69a7.68,7.68,0,0,0,6.29-8.82l-1.69-10.07a7.69,7.69,0,0,0-8.83-6.29l-10.07,1.69a7.68,7.68,0,0,0-6.28,8.83l1.69,10.07A7.67,7.67,0,0,0,275.13,201.49Zm-3.38-20.14,10.07-1.69a2.55,2.55,0,0,1,2.94,2.09l.42,2.52-2.51.42a2.55,2.55,0,0,0,.84,5l2.52-.43.42,2.52a2.55,2.55,0,0,1-2.09,2.94l-10.07,1.69a2.54,2.54,0,0,1-2.94-2.09l-.43-2.52,2.52-.42a2.55,2.55,0,1,0-.84-5l-2.52.43-.42-2.52A2.54,2.54,0,0,1,271.75,181.35Z"/><path class="cls-1" d="M276,237.58l37.76-6.34a2.55,2.55,0,1,0-.84-5l-37.77,6.35a2.55,2.55,0,0,0,.85,5Z"/><path class="cls-1" d="M277.71,247.65l50.35-8.46h0a2.55,2.55,0,1,0-.84-5l-50.35,8.46h0a2.55,2.55,0,1,0,.84,5Z"/><path class="cls-1" d="M376.74,236.19a12.69,12.69,0,0,0,6-2.75,12.77,12.77,0,1,0-3.66-21.79,12.76,12.76,0,1,0-2.35,24.54Zm18-16a7.65,7.65,0,0,1-8.61,8.85,12.73,12.73,0,0,0-2.42-14.4A7.65,7.65,0,0,1,394,218,7.93,7.93,0,0,1,394.77,220.22Zm-21.41-4.17a7.66,7.66,0,1,1-6.28,8.82A7.66,7.66,0,0,1,373.36,216.05Z"/><path class="cls-1" d="M382.22,183.23a2.56,2.56,0,0,0,3.19-1.69h0a28.9,28.9,0,0,0,.9-11.66,28.85,28.85,0,0,0-4.66-10.73,2.55,2.55,0,0,0-4.13,3,24.25,24.25,0,0,1,3.76,8.57,24.11,24.11,0,0,1-.75,9.33A2.55,2.55,0,0,0,382.22,183.23Z"/><path class="cls-1" d="M360.5,181.21a2.55,2.55,0,0,0,3.56-.6h0c.28-.38,2.69-3.9,2.11-7.36s-4-6-4.4-6.27a2.56,2.56,0,0,0-3,4.16,6.29,6.29,0,0,1,2.33,3,6.3,6.3,0,0,1-1.23,3.55,2.55,2.55,0,0,0,.6,3.56Z"/><path class="cls-1" d="M272.64,217.44l15.1-2.54a2.55,2.55,0,1,0-.84-5l-15.11,2.54a2.55,2.55,0,0,0,.85,5Z"/><path class="cls-1" d="M302.85,212.37l15.1-2.54a2.55,2.55,0,1,0-.84-5L302,207.33a2.56,2.56,0,0,0,.85,5Z"/><path class="cls-1" d="M333.06,207.29l15.1-2.54a2.55,2.55,0,1,0-.84-5l-15.11,2.53a2.56,2.56,0,0,0,.85,5Z"/><path class="cls-1" d="M363.27,202.21l15.11-2.53a2.56,2.56,0,0,0-.85-5l-15.11,2.54a2.55,2.55,0,0,0,.85,5Z"/><path class="cls-1" d="M371.42,162.77a2.55,2.55,0,1,0-3,4.16,9,9,0,0,1,2.75,5.48,8.82,8.82,0,0,1-.84,6.1l0,0h0a2.55,2.55,0,0,0,4.16,3h0c.28-.39,2.68-4,1.69-9.88S371.81,163.05,371.42,162.77Z"/><path class="cls-2" d="M497.72,278.93H478.05v-245A33.92,33.92,0,0,0,444.16,0H67.93A33.92,33.92,0,0,0,34.05,33.88V278.93H14.28A14.29,14.29,0,0,0,0,293.2v30.18a25.5,25.5,0,0,0,25.47,25.47H97.18a7.51,7.51,0,0,0,0-15H25.47A10.48,10.48,0,0,1,15,323.38V293.93H201.13l5.57,15.88A17.34,17.34,0,0,0,223,321.39h66a17.34,17.34,0,0,0,16.33-11.58L311,293.93H497v29.45a10.48,10.48,0,0,1-10.47,10.46h-355a7.51,7.51,0,0,0,0,15h355A25.5,25.5,0,0,0,512,323.38V293.2a14.29,14.29,0,0,0-14.28-14.27ZM291.24,304.85a2.31,2.31,0,0,1-2.17,1.54H223a2.32,2.32,0,0,1-2.18-1.54L217,293.93h78ZM463,278.93H443.66V47.45a13.35,13.35,0,0,0-13.33-13.33H341.56a7.5,7.5,0,0,0,0,15h87.1V278.93H83.44V49.12h223a7.5,7.5,0,0,0,0-15H81.76A13.34,13.34,0,0,0,68.44,47.45V278.93H49.05v-245A18.9,18.9,0,0,1,67.93,15H444.16A18.9,18.9,0,0,1,463,33.89Z"/><g class="cls-3"><path class="cls-4" d="M298.94,144.2H239.29a3.8,3.8,0,1,1,0-7.59h59.65a3.8,3.8,0,1,1,0,7.59Z"/><path class="cls-4" d="M321.14,109.77h-201a3.8,3.8,0,1,1,0-7.59h201a3.8,3.8,0,1,1,0,7.59Z"/><path class="cls-4" d="M163.41,96.24a11.81,11.81,0,1,1,11.81-11.81A11.83,11.83,0,0,1,163.41,96.24Zm0-16a4.22,4.22,0,1,0,4.22,4.22A4.23,4.23,0,0,0,163.41,80.21Z"/><path class="cls-4" d="M136.05,96.24a11.81,11.81,0,1,1,11.82-11.81A11.83,11.83,0,0,1,136.05,96.24Zm0-16a4.22,4.22,0,1,0,4.22,4.22A4.23,4.23,0,0,0,136.05,80.21Z"/><path class="cls-4" d="M190.76,96.24a11.81,11.81,0,1,1,11.81-11.81A11.82,11.82,0,0,1,190.76,96.24Zm0-16A4.22,4.22,0,1,0,195,84.43,4.22,4.22,0,0,0,190.76,80.21Z"/></g><g class="cls-3"><path class="cls-4" d="M252.19,249.47h-118a17.92,17.92,0,0,1-17.9-17.9V84.43a17.92,17.92,0,0,1,17.9-17.9H307.72a17.92,17.92,0,0,1,17.9,17.9v58.38l7.59-1.36v-57a25.52,25.52,0,0,0-25.49-25.49H134.17a25.51,25.51,0,0,0-25.49,25.49V231.57a25.52,25.52,0,0,0,25.49,25.49H253.55Z"/></g><g class="cls-5"><path class="cls-4" d="M176.47,126.68V139H135.8v49.6l-9.07,6.48,36.6,26.14V208.9H204V159.3l9.07-6.47ZM198,202.93H157.35v6.67L137,195.07l20.34-14.53v6.67h25V174.83L198,163.6ZM162.9,181.51V166.39h14v15.12Zm19.54-14.15v-6.68H157.49v12.39l-15.72,11.22V145h40.67v-6.68l20.35,14.54Z"/></g></g></g></svg>