<svg xmlns="http://www.w3.org/2000/svg" viewBox="0 0 512 512"><defs><style>.cls-1{fill:#ec6110;opacity:0.25;isolation:isolate;}</style></defs><g id="Слой_2" data-name="Слой 2"><g id="Outline"><path class="cls-1" d="M96.29,390.07,2.18,484.71a7.5,7.5,0,0,0,10.64,10.58l94.11-94.64a7.5,7.5,0,1,0-10.64-10.58ZM502.75,167.76c5.77-5.53,9.25-13.75,9.25-23.41,0-17.91-11.95-30.9-28.41-30.9h-9.12V47.5A47.56,47.56,0,0,0,427,0H289a47.56,47.56,0,0,0-47.5,47.5v69.18a30.63,30.63,0,0,0-15.79-4.34,31,31,0,0,0-30.79,30.21l-1.07,56.89-1.65,95.26a50.36,50.36,0,0,1-4,18.79l-3.8,9.06A22.53,22.53,0,0,0,159,327l-38,38.2a7.5,7.5,0,0,0,10.64,10.58l38-38.19a7.52,7.52,0,0,1,10.61,0c1.88,1.88,100,100,102.09,102.09a.12.12,0,0,0,.05.05.12.12,0,0,0,.05.05l.25.25a7.52,7.52,0,0,1,0,10.61L234.12,499.2a7.5,7.5,0,0,0,10.61,10.6l48.54-48.54a22.54,22.54,0,0,0,4.18-26l6.87-6.87A24.36,24.36,0,0,1,320,421.31L341,419.93a124.44,124.44,0,0,0,98.35-59.58,47.58,47.58,0,0,0,35.08-44.66h9.15c16.46,0,28.41-13,28.41-30.9,0-9.66-3.48-17.88-9.26-23.41,5.78-5.53,9.26-13.75,9.26-23.41s-3.48-17.87-9.26-23.4c5.78-5.53,9.26-13.76,9.26-23.41s-3.48-17.87-9.25-23.4ZM340,405,319,406.35a39.26,39.26,0,0,0-25.25,11.44l-6.06,6-91.21-91.21L202,319.29A65.38,65.38,0,0,0,207.17,295l1.65-95.25,1.07-56.88a15.79,15.79,0,0,1,31.58.29V314.5A47.56,47.56,0,0,0,289,362H420.1A109.44,109.44,0,0,1,340,405ZM459.47,314.5A32.54,32.54,0,0,1,427,347H289a32.54,32.54,0,0,1-32.5-32.5V230.75h0V47.5A32.54,32.54,0,0,1,289,15H427a32.54,32.54,0,0,1,32.5,32.5Zm24.12-13.81h-9.12V268.88h9.12c9.26,0,13.41,8,13.41,15.91S492.85,300.69,483.59,300.69Zm0-46.81h-9.12V222.07h9.12c9.26,0,13.41,8,13.41,15.91S492.85,253.88,483.59,253.88Zm0-46.81h-9.12V175.26h9.12c9.26,0,13.41,8,13.41,15.9S492.85,207.07,483.59,207.07Zm0-46.81h-9.12V128.45h9.12c9.26,0,13.41,8,13.41,15.9S492.85,160.26,483.59,160.26Z"/><circle class="cls-1" cx="357.97" cy="33.95" r="7.5"/><path class="cls-1" d="M437,124.14a7.5,7.5,0,0,0,7.5-7.5V53.19A22.53,22.53,0,0,0,422,30.69H394.42a15.53,15.53,0,0,0-15.5,15.5,6,6,0,0,1-6,6H343a6,6,0,0,1-6-6,15.53,15.53,0,0,0-15.5-15.5H294a22.53,22.53,0,0,0-22.5,22.5v257a22.52,22.52,0,0,0,22.5,22.5H422a22.52,22.52,0,0,0,22.5-22.5V151.64a7.5,7.5,0,0,0-15,0v78.89a86.68,86.68,0,0,0-33.84-29.15,49.42,49.42,0,0,0,12-32.31V117.73a32.24,32.24,0,0,0-32.2-32.2H340.51a32.24,32.24,0,0,0-32.2,32.2v51.34a49.44,49.44,0,0,0,12,32.3,86,86,0,0,0-33.83,29V53.19a7.51,7.51,0,0,1,7.5-7.5h27.55a.51.51,0,0,1,.5.5,21,21,0,0,0,21,21H372.9a21,21,0,0,0,21-21,.51.51,0,0,1,.5-.5H422a7.51,7.51,0,0,1,7.5,7.5v63.45A7.5,7.5,0,0,0,437,124.14Zm-113.66-6.41a17.22,17.22,0,0,1,17.2-17.2h34.92a17.22,17.22,0,0,1,17.2,17.2v17.41a52.08,52.08,0,0,0-43.44-4.9l-25.88,8.52Zm0,36.82,30.57-10.06a37.16,37.16,0,0,1,32.59,4.5l6.16,4.13v15.95A34.68,34.68,0,0,1,358,203.71h0a34.68,34.68,0,0,1-34.64-34.64Zm10,57.58A49.29,49.29,0,0,0,358,218.71h0a49.23,49.23,0,0,0,24.64-6.58,71.84,71.84,0,0,1,25.9,16.55,70.91,70.91,0,0,1,20.94,50.47v31h0a7.5,7.5,0,0,1-7.5,7.5H294a7.5,7.5,0,0,1-7.5-7.5v-31A71.11,71.11,0,0,1,333.3,212.13Z"/></g></g></svg>