<svg width="249" height="213" viewBox="0 0 249 213" fill="none" xmlns="http://www.w3.org/2000/svg">
<path d="M6.40175 129.243V129.69C6.40175 131.479 7.81609 132.896 9.60262 132.896C11.3892 132.896 12.8035 131.479 12.8035 129.69V129.243C15.1855 128.497 17.121 126.857 18.2375 124.62C20.4707 120.146 18.6097 114.629 14.1434 112.392L7.89053 109.261C6.99726 108.813 6.40175 107.844 6.40175 106.8C6.40175 105.309 7.59277 104.042 9.15599 104.042H10.1237C11.6125 104.042 12.8779 105.235 12.8779 106.8V107.248C12.8779 109.037 14.2923 110.454 16.0788 110.454C17.8653 110.454 19.2797 109.037 19.2797 107.248V106.8C19.2797 102.849 16.6743 99.3444 12.8779 98.1514V97.7041C12.8779 95.9147 11.4636 94.498 9.67706 94.498C7.89053 94.498 6.47619 95.9147 6.47619 97.7041V98.1514C4.09414 98.897 2.15873 100.537 1.04214 102.774C-1.19102 107.248 0.66995 112.765 5.13629 115.002L11.3892 118.133C12.2824 118.581 12.8779 119.55 12.8779 120.594C12.8779 122.085 11.6869 123.352 10.1237 123.352H9.15599C7.66721 123.352 6.40175 122.159 6.40175 120.594V120.146C6.40175 118.357 4.98741 116.94 3.20087 116.94C1.41434 116.94 0 118.357 0 120.146V120.594C0 124.545 2.60536 128.05 6.40175 129.243Z" fill="url(#paint0_radial)"/>
<path d="M118.879 5.10088L118.73 5.02632C116.869 4.13161 107.118 -0.416482 93.1231 0.0308715C92.8997 0.0308715 92.6764 0.10543 92.4531 0.179989C81.2872 0.701902 70.6425 4.28073 60.8165 10.8419L52.926 6.81573C52.0327 6.29382 50.9161 6.5175 50.1717 7.26308L35.9539 21.8766C35.2095 22.6222 35.0606 23.7406 35.5817 24.7099C35.805 25.1572 36.2516 25.53 36.6983 25.6791C37.1449 25.9028 37.666 25.9028 38.187 25.8282L45.1843 24.1134L47.1942 25.4555L49.3529 30.7491L48.6085 31.3456C47.343 30.2272 45.7054 29.4071 43.9933 29.1834C41.1646 28.736 38.3359 29.6308 36.2516 31.5693L23.4481 43.3496C22.7037 44.0206 22.4804 45.0644 22.8526 45.9592C23.0759 46.5556 23.5225 47.003 24.1181 47.2267C24.4158 47.3758 24.7136 47.4503 25.0858 47.3758L42.5789 46.8539C45.4076 46.7793 48.0874 45.4372 49.7995 43.1259C50.9161 41.6347 51.5116 39.9199 51.5861 38.1305L52.4049 37.9814L54.6381 43.4987L54.117 45.8846L47.9385 49.538C47.0453 50.0599 46.5986 51.1037 46.822 52.1475C46.9708 52.8186 47.4919 53.415 48.1619 53.7133C48.3852 53.7878 48.6829 53.8624 48.9807 53.937L69.377 54.4589H69.4514C70.4191 54.4589 71.3124 53.8624 71.6846 52.8931L74.5877 44.3934C86.2002 42.2312 96.3239 37.3103 104.661 29.8544C104.884 29.7799 105.033 29.6308 105.182 29.4816C116.199 19.4162 119.921 8.30691 120.07 7.85956V7.785C120.368 6.81573 119.921 5.62279 118.879 5.10088ZM57.3923 49.4634C57.9878 49.0906 58.36 48.5687 58.5089 47.8977L58.9555 45.6609C59.7744 45.6609 60.5187 45.6609 61.2631 45.6609H61.412C62.3053 45.6609 63.273 45.5864 64.3896 45.5864H64.9851C66.1017 45.5118 66.9949 45.4372 67.8138 45.3627H68.1115C68.4837 45.2881 68.9304 45.2881 69.3026 45.2136L67.7393 49.7617L57.3923 49.4634ZM66.1017 40.8146C65.5806 40.8891 65.0595 40.8891 64.6129 40.8891C64.3896 40.8891 64.1663 40.8891 64.0174 40.8891H63.8685C63.4963 40.8891 63.0497 40.8891 62.6775 40.9637C62.3797 40.9637 62.082 40.9637 61.7842 40.9637C61.412 40.9637 61.0398 40.9637 60.6676 40.9637C60.3699 40.9637 59.9977 40.9637 59.6999 40.9637C59.4022 40.9637 59.03 40.9637 58.7322 40.9637L57.3179 37.4594L67.3671 35.8191C67.516 35.8191 67.6649 35.7446 67.8138 35.67L67.9627 35.5955C68.1115 35.5209 68.2604 35.4464 68.3348 35.3718L68.4837 35.2972C68.6326 35.2227 68.707 35.0736 68.7815 34.999L68.8559 34.8499C69.0048 34.7008 69.0792 34.5516 69.1537 34.328L71.9824 27.5431C71.9824 27.4685 72.0568 27.394 72.0568 27.394C72.429 26.201 71.9079 24.9335 70.7169 24.4862L63.1241 21.2802C62.9008 21.2056 62.7519 21.131 62.5286 21.131H62.3797H62.3053C62.1564 21.131 62.082 21.131 61.9331 21.131C61.7098 21.131 61.5609 21.2056 61.3376 21.2802C61.1143 21.3547 60.9654 21.5038 60.8165 21.5784L53.2237 27.5431L51.8838 24.2625L52.4049 23.7406C52.7026 23.4424 53.0004 23.2187 53.2237 22.9205L53.7448 22.3985C54.0425 22.1003 54.3403 21.8766 54.6381 21.5784L55.1591 21.0565C55.3825 20.8328 55.6058 20.6091 55.9035 20.3855L56.1268 20.2363C56.2757 20.0872 56.499 19.9381 56.6479 19.789L57.169 19.3416C67.7393 10.6182 79.3518 5.69735 91.7087 4.95176L100.79 27.2449C91.5598 35.0736 80.0218 39.6962 66.4739 40.8146H66.1017ZM66.7716 27.9905L65.3573 31.4202L54.0425 33.0605L62.6775 26.2756L66.7716 27.9905ZM55.6802 14.6444L55.3825 14.8681C54.6381 15.4646 53.9681 16.061 53.2237 16.6575L52.7771 17.1049C51.9583 17.7759 51.2883 18.4469 50.5439 19.118L50.4695 19.1925C49.9484 19.7144 49.3529 20.2363 48.8318 20.8328L46.9708 19.5653C46.5986 19.2671 46.152 19.1925 45.6309 19.1925C45.4076 19.1925 45.2587 19.1925 45.0354 19.2671L52.256 11.8112L56.5735 13.9734C56.2757 14.1971 55.978 14.4207 55.6802 14.6444ZM42.6534 33.6569C42.8767 33.6569 43.1 33.6569 43.3978 33.7315C43.77 33.8061 44.1422 33.8806 44.4399 34.0297C44.5888 34.1043 44.7377 34.1788 44.8865 34.2534L44.1422 34.8499C43.9933 34.9244 43.9188 35.0736 43.9188 35.0736C43.8444 35.1481 43.77 35.2227 43.6955 35.3718C43.6211 35.4464 43.6211 35.5955 43.5466 35.5955C43.4722 35.67 43.3978 35.8191 43.3978 36.0428C43.3978 36.1919 43.3233 36.2665 43.3978 36.2665C43.3978 36.4156 43.3233 36.5647 43.3978 36.7884C43.3978 36.863 43.3978 37.0121 43.4722 37.0866C43.4722 37.1612 43.4722 37.3103 43.5466 37.4594L43.6955 37.7577C43.77 37.9068 43.9188 38.0559 44.0677 38.205C44.1422 38.2796 44.2166 38.3541 44.2166 38.3541C44.3655 38.4287 44.4399 38.5778 44.5888 38.6524L44.8121 38.8015C44.8865 38.8015 44.961 38.8761 45.0354 38.8761C45.1099 38.8761 45.2587 38.9506 45.3332 38.9506C45.4821 38.9506 45.5565 38.9506 45.7054 38.9506H45.8543L46.9708 38.8015C46.822 39.3234 46.5986 39.7708 46.2264 40.2181C45.3332 41.3365 44.0677 42.0821 42.5789 42.0821L31.1898 42.5294L39.4525 34.9244C40.3458 34.1043 41.4624 33.6569 42.6534 33.6569ZM114.785 8.45603C114.338 9.57441 113.594 11.0656 112.477 12.9296L112.403 13.1532C112.254 13.3769 112.105 13.6006 111.956 13.8988L111.733 14.3462C111.584 14.4953 111.509 14.719 111.361 14.9427L111.286 15.0918C111.212 15.2409 111.063 15.39 110.988 15.6137C110.914 15.7628 110.84 15.9119 110.691 15.9865L110.616 16.1356C110.467 16.3593 110.318 16.5829 110.17 16.8812L109.872 17.3285C109.649 17.6268 109.5 17.8504 109.276 18.1487L108.979 18.5215C108.755 18.8197 108.532 19.118 108.309 19.4162L108.011 19.789C107.788 20.0872 107.49 20.46 107.192 20.7582L106.894 21.0565C106.597 21.4293 106.299 21.7275 106.001 22.1003L105.703 22.4731C105.405 22.7713 105.108 23.1441 104.81 23.4424L104.512 23.8152L96.6961 4.80264C105.257 5.10088 111.882 7.26309 114.785 8.45603Z" fill="url(#paint1_radial)"/>
<path d="M95.1336 16.4344C93.9426 13.5266 91.7094 11.2899 88.8808 10.0969C85.9776 8.90398 82.8512 8.82942 79.9481 10.0224C73.993 12.4828 71.0899 19.2677 73.5463 25.2324C74.7374 28.1402 76.9705 30.377 79.7992 31.5699C81.288 32.1664 82.7768 32.4646 84.34 32.4646C85.8288 32.4646 87.3175 32.1664 88.7319 31.5699C94.687 29.2586 97.5901 22.3992 95.1336 16.4344ZM90.8162 23.5921C90.0718 25.307 88.7319 26.649 87.0198 27.3201C83.4467 28.7367 79.3526 27.0218 77.9382 23.5176C77.2683 21.8027 77.2683 19.8642 77.9382 18.1493C78.6082 16.4344 80.0225 15.0924 81.7346 14.4213C83.4467 13.7503 85.3821 13.7503 87.0942 14.4213C88.8063 15.1669 90.1462 16.509 90.8162 18.2239C91.5606 19.9387 91.4861 21.8027 90.8162 23.5921Z" fill="url(#paint2_radial)"/>
<path d="M216.915 67.8067C215.501 66.8375 213.565 67.1357 212.523 68.5523L119.623 186.057C116.869 189.487 115.604 193.886 116.125 198.285C116.646 202.684 118.804 206.635 122.229 209.394C125.206 211.78 128.779 212.973 132.501 212.973C133.097 212.973 133.767 212.973 134.437 212.898C138.829 212.376 142.774 210.214 145.528 206.785C146.273 205.89 147.24 204.25 147.389 203.951C147.389 203.877 147.464 203.877 147.464 203.802L217.957 72.2803C218.851 70.64 218.404 68.776 216.915 67.8067ZM141.732 200.522C141.36 201.193 140.69 202.162 140.392 202.609C138.754 204.697 136.372 205.964 133.767 206.263C131.161 206.561 128.556 205.815 126.472 204.175C124.387 202.535 123.122 200.149 122.824 197.539C122.526 194.93 123.271 192.32 124.909 190.232L194.509 102.178L141.732 200.522Z" fill="url(#paint3_radial)"/>
<path d="M220.861 83.0146C219.67 81.598 217.586 81.4489 216.171 82.6418C214.757 83.8348 214.608 85.9224 215.799 87.339C232.101 106.352 241.406 130.509 242.225 155.561H214.087C212.3 143.035 208.281 131.105 202.177 120.07C201.283 118.43 199.274 117.908 197.636 118.803C195.998 119.698 195.477 121.711 196.371 123.351C202.549 134.535 206.42 146.613 207.909 159.363C208.132 161.078 209.546 162.345 211.184 162.345H245.649C247.51 162.345 248.999 160.854 248.999 158.99C248.925 131.105 238.95 104.115 220.861 83.0146Z" fill="url(#paint4_radial)"/>
<path d="M201.209 64.8974C190.416 56.9196 178.356 51.0294 165.553 47.2269C154.908 44.0954 143.817 42.4551 132.576 42.4551C118.284 42.4551 104.364 44.9901 91.1138 50.0601C89.4017 50.7312 88.5084 52.6697 89.1784 54.3846C89.8483 56.0994 91.7837 56.9941 93.4958 56.3231C105.927 51.5513 119.103 49.1654 132.576 49.1654C143.147 49.1654 153.643 50.6566 163.692 53.639C175.751 57.2178 187.066 62.8098 197.264 70.3402C197.859 70.7876 198.529 71.0113 199.199 71.0113C200.241 71.0113 201.209 70.5639 201.879 69.6692C203.07 68.0289 202.698 65.9412 201.209 64.8974Z" fill="url(#paint5_radial)"/>
<path d="M183.047 95.391C174.263 87.0403 164.214 80.33 153.197 75.4837C140.095 69.7426 126.175 66.8348 111.734 66.8348C88.4347 66.7603 66.2518 74.589 48.3865 88.5315C57.9147 77.0494 69.8249 67.5804 83.2984 60.721C84.936 59.9009 85.606 57.8878 84.7872 56.2475C83.9683 54.6072 81.9585 53.9361 80.3208 54.7563C55.6815 67.2076 36.2529 88.0096 25.4593 113.36C24.7893 114.925 25.4593 116.789 26.948 117.61C27.4691 117.908 27.9902 117.982 28.5112 117.982C29.5534 117.982 30.67 117.46 31.2655 116.491C49.2797 89.5008 79.3531 73.3215 111.734 73.3215C125.208 73.3215 138.234 76.0802 150.517 81.4484C160.864 85.9965 170.243 92.2595 178.431 100.088C179.771 101.356 181.856 101.281 183.121 99.9391C184.461 98.7461 184.387 96.6585 183.047 95.391Z" fill="url(#paint6_radial)"/>
<path d="M133.171 194.629C131.98 193.884 130.417 193.958 129.3 194.853C126.918 196.792 128.332 200.743 131.384 200.743C132.873 200.743 134.213 199.699 134.585 198.208C134.958 196.941 134.362 195.45 133.171 194.629Z" fill="url(#paint7_radial)"/>
<path d="M234.929 135.803C234.632 134.908 234.111 134.088 233.515 133.342C232.92 132.671 232.25 132.075 231.505 131.628C231.356 131.553 231.282 131.478 231.133 131.404C231.654 130.957 232.101 130.36 232.473 129.764C232.845 129.167 233.143 128.496 233.292 127.751C233.441 127.08 233.59 126.334 233.59 125.514C233.59 124.246 233.366 123.128 232.994 122.084C232.547 121.04 231.952 120.146 231.059 119.4C230.612 118.953 230.017 118.654 229.421 118.356V116.119C229.421 114.703 228.304 113.51 226.816 113.51H226.146C224.731 113.51 223.54 114.628 223.54 116.119V117.312H223.466H222.424V116.119C222.424 114.703 221.307 113.51 219.818 113.51H219.148C217.734 113.51 216.543 114.628 216.543 116.119V117.312C216.096 117.387 215.724 117.536 215.352 117.834C214.757 118.282 214.533 118.953 214.533 119.847V145.346C214.533 146.241 214.831 146.912 215.352 147.36C215.724 147.658 216.096 147.807 216.543 147.881V149.447C216.543 150.864 217.66 152.057 219.148 152.057H219.818C221.233 152.057 222.424 150.938 222.424 149.447V147.956H223.615V149.447C223.615 150.864 224.731 152.057 226.22 152.057H226.89C228.304 152.057 229.495 150.938 229.495 149.447V147.136C229.719 147.061 229.942 146.987 230.165 146.912C230.984 146.539 231.729 146.167 232.324 145.645C232.994 145.123 233.59 144.526 234.036 143.855C234.483 143.184 234.855 142.364 235.153 141.544C235.376 140.724 235.525 139.755 235.525 138.785C235.451 137.741 235.227 136.772 234.929 135.803ZM225.625 122.83C226.146 122.979 226.518 123.202 226.816 123.501C227.113 123.799 227.337 124.097 227.486 124.544C227.634 124.992 227.709 125.514 227.709 126.11C227.709 126.632 227.634 127.154 227.486 127.601C227.337 128.049 227.113 128.422 226.816 128.72C226.518 129.018 226.146 129.316 225.699 129.54C225.252 129.764 224.582 129.838 223.689 129.838H220.414V122.606H223.317C224.285 122.606 225.029 122.681 225.625 122.83ZM229.049 140.724C228.825 141.171 228.528 141.544 228.156 141.842C227.783 142.14 227.337 142.439 226.816 142.588C226.295 142.737 225.625 142.886 224.88 142.886H220.414V134.834H223.912C225.029 134.834 225.922 134.908 226.592 135.132C227.262 135.356 227.783 135.579 228.156 135.952C228.528 136.325 228.825 136.698 229.049 137.22C229.272 137.741 229.347 138.338 229.347 139.084C229.421 139.68 229.272 140.276 229.049 140.724Z" fill="url(#paint8_radial)"/>
<defs>
<radialGradient id="paint0_radial" cx="0" cy="0" r="1" gradientUnits="userSpaceOnUse" gradientTransform="translate(9.59235 113.716) scale(15.1646 15.1891)">
<stop offset="0.1797" stop-color="#F18B3C"/>
<stop offset="0.6125" stop-color="#ED701E"/>
<stop offset="1" stop-color="#E95400"/>
</radialGradient>
<radialGradient id="paint1_radial" cx="0" cy="0" r="1" gradientUnits="userSpaceOnUse" gradientTransform="translate(71.4194 27.2588) scale(39.4526 39.5161)">
<stop offset="0.1797" stop-color="#F18B3C"/>
<stop offset="0.6125" stop-color="#ED701E"/>
<stop offset="1" stop-color="#E95400"/>
</radialGradient>
<radialGradient id="paint2_radial" cx="0" cy="0" r="1" gradientUnits="userSpaceOnUse" gradientTransform="translate(84.3637 20.8443) scale(11.6602 11.679)">
<stop offset="0.1797" stop-color="#F18B3C"/>
<stop offset="0.6125" stop-color="#ED701E"/>
<stop offset="1" stop-color="#E95400"/>
</radialGradient>
<radialGradient id="paint3_radial" cx="0" cy="0" r="1" gradientUnits="userSpaceOnUse" gradientTransform="translate(167.231 140.119) scale(62.8905 62.9917)">
<stop offset="0.1797" stop-color="#F18B3C"/>
<stop offset="0.6125" stop-color="#ED701E"/>
<stop offset="1" stop-color="#E95400"/>
</radialGradient>
<radialGradient id="paint4_radial" cx="0" cy="0" r="1" gradientUnits="userSpaceOnUse" gradientTransform="translate(222.403 122.061) scale(33.9954 34.0502)">
<stop offset="0.1797" stop-color="#F18B3C"/>
<stop offset="0.6125" stop-color="#ED701E"/>
<stop offset="1" stop-color="#E95400"/>
</radialGradient>
<radialGradient id="paint5_radial" cx="0" cy="0" r="1" gradientUnits="userSpaceOnUse" gradientTransform="translate(145.805 56.6515) scale(41.3979 41.4647)">
<stop offset="0.1797" stop-color="#F18B3C"/>
<stop offset="0.6125" stop-color="#ED701E"/>
<stop offset="1" stop-color="#E95400"/>
</radialGradient>
<radialGradient id="paint6_radial" cx="0" cy="0" r="1" gradientUnits="userSpaceOnUse" gradientTransform="translate(104.648 86.2663) scale(60.4917 60.5893)">
<stop offset="0.1797" stop-color="#F18B3C"/>
<stop offset="0.6125" stop-color="#ED701E"/>
<stop offset="1" stop-color="#E95400"/>
</radialGradient>
<radialGradient id="paint7_radial" cx="0" cy="0" r="1" gradientUnits="userSpaceOnUse" gradientTransform="translate(131.374 197.481) scale(3.31099 3.31625)">
<stop offset="0.1797" stop-color="#F18B3C"/>
<stop offset="0.6125" stop-color="#ED701E"/>
<stop offset="1" stop-color="#E95400"/>
</radialGradient>
<radialGradient id="paint8_radial" cx="0" cy="0" r="1" gradientUnits="userSpaceOnUse" gradientTransform="translate(225.007 132.928) scale(15.4327 15.4576)">
<stop offset="0.1797" stop-color="#F18B3C"/>
<stop offset="0.6125" stop-color="#ED701E"/>
<stop offset="1" stop-color="#E95400"/>
</radialGradient>
</defs>
</svg>
