<svg width="35" height="14" viewBox="0 0 35 14" fill="none" xmlns="http://www.w3.org/2000/svg">
<path d="M7.00034 4.375C5.55378 4.375 4.37521 5.55352 4.37521 7C4.37521 8.44648 5.55378 9.625 7.00034 9.625C8.44689 9.625 9.62547 8.44648 9.62547 7C9.62547 5.55352 8.44689 4.375 7.00034 4.375ZM13.7382 6.57617L11.1486 5.28281L12.0646 2.5375C12.1877 2.16563 11.8349 1.81289 11.4658 1.93867L8.72034 2.85469L7.42419 0.2625C7.24918 -0.0875 6.7515 -0.0875 6.57649 0.2625L5.28307 2.85195L2.53489 1.93594C2.163 1.81289 1.81024 2.16562 1.93603 2.53477L2.85209 5.28008L0.262513 6.57617C-0.0875042 6.75117 -0.0875042 7.24883 0.262513 7.42383L2.85209 8.71719L1.93603 11.4652C1.81298 11.8371 2.16573 12.1898 2.53489 12.0641L5.28033 11.148L6.57376 13.7375C6.74876 14.0875 7.24645 14.0875 7.42145 13.7375L8.71488 11.148L11.4603 12.0641C11.8322 12.1871 12.185 11.8344 12.0592 11.4652L11.1431 8.71992L13.7327 7.42656C14.0882 7.24883 14.0882 6.75117 13.7382 6.57617V6.57617ZM9.47507 9.47461C8.11055 10.8391 5.89013 10.8391 4.52561 9.47461C3.16109 8.11016 3.16109 5.88984 4.52561 4.52539C5.89013 3.16094 8.11055 3.16094 9.47507 4.52539C10.8396 5.88984 10.8396 8.11016 9.47507 9.47461Z" fill="#EC6110" fill-opacity="0.15"/>
<path d="M29.7136 14C31.7844 14 33.6756 13.0177 34.9286 11.408C35.114 11.1699 34.9119 10.8221 34.6254 10.8789C31.3682 11.5257 28.377 8.92177 28.377 5.49347C28.377 3.51865 29.3909 1.70267 31.0388 0.724883C31.2928 0.574164 31.2289 0.172621 30.9403 0.117031C30.5356 0.0392364 30.1251 6.38842e-05 29.7136 0C26.0078 0 23 3.13116 23 7C23 10.8639 26.0031 14 29.7136 14Z" fill="#EC6110" fill-opacity="0.15"/>
</svg>
