<?xml version="1.0" encoding="UTF-8" standalone="no"?>
<!DOCTYPE svg PUBLIC "-//W3C//DTD SVG 1.1//EN" "http://www.w3.org/Graphics/SVG/1.1/DTD/svg11.dtd">
<svg width="100%" height="100%" viewBox="0 0 512 512" version="1.1" xmlns="http://www.w3.org/2000/svg" xmlns:xlink="http://www.w3.org/1999/xlink" xml:space="preserve" xmlns:serif="http://www.serif.com/" style="fill-rule:evenodd;clip-rule:evenodd;stroke-linejoin:round;stroke-miterlimit:2;">
    <g>
        <g>
            <g>
                <g>
                    <path d="M314.1,284.8L268.6,250.7L268.6,181.3C268.6,174.3 263,168.7 256,168.7C249,168.7 243.4,174.3 243.4,181.3L243.4,257C243.4,261 245.3,264.7 248.5,267.1L299,305C301.3,306.7 303.9,307.5 306.6,307.5C310.5,307.5 314.2,305.8 316.7,302.4C320.8,296.9 319.7,289 314.1,284.8Z" style="fill:rgb(236,97,16);fill-opacity:0.9;fill-rule:nonzero;"/>
                </g>
            </g>
            <g>
                <g>
                    <path d="M256,93C166.1,93 93,166.1 93,256C93,345.9 166.1,419 256,419C345.9,419 419,345.9 419,256C419,166.1 345.9,93 256,93ZM256,393.7C180.1,393.7 118.3,331.9 118.3,256C118.3,180.1 180.1,118.3 256,118.3C332,118.3 393.7,180.1 393.7,256C393.7,331.9 331.9,393.7 256,393.7Z" style="fill:rgb(236,97,16);fill-opacity:0.9;fill-rule:nonzero;"/>
                </g>
            </g>
        </g>
    </g>
    <path d="M291.6,0L291.6,66.7L71.3,66.7L71.3,335.4L22.2,370.5L220.4,512L220.4,445.3L440.7,445.3L440.7,176.7L489.8,141.6L291.6,0ZM419,256C419,276.4 415.2,295.8 408.4,313.8L408.4,413L299.9,413C285.9,416.9 271.2,419 256,419C240.8,419 226.1,416.9 212.1,413L188.1,413L188.1,449.2L77.8,370.4L117.6,342C102,317 93,287.5 93,256C93,235.6 96.8,216.2 103.6,198.2L103.6,99L212.1,99C226.1,95.1 240.8,93 256,93C271.2,93 285.9,95.1 299.9,99L323.9,99L323.9,62.9L434.1,141.6L394.4,170C410,195 419,224.4 419,256Z" style="fill:rgb(236,97,16);fill-opacity:0.6;fill-rule:nonzero;"/>
</svg>
