<?xml version="1.0" encoding="utf-8"?>
<!-- Generator: Adobe Illustrator 25.2.0, SVG Export Plug-In . SVG Version: 6.00 Build 0)  -->
<svg version="1.1" id="Слой_1" xmlns="http://www.w3.org/2000/svg" xmlns:xlink="http://www.w3.org/1999/xlink" x="0px" y="0px"
	 viewBox="0 0 512 511.4" style="enable-background:new 0 0 512 511.4;" xml:space="preserve">
<style type="text/css">
	.st0{opacity:0.45;fill:#EC6110;enable-background:new    ;}
	.st1{opacity:0.45;fill:#EC6110;enable-background:new    ;}
</style>
<g id="Слой_2_1_">
	<g id="Capa_1">
		<path class="st0" d="M511.9,202c0.5-3.5-0.9-6.9-3.5-9.1l-64.6-53c-1.8-1.5-4-2.3-6.3-2.3h-34.7c-0.8-12.2-3.1-24.3-6.9-35.9
			c-0.1-0.3-0.2-0.5-0.3-0.8C375.9,42.3,320.5,0,255.4,0S135,42.3,115.4,100.9c-0.1,0.2-0.2,0.5-0.3,0.8
			c-3.8,11.6-6.1,23.7-6.9,35.9H76.1c-2.3,0-4.5,0.8-6.3,2.2l-66.1,53c-3.1,2.5-4.4,6.6-3.4,10.5c0.7,2.5,5.5,15.7,31,27.7
			c28.2,13.3,71.2,20.7,128.1,22l7.5,22L86.4,498c-1.9,5.2,0.8,10.9,6,12.8c5.2,1.9,10.9-0.8,12.8-6c0,0,0,0,0,0L184.5,285h137.7
			l14.6,40c2,5.2,7.8,7.7,12.9,5.7c5-1.9,7.6-7.5,5.9-12.6l-15.8-43.2l7.5-21.8c59.5-1,104.3-8.4,133.4-22.1
			c25.5-12,30.2-25.2,31-27.7C511.8,202.8,511.8,202.4,511.9,202z M382.6,137.6H128.2c0.6-7.7,1.9-15.3,3.9-22.8h246.6
			C380.7,122.3,382,129.9,382.6,137.6z M255.4,20c50,0.1,95.4,29.3,116.2,74.8H139.3C160,49.3,205.4,20.1,255.4,20z M79.6,157.6
			h354.2l40.2,33H38.5L79.6,157.6z M184.7,265l-4-11.8h145.5l-4,11.8H184.7z M333,233.2H179c-84.4,0-124.7-12.4-143.6-22.6h441.2
			C457.8,220.8,417.5,233.2,333,233.2z"/>
		<path class="st1" d="M144.8,170.3c-2.1-5.1-7.9-7.5-13-5.5c-5.1,2.1-7.5,7.9-5.5,13c2.1,5.1,7.9,7.5,13,5.5c0.5-0.2,1-0.5,1.5-0.7
			C144.9,180,146.6,174.8,144.8,170.3z"/>
		<path class="st1" d="M226.3,170.3c-2.1-5.1-7.9-7.5-13-5.5c-5.1,2.1-7.5,7.9-5.5,13c2.1,5.1,7.9,7.5,13,5.5c0.5-0.2,1-0.5,1.5-0.7
			C226.5,180,228.1,174.8,226.3,170.3z"/>
		<path class="st1" d="M307.9,170.3c-2.1-5.1-7.9-7.5-13-5.5s-7.5,7.9-5.5,13c2.1,5.1,7.9,7.5,13,5.5c0.5-0.2,1-0.5,1.5-0.7
			C308,180,309.7,174.8,307.9,170.3z"/>
		<path class="st1" d="M389.4,170.3c-2.1-5.1-8-7.5-13.1-5.4c-5.1,2.1-7.5,8-5.4,13.1c2.1,5.1,8,7.5,13.1,5.4c0.5-0.2,1-0.5,1.5-0.8
			C389.5,180,391.2,174.8,389.4,170.3z"/>
		<path class="st1" d="M383,392.9c-1.8-5.2-7.5-8-12.7-6.2c-5.2,1.8-8,7.5-6.2,12.7c0,0.1,0.1,0.2,0.1,0.3l38.5,105.1
			c1.4,3.9,5.2,6.6,9.4,6.6c1.2,0,2.3-0.2,3.4-0.6c5.2-1.9,7.9-7.6,6-12.8c0,0,0,0,0,0L383,392.9z"/>
		<path class="st1" d="M365.6,367.4c4.6-3.1,5.8-9.3,2.8-13.9c-3.1-4.6-9.3-5.8-13.9-2.8s-5.8,9.3-2.8,13.9c0.3,0.5,0.6,0.9,1,1.3
			C356.1,369.4,361.5,370.1,365.6,367.4z"/>
		<path class="st0" d="M84.9,114.6c0.6,0.1,1.3,0.2,1.9,0.2c4.8,0,8.9-3.4,9.8-8.1c7.2-37.6,31.1-64.8,31.4-65.2
			c3.6-4.1,3.2-10.5-0.9-14.1c-4.1-3.6-10.3-3.3-14,0.8C112,29.5,85.3,59.7,77,102.9C76,108.4,79.5,113.6,84.9,114.6
			C84.9,114.6,84.9,114.6,84.9,114.6z"/>
		<path class="st0" d="M419.2,118.4c1.1,5.4,6.5,8.9,11.9,7.7c5.4-1.1,8.9-6.5,7.7-11.9c-4.2-19.6-14.1-43.6-14.5-44.6
			c-2.1-5.1-8-7.5-13.1-5.4c-5.1,2.1-7.5,8-5.4,13.1l0,0C406,77.5,415.5,100.6,419.2,118.4z"/>
	</g>
</g>
</svg>
