<svg xmlns="http://www.w3.org/2000/svg" viewBox="0 0 63.79 50"><defs><style>.cls-1{fill:#ba6259;}.cls-2{fill:#fafa7d;}.cls-3{fill:#4886b9;}</style></defs><g id="Слой_2" data-name="Слой 2"><g id="Слой_1-2" data-name="Слой 1"><path class="cls-1" d="M23.65,31.86c-.28,1.23-.31,2.5-.48,3.74a4.16,4.16,0,0,1-1.43,2.89,4.49,4.49,0,0,0-1.83,4.76A16.84,16.84,0,0,1,20,47.14a5.18,5.18,0,0,1-.44,1.64c-.17.4-.51.38-.85.34a.4.4,0,0,1-.37-.51c.32-2.44-.27-4.87-.13-7.31a3,3,0,0,1,1.26-2.47,6.51,6.51,0,0,0,2.4-3.27c0-.11.07-.23.13-.43-.31.12-.61.42-.86.1a.86.86,0,0,1-.07-1c.78-1.28,1.2-2.74,1.92-4A11.2,11.2,0,0,1,23.74,29,3.07,3.07,0,0,1,27,27.7a11.16,11.16,0,0,0,2.71.15,1.59,1.59,0,0,0,1.62-1.37c.06-.29.22-.53.26-.83s.36-.41.65-.39a4.7,4.7,0,0,1,2.67.77c.37.29.79.51,1.18.78s.49.05.53-.26a25,25,0,0,0,.14-3.36c0-.32-.17-.25-.33-.13-.46.34-.92.68-1.37,1a.87.87,0,0,1-.52.24A36.36,36.36,0,0,1,26,23.72a3.85,3.85,0,0,1-.92-.37,1,1,0,0,1-.59-1.21c.13-.44-.11-.56-.44-.55-.71,0-1.42.07-2.12.15-.39.05-.56.36-.68.73-.27.84-.39.92-1.27.91a12.27,12.27,0,0,1-1.82-.1,12.6,12.6,0,0,0-3.63.24c-1.06.14-1.14.08-1.19-1,0-.64,0-1.29,0-1.94s.15-.83.71-.88c.18,0,.45,0,.5-.24s-.21-.31-.36-.43a7.49,7.49,0,0,1-1.47-1.34A2.76,2.76,0,0,1,12,16.26a1.71,1.71,0,0,0-.89-1.32,5.32,5.32,0,0,0-5.76.52,1.94,1.94,0,0,0-.7,2,3.1,3.1,0,0,1-.84,2.89c-1,1.12-.91,1.41.47,2.06a1.27,1.27,0,0,1,.75,1.28,8.57,8.57,0,0,1-1.16,3.8c-.4.77-.74,1.57-1.2,2.3a6.43,6.43,0,0,0-.53,5.87c.52,1.49,1.26,2.88,1.7,4.4a53.26,53.26,0,0,1,1.63,6.82,4.19,4.19,0,0,1-.29,2.54c-.12.26-.23.49-.58.49a1,1,0,0,1-.93-.36,7.25,7.25,0,0,1-1-2.82c-.31-1.74-.4-3.51-.56-5.28A18.39,18.39,0,0,0,.62,35.78,6.66,6.66,0,0,1,.86,29.7a28.17,28.17,0,0,0,2.5-5.26.58.58,0,0,0-.32-.8,4.26,4.26,0,0,1-1.1-.88,1.54,1.54,0,0,1-.06-2.23c.26-.31.54-.62.8-.94a1.84,1.84,0,0,0,.52-1.66,5.19,5.19,0,0,1,.15-2.28A3.14,3.14,0,0,1,6,13.36a13.88,13.88,0,0,1,5.56-.1A1.94,1.94,0,0,1,13,14.57c.25.62.42,1.27.62,1.9a1.54,1.54,0,0,0,1,1.07,4.45,4.45,0,0,1,1.69,1.26,1,1,0,0,1,0,1.48,5.1,5.1,0,0,0-.89,1c-.29.6-.13.84.52.82a13.82,13.82,0,0,0,3.33-.36,1.57,1.57,0,0,0,.95-.63,3.1,3.1,0,0,1,1.71-1.08c.22-.07.48-.05.65-.24l1.68,0a2.68,2.68,0,0,1,1.85,1.48,2.2,2.2,0,0,0,1.44,1.12,10.52,10.52,0,0,0,2.72.44,8.53,8.53,0,0,0,3.18-.21A2.08,2.08,0,0,0,35.38,22a1.74,1.74,0,0,1,2.34-.31.54.54,0,0,0,.55,0A10,10,0,0,1,41.13,21c.58-.09.92.2,1,.8.07.37.07.75.13,1.12s0,1,.7,1,.67-.56.72-1,0-1,0-1.54a2.2,2.2,0,0,1,1.89-2.57,15.81,15.81,0,0,1,2.24-.52c.81-.13,1,0,1,.84s0,1.85.1,2.77a2.35,2.35,0,0,0,.17.74c.11.23.21.5.53.46a.69.69,0,0,0,.62-.47A24.16,24.16,0,0,0,51,20.06a2.47,2.47,0,0,1,.06-.29,1.62,1.62,0,0,1,2.15-1.43c.52.07,1,.24,1.56.31s.83.5.85,1.07a21.55,21.55,0,0,1-.19,3.59c-.24,1.85-.49,3.7-.73,5.55a6.37,6.37,0,0,0,0,1.07c0,.18,0,.4.32.41s.4-.16.44-.39c.06-.41.09-.82.15-1.23a4.71,4.71,0,0,1,.09-.52c.42-1.83,1.12-2.25,2.91-1.75A13.77,13.77,0,0,0,60,26.8c.51.1.67.38.62.88-.1.92-.38,1.81-.57,2.71a3.32,3.32,0,0,0-.16,1c0,.1,0,.22.08.26s.22,0,.31-.09a1.56,1.56,0,0,0,.43-.69,1.18,1.18,0,0,1,1.75-.73,5.07,5.07,0,0,1,.75.34A1,1,0,0,1,63.65,32a30.14,30.14,0,0,0-2,8.22,44.54,44.54,0,0,0-.15,5.66,5.76,5.76,0,0,1-1.57,3.9.62.62,0,0,1-.63.22c-.32-.07-.42-.33-.47-.61a13.17,13.17,0,0,1-.11-2.94,47.05,47.05,0,0,1,.54-6,24.85,24.85,0,0,1,2.59-7.55,3.57,3.57,0,0,0,.25-.47c.07-.25.52-.5,0-.75s-.77-.35-1,.24c0,.12-.16.22-.22.34-.4.73-.66.88-1.31.7a1.11,1.11,0,0,1-.94-1.35,9.2,9.2,0,0,1,.51-2.24c.31-1,.31-1-.58-1.31-1.17-.46-1.54-.25-1.74,1-.1.56-.14,1.13-.26,1.69a1.64,1.64,0,0,1-2.43,1.1,1,1,0,0,1-.39-.5,5.7,5.7,0,0,1-.34-1.91A34.23,34.23,0,0,1,54,22.72a10.42,10.42,0,0,0,.16-2.23c0-.47-.2-.75-.72-.68h-.06c-1.27,0-1-.11-1.28,1-.12.57-.24,1.15-.41,1.71a2.65,2.65,0,0,1-3,1.91.81.81,0,0,1-.72-.61,4.6,4.6,0,0,1-.26-1.56c0-.46,0-.91,0-1.36,0-.92-.08-.88-1-.63a2.77,2.77,0,0,0-2.16,3.16c0,1.42-.81,2-2.23,1.81a.73.73,0,0,1-.61-.56,12.7,12.7,0,0,1-.31-1.61c-.08-.34-.2-.48-.57-.31a9.56,9.56,0,0,1-1.55.56A1.58,1.58,0,0,0,38.06,25c0,1.49-.38,2.92-.45,4.4,0,.72-.08.72.63.72h.65a13.94,13.94,0,0,1-2.74,0c0-.13.06-.26.07-.4.06-1,.06-1-.84-1.36-.64-.35-1.14-1-1.93-1a.44.44,0,0,0-.4-.43c-.27,0-.27.27-.32.44a2.22,2.22,0,0,1-1.47,1.48,8.51,8.51,0,0,1-3.24.52,6.88,6.88,0,0,0-2.8.54c-.18.09-.38.14-.46.35A2.28,2.28,0,0,0,23.65,31.86Z"/><path class="cls-2" d="M28.66,1s0-.15.48-.23A7.6,7.6,0,0,1,30,.68l.54,0a4.62,4.62,0,0,1,.9.1c.31.09.81,0,1,.18a.92.92,0,0,1-.09.88c-.13.12-.56,0-.56,0l-.46-.09a6.33,6.33,0,0,0-1.51-.16c-.6.06-.76.08-.87,0a1.75,1.75,0,0,1-.28-.19Z"/><path class="cls-3" d="M35.38,22a2.08,2.08,0,0,1-1.92.67c0-.22,0-.43,0-.65a43.34,43.34,0,0,0-.51-6.33c-.17-1-.46-1.29-1.54-1.41a24.53,24.53,0,0,0-5.28,0c-1,.11-1.25.42-1.42,1.34a33,33,0,0,0-.41,4.21l-1.68,0a35.65,35.65,0,0,1,.2-5.47,2.06,2.06,0,0,1,1-1.63,11.41,11.41,0,0,0,3.83-4A5,5,0,0,0,28.3,7a1.16,1.16,0,0,0-.51-1.43,1.08,1.08,0,0,1,.1-2,.93.93,0,0,0,.56-.94,9.63,9.63,0,0,0-.21-1.51c-.14-.89.1-1.26,1-1.07A7.7,7.7,0,0,0,32,0c.37,0,.64,0,.68.45s.08.59-.5.5A7.13,7.13,0,0,0,29.23.82c-.24.06-.55.09-.49.37s.35.35.67.31a7.44,7.44,0,0,1,2.84.37l-2.14-.25a.87.87,0,0,0-1,.56,1.15,1.15,0,0,0,.52,1.32,1.17,1.17,0,0,1,0,2.2c-.47.24-.45.56-.42,1,.13,1.45,1,2.5,1.83,3.63a8.41,8.41,0,0,0,2.63,2.34A2.66,2.66,0,0,1,34.83,15c.22,2.26.49,4.51.49,6.78A.9.9,0,0,0,35.38,22ZM31,12.43c-.76-1-1.43-2.11-2.08-3.17-.16-.26-.28-.12-.39,0s-.36.61-.56.9c-.5.74-1,1.47-1.51,2.2l.05.13A9,9,0,0,1,31,12.43Z"/><path class="cls-3" d="M36.15,30.14a13.94,13.94,0,0,0,2.74,0c2.28-.06,4.56,0,6.84.19.59,0,.84.48,1,.94a6.86,6.86,0,0,1,.57,3.16c-.26,3.55,0,7.09,0,10.64,0,1.38-.09,2.75-.16,4.13,0,.21,0,.55-.26.58s-.42-.27-.51-.5a16.82,16.82,0,0,1-.8-3.14,38.9,38.9,0,0,1-.45-6.82c0-2.13,0-4.25,0-6.38,0-.92,0-.93-.92-1.05A29.71,29.71,0,0,0,39,31.8c-1.61.08-3.22.09-4.84.07-.51,0-.77-.2-.75-.73,0-1.26,0-2.52.05-3.78.79.06,1.29.67,1.93,1,0,.29,0,.59,0,.88C35.29,29.85,35.54,30.15,36.15,30.14Z"/><path class="cls-3" d="M34.58,44.92a13.38,13.38,0,0,1-.17,3.46c-.07.26-.08.61-.43.62s-.38-.34-.46-.59A19.55,19.55,0,0,1,33,44c-.07-1-.1-2-.13-2.95,0-.41-.11-.63-.59-.68a12.46,12.46,0,0,0-3.17,0c-.32,0-.61,0-.72-.32a.67.67,0,0,1,.39-.83,1.17,1.17,0,0,1,.58-.1c1.12,0,2.23.1,3.35.13a1.3,1.3,0,0,1,1.2.8,6.7,6.7,0,0,1,.7,2.66C34.6,43.42,34.58,44.17,34.58,44.92Z"/><path class="cls-1" d="M16.1,28.87a8.18,8.18,0,0,1-3.45-.78,3.07,3.07,0,0,1-.7-.53c-.48-.5-.54-1.06,0-1.42a3.22,3.22,0,0,0,1.14-1.64,1.08,1.08,0,0,1,1.53-.66c.28.1.43.22.43.54a5,5,0,0,0,.07.94A1.84,1.84,0,0,0,17.07,27l1.35.1c.28,0,.59,0,.68.34s-.16.54-.41.71A4.62,4.62,0,0,1,16.1,28.87Zm-1.61-2.42a4.53,4.53,0,0,0-.25-1.13c-.06-.11-.09-.28-.26-.27s-.17.16-.2.26a10.75,10.75,0,0,0-.32,1.24.79.79,0,0,0,.55.92c.43.08.36-.43.45-.72A1.15,1.15,0,0,0,14.49,26.45Z"/><path class="cls-1" d="M58.31,36c0,.39,0,.78,0,1.17s-.09.58-.47.54a.54.54,0,0,1-.55-.58c0-.47,0-.94.07-1.4,0-.29.17-.69-.15-.79s-.49.29-.64.57c-.28.54-.54,1.08-.84,1.61-.14.26-.35.53-.7.39a.66.66,0,0,1-.35-.75,4.3,4.3,0,0,1,1.82-3.22,1,1,0,0,1,1.66.54,1.57,1.57,0,0,1,.15.51C58.32,35,58.31,35.48,58.31,36Z"/><path class="cls-1" d="M50.68,28.65a2.44,2.44,0,0,1,0,.53c-.08.31-.18.66-.55.68s-.4-.36-.48-.62c-.15-.51-.24-1-.4-1.54s-.36-.45-.67-.1a2.08,2.08,0,0,0-.47,1.12,3.58,3.58,0,0,1-.2.73.47.47,0,0,1-.53.29.5.5,0,0,1-.43-.42A4.87,4.87,0,0,1,48,26a1,1,0,0,1,1.35,0A3.79,3.79,0,0,1,50.68,28.65Z"/><path class="cls-1" d="M26.84,24.78a7.49,7.49,0,0,1,3.2.6c.44.2.86.48.73,1.05a1,1,0,0,1-1.15.75,19.09,19.09,0,0,1-2.91-.43c-.4-.08-.61-.29-.5-.68.16-.6-.18-.67-.62-.68-.17,0-.42.1-.46-.14s.24-.27.41-.32A3.76,3.76,0,0,1,26.84,24.78Z"/><path class="cls-1" d="M40.77,29a3.54,3.54,0,0,1,.91-2.44,1.06,1.06,0,0,1,1.62-.08,3.76,3.76,0,0,1,1.15,2.92c0,.25-.05.54-.37.6s-.41-.26-.49-.48c-.17-.49-.3-1-.47-1.51s-.37-.44-.62-.1a4,4,0,0,0-.37.6,3.71,3.71,0,0,0-.27.65.72.72,0,0,1-.8.56C40.67,29.62,40.84,29.18,40.77,29Z"/><path class="cls-1" d="M18.08,24a4.27,4.27,0,0,1,1.19.14c.65.24.79.7.29,1.2a3.79,3.79,0,0,1-2.31.85,1.37,1.37,0,0,1-1.37-.61A.66.66,0,0,1,16,24.55,3.76,3.76,0,0,1,18.08,24Z"/><path class="cls-3" d="M23.65,31.86a2.28,2.28,0,0,1,1.11-1.6c0,.18,0,.35,0,.53,0,.78-.08.87-.88,1A1.39,1.39,0,0,0,23.65,31.86Z"/><path class="cls-3" d="M31.88,19a2.9,2.9,0,0,1-3,3A2.83,2.83,0,0,1,26,19c0-1.56,1.55-2.43,3.07-2.47A2.73,2.73,0,0,1,31.88,19Z"/></g></g></svg>