<?xml version="1.0" encoding="UTF-8" standalone="no"?>
<!DOCTYPE svg PUBLIC "-//W3C//DTD SVG 1.1//EN" "http://www.w3.org/Graphics/SVG/1.1/DTD/svg11.dtd">
<svg width="100%" height="100%" viewBox="0 0 41 50" version="1.1" xmlns="http://www.w3.org/2000/svg" xmlns:xlink="http://www.w3.org/1999/xlink" xml:space="preserve" xmlns:serif="http://www.serif.com/" style="fill-rule:evenodd;clip-rule:evenodd;stroke-linejoin:round;stroke-miterlimit:2;">
    <g id="Слой_2">
        <g id="Слой_1-2">
            <path d="M38.1,6.91L37.1,6.73C34.617,6.279 32.191,5.551 29.87,4.56C27.44,3.523 25.087,2.313 22.83,0.94C21.58,0.17 21.21,0 20.47,0C19.73,0 19.37,0.17 18.09,0.94C15.82,2.321 13.45,3.531 11,4.56C7.868,5.759 4.644,6.702 1.36,7.38C0.915,7.465 0.528,7.739 0.3,8.13C0.081,8.364 -0.028,8.681 0,9L0,27.69C0.08,32.22 3.37,37.18 10.05,42.86C13.91,46.13 19.55,50 20.47,50C21.39,50 27.18,46.07 31,42.88C37.72,37.19 41,32.22 41,27.66L41,11.46C40.94,7.56 40.91,7.52 38.1,6.91ZM30.92,23.27L30.92,26.2C30.15,26.35 29.38,26.52 28.61,26.73L28.61,21L35.54,21L35.54,25.63C34.76,25.68 33.99,25.76 33.23,25.86L33.23,23.27L30.92,23.27ZM27.53,18.65L28.47,16.34L35.7,16.34L36.7,18.65L27.53,18.65ZM37.77,27.81C37.649,29.476 37.113,31.085 36.21,32.49C31.209,32.802 26.364,34.352 22.11,37C21.048,35.816 19.884,34.728 18.63,33.75C24.294,29.947 30.948,27.882 37.77,27.81ZM3.11,10.21C6.242,9.52 9.317,8.594 12.31,7.44C14.904,6.356 17.411,5.076 19.81,3.61C20.03,3.46 20.26,3.32 20.49,3.19L21.16,3.6C23.554,5.056 26.05,6.336 28.63,7.43C31.169,8.499 33.818,9.283 36.53,9.77L37.42,9.94L37.79,9.94C37.801,10.06 37.801,10.18 37.79,10.3L37.79,15.29L37.22,14L26.91,14L24.1,21L26.31,21L26.31,27.46C22.864,28.61 19.605,30.261 16.64,32.36C12.61,29.72 7.943,28.214 3.13,28L3.13,27.67L3.11,10.21ZM10.46,39.06C12.817,40.243 14.886,41.929 16.52,44C14.99,42.9 13.52,41.74 12.07,40.53C11.51,40 11,39.53 10.46,39.06ZM20.74,46.42C18.096,40.77 12.956,36.671 6.86,35.35C5.546,33.861 4.476,32.174 3.69,30.35C12.475,30.949 20.291,36.226 24.13,44.15C23.59,44.53 23.05,44.9 22.51,45.26C22,45.63 21.39,46 20.74,46.42ZM28.87,40.49C28.09,41.14 27.3,41.77 26.5,42.39L25.98,42.68C25.292,41.32 24.489,40.022 23.58,38.8C26.905,36.803 30.605,35.509 34.45,35C32.769,37.003 30.9,38.842 28.87,40.49Z" style="fill:rgb(236,97,16);fill-opacity:0.6;fill-rule:nonzero;"/>
            <path d="M8.05,21.78L6.52,23.31L8,24.76L9.5,23.23C10.045,23.596 10.657,23.851 11.3,23.98L11.3,26.14L13.3,26.14L13.3,24C13.943,23.871 14.555,23.616 15.1,23.25L16.63,24.78L18.08,23.33L16.6,21.78C16.969,21.237 17.224,20.624 17.35,19.98L19.51,19.98L19.51,17.93L17.35,17.93C17.221,17.287 16.966,16.675 16.6,16.13L18.13,14.61L16.68,13.16L15.15,14.68C14.603,14.319 13.992,14.064 13.35,13.93L13.35,11.78L11.35,11.78L11.35,13.93C10.708,14.064 10.097,14.319 9.55,14.68L8,13.16L6.52,14.61L8.05,16.13C7.684,16.675 7.429,17.287 7.3,17.93L5.15,17.93L5.15,20L7.3,20C7.429,20.637 7.684,21.243 8.05,21.78ZM12.33,15.88C14.02,15.88 15.41,17.27 15.41,18.96C15.41,20.65 14.019,22.04 12.33,22.04C10.655,22.04 9.272,20.674 9.25,19C9.25,18.987 9.25,18.973 9.25,18.96C9.25,17.27 10.64,15.88 12.33,15.88C12.33,15.88 12.33,15.88 12.33,15.88Z" style="fill:rgb(236,97,16);fill-opacity:0.6;fill-rule:nonzero;"/>
        </g>
    </g>
</svg>
