<svg xmlns="http://www.w3.org/2000/svg" viewBox="0 0 38.58 50"><defs><style>.cls-1{fill:#0bbbef;}.cls-2{fill:#0075c9;}</style></defs><g id="Слой_2" data-name="Слой 2"><g id="Слой_1-2" data-name="Слой 1"><path class="cls-1" d="M30.83,0A26.13,26.13,0,0,0,18.52,3.2C15.86,4.44,13.58,5.54,10,5.54A15.23,15.23,0,0,1,3.18,4L1.61,3.23C1.14,3,.64,2.77.12,2.54V8.22l1,.44a20.71,20.71,0,0,0,9,2.06c4.72,0,7.77-1.44,10.7-2.83s5.68-2.7,10.08-2.7a18.75,18.75,0,0,1,7.62,1.56V1.23A23.51,23.51,0,0,0,30.83,0Z"/><path class="cls-2" d="M30.81,16.14a18.78,18.78,0,0,1,2.95.22V29.22a12.54,12.54,0,0,1-2.13,7.15,18.53,18.53,0,0,1-5.17,5,29.93,29.93,0,0,1-7.17,3.52,31.65,31.65,0,0,1-7-3.38A18.73,18.73,0,0,1,7,36.47a12.63,12.63,0,0,1-2.19-7.25V21.08a22.68,22.68,0,0,0,5.19.59A24.85,24.85,0,0,0,21.7,18.62c2.8-1.34,5.21-2.48,9.11-2.48m0-4.84c-5,0-8.14,1.49-11.2,2.95-2.8,1.34-5.43,2.58-9.58,2.58A18,18,0,0,1,2.11,15L.5,14.28C.37,14.23,0,14,0,14V29.25C0,45.13,19.29,50,19.29,50s19.29-4.87,19.29-20.75V12.69a21.51,21.51,0,0,0-7.77-1.39Z"/></g></g></svg>