<svg xmlns="http://www.w3.org/2000/svg" viewBox="0 0 50.1 50"><defs><style>.cls-1{fill:#540002;}.cls-2{fill:#d00200;}</style></defs><g id="Слой_2" data-name="Слой 2"><g id="Слой_1-2" data-name="Слой 1"><rect x="22.89" y="22.84" width="4.31" height="4.31" transform="translate(-10.34 25.03) rotate(-45)"/><rect x="41.65" y="41.6" width="4.31" height="4.31" transform="translate(-18.11 43.79) rotate(-45)"/><rect x="41.64" y="4.12" width="4.31" height="4.31" transform="translate(8.39 32.81) rotate(-45)"/><rect x="4.09" y="41.61" width="4.31" height="4.31" transform="translate(-29.12 17.23) rotate(-45)"/><rect x="4.15" y="4.07" width="4.31" height="4.31" transform="translate(-2.55 6.28) rotate(-45)"/><polygon class="cls-1" points="25.08 9.5 15.58 0 9.36 6.22 25.08 21.95 25.08 9.5"/><polygon class="cls-2" points="34.52 0.06 25.08 9.5 25.08 9.5 25.08 21.95 25.08 21.95 40.75 6.28 34.52 0.06"/><rect class="cls-1" x="16.96" y="0.48" width="1.73" height="2.16" transform="translate(4.12 13.06) rotate(-45)"/><rect class="cls-1" x="19.61" y="3.13" width="1.73" height="2.16" transform="translate(3.02 15.71) rotate(-45)"/><rect class="cls-1" x="22.17" y="5.68" width="1.73" height="2.16" transform="translate(1.96 18.27) rotate(-45)"/><polygon class="cls-1" points="6.33 9.27 0.11 15.5 8.84 24.23 8.84 24.23 13.28 25.55 8.21 26.29 0 34.49 6.22 40.72 22 24.94 6.33 9.27"/><path class="cls-2" d="M39.56,24.35a2.79,2.79,0,0,1,2.72-2.15,2.76,2.76,0,0,1,.91.15l6.8-6.8L43.77,9.33l-15,15Z"/><path class="cls-2" d="M43.19,27.64a2.72,2.72,0,0,1-.91.16,2.79,2.79,0,0,1-2.72-2.16H28.74L43.88,40.77l6.22-6.22Z"/><circle class="cls-1" cx="4.13" cy="25" r="0.92"/><path class="cls-1" d="M24.54,41V39.68l-2.76,2.76a.64.64,0,0,1-.89,0,.63.63,0,0,1,0-.88l3.65-3.65v-1.2L22.29,39a.58.58,0,1,1-.82-.82l3-3,0,0v-1.3L22.61,35.7a.59.59,0,0,1-.82,0,.57.57,0,0,1,0-.82L24.63,32a.43.43,0,0,1,.23-.14.42.42,0,0,1,.2,0h0V28.05L9.36,43.78,15.58,50l9-9Z"/><path class="cls-2" d="M25.08,28.05h0v3.81h0a.45.45,0,0,1,.2,0,.51.51,0,0,1,.23.14l2.84,2.84a.57.57,0,0,1,0,.82.59.59,0,0,1-.82,0l-1.93-1.93v1.3h0l3.05,3.05a.58.58,0,1,1-.82.82l-2.24-2.24v1.2l3.64,3.65a.61.61,0,0,1,0,.88.63.63,0,0,1-.88,0l-2.76-2.76V41s0,0,0,.06l8.91,8.91,6.23-6.23Z"/></g></g></svg>