<svg xmlns="http://www.w3.org/2000/svg" xmlns:xlink="http://www.w3.org/1999/xlink" viewBox="0 0 49.74 50"><defs><style>.cls-1{fill:url(#Безымянный_градиент_6);}</style><linearGradient id="Безымянный_градиент_6" x1="44.23" y1="5.43" x2="8.29" y2="41.76" gradientUnits="userSpaceOnUse"><stop offset="0" stop-color="#6db43b"/><stop offset="0.15" stop-color="#67b33d"/><stop offset="0.33" stop-color="#58af43"/><stop offset="0.54" stop-color="#3daa4d"/><stop offset="0.77" stop-color="#19a25a"/><stop offset="0.86" stop-color="#099e60"/></linearGradient></defs><g id="Слой_2" data-name="Слой 2"><g id="Слой_1-2" data-name="Слой 1"><path class="cls-1" d="M47,43.64c-4.41-5.77-6.74-12-6.67-18.64S42.62,12.13,47,6.36c.62-.82,1.35-1.55,2-2.31A2.19,2.19,0,0,0,49.13,1,2.13,2.13,0,0,0,46.08.44c-1.2.87-2.28,1.9-3.44,2.82A28.82,28.82,0,0,1,24.87,9.48,28.8,28.8,0,0,1,7.1,3.26C5.94,2.34,4.86,1.31,3.66.44A2.13,2.13,0,0,0,.61,1a2.19,2.19,0,0,0,.07,3.1c.68.76,1.41,1.49,2,2.31,4.41,5.77,6.73,12,6.67,18.64S7.12,37.87,2.71,43.64c-.62.82-1.35,1.55-2,2.31a2.19,2.19,0,0,0-.07,3.1,2.13,2.13,0,0,0,3.05.51c1.2-.87,2.28-1.9,3.44-2.82a28.49,28.49,0,0,1,35.54,0c1.16.92,2.24,1.95,3.44,2.82a2.13,2.13,0,0,0,3.05-.51,2.19,2.19,0,0,0-.07-3.1C48.38,45.19,47.65,44.46,47,43.64Z"/></g></g></svg>