<svg xmlns="http://www.w3.org/2000/svg" viewBox="0 0 50.16 50"><defs><style>.cls-1{fill:#199bdd;}</style></defs><g id="Слой_2" data-name="Слой 2"><g id="Слой_1-2" data-name="Слой 1"><path class="cls-1" d="M15.26,35.64a13.37,13.37,0,0,1-11-2.45,11.08,11.08,0,0,1-.32-17.13c3.22-2.64,6.7-2.44,10.24-.66l.36.14-.05-.42C13.52,10,14.76,5.5,19,2.18A11.24,11.24,0,0,1,33.58,3.32a8.53,8.53,0,0,1,1.62,9.62l-.77,1.64a13.08,13.08,0,0,1,9.86,1.17,11.07,11.07,0,0,1,3.86,16.14,8.63,8.63,0,0,1-11.1,3.18c-.42-.18-.81-.62-1.49-.32a12.41,12.41,0,0,1-2,10.62,11.21,11.21,0,0,1-16.94,1.4c-3.23-3.3-3.09-7.05-1.21-11,.07-.09.22-.22.2-.24C15.49,35.35,15.37,35.47,15.26,35.64ZM28.4,18.24c-3.92-.67-5.65-1.67-6.88-3.86-2-3.5-.24-7.51,3.55-8.27C27.66,5.59,30.2,7.64,30,10a1.81,1.81,0,0,1-1.4,1.75,1.74,1.74,0,0,1-2-.92c-.29-.45-.2-1.43-1.17-1a1.56,1.56,0,0,0-.88,2,3.6,3.6,0,0,0,4.82,2.14,5.2,5.2,0,0,0,1.62-8.14,7.5,7.5,0,0,0-11.16.64c-2.95,3.85-2.45,8.64,1.34,12.81,2.78,3.06,3.32,3.07,6.1.12ZM32,28.33c.14-3.5,1.48-5.92,4.49-7.19a5.36,5.36,0,0,1,7.43,3.41c.8,2.84-1.28,5.68-3.9,5.34a1.82,1.82,0,0,1-.81-3.37c.55-.31,1.52-.33.95-1.34a1.59,1.59,0,0,0-2.08-.7,3.6,3.6,0,0,0-2,4.72,5.22,5.22,0,0,0,8.13,1.69,7.48,7.48,0,0,0-.69-11.24c-3.75-2.75-8.11-2.45-12.25,1S27.76,24.8,31,27.44ZM18.12,21.65c-.1,3.51-1.44,5.94-4.42,7.23a5.38,5.38,0,0,1-7.56-3.7c-.6-2.65,1.47-5.33,3.91-5.08a1.82,1.82,0,0,1,1.74,1.41,1.7,1.7,0,0,1-.9,2c-.5.3-1.56.26-.91,1.32a1.63,1.63,0,0,0,2.09.7A3.61,3.61,0,0,0,14,20.64a5.17,5.17,0,0,0-8.18-1.35A7.42,7.42,0,0,0,7,30.6c3.78,2.51,8.08,2.12,11.93-1.24,3.37-2.95,4.12-3.67.27-6.79C18.89,22.35,18.63,22.1,18.12,21.65ZM21.69,31.9c3.48.13,5.93,1.45,7.23,4.42a5.33,5.33,0,0,1-3.13,7.4c-2.89,1-5.9-1-5.64-3.72a1.83,1.83,0,0,1,3.44-.82c.26.5.32,1.36,1.23.91a1.57,1.57,0,0,0,.81-2,3.57,3.57,0,0,0-4.86-2,5.15,5.15,0,0,0-1.38,8.27A7.53,7.53,0,0,0,30.84,42.8c2.47-4,1.71-8.43-2.11-12.47-2.55-2.69-3.09-2.69-5.57,0Z"/><path class="cls-1" d="M10.49,8.57a1.94,1.94,0,0,1,2.07,2.1,1.88,1.88,0,0,1-2,2,1.9,1.9,0,0,1-2.07-2.09A1.91,1.91,0,0,1,10.49,8.57Z"/><path class="cls-1" d="M10.5,37.51c1.41.07,2.2.77,2.2,2.06a1.89,1.89,0,0,1-2,2,2,2,0,0,1-.22-4.06Z"/><path class="cls-1" d="M41.53,10.61a2,2,0,0,1-4.06-.18,1.93,1.93,0,0,1,2.2-2A1.89,1.89,0,0,1,41.53,10.61Z"/><path class="cls-1" d="M39.56,41.41a1.85,1.85,0,0,1-1.9-2,1.88,1.88,0,0,1,2.09-2,1.92,1.92,0,0,1,2,2A1.94,1.94,0,0,1,39.56,41.41Z"/><path class="cls-1" d="M15.26,35.64c.11-.17.23-.29.38-.06,0,0-.13.15-.2.24Z"/></g></g></svg>