<svg xmlns="http://www.w3.org/2000/svg" viewBox="0 0 38.34 50"><defs><style>.cls-1{fill:#c61832;}.cls-2{fill:#14394e;}.cls-3{fill:#34b1b8;}.cls-4{fill:#c61a34;}</style></defs><g id="Слой_2" data-name="Слой 2"><g id="Слой_1-2" data-name="Слой 1"><path class="cls-1" d="M33,5.24H29.36l2.93-2.91a.6.6,0,0,1,.48-.13h5.12c.33,0,.46.07.45.43,0,1.75,0,3.49,0,5.23a.52.52,0,0,1-.11.43l-2.92,2.9V7.61c-.25-.05-.31.12-.41.22L14.36,28.38a1,1,0,0,0-.32.8c0,1,0,1.93,0,2.9,0,.18.05.38-.11.53l-2.85,2.85V32.05c0-.68,0-1.36,0-2,0-.41-.12-.52-.51-.52-1.67,0-3.34,0-5,0l-.41,0a22.08,22.08,0,0,0,1.67-1.7,2.92,2.92,0,0,1,3-1.24,3.69,3.69,0,0,0,3.48-1.41c6.38-6.48,12.84-12.9,19.27-19.33a3.08,3.08,0,0,1,.5-.37Z"/><path class="cls-2" d="M20.68,24.51v.77q0,9.15,0,18.31c0,.22-.13.53.18.65s.39-.19.54-.33c.31-.29.59-.6.9-.88a1.51,1.51,0,0,1,2.1,0,1.49,1.49,0,0,1,.05,2.15c-1.46,1.49-2.94,3-4.42,4.42a1.22,1.22,0,0,1-1.79,0c-1.47-1.46-2.93-2.91-4.38-4.39a1.5,1.5,0,0,1,0-2.19,1.54,1.54,0,0,1,2.15,0c.32.3.62.62.93.92.13.13.24.34.47.25s.17-.31.17-.49c0-.46,0-.91,0-1.37,0-4.75,0-9.51,0-14.27a1.12,1.12,0,0,1,.36-.89C18.85,26.37,19.71,25.49,20.68,24.51Z"/><path class="cls-3" d="M15.84,20.22,13,17.32,3.75,8.11c-.12-.12-.23-.25-.36-.36S3.2,7.46,3,7.54,3,7.82,2.94,8c0,.89,0,1.78,0,2.67,0,.44-.11.55-.53.52-.64,0-1.29,0-1.93,0-.36,0-.49-.06-.49-.46C0,8,0,5.35,0,2.68c0-.31.07-.43.4-.43q4,0,8.07,0c.31,0,.45.05.44.4q0,1.08,0,2.16c0,.33-.11.41-.42.4-1.08,0-2.16,0-3.27,0,0,.29.22.4.37.55q4.9,4.92,9.84,9.84a1.21,1.21,0,0,1,.42,1C15.82,17.75,15.84,18.9,15.84,20.22Z"/><path class="cls-3" d="M22.6,22.78c.79.79,1.59,1.57,2.35,2.39a1.46,1.46,0,0,0,1.24.5c2.14,0,4.28,0,6.43,0,.4,0,.52.11.5.51a15.79,15.79,0,0,0,0,1.82c0,.43-.08.57-.55.57-1.91,0-3.83,0-5.74,0-.46,0-.62.11-.61.59,0,1.94,0,3.87,0,5.8,0,.39-.08.54-.49.51-.63,0-1.25,0-1.88,0-.4,0-.5-.1-.5-.5,0-2.16,0-4.32,0-6.48a1.28,1.28,0,0,0-.51-1.18,1.13,1.13,0,0,1-.44-1c0-1.13,0-2.26,0-3.39Z"/><path class="cls-3" d="M28.57,35.73c0-1.44,0-2.88,0-4.32,0-.39.05-.55.51-.55,2.92,0,5.83,0,8.75,0,.36,0,.5.08.48.46,0,.66,0,1.33,0,2,0,.37-.12.44-.46.43-2,0-3.9,0-5.85,0-.47,0-.57.15-.56.58,0,1.91,0,3.83,0,5.74,0,.46-.13.58-.57.55-.62,0-1.25,0-1.87,0-.35,0-.46-.08-.45-.44C28.58,38.69,28.57,37.21,28.57,35.73Z"/><path class="cls-2" d="M17.61,18.21c0-1.73,0-3.47,0-5.21a1.38,1.38,0,0,0-.48-1.13c-.66-.6-1.27-1.24-1.9-1.88a1.53,1.53,0,0,1-.13-2.18,1.5,1.5,0,0,1,2.22.08c.48.46.95.92,1.41,1.4.28.31.5.33.79,0,.47-.5,1-1,1.45-1.45a1.48,1.48,0,0,1,2.17,0,1.51,1.51,0,0,1-.07,2.14Q22,11,21,12.07a.86.86,0,0,0-.29.69,6.65,6.65,0,0,1-.09,2.53c-.3.72-1.14,1.23-1.74,1.84-.37.37-.73.76-1.1,1.14Z"/><path class="cls-4" d="M5.89,40.68c0-1.93,0-3.69,0-5.45,0-.42-.09-.54-.52-.54-1.77,0-3.53,0-5.35,0a4.15,4.15,0,0,1,.84-.92c.66-.68,1.23-1.61,2-1.94a8.52,8.52,0,0,1,2.87-.1c.89,0,1.78,0,2.67,0,.32,0,.41.09.41.41,0,1.74,0,3.49,0,5.23a.59.59,0,0,1-.14.47C7.8,38.75,6.9,39.66,5.89,40.68Z"/><path class="cls-2" d="M14.73,1.51A1.38,1.38,0,0,1,15.58.15a1.37,1.37,0,0,1,1.59.24c.51.47,1,1,1.48,1.48s.62.42,1,0S20.53,1,21,.52A1.48,1.48,0,0,1,23.16.46a1.49,1.49,0,0,1-.07,2.14C21.92,3.79,20.73,5,19.56,6.14c-.29.29-.51.32-.81,0Q17,4.36,15.18,2.58A1.45,1.45,0,0,1,14.73,1.51Z"/></g></g></svg>