<svg xmlns="http://www.w3.org/2000/svg" viewBox="0 0 145.45 50"><defs><style>.cls-1{fill:#0ad;}.cls-2{fill:#e50;}.cls-3{fill:#fc0;}.cls-4{fill:#7b2;}.cls-5{fill:#fff;}</style></defs><g id="Слой_2" data-name="Слой 2"><g id="Слой_1-2" data-name="Слой 1"><path class="cls-1" d="M19,3.79c4.46,0,19,11.71,19,23.58A18.8,18.8,0,0,1,19,46,18.8,18.8,0,0,1,0,27.37C0,15.5,14.51,3.79,19,3.79Z"/><path class="cls-2" d="M122.36,10.55c5.69,0,8.25-3.13,15.67-3.13,4.53,0,7.42,3.3,7.42,8.41,0,10.39-10.64,28.86-23.09,28.86S99.27,26.22,99.27,15.83c0-5.11,2.89-8.41,7.43-8.41C114.12,7.42,116.67,10.55,122.36,10.55Z"/><path class="cls-3" d="M88.23,2c3.71,0,7.91,5.85,11.54,8.24,8.41,5.2,11.54,12.87,11.54,19,0,9.11-10.33,16.49-23.08,16.49S65.14,38.3,65.14,29.19c0-6.1,3.13-13.77,11.54-19C80.31,7.83,84.52,2,88.23,2Z"/><path class="cls-4" d="M53.1,0c1,0,.4,5.41,4.42,6.33s6.17-4.19,7.06-3.76-2.11,5,1,7.46,7.51-1.31,8.12-.53-4.22,3.69-2.51,7.19,7.31,1.88,7.52,2.84S73.22,21.11,73.22,25s5.75,4.52,5.54,5.47-5.74-.65-7.52,2.84,3.12,6.42,2.51,7.19-4.88-3-8.12-.53-.16,7-1,7.46-3-4.62-7.06-3.76S54.09,50,53.1,50s-.4-5.41-4.42-6.33-6.17,4.19-7.06,3.76,2.11-5-1-7.46-7.51,1.31-8.12.53,4.23-3.69,2.51-7.19-7.3-1.88-7.52-2.84S33,28.89,33,25s-5.75-4.52-5.54-5.47,5.74.65,7.52-2.84-3.12-6.42-2.51-7.19,4.89,3,8.12.53.16-7,1-7.46,3,4.62,7.06,3.76S52.11,0,53.1,0Z"/><path class="cls-5" d="M24.41,36A1.94,1.94,0,0,1,23,35.4L15.5,28.18v5.63a2,2,0,0,1-4,0V18a2,2,0,0,1,4,0v5.35l7.24-6.64a2,2,0,1,1,2.67,2.92L18.7,25.76l7.08,6.78a2,2,0,0,1,.06,2.8A2,2,0,0,1,24.41,36Z"/><path class="cls-5" d="M88.06,36a2,2,0,0,1-2-2V18.14a2,2,0,0,1,4,0V34A2,2,0,0,1,88.06,36Z"/><path class="cls-5" d="M127.5,25.55a15.93,15.93,0,0,1,1,1.37,5.85,5.85,0,0,1-2.17,8,7,7,0,0,1-3.64,1h-5.18a2,2,0,0,1-2.09-2.08q0-7.84,0-15.69a2,2,0,0,1,2-2.06c2,0,4,0,6,0a4.86,4.86,0,0,1,4.2,2.33,6.07,6.07,0,0,1,0,6.89ZM119.43,32c1.23,0,2.43,0,3.63,0a2.43,2.43,0,0,0,1.72-.82,1.78,1.78,0,0,0,0-2.5,2.53,2.53,0,0,0-1.84-.86c-1.12,0-2.25,0-3.38,0l-.16,0Zm0-11.82v3.58h.3c1.17,0,2.35,0,3.52,0a1.12,1.12,0,0,0,.94-.44,2.22,2.22,0,0,0,0-2.69,1.22,1.22,0,0,0-1-.46h-3.8Z"/><path class="cls-5" d="M49.29,27.76l1.85-2.46L57.35,17a2,2,0,0,1,3.7,1.24q0,7.82,0,15.64a2,2,0,0,1-4,.42,2.26,2.26,0,0,1,0-.45q0-4.63,0-9.25v-.38l-1.45,1.94c-2.24,3-4.47,6-6.72,8.94a2,2,0,0,1-3.6-.68,3,3,0,0,1-.08-.79V18.45a2.15,2.15,0,0,1,.89-2,2,2,0,0,1,2-.14A1.83,1.83,0,0,1,49.18,18c0,1.13,0,2.27,0,3.4,0,2,0,4,0,6v.33Z"/><circle class="cls-5" cx="85.12" cy="11.89" r="1.86"/><circle class="cls-5" cx="90.98" cy="11.89" r="1.86"/></g></g></svg>