<svg xmlns="http://www.w3.org/2000/svg" viewBox="0 0 98.59 50"><defs><style>.cls-1{fill:#e1222a;}.cls-2{fill:#08a1e2;}.cls-3{fill:#e12028;}.cls-4{fill:#fbcc09;}.cls-5{fill:#2d2e2b;}</style></defs><g id="Слой_2" data-name="Слой 2"><g id="Слой_1-2" data-name="Слой 1"><path class="cls-1" d="M74.51.29c.74-.56.95,0,1,.56A14.52,14.52,0,0,0,76.14,3c.23-1.18,1.32-1.45,1.38-2.5,0-.4.77-.74,1-.13.29.94,1.11,1.48,1.51,2.41.32-.9,1.27-1.31,1.43-2.34a.49.49,0,0,1,1,0c.22,1,1.05,1.45,1.47,2.34.34-.9,1.23-1.35,1.44-2.35.11-.55.93-.4,1,0,.1,1.05,1.1,1.41,1.41,2.34C88,1.82,88.92,1.4,89.08.43a.5.5,0,0,1,1-.06c.24.93,1,1.44,1.43,2.34A7.42,7.42,0,0,0,92.28.47l.12.37c.22-.16.06-.33,0-.49l0,0c.6.17.73.59.72,1.17,0,2.63,0,5.27,0,7.9v2.24h.16l.1-1.29c.73,5.34,1.83,10.63,2.71,16,.11.68.38.95,1.06.86s1.36.07,1.32.95-.67.91-1.34.91c-2.82,0-5.65,0-8.47,0-.74,0-.83-.28-.81-.9s0-1.05.82-1c1.29.08,2.59,0,3.88,0,.79,0,.91-.28.79-1C92.56,21.78,91.8,17.37,91,13a39.47,39.47,0,0,1-.3-6.7c0-1-.14-1.88-1.17-2.24a1.75,1.75,0,0,0-2.21,1c-1.45-1.45-2.29-1.44-3.47.06-.47-.5-.82-1.13-1.65-1.13A1.89,1.89,0,0,0,80.51,5c-.34,0-.39-.31-.53-.47A1.59,1.59,0,0,0,78.13,4,1.62,1.62,0,0,0,77,5.56c0,.92-.06,1.84,0,2.75.25,4-1,7.87-1.53,11.78-.3,2.05-.71,4.08-1.1,6.12-.12.66,0,1,.78.94,1.33-.06,2.66,0,4,0,.86,0,.71.49.72,1s.08.95-.69.91c-1.25-.05-2.51,0-3.77,0a.5.5,0,0,0-.82,0L68,29a1.22,1.22,0,0,0,0-.17.09.09,0,0,0-.07-.06H61.55c-.1,0-.09.15,0,.23-4.79,0-9.59,0-14.38-.11-5-.08-9.93-.23-14.89-.37a5.72,5.72,0,0,1-5-3.91l7.77.94c6.42.77,12.87,1.15,19.32,1.42,5.31.23,10.62.1,15.93.17.85,0,1.22-.21,1.37-1.12.79-4.76,1.76-9.49,2.45-14.26.41-2.82.07-5.7.14-8.55a12,12,0,0,1,.1-2.74c0,.45.06.9.11,1.61A5.14,5.14,0,0,0,74.51.29Zm-.05,11.49,0,.15s.06,0,.06-.07S74.47,11.81,74.46,11.78Zm0-1.14,0-.08s0,0-.06.07,0,0,0,.08Zm0-7.91s0,0,0-.08l-.07,0a.32.32,0,0,0,0,.09S74.45,2.72,74.47,2.73Z"/><path class="cls-2" d="M29.74,28.51A5.52,5.52,0,0,1,23.07,23a11.56,11.56,0,0,1,1.43-6.17,6.9,6.9,0,0,0,1.06-3.57,3.08,3.08,0,0,0-2.1-3,6.07,6.07,0,0,0-4.57.12A3.43,3.43,0,0,0,17,15.22c.41,1,1,1.93,1.48,2.9a5.31,5.31,0,0,1,.76,3,2.25,2.25,0,0,1-2.33,2.09c.4-1-.18-1.76-.64-2.52-1-1.57-2-3.07-2.92-4.66C11.74,13.14,12.27,10.92,15,9,19.57,5.6,25.39,6.1,29,10.12a4.12,4.12,0,0,1,.93,4.16c-.58,2-1.81,3.71-2.72,5.57-1.76,3.59-1,6.26,2.33,8.45A1,1,0,0,1,29.74,28.51Z"/><path class="cls-3" d="M19.41,22.76c-.24,2.78-2,3.95-4.49,3.31a20.93,20.93,0,0,1-4.66-2,5.87,5.87,0,0,0-4-.84,3.15,3.15,0,0,0-2.5,2.27c-.9,2.75.39,5.65,2.83,6.33a5.21,5.21,0,0,0,3.92-.7,14.84,14.84,0,0,1,3.75-1.55,3.26,3.26,0,0,1,2.63.49,1.72,1.72,0,0,1,.73,1.68c-.06.74-.67.53-1.07.66a26.81,26.81,0,0,0-4.67,2.26,18,18,0,0,1-3.34,1.52,5.37,5.37,0,0,1-6.26-1.94,11.31,11.31,0,0,1-.49-12.89c1.71-2.42,4-3,6.7-1.77a37,37,0,0,1,4.8,2.88,15.53,15.53,0,0,0,1.86,1.05C16.62,24.19,18.08,24.46,19.41,22.76Z"/><path class="cls-4" d="M16.69,29.06a3.5,3.5,0,0,1,4,3,8.35,8.35,0,0,1-1.14,6.16,7.34,7.34,0,0,0-1,2.42,3.13,3.13,0,0,0,1.67,3.52,5.63,5.63,0,0,0,5.48.15c1.49-.77,2-2,1.29-3.9a29.64,29.64,0,0,0-1.64-3.16,25.3,25.3,0,0,1-1.1-2.29c-.93-2.46.09-4,2.86-4.24-.53.65-1.13,1.21-1,2.13A5.49,5.49,0,0,0,27.06,35c1,1.5,2.3,2.76,3.18,4.35a5.78,5.78,0,0,1,.88,4.55,4.56,4.56,0,0,1-2.83,2.76,12.53,12.53,0,0,1-11.49-.25c-3-1.56-3.65-4-2.07-7.14.95-1.87,2-3.67,3-5.54C18.86,31.65,18.61,30.57,16.69,29.06Z"/><path class="cls-5" d="M71.71,50c.14-2.33.14-2.33-2.2-2.33-.85,0-1.7-.05-2.55,0-2.77.2-4.35-1.17-4.48-4.5-.07-2.07.12-4.15-.11-6.22a2.07,2.07,0,0,0-.44-1.33c-.77-.72-.18-1,.35-1.3a2.51,2.51,0,0,1,4,2.31c0,2.59,0,5.17,0,7.76,0,1.15.63,1.91,1.54,1.87s1.44-.75,1.44-1.86c0-3.06,0-6.12,0-9.18,0-.81.19-1.23,1.09-1.13a8.43,8.43,0,0,0,1.74,0c.84-.09,1,.3,1,1.07,0,3.09,0,6.18,0,9.28,0,.57.08.91.76,1s1.06.76.88,1.56C74.31,48.6,73.16,49.38,71.71,50Z"/><path class="cls-5" d="M92.94,39.42c.37,0,.67,0,1,0,2,.22,2.94,1.19,3.12,3.22a10.9,10.9,0,0,0,.45,2.9c.06.16.18.3.23.46.11.36.79.38.63.78s-.71.6-1.15.78a2.38,2.38,0,0,1-3.5-2.28c0-.79,0-1.57,0-2.35a1.6,1.6,0,0,0-1.53-1.69,1.54,1.54,0,0,0-1.5,1.7c0,1.22,0,2.44,0,3.67,0,.71-.2,1-1,1-2.74,0-2.74,0-2.74-2.67,0-2.31,0-4.62,0-6.93a3.7,3.7,0,0,0-.85-2.84c-.33-.32,0-.49.14-.64A2.78,2.78,0,0,1,89,34.05a2.11,2.11,0,0,1,1.58,2c0,1,.06,2,.1,3,0,.31-.12.78.34.82s.41-.39.5-.68a9.76,9.76,0,0,1,2.07-3.92,3.43,3.43,0,0,1,3.72-1.24,1.94,1.94,0,0,1,.55,3.37c-.49.41-1,.72-1.46-.13-.35-.66-.92-.72-1.55-.32A4.53,4.53,0,0,0,92.94,39.42Z"/><path class="cls-5" d="M48,40.85c0,1.94,0,3.88,0,5.82,0,.71-.21,1-1,1-2.72,0-2.72,0-2.72-2.71V37.44a1.72,1.72,0,0,0-1.21-1.9c-1.06-.29-1.9.5-1.91,1.77,0,2,0,4.08,0,6.12a5,5,0,0,1-.83,3.09,3.06,3.06,0,0,1-4.9.12c-.29-.41-.49-.7.26-.89a2.63,2.63,0,0,0,1.8-2.15c.6-2.13.79-4.34,1.3-6.48.47-1.92,1.4-2.85,3.35-3,1.7-.1,3.41,0,5.11,0,.68,0,.75.41.75.93Z"/><path class="cls-5" d="M60.28,38.81a20.43,20.43,0,0,1-.38,5.39,4.51,4.51,0,0,1-4.49,3.58,7.16,7.16,0,0,1-3.49-.46,2.25,2.25,0,0,1-1.38-2.64,2.29,2.29,0,0,1,2.65-1.41c.47.11,1.07.16.54,1A1.27,1.27,0,0,0,54,45.9a1.36,1.36,0,0,0,1.58.37,1.47,1.47,0,0,0,1-1.41c0-.78,0-1.56,0-2.34s-.3-.92-1-.69a5.11,5.11,0,0,1-3.18.32,3,3,0,0,1-2.39-3c-.07-1,0-2.1-.17-3.15-.06-.49-1-.95,0-1.52a2.54,2.54,0,0,1,2.6-.26A1.76,1.76,0,0,1,53.55,36c0,.92,0,1.84,0,2.75,0,1.08.69,1.78,1.59,1.74a1.57,1.57,0,0,0,1.44-1.75c0-1.23,0-2.45,0-3.67,0-.64.18-1,.87-.93a19.83,19.83,0,0,0,2,0c.63,0,.83.24.81.85C60.26,36.18,60.28,37.4,60.28,38.81Z"/><path class="cls-5" d="M75.27,39c0-1.29,0-2.58,0-3.87,0-.79.27-1,1-1a11.18,11.18,0,0,0,1.83,0c.74-.05,1,.27.93,1,0,1,0,2,0,3.06,0,.62.19,1,.85.56a3.57,3.57,0,0,1,4.37.22,4.44,4.44,0,0,1,1.62,4.84c-1.08,4.47-6.27,4.9-8.88,3.17-1.33-.87-1.55-2.35-1.65-3.78s0-2.79,0-4.18ZM79,43.1v.81c0,.31,0,.61,0,.91a1.57,1.57,0,0,0,1.58,1.54,1.47,1.47,0,0,0,1.55-1.44,30,30,0,0,0,0-3.55,1.55,1.55,0,0,0-1.6-1.5A1.6,1.6,0,0,0,79,41.48C79,42,79,42.56,79,43.1Z"/><path class="cls-3" d="M86.6,25.2c0,1,0,2,0,3.06,0,.48-.07.76-.65.75q-2.14,0-4.29,0c-.52,0-.63-.2-.62-.67,0-2.07,0-4.15,0-6.22A2.75,2.75,0,0,1,84,19.42a2.81,2.81,0,0,1,2.65,2.82C86.61,23.23,86.6,24.21,86.6,25.2Z"/><path class="cls-1" d="M86,10.18c0-.64-.12-1.23.38-1.69A1.33,1.33,0,0,1,88.47,9a1.92,1.92,0,0,1,.09.59c.15,1.88-.35,2.32-2.19,1.89C85.54,11.26,86.2,10.53,86,10.18Z"/><path class="cls-1" d="M85.13,10.24c-.15.34.33,1-.29,1.17a6.86,6.86,0,0,1-2.12,0c-.21,0-.17-.34-.17-.54,0-.44,0-.88,0-1.32,0-.83.4-1.37,1.29-1.37s1.25.56,1.28,1.39Z"/><path class="cls-3" d="M81.7,10.3c-.1.32.26,1-.24,1.1a8.82,8.82,0,0,1-2.12,0,.1.1,0,0,1-.08,0,6,6,0,0,1-.05-2.31,1,1,0,0,1,.88-.87C81.14,7.93,81.71,8.64,81.7,10.3Z"/><path class="cls-3" d="M93.4,10.33l-.1,1.29h-.16V9.38c0-2.63,0-5.27,0-7.9,0-.58-.12-1-.72-1.17.41-.58.66-.23.91.16l0,.29C93.53,4,93.48,7.14,93.4,10.33Z"/><path class="cls-3" d="M61.54,29c-.08-.08-.09-.23,0-.23h6.38a.09.09,0,0,1,.07.06A1.22,1.22,0,0,1,68,29C65.83,29.13,63.68,29.12,61.54,29Z"/><path class="cls-3" d="M74.51.29a5.14,5.14,0,0,1-.09,1.83c0-.71-.08-1.16-.11-1.61Z"/><path class="cls-3" d="M74.55,29a.5.5,0,0,1,.82,0Z"/><path class="cls-3" d="M92.4.35c.06.16.22.33,0,.49L92.28.47A.13.13,0,0,1,92.4.35Z"/><path class="cls-1" d="M93.37.76l0-.29C93.48.55,93.47.65,93.37.76Z"/><path class="cls-3" d="M74.46,11.78s0,.06,0,.08,0,.05-.06.07S74.45,11.83,74.46,11.78Z"/><path class="cls-3" d="M74.5,10.64l-.06.07s0-.06,0-.08,0-.05.06-.07Z"/><path class="cls-3" d="M74.47,2.73s-.07,0-.07,0a.32.32,0,0,1,0-.09l.07,0S74.48,2.7,74.47,2.73Z"/></g></g></svg>