<svg xmlns="http://www.w3.org/2000/svg" viewBox="0 0 64.64 50"><defs><style>.cls-1{fill:#ed1e24;}.cls-2{fill:#f58e1f;}.cls-3{fill:#ab218e;}.cls-4{fill:#0189ce;}.cls-5{fill:#00984a;}</style></defs><g id="Слой_2" data-name="Слой 2"><g id="Слой_1-2" data-name="Слой 1"><path class="cls-1" d="M13.72,15a14.51,14.51,0,0,1,.63-5c.06-.21.11-.53.37-.53s.33.29.43.54c.44,1.08.33,2.27.67,3.4.42-.14.41-.52.44-.82a2.81,2.81,0,0,1,1.29-2.13,1.61,1.61,0,0,0,.3-2.32.91.91,0,0,1-.07-1.3,2.4,2.4,0,0,1,.46-.59c1-.77.79-1.76.62-2.78-.06-.36-.22-.5-.55-.45a.45.45,0,0,1-.57-.44c0-.22.27-.35.54-.33.58,0,.57-.39.48-.76a3,3,0,0,1,0-.95c0-.25.08-.6.45-.58s.44.35.42.61c0,.42.15.79.14,1.19s.14.52.49.49.63.09.65.45-.33.33-.57.31a.34.34,0,0,0-.39.32,7.49,7.49,0,0,0-.05,2.06c0,.17.13.17.26.21a2.27,2.27,0,0,1,1.22,1.29,1,1,0,0,1,0,1,3.47,3.47,0,0,0-.49,1.46.56.56,0,0,0,.3.71,10.58,10.58,0,0,1,1.08.64,2.22,2.22,0,0,1,1,1.88c0,.15,0,.3.18.38a1.78,1.78,0,0,0,.2-.88c0-1.12.19-2.24.14-3.37,0-.24,0-.65.37-.68s.47.25.54.57A14.85,14.85,0,0,1,25,12.29c0,.44,0,.8.49,1.05a.48.48,0,0,1,.07.87c-.48.3-.43.71-.43,1.15,0,2.15,0,4.31,0,6.47a15.9,15.9,0,0,0,0,3.9c0,.3,0,.6,0,.9-.09,1.68.11,3.36.15,5s.12,3.52.26,5.27c.19,2.47.41,4.93.52,7.4.05,1.07,0,2.13.1,3.19a2.28,2.28,0,0,1-.22.84c-.1.32-.36.57-.62.55a.82.82,0,0,1-.7-.65,33.63,33.63,0,0,1-.52-3.74c-.18-2-.37-4-.49-6-.05-.91-.08-1.82-.2-2.76-.5.2-1.09.21-1.36.81-.09.2-.29.26-.54.12a.73.73,0,0,0-1.14.36c-.19.35-.47.34-.61,0s-.4-.4-.74-.41a18.19,18.19,0,0,1-3.3-.11c-.28-.07-.43,0-.5.38-.19,1-.22,2-.34,3.07-.19,1.58-.29,3.18-.51,4.77-.17,1.25-.26,2.51-.4,3.77A2.09,2.09,0,0,1,13.4,50a1,1,0,0,1-.34-.84c0-2.37-.07-4.75,0-7.12.08-1.78.07-3.56.24-5.33.14-1.4.15-2.8.28-4.19.14-1.57,0-3.15.11-4.72a6.39,6.39,0,0,0,.08-1.9c0-.28,0-.56,0-.83s0-.53-.36-.67-.29-.56,0-.75.38-.6.38-1c0-1.92,0-3.85,0-5.77A5.93,5.93,0,0,0,13.72,15Zm7.7,19.09a7.32,7.32,0,0,0,0-2.47,3.3,3.3,0,0,0-.59-1.89,1.19,1.19,0,0,0-.45,1.13c.15,1.4.11,2.8.13,4.2,0,.16-.1.42.22.41s.48,0,.53-.32S21.37,34.47,21.42,34.12ZM15.14,15.76v1.92c-.13,1.77.23,3.53.1,5.3,0,.23.06.35.32.35s.33-.18.33-.41c0-1,0-1.92,0-2.88a3.85,3.85,0,0,1,.47-1.87c.23-.39.51-.71,1-.6s.49.54.57.89a32,32,0,0,1,.52,4.26c0,.2-.1.55.3.46.24-.05.61,0,.6-.46A17.94,17.94,0,0,1,19.46,20,6.88,6.88,0,0,1,20,17.8c.21-.42.44-.69,1-.64s.7.36.86.78a8.39,8.39,0,0,1,.5,2.9v2c.31-.36.81-.18.76-.68a25,25,0,0,1,.14-2.6,22.34,22.34,0,0,1,.42-4.09c.12-.58-.05-.5-.44-.41a15.29,15.29,0,0,1-3.63.45c-1.3,0-2.6,0-3.91,0C15.47,15.51,15.13,15.32,15.14,15.76Zm7.29,19.05c1-.35,1-.44.81-1.39a.88.88,0,0,1,0-.32c.06-1.57-.19-3.14-.14-4.72,0-1.35,0-2.69,0-4,0-.39-.1-.5-.5-.51-1.09,0-2.16.11-3.25.16-.26,0-.64,0-.8.34s-.35.33-.65.17c-.46-.24-.94-.31-1.26.22-.23.36-.41.4-.61,0a.41.41,0,0,0-.41-.23c-.28,0-.18.23-.24.37a1.48,1.48,0,0,0-.11.8c0,.94.05,1.87.09,2.8.09,2.24,0,4.49,0,6.74,0,.33-.12.61.41.59s.56-.25.5-.61a36.27,36.27,0,0,1-.13-4.66,11.65,11.65,0,0,1,.44-3.05c.1-.42.25-1,.73-1s.86.38,1.08.84a2.77,2.77,0,0,1,.2.53,31.75,31.75,0,0,1,.5,5.15c0,.81,0,1.63,0,2.44,0,.22,0,.38.31.35a.33.33,0,0,0,.33-.38c0-.19-.12-.37-.12-.55a35.81,35.81,0,0,1,.26-6.55c.09-.43.13-1,.7-1.09s.86.37,1.1.81a1.44,1.44,0,0,1,.21.38c.15.83.3,1.65.41,2.48A30.15,30.15,0,0,1,22.43,34.81ZM19.85,9.37a1.82,1.82,0,0,1,.33-1.75c.21-.28-.31-.54-.44-.83a.22.22,0,0,0-.31-.11A.89.89,0,0,0,19,8a.7.7,0,0,1,.1.48c0,.6,0,1.2,0,1.79a.71.71,0,0,1-.39.73,2.83,2.83,0,0,0-1.42,2.1c-.17.82.22,1.32,1,1.21,1.12-.15,2.23-.41,3.35-.49.26,0,.27-.16.2-.35a2.91,2.91,0,0,0-1.09-1.57c-.79-.55-1.35-1.18-.93-2.23A1.5,1.5,0,0,0,19.85,9.37ZM17,32.56a18.61,18.61,0,0,0,.12,2.79c0,.3,0,.54.43.55s.46-.23.48-.57c.08-1.47-.14-2.92-.16-4.39a3.36,3.36,0,0,0-.22-1.35c-.05-.12-.06-.29-.18-.3s-.18.18-.23.32A9.74,9.74,0,0,0,17,32.56ZM16.86,18.5a22.38,22.38,0,0,0-.2,4.36c0,.54.4.29.64.34s.46-.13.37-.41a13.7,13.7,0,0,1-.13-2A4.23,4.23,0,0,0,16.86,18.5Zm3.56,4.33c.34-.24.79,0,1-.22s-.15-.66,0-1a.24.24,0,0,0,0-.12,11.91,11.91,0,0,0-.35-2.15c-.07-.14-.11-.32-.27-.32s-.26.23-.26.36C20.58,20.5,20.25,21.63,20.42,22.83Z"/><path class="cls-2" d="M30.35,13.56a8,8,0,0,1-2.18.14A1.2,1.2,0,0,1,27,12.4c0-.32.22-.37.48-.36,1.28,0,2.54-.22,3.82-.13.34,0,.55,0,.63-.45.16-1,.54-1.88.66-2.84a7.49,7.49,0,0,0-.26-1.84A14.54,14.54,0,0,1,32,4.41c0-.2,0-.43.26-.44,1.41,0,2.77-.48,4.18-.53.53,0,.82.12.84.74a15.94,15.94,0,0,1,.25,1.61c0,.3-.12.4-.43.5-.85.27-1.67-.15-2.51,0a4.44,4.44,0,0,1-.63,0c-.68,0-.77.42-.67,1s.21,1.32.27,2c0,.52.65.68.86,1.14.12.28.47.46.57.74.33.94,1,1,1.85.91a4.6,4.6,0,0,1,.83,0c.39,0,.69,0,.77-.5a.58.58,0,0,1,.57-.51c.26,0,.26.32.32.53a.63.63,0,0,0,.56.53c.75.14.83.37.58,1.13-.16.49-.37,1-.49,1.47s-.26.92-.83,1c-.17,0-.21.14-.23.31-.07,1.29-.15,2.58-.25,3.86-.16,2.13-.31,4.26-.41,6.4,0,.61-.06,1.22-.1,1.83-.19,2.77-.11,5.54-.13,8.31,0,.3-.1.61.42.66.35,0,.34.93-.07,1.17a.68.68,0,0,0-.35.73c0,1.34-.09,2.7,0,4,.16,1.83,0,3.68.37,5.49.06.36-.13.66-.16,1,0,.15-.16.21-.33.22a.53.53,0,0,1-.51-.32,4.8,4.8,0,0,1-.54-2c-.2-1.66-.22-3.34-.3-5,0-1,0-2-.08-3.05s-.1-1.09-1.11-1.13c-1.39-.06-2.76.17-4.14.13-.3,0-.43.08-.4.39.11,1.45.18,2.9.36,4.35.08.6.08,1.22.14,1.83A26.39,26.39,0,0,0,31.78,48a2.38,2.38,0,0,1,0,.38c0,.36,0,.79-.42.88a.9.9,0,0,1-1.05-.61,7,7,0,0,1-.44-2.07,26.54,26.54,0,0,1-.26-3.21c0-1.47-.24-2.93-.14-4.4,0-.35-.07-.53-.45-.47a.55.55,0,0,1-.68-.34.58.58,0,0,1,.27-.77c.91-.37.74-1.14.73-1.85,0-2.08-.09-4.17-.16-6.25s-.13-4.12-.23-6.17-.24-4.1-.39-6.14c0-.34,0-.68-.58-.69a.79.79,0,0,1-.79-.83.94.94,0,0,1,.75-.95c.82-.19,1.62-.45,2.43-.68Zm4.26,20.16c0,.63,0,1.16,0,1.7,0,1.13.26,1.29,1.39,1.26.36,0,.41-.15.41-.46,0-.95.06-1.9.09-2.85.08-2.68.12-5.35.28-8,.09-1.45,0-2.9.16-4.33.07-.7.06-1.4.12-2.09.09-.95.16-1.89.24-2.83,0-.18,0-.32-.25-.35-.67-.06-1.33-.22-2-.24a30.29,30.29,0,0,0-5.29.36c-.42.06-.47.22-.4.52a26.68,26.68,0,0,1,.49,4c.14,1.55.22,3.12.24,4.68,0,2.79.17,5.57.29,8.34.05,1,.16,2,.26,3a.45.45,0,0,0,.56.44c.58-.06,1.17-.1,1.76-.13.21,0,.25-.11.23-.29A15.59,15.59,0,0,1,33,33.49a5,5,0,0,0-.18-1.5c-.15-.52,0-.83.46-.95a1,1,0,0,1,1.26.63A9.12,9.12,0,0,1,34.61,33.72Z"/><path class="cls-3" d="M61,41.38c0-1.39-.08-2.55,0-3.7.12-1.39.09-2.79.22-4.18,0-.18.15-.47-.17-.54s-.65-.25-1-.11c-.17.07-.1.27-.1.41,0,.83,0,1.66,0,2.5,0,2.34-.24,4.66-.3,7,0,1.53,0,3.07-.09,4.6,0,.24.1.54-.29.59a.6.6,0,0,1-.73-.37,5,5,0,0,1-.24-1.67c0-1.56-.1-3.13,0-4.68a38.41,38.41,0,0,1,.84-6.83,7.22,7.22,0,0,0,0-1.4c0-.21-.08-.31-.3-.31s-.56,0-.83,0-.42.17-.41.45c.07,1.07-.15,2.12-.14,3.18,0,3.91-.21,7.8-.11,11.71a1.12,1.12,0,0,1-.11.54.83.83,0,0,1-.93.52c-.35-.09-.4-.47-.37-.8.18-2.09.16-4.2.28-6.3.16-3,.23-5.9.24-8.86,0-.45-.11-.58-.57-.58-1.25,0-1.25,0-1,1.28a1.1,1.1,0,0,1,0,.26c0,1.53,0,3.06.14,4.59.18,3,.1,6,.13,9,0,.51-.17.91-.64.92s-.75-.37-.79-.88A43.3,43.3,0,0,1,53.75,41c.15-2.26,0-4.52.1-6.77,0-.47-.19-.91-.15-1.39,0-.29-.32-.3-.47-.46s-.53-.47-.4-.87.42-.37.73-.4c.59-.05.84-.28.83-1s.09-1.39.1-2.09a.46.46,0,0,0-.4-.53,2.17,2.17,0,0,1-1-.56c-.36-.36-.27-.65.09-.79a2.24,2.24,0,0,0,1.1-1.3c.65-1.34,1.37-2.61,2.95-3.13,1.29-.42,1.18-1.38.8-2.8a3.65,3.65,0,0,0-.18-.41c-.42-.89-.4-.95.49-1.31.1,0,.26-.08.27-.14.17-.85.94-1.42,1-2.29,0-.33.09-.66.12-1s-.08-.58-.54-.41-.75.17-.86-.33,0-.72.52-.64.81-.21.77-.8a3.55,3.55,0,0,1,.14-1.12c.06-.24.11-.6.51-.51a.56.56,0,0,1,.43.71c-.06.26,0,.53-.08.75-.31.72.14.9.68.95.35,0,.58.2.54.47a.56.56,0,0,1-.63.44c-.57-.08-.77.16-.71.72,0,.25-.14.51-.11.75a5.39,5.39,0,0,0,1.24,3,1,1,0,0,1,.28.77.52.52,0,0,1-.55.49c-.45,0-.42.28-.49.62-.13.68.44,1.36,0,2a1.83,1.83,0,0,0,.27.2,4.4,4.4,0,0,1,2.48,3,3.48,3.48,0,0,0,.87,1.88c.38.39.09.83-.29,1.14a.84.84,0,0,1-.4.17c-1.22.15-1.13,1.1-1.21,1.94a4.67,4.67,0,0,1-.11,1.39.26.26,0,0,0,.19.39.52.52,0,0,1,.2.88A2.2,2.2,0,0,0,62.44,34c-.36,3.58-.22,7.19-.26,10.78a8.79,8.79,0,0,0,.22,1.69c0,.2,0,.42,0,.63s-.21.33-.39.43-.32-.07-.42-.18a2.49,2.49,0,0,1-.46-1.53A30.61,30.61,0,0,1,61,41.38ZM56.6,26.15a17.27,17.27,0,0,1,2.64.24c.92.12,1.84.19,2.77.27.37,0,.69.05.45-.53a6.51,6.51,0,0,1-.28-1.34c-.49-2.47-3.79-2.95-5.19-2a4.62,4.62,0,0,0-1.63,2.38c-.31.86-.3.84.62.9A5.22,5.22,0,0,1,56.6,26.15Zm1.11,1.62a3.52,3.52,0,0,0-2-.09c-.26,0-.37.14-.31.36a6.24,6.24,0,0,1,0,2.51c-.05.47.11.67.6.75s.93.05,1.38.14a16.93,16.93,0,0,0,3.48.23c.25,0,.45-.09.43-.36-.06-1,.16-1.94.14-2.92,0-.15,0-.26-.21-.32a4.44,4.44,0,0,0-2.06-.21,1.59,1.59,0,1,1-1.77,2.64C56.63,30,56.77,29.07,57.71,27.77Zm2.22-6.39c-.2-1.1-.37-2.15.48-3,0,0,.06-.09.05-.1-.33-.32-.28-.92-.63-1.12s-.48.33-.68.57a.36.36,0,0,1-.21.11c-.27,0-.24.2-.16.37a4.64,4.64,0,0,1,.31,2.41C59.06,21.2,59.29,21.44,59.93,21.38Z"/><path class="cls-4" d="M43.53,18.25a8.59,8.59,0,0,0,2.2-5.2c0-.23-.11-.27-.24-.38-.29-.23-.79-.34-.7-.85a1.12,1.12,0,0,1,1-.93c.37-.06.42-.28.46-.62a13.57,13.57,0,0,1,.37-2.61c.16-.47.69-.7.7-1.31a10.69,10.69,0,0,1,.07-1.12c0-.27-.06-.39-.35-.38a1.47,1.47,0,0,1-.54-.13.53.53,0,0,1-.39-.59c.05-.33.31-.32.54-.29.6.08.8-.17.76-.76A3.6,3.6,0,0,1,47.6,2c0-.15.09-.42.33-.42s.3.2.4.37a1.06,1.06,0,0,1,.09.85c-.2.83-.17.87.57,1.09.19.06.38.12.38.42a.39.39,0,0,1-.42.44c-.75-.08-.8.34-.75.9a2.89,2.89,0,0,1,0,.83.43.43,0,0,0,.24.54c.38.22.4.65.42,1.06A13.7,13.7,0,0,0,49,10.83a.66.66,0,0,0,.28.45.81.81,0,0,1,0,1.4.46.46,0,0,0-.25.46,8.73,8.73,0,0,0,.87,3.95c.28.47.55.94.78,1.43.12.25.16.34.42.12.42-.34.75-.21.87.31a1.36,1.36,0,0,1,0,.45A1.94,1.94,0,0,0,52.21,21a.79.79,0,0,1-.53,1.22c-.44.06-.47.35-.51.58a17.47,17.47,0,0,0-.26,2.39c0,2.58-.27,5.15-.13,7.73.11,2.14.16,4.29.28,6.43.06,1.15,0,2.31.11,3.44s0,2.5.13,3.75c0,.5-.17,1-.15,1.44a.45.45,0,0,1-.34.42c-.21.06-.24-.17-.34-.31a2.46,2.46,0,0,1-.33-1.19c-.16-1.62-.25-3.25-.4-4.87a27.09,27.09,0,0,1-.25-2.7c0-.31-.23-.29-.4-.26-.81.18-1.64.17-2.45.28-1,.14-2.11,0-3.16.21-.43.07-.6,0-.57.63.07,1.48.25,2.94.43,4.41.12,1,.32,2.07.53,3.09a5.31,5.31,0,0,1,.1.68c0,.45,0,.91-.51,1.06A1.23,1.23,0,0,1,42.24,49a2.15,2.15,0,0,1-.56-1.3,31.31,31.31,0,0,1-.27-3.34c0-2.89,0-5.77,0-8.66,0-.66-.22-1.3-.15-2,.22-2.29,0-4.6.16-6.89.06-1.25.09-2.5.23-3.74,0-.24,0-.43-.31-.57-.75-.28-.61-1.64.15-2a.83.83,0,0,0,.55-1,9.46,9.46,0,0,1,.26-2.31c0-.21.08-.42.35-.45s.39.14.51.32C43.41,17.45,43.27,17.91,43.53,18.25Zm5.83,16c-.13-2.16.22-4.3.13-6.46a.61.61,0,0,1,0-.19c.2-1.54.14-3.09.25-4.63,0-.28,0-.46-.39-.48a1.29,1.29,0,0,1-1-.6,8.64,8.64,0,0,1-.69-1.74c-.37-.92-1.16-1.28-1.8-.76a9.31,9.31,0,0,0-1,1.06c-.61.69-.83,1.71-1.78,2.12a.32.32,0,0,0-.15.33c0,.49-.07,1-.1,1.45-.13,2.17-.21,4.33-.27,6.5-.07,2.32,0,4.64.11,7,0,.42.15.5.52.48,1.35-.06,2.7,0,4-.17a7.14,7.14,0,0,0,2-.22c.12,0,.25,0,.21-.22A26.2,26.2,0,0,1,49.36,34.3ZM44.93,18.5c2.62-1.5,3.74.24,4.87,2.18a2.13,2.13,0,0,0-.58-1.76c-1.06-1.77-2-3.55-1.79-5.72,0-.39,0-.76.46-.94.11,0,.26-.2.14-.3-.52-.41-.29-1-.34-1.48,0-.11.06-.29-.11-.32s-.23.12-.28.27a1.52,1.52,0,0,1-.66,1c-.47.22-.51.43-.21.79a.67.67,0,0,1,.1.23,5.17,5.17,0,0,1-.3,3A18.75,18.75,0,0,1,44.93,18.5Z"/><path class="cls-5" d="M3.17,26.37c.15-1,.3-2.05.44-3.07a4.61,4.61,0,0,0,.07-.5c0-.51.35-1.08-.28-1.52a.43.43,0,0,1,0-.75,1.4,1.4,0,0,0,.71-1.18c.07-.61.17-1.21.24-1.81.06-.43-.19-.57-.58-.55-.18,0-.43.05-.43-.23a.41.41,0,0,1,.43-.44c.61,0,.66-.28.51-.78a1.46,1.46,0,0,1,.05-1.12c.07-.14,0-.38.23-.38s.26.22.3.37a5.47,5.47,0,0,1,0,1.46c0,.3.05.56.43.58a.36.36,0,0,1,.38.42c0,.25-.22.27-.42.26s-.38,0-.37.31c0,1.09-.23,2.25.65,3.19a.61.61,0,0,1,.15.63c-.44,1.21.34,2.24.5,3.36,0,.1.1.13.19.11s.12-.16.12-.26a24.26,24.26,0,0,1,.78-4.06,1.56,1.56,0,0,1,.14-.48c.13-.24,0-.66.47-.65s.45.4.52.64a16.77,16.77,0,0,1,1.08,5.6c-.07,1.3.15,2.59.13,3.89a.71.71,0,0,0,.19.46.44.44,0,0,1,.06.53,1.41,1.41,0,0,0-.13,1.44,1.13,1.13,0,0,1,0,.32c-.08,1.58.13,3.14.15,4.72,0,1.87.11,3.74.26,5.6.08,1,.25,2.05.24,3.09,0,.28,0,.63-.34.65s-.45-.3-.48-.62c-.19-1.74-.37-3.48-.53-5.23s-.26-3.32-.38-5-.25-3.09-.23-4.64c0-.56-.42-.36-.68-.39s-.6-.07-.57.38a34,34,0,0,0,.12,4.4,1.61,1.61,0,0,1,0,.38c-.07,2.22.19,4.42.28,6.63.07,1.48.32,3,.48,4.45,0,.18.08.43-.16.49s-.31-.15-.37-.34a12.66,12.66,0,0,1-.51-2.65,50.07,50.07,0,0,1-.51-6c0-1.4-.14-2.8-.18-4.21,0-1-.08-2-.08-3.05,0-.4-.14-.55-.53-.5a7.13,7.13,0,0,1-1.45-.14c-.4,0-.54.09-.55.53a50.94,50.94,0,0,0,.27,6.05c.15,1.67.3,3.35.51,5A46.35,46.35,0,0,0,5.66,48s0,.09,0,.12c-.08.32.25.81-.26.92s-.58-.37-.67-.74a53.65,53.65,0,0,1-.91-5.63c-.26-1.86-.44-3.73-.61-5.59A47.11,47.11,0,0,1,3,30.9c0-.25.07-.58-.26-.65a1.89,1.89,0,0,0-1.13,0c-.18.07-.13.31-.11.47.23,1.54,0,3.09.23,4.64.12.86.05,1.73.14,2.6.19,1.71.32,3.42.37,5.13,0,.87.11,1.74.18,2.6s.09,1.61.11,2.41c0,.35-.08.64-.43.77s-.54,0-.79-.26a2,2,0,0,1-.61-1.47A64.54,64.54,0,0,1,.85,39.3C1,36.44.76,33.6.76,30.75c0-1.64-.21-3.3-.23-5,0-.27,0-.53-.29-.68s-.32-.38-.19-.49c.81-.71.26-1.72.61-2.53a14.17,14.17,0,0,0,.47-1.57c.06-.22.17-.42.4-.43s.28.24.33.41a23.44,23.44,0,0,1,1,4.84c0,.35.13.69.2,1Zm2.1,3c1.2,0,1.2,0,.93-1.2a2.11,2.11,0,0,1,0-.25A20.22,20.22,0,0,0,5,24.33c-.08-.17-.18-.46-.38-.45s-.24.34-.29.52a27,27,0,0,0-.67,4.29c-.09.88-.06.88.84.73A3.86,3.86,0,0,1,5.27,29.41Zm3-3.14v-.33c0-.32.19-.75-.45-.75s-.65.35-.65.79,0,.64,0,1a10.34,10.34,0,0,0,.12,2.22c.15.59.63.35.95.39s.17-.32.16-.49A11.49,11.49,0,0,0,8.22,26.27ZM1.35,28c0,.32,0,.64,0,1,0,.57.45.44.8.45s.48-.25.42-.56a14.3,14.3,0,0,1-.38-3.05c0-.37-.23-.44-.55-.46s-.41.13-.43.45C1.16,26.53,1.45,27.25,1.35,28ZM1.47,22a8.54,8.54,0,0,0-.35,2.08c-.09.36.33.3.53.38s.41-.05.37-.22A7.43,7.43,0,0,0,1.47,22ZM8.1,23.51c0-.36.07-.68-.13-1,0-.08,0-.23-.15-.24s-.15.16-.2.26a9.73,9.73,0,0,0-.35,1.51c-.06.2.05.31.27.32C8.31,24.43,8.05,23.86,8.1,23.51Z"/><path class="cls-1" d="M17.44,42.08a6.25,6.25,0,0,0-.51,2.24,31.83,31.83,0,0,0-.41,4,.83.83,0,0,1-.25.57c-.3.34-.56.28-.69-.17a6,6,0,0,1-.06-2c.12-1.42.33-2.84.49-4.26a3.58,3.58,0,0,1,.28-1.08c.35-.79.77-1.07,1.48-1a1.27,1.27,0,0,1,1,1.21,38.42,38.42,0,0,1,.82,6.76,1.78,1.78,0,0,1-.1.55c-.09.28-.17.57-.5.55a.68.68,0,0,1-.56-.54,4.89,4.89,0,0,1-.26-1.47,18.43,18.43,0,0,0-.51-5.08A.41.41,0,0,0,17.44,42.08Z"/><path class="cls-1" d="M20.94,43c0,.86-.05,1.72,0,2.58A31.35,31.35,0,0,1,21.14,49c0,.21-.05.45-.29.51s-.35-.21-.42-.39a2,2,0,0,1-.17-.79c0-1.87-.32-3.72-.28-5.59a9.31,9.31,0,0,1,.16-1.51,1.1,1.1,0,0,1,1.05-.94,1.32,1.32,0,0,1,1.47.84,4.74,4.74,0,0,1,.25,1.74c.06,1.88.2,3.76.28,5.65a.86.86,0,0,1,0,.32c-.07.16-.06.4-.31.42a.45.45,0,0,1-.43-.33,22.4,22.4,0,0,1-.68-2.8A9.11,9.11,0,0,0,21.1,43Z"/><path class="cls-5" d="M5.6,34.2c.18,1.77.07,3.55.37,5.31a2.09,2.09,0,0,1,0,.25c0,.23.07.54-.22.6s-.41-.29-.44-.51c-.24-1.47-.56-2.92-.68-4.4a5.9,5.9,0,0,1,0-2c.08-.32.2-.69.54-.67s.43.44.42.79S5.6,34,5.6,34.2Z"/><path class="cls-2" d="M31.4,23.54a2.79,2.79,0,0,1,1.86-2.14,1.92,1.92,0,0,1,2.26,1.78,3.3,3.3,0,0,1-1.24,3.09c-.39.39-1.64.05-2.11-.54A3.9,3.9,0,0,1,31.4,23.54Z"/><path class="cls-4" d="M45.38,29.26a14.15,14.15,0,0,0,.1,2c.13.47-.4.42-.65.49a.61.61,0,0,1-.84-.52,14.47,14.47,0,0,1,0-2.55,3.28,3.28,0,0,1,.31-1.46c.14-.22.18-.5.56-.45s.48.34.49.63C45.41,28,45.38,28.61,45.38,29.26Z"/><path class="cls-4" d="M48.33,29.16a7.27,7.27,0,0,1-.13,2.08c-.11.34-.23.72-.7.67s-.62-.33-.59-.8a31,31,0,0,0,.27-4,.46.46,0,0,1,.26-.46c.19-.08.29.11.42.22A1.24,1.24,0,0,1,48.34,28C48.31,28.39,48.33,28.78,48.33,29.16Z"/></g></g></svg>