<svg xmlns="http://www.w3.org/2000/svg" xmlns:xlink="http://www.w3.org/1999/xlink" viewBox="0 0 28.7 50"><defs><style>.cls-1{fill:none;}.cls-2{clip-path:url(#clip-path);}.cls-3{fill:#ff7dbc;}.cls-4{fill:#1d96f7;}.cls-5{fill:#fefefe;}</style><clipPath id="clip-path" transform="translate(0.07)"><path class="cls-1" d="M14.28,8H0V41.47C1.58,50.12,12.14,44.74,14.28,50c2.14-5.26,12.7.12,14.28-8.53V8Z"/></clipPath></defs><g id="Слой_2" data-name="Слой 2"><g id="Слой_1-2" data-name="Слой 1"><g class="cls-2"><rect class="cls-3" y="8" width="28.7" height="4.16"/><rect class="cls-3" y="15.33" width="28.7" height="3.51"/><rect class="cls-3" y="21.61" width="28.7" height="2.88"/><rect class="cls-3" y="26.92" width="28.7" height="1.99"/><rect class="cls-3" y="30.73" width="28.7" height="1.51"/><rect class="cls-3" y="33.46" width="28.7" height="1.06"/><rect class="cls-3" y="35.52" width="28.7" height="0.73"/><rect class="cls-4" y="12.15" width="28.7" height="3.18"/><rect class="cls-4" y="18.85" width="28.7" height="2.77"/><rect class="cls-4" y="24.5" width="28.7" height="2.43"/><rect class="cls-4" y="28.92" width="28.7" height="1.81"/><rect class="cls-4" y="32.23" width="28.7" height="1.23"/><rect class="cls-4" y="34.52" width="28.7" height="1"/><rect class="cls-4" y="36.25" width="28.7" height="13.75"/></g><path class="cls-5" d="M7.24,11.84c2.75.46,10.54,17,8.42,24,0,0,1.62-.26,1.79-6.65a43.14,43.14,0,0,0-1.5-12s4.84,4.92,6.77,9.46c1.77,4.14,3,14.72-.11,15.68-4.32,1.35-4.5-3.18-3-4.12-.78.53-2.12,2.94-3.68,3.83-2.5,1.44-6-.63-3.52-4,.54-.72-1.47.86-2.14,1.77C7.89,43,1.67,44.83,5,37.43,7.35,32.3,10.49,19.85,7.24,11.84Z" transform="translate(0.07)"/><path class="cls-4" d="M6.05,1.29V6.16s6.22-1,7.19-2c1.31-1.47.42-1.67,4.6-2.12C22.67,1.47,21.38.77,22.51.17a22.11,22.11,0,0,1-4.89,0c-3.13-.65-2.73.31-3.45.84C13.11,1.82,6.05,1.29,6.05,1.29Z" transform="translate(0.07)"/></g></g></svg>