<svg xmlns="http://www.w3.org/2000/svg" viewBox="0 0 38.89 50"><defs><style>.cls-1{fill:#f9a72b;}.cls-2{fill:#f68712;}</style></defs><g id="Слой_2" data-name="Слой 2"><g id="Слой_1-2" data-name="Слой 1"><g id="g6803"><path id="path6805" class="cls-1" d="M18,3.36a1.45,1.45,0,0,0,1.45,1.45V50c-1.8-3.24-7.13-6-13-9.9C.05,35.91-1.2,30.88,1,26.41c1.71-3.45,6.2-5.6,9.79-3.49a.3.3,0,0,0,.43-.22,2.25,2.25,0,0,0,.08-.33.14.14,0,0,1,.25-.06,12.83,12.83,0,0,1,2.6,4.29.21.21,0,0,1-.21.28c-1.27-.15-2.78-.37-4-.42a.18.18,0,0,1-.14-.27,1.49,1.49,0,0,0,.22-.41.31.31,0,0,0-.17-.43A3.72,3.72,0,0,0,5,27.68c-.9,3,1.74,5.56,5.07,7.4,4.52,2.5,5.59,1.26,5.92-1.78,0,0,1.54-19.82,1.59-20.49.06-.82,0-1.22-.58-1.4s-4.72-1-5.66-1.27A.35.35,0,0,1,11,9.79L10.93,9c0-.25.12-.31.37-.31h5.55c.88,0,1-.26,1.06-.59S18,7.21,18,6.92a.69.69,0,0,0-.42-.77A3.36,3.36,0,0,1,19.44,0V1.9A1.45,1.45,0,0,0,18,3.36"/></g><g id="g6807"><path id="path6809" class="cls-2" d="M20.9,3.36a1.45,1.45,0,0,1-1.46,1.45V50c1.8-3.24,7.14-6,13-9.9,6.38-4.19,7.63-9.22,5.42-13.69-1.71-3.45-6.2-5.6-9.8-3.49a.3.3,0,0,1-.42-.22,2.25,2.25,0,0,1-.08-.33.15.15,0,0,0-.26-.06,13,13,0,0,0-2.59,4.29.21.21,0,0,0,.21.28c1.27-.15,2.78-.37,4-.42a.18.18,0,0,0,.14-.27,1.49,1.49,0,0,1-.22-.41.31.31,0,0,1,.17-.43,3.72,3.72,0,0,1,4.92,2.33c.89,3-1.74,5.56-5.07,7.4-4.52,2.5-5.59,1.26-5.92-1.78,0,0-1.54-19.82-1.59-20.49-.06-.82,0-1.22.57-1.4s4.73-1,5.67-1.27a.35.35,0,0,0,.29-.35L28,9c0-.25-.12-.31-.37-.31H22c-.88,0-1-.26-1.06-.59s-.06-.85-.08-1.14a.69.69,0,0,1,.42-.77A3.36,3.36,0,0,0,19.44,0V1.9A1.46,1.46,0,0,1,20.9,3.36"/></g></g></g></svg>