<svg xmlns="http://www.w3.org/2000/svg" viewBox="0 0 42.15 50"><defs><style>.cls-1{fill:none;}.cls-2{fill:red;}.cls-2,.cls-3{fill-rule:evenodd;}.cls-3{fill:#00334d;}</style></defs><g id="Слой_2" data-name="Слой 2"><g id="Слой_1-2" data-name="Слой 1"><g id="id3"><rect class="cls-1" x="4.75" y="17.61" width="14.1" height="22.64"/><path class="cls-2" d="M7,17.61l.21,0,.21,0,.21,0,.2.07.2.07.19.09.18.1.18.11.17.12.17.13.15.15L18.46,28l.12.13.1.15.07.15.06.17,0,.17,0,.17,0,.18,0,.17-.06.16-.07.16-.1.15-.12.13L9,39.3l-.15.15-.17.13-.17.12-.18.11-.18.1L8,40l-.2.07-.2.06-.21,0-.21,0-.21,0H4.75L16.07,28.92,4.75,17.61H7Z"/></g><g id="id4"><rect class="cls-1" y="17.61" width="13.09" height="22.64"/><path class="cls-2" d="M.18,19.32l-.1-.19L0,18.92l0-.21,0-.22.06-.2.1-.2.14-.16.17-.14.19-.1.21-.06.21,0h.67L13.09,28.92,1.77,40.24H1.1l-.21,0-.21-.06-.19-.1-.17-.14-.14-.17-.1-.19L0,39.36l0-.22,0-.22.06-.2.1-.19.14-.17,9.44-9.44L.32,19.49Z"/></g><g id="id5"><rect class="cls-1" x="9.76" y="36.91" width="22.64" height="13.09"/><path class="cls-2" d="M30.68,49.81l-.17-.14-9.43-9.43-9.44,9.43-.17.14-.19.1-.21.07-.21,0-.22,0-.2-.07-.2-.1-.16-.14-.14-.16-.1-.19-.06-.21,0-.22v-.66L21.08,36.91,32.39,48.23v.66l0,.22-.06.21-.1.19-.14.16-.17.14-.19.1-.2.07-.22,0-.22,0-.2-.07Z"/></g><g id="id6"><rect class="cls-1" x="9.76" y="31.14" width="22.64" height="14.1"/><path class="cls-2" d="M32.39,45.24,21.08,33.92,9.76,45.24V43l0-.21,0-.21,0-.2.07-.2L10,42l.09-.19.1-.19.11-.18.12-.17.13-.16L10.7,41l9.43-9.43.13-.12.15-.09.15-.08.17,0,.17,0h.35l.17,0,.17,0,.15.08.15.09.13.12L31.45,41l.15.16.13.16.12.17.11.18.1.19.09.19.07.2.06.2,0,.2,0,.21,0,.21v2.21Z"/></g><g id="id7"><rect class="cls-1" x="29.06" y="17.61" width="13.09" height="22.64"/><path class="cls-2" d="M41.83,38.36l.13.17.1.19.07.2,0,.22,0,.22-.07.2-.1.19-.13.17-.17.14-.19.1-.21.06-.22,0h-.66L29.06,28.92,40.38,17.61H41l.22,0,.21.06.19.1.17.14.13.16.1.2.07.2,0,.22,0,.21-.07.21-.1.19-.13.17-9.44,9.43Z"/></g><g id="id8"><rect class="cls-1" x="23.29" y="17.61" width="14.1" height="22.64"/><path class="cls-2" d="M33.27,39.45l-.16-.15-9.43-9.43-.11-.13-.1-.15-.08-.16-.05-.16,0-.17v-.35l0-.17.05-.17.08-.15.1-.15.11-.13,9.43-9.43.16-.15.16-.13.17-.12.18-.11.19-.1.19-.09.2-.07.2-.07.2,0,.21,0,.21,0h2.21L26.07,28.92,37.39,40.24H35.18l-.21,0-.21,0-.2,0-.2-.06-.2-.07L34,39.91l-.19-.1-.18-.11-.17-.12Z"/></g><g id="id9"><rect class="cls-1" x="9.76" y="6.29" width="22.64" height="20.19"/><path class="cls-2" d="M22.41,25.92l-.19.17-.2.13-.22.11-.24.08-.24.05-.24,0-.25,0-.24-.05-.24-.08-.22-.11-.2-.13-.19-.17-9-9-.15-.15-.13-.16-.12-.18-.11-.18-.1-.18-.09-.2-.07-.19-.07-.2,0-.21,0-.21,0-.2V6.29h4.52V8.93l0,.24,0,.24.07.24.11.22.14.2.16.19.19.16.21.14.22.11.23.08.24.05h1.25l.24-.05.24-.08.22-.11.2-.14.19-.16.16-.19.14-.2.11-.22.08-.24.05-.24V6.29h4.53V8.93l0,.24,0,.24.08.24.11.22.14.2.16.19.19.16.2.14.22.11.24.08.24.05h1.24l.25-.05.23-.08.23-.11.2-.14.18-.16.17-.19.14-.2.1-.22.08-.24.05-.24,0-.24V6.29h4.52v8.53l0,.2,0,.21,0,.21-.06.2-.07.19-.09.2-.1.18-.11.18-.12.18-.13.16-.15.15Z"/></g><g id="id10"><rect class="cls-1" x="9.74" width="22.68" height="4.22"/><path class="cls-3" d="M11.61.94c.36,0,.66.09.66.58a.58.58,0,0,1-.66.65h-.23V.94Zm.31,3.27L12,3.46l-.6,0V3h.47a1.62,1.62,0,0,0,1.73-1.58c0-1-.65-1.38-1.76-1.38h-2l0,.79.45.06v2.4l-.45,0,0,.86Zm4.79,0,.06-.81-.48,0V1l.42,0V.06H14.62l-.06.79L15,.91v2.4l-.46,0,.06.86Zm2.72-2.5V.93h.45c.32,0,.5.06.5.35s-.16.43-.35.43Zm.66.8c.3,0,.44.09.44.37s-.21.44-.59.44h-.51V2.51ZM20,4.21c1.24,0,1.75-.62,1.75-1.33A1,1,0,0,0,21.13,2a1.05,1.05,0,0,0,.44-.8c0-.54-.38-1.1-1.63-1.1H17.89l-.06.79.46.06v2.4l-.46,0,.06.86Zm5,0L25,3.35l-.48,0V2.57H26v.74l-.46,0,.05.86h2.1l.06-.81-.48,0V1l.42,0V.06h-2.1l-.05.85L26,1v.71H24.56V1l.42,0V.06H22.89l-.06.79.46.06v2.4l-.46,0,.06.86Zm7.36-2.9V0L31.26.06H28.82l-.06.79.46.06v2.4l-.46,0,.06.86h3.53L32.41,3l-.91-.06-.08.39h-.93V2.57H32V1.66H30.49V1h.84l0,.32Z"/></g></g></g></svg>