<svg xmlns="http://www.w3.org/2000/svg" viewBox="0 0 35.75 50"><defs><style>.cls-1{fill:#151b4c;}.cls-2{fill:#3cd2fb;}</style></defs><g id="Слой_2" data-name="Слой 2"><g id="Слой_1-2" data-name="Слой 1"><path class="cls-1" d="M3.31,13.68c3.19,0,6.28,0,9.38,0,.38,0,.47.21.59.48q3.39,7,6.77,14.06l.34.65c.25-.09.23-.32.29-.48q2.61-7,5.19-14.09a.78.78,0,0,1,.88-.63c2.76,0,5.52,0,8.29,0h.65c-.9,2.5-1.77,4.95-2.64,7.4-2.31,6.47-4.6,13-7.06,19.38a15.44,15.44,0,0,1-5,7.09,13.25,13.25,0,0,1-20-6A14,14,0,0,1,0,37.15c0-.47.13-.58.59-.57q3.9,0,7.82,0c.41,0,.56.06.65.54.58,3.31,3.4,4.78,6.44,3.21,1-.49,1-.74.51-1.69L3.57,14.18Z"/><path class="cls-2" d="M35.75.06,30.44,6.91c-1.62,2.1-3.25,4.18-4.86,6.29a1.12,1.12,0,0,1-1,.49c-3.41,0-6.81,0-10.21,0a.94.94,0,0,1-.85-.37L3.63.53C3.53.4,3.36.29,3.38.08A1.18,1.18,0,0,1,4,0c3.4,0,6.81,0,10.21,0a1.28,1.28,0,0,1,1.11.53c1.26,1.57,2.55,3.11,3.81,4.68.29.36.41.38.71,0C21.16,3.6,22.49,2,23.8.39A.86.86,0,0,1,24.5,0c3.63,0,7.25,0,10.87,0Z"/></g></g></svg>