<svg xmlns="http://www.w3.org/2000/svg" viewBox="0 0 28.83 50"><defs><style>.cls-1{fill:#ffdc00;}.cls-2{fill:#fff3aa;}.cls-3{fill:#ffeb6c;}.cls-4{fill:#fff4b2;}.cls-5{fill:#ffe64c;}.cls-6{fill:#fff6c0;}.cls-7{fill:#ffe43e;}.cls-8{fill:#fff19d;}.cls-9{fill:#ffec78;}.cls-10{fill:#fff9d6;}.cls-11{fill:red;}</style></defs><g id="Слой_2" data-name="Слой 2"><g id="Слой_1-2" data-name="Слой 1"><path class="cls-1" d="M14.7,50h-.53A.49.49,0,0,0,14,50h-.27a12.91,12.91,0,0,1-2.4-.3A14.87,14.87,0,0,1,9,49,14.21,14.21,0,0,1,5.09,46.6a10.88,10.88,0,0,1-.94-.86,14.59,14.59,0,0,1-2-2.59A14.1,14.1,0,0,1,.64,39.92a13.88,13.88,0,0,1-.53-2.4c0-.34-.08-.69-.09-1v-.33s0,0,0,0A1,1,0,0,0,0,36V8.23a.21.21,0,0,1,.11,0H28.58a.46.46,0,0,1,.23,0,.3.3,0,0,1,0,.13V36a12.93,12.93,0,0,1-.62,3.9,13.84,13.84,0,0,1-1.05,2.52A14.29,14.29,0,0,1,25.39,45a13.61,13.61,0,0,1-1,1.1,14.59,14.59,0,0,1-1.62,1.32,14,14,0,0,1-3.34,1.75,14.43,14.43,0,0,1-2.07.59c-.48.09-1,.17-1.47.22l-.7,0h-.26A1.21,1.21,0,0,0,14.7,50Z"/><path class="cls-2" d="M18.88,0s0,0,0,0h4.46V6c0,.15,0,.14-.14.14H5.64s-.09,0-.13,0a.14.14,0,0,1,.11,0H23.05c.25,0,.23,0,.23-.23V.25c0-.2,0-.2-.19-.2h-4C19,.05,18.93.07,18.88,0Z"/><path class="cls-2" d="M28.83,36h0V8.23h0Z"/><path class="cls-2" d="M10,0V0s-.09,0-.14,0H5.65c-.05,0-.1,0-.14,0V0Z"/><path class="cls-2" d="M16.65,0V0s-.09,0-.14,0H12.34a.21.21,0,0,1-.15,0V0Z"/><path class="cls-3" d="M0,36a.31.31,0,0,1,0,.19H0Z"/><path class="cls-4" d="M0,36.14H0a.28.28,0,0,1,0,.18H0Z"/><path class="cls-5" d="M14.7,50a.31.31,0,0,1,.19,0s0,0,0,0H14.7Z"/><path class="cls-6" d="M13.71,50v0h0Z"/><path class="cls-7" d="M14,50c.06,0,.12,0,.17,0H14s0,0,0,0Z"/><path class="cls-8" d="M14.89,50v0h0Z"/><path class="cls-9" d="M14,50v0h-.12v0Z"/><path class="cls-10" d="M15,50v0h.12v0Z"/><path class="cls-11" d="M14.41,35.63l-.48-.28-5-2.89L4,29.66,2.71,28.9c-.06,0-.09-.07-.08-.13s0,0,0-.06V11c0-.18,0-.15.16-.15H26.05c.17,0,.15,0,.15.14V28.76a.12.12,0,0,1-.08.14l-.44.25-5.15,3-4.47,2.57-1.54.88a.06.06,0,1,0,0,.12l4.63,2.66,5,2.86.44.25c.08,0,.08,0,0,.12a11.6,11.6,0,0,1-3.65,3.84,11.36,11.36,0,0,1-4.06,1.7,11,11,0,0,1-1.38.21,11.45,11.45,0,0,1-1.17.05A11.67,11.67,0,0,1,9,46a11.8,11.8,0,0,1-4.68-4.43c-.07-.12-.08-.09,0-.16L8.52,39l4.29-2.47,1.53-.88Z"/><path class="cls-3" d="M0,36.32v-.18a.35.35,0,0,1,0,.2H0Z"/><path class="cls-4" d="M0,36.34H0a.75.75,0,0,1,0,.15A.26.26,0,0,1,0,36.34Z"/><path class="cls-1" d="M12.19,0h4.46V2.38c0,.15,0,.13.13.13h2s.05,0,.05-.06V.14a.49.49,0,0,1,0-.12h4.3c.16,0,.14,0,.14.14V6c0,.14,0,.13-.13.13H5.51V0H10V2.34c0,.17,0,.17.17.17h2a.05.05,0,0,0,.06-.06V0Z"/><path class="cls-1" d="M8.55,22v1.89a2.28,2.28,0,0,0,.78,1.76,2.22,2.22,0,0,0,1.21.58,2.33,2.33,0,0,0,2-.65,2.24,2.24,0,0,0,.67-1.35,1.72,1.72,0,0,0,0-.32V18.47s0-.06-.05-.06H11.47s-.05,0-.05-.05V16.3c0-.09,0-.09.09-.09h1.65c.08,0,.08,0,.08-.09V14.07c0-.14,0-.13.13-.13h2.11c.12,0,.11,0,.11.11v2.06c0,.1,0,.1.1.1H17.3c.12,0,.12,0,.12.11v2c0,.09,0,.09-.09.09H15.66c-.06,0-.08,0-.07.07v5.4a2.34,2.34,0,0,0,2.23,2.35,2.3,2.3,0,0,0,1.8-.7A2.28,2.28,0,0,0,20.28,24c0-.58,0-1.16,0-1.74a2.43,2.43,0,0,1,0-.27.1.1,0,0,1,.08,0l2.19,1.21a.12.12,0,0,1,.07.12,7.85,7.85,0,0,1,0,.84,4.36,4.36,0,0,1-.38,1.5,4.68,4.68,0,0,1-4.56,2.77,4,4,0,0,1-2.28-.85,4,4,0,0,1-.91-1,.22.22,0,0,1-.05-.08.26.26,0,0,0-.09.12,4,4,0,0,1-1.69,1.47,3.88,3.88,0,0,1-1.15.33,4.7,4.7,0,0,1-5.21-3.77,4.91,4.91,0,0,1-.08-1.08v-.23a.09.09,0,0,1,.06-.11l.86-.48L8.45,22Z"/></g></g></svg>