<svg xmlns="http://www.w3.org/2000/svg" viewBox="0 0 55.56 50"><defs><style>.cls-1{fill:#00934f;}.cls-2{fill:#db166d;}.cls-3{fill:#f6c109;}.cls-4{fill:#0d4c6b;}</style></defs><g id="Слой_2" data-name="Слой 2"><g id="Слой_1-2" data-name="Слой 1"><rect class="cls-1" x="19.3" y="0.04" width="7.3" height="30.6" transform="translate(-4.41 11.72) rotate(-26.23)"/><rect class="cls-2" x="27.38" y="8.47" width="7.3" height="21.06" transform="translate(11.29 -11.57) rotate(25.67)"/><rect class="cls-1" x="31.82" y="13.41" width="7.3" height="21.06" transform="translate(52.11 -15.49) rotate(78.87)"/><rect class="cls-2" x="19.44" y="19.36" width="7.3" height="20.06" transform="translate(30.55 -7.23) rotate(49.67)"/><rect class="cls-1" x="24.05" y="25.54" width="7.3" height="21.06"/><polygon class="cls-2" points="26.41 28.62 31.25 23.17 55.56 44.55 50.71 50 26.41 28.62"/><rect class="cls-3" x="12.36" y="7.32" width="7.3" height="31.18" transform="translate(-9.62 34.06) rotate(-78.58)"/><polygon class="cls-4" points="19.8 27.4 23.15 24.27 21.31 20.26 25.67 21.06 27.89 17.11 29.73 21.13 34.39 20.43 32.72 24.46 36.2 27.52 31.37 28.19 31.33 33 27.7 29.95 24.05 33.36 24.04 28.29 19.8 27.4"/></g></g></svg>