<svg xmlns="http://www.w3.org/2000/svg" viewBox="0 0 74.88 50"><defs><style>.cls-1{fill:#006076;}.cls-2{fill:#ffca3b;}.cls-3{fill:#fcb040;}.cls-4{fill:#ffd537;}.cls-5{fill:#f8941e;}.cls-6{fill:#ffd737;}.cls-7{fill:#25a4dd;}.cls-8{fill:#8cc63f;}</style></defs><g id="Слой_2" data-name="Слой 2"><g id="Слой_1-2" data-name="Слой 1"><rect class="cls-1" x="-1.6" y="16.34" width="52.94" height="17.42" transform="translate(60.18 25.18) rotate(135)"/><rect class="cls-2" x="23.54" y="16.34" width="52.94" height="17.42" transform="translate(-3.07 42.7) rotate(-45)"/><polygon class="cls-3" points="0 37.61 3.84 33.77 19.22 43.02 12.31 49.93 0 37.61"/><rect class="cls-4" x="-1.51" y="16.13" width="52.94" height="17.67" transform="translate(24.96 60.27) rotate(-135)"/><polygon class="cls-5" points="3.4 9.09 46.24 41.12 37.43 49.93 0 12.49 3.4 9.09"/><rect class="cls-6" x="23.5" y="16.33" width="52.94" height="17.52" transform="translate(32.38 -27.99) rotate(45)"/><polygon class="cls-7" points="62.49 50 25.06 12.57 34.61 3.02 65.44 47.05 62.49 50"/><polygon class="cls-8" points="74.88 12.49 68.19 19.18 60.08 2.67 62.57 0.18 74.88 12.49"/></g></g></svg>