<?xml version="1.0" encoding="UTF-8" standalone="no"?>
<!DOCTYPE svg PUBLIC "-//W3C//DTD SVG 1.1//EN" "http://www.w3.org/Graphics/SVG/1.1/DTD/svg11.dtd">
<svg width="100%" height="100%" viewBox="0 0 22 23" version="1.1" xmlns="http://www.w3.org/2000/svg" xmlns:xlink="http://www.w3.org/1999/xlink" xml:space="preserve" xmlns:serif="http://www.serif.com/" style="fill-rule:evenodd;clip-rule:evenodd;stroke-linejoin:round;stroke-miterlimit:2;">
    <g transform="matrix(1,0,0,1,-28.4836,-219.64)">
        <g transform="matrix(0.420152,0,0,0.420152,28.4836,219.612)">
            <path d="M28.806,0.064L28.806,7.192L5.25,7.192L5.25,35.919L0,39.667L21.195,54.807L21.195,47.679L44.75,47.679L44.75,18.953L50,15.204L28.806,0.064ZM41.29,44.219L17.735,44.219L17.735,48.085L5.952,39.667L17.735,31.252L17.735,35.117L32.187,35.117L32.187,27.946L41.29,21.444L41.29,44.219ZM20.948,31.814L20.948,23.058L29.053,23.058L29.053,31.814L20.948,31.814ZM32.266,23.619L32.266,19.755L17.813,19.755L17.813,26.926L8.71,33.428L8.71,10.652L32.265,10.652L32.265,6.787L44.047,15.204L32.266,23.619Z" style="fill-rule:nonzero;"/>
        </g>
    </g>
</svg>
