<svg xmlns="http://www.w3.org/2000/svg" viewBox="0 0 45.55 50"><g id="Слой_2" data-name="Слой 2"><g id="Слой_1-2" data-name="Слой 1"><path d="M44.49,47.88H43.32V4.4a1.07,1.07,0,0,0-1.06-1.06H26.67A1.07,1.07,0,0,0,25.61,4.4V7.8H24.39V4.4a1.07,1.07,0,0,0-1.06-1.06h-3.4V1.06a1.06,1.06,0,1,0-2.11,0V3.34h-3.4A1.07,1.07,0,0,0,13.36,4.4V7.8H11.08a1.06,1.06,0,0,0-1.06,1v6.74H3.29a1.05,1.05,0,0,0-1.06,1.06V47.88H1.06a1.06,1.06,0,1,0,0,2.12H44.49a1.06,1.06,0,0,0,0-2.12Zm-32.24,0H9.91V45.55h2.34v2.33m1.06-4.45H8.85a1.05,1.05,0,0,0-1,1.06v3.39H4.34V17.71H17.82V47.88H14.37V44.49A1.06,1.06,0,0,0,13.31,43.43ZM15.48,7.8V5.46h6.79V7.8Zm19,16.7a1.05,1.05,0,0,0-1.06,1.06v.05H32.18v-.05a1.06,1.06,0,1,0-2.11,0v.05H27.73V5.46H41.2V47.88H35.52V25.56A1.05,1.05,0,0,0,34.47,24.5Zm-1.06,3.23V47.88H19.93V27.73ZM18.88,15.59H12.14V9.91H25.61v15.7H19.93V23.27h2.29a1.06,1.06,0,0,0,0-2.11H19.93V18.82h2.29a1.06,1.06,0,0,0,0-2.12H19.93v-.05A1.05,1.05,0,0,0,18.88,15.59Z"/><path d="M23.33,46.66a1.07,1.07,0,0,0,1.06-1.06V30a1.06,1.06,0,1,0-2.12,0V45.6A1.07,1.07,0,0,0,23.33,46.66Z"/><path d="M26.67,46.66a1.07,1.07,0,0,0,1.06-1.06V30a1.06,1.06,0,1,0-2.12,0V45.6A1.07,1.07,0,0,0,26.67,46.66Z"/><path d="M30,46.66a1.07,1.07,0,0,0,1.06-1.06V30A1.06,1.06,0,1,0,29,30V45.6A1.07,1.07,0,0,0,30,46.66Z"/><path d="M31.13,7.8a1.05,1.05,0,0,0-1.06,1V10a1.06,1.06,0,1,0,2.11,0V8.85A1,1,0,0,0,31.13,7.8Z"/><path d="M34.47,11A1.06,1.06,0,0,0,35.52,10V8.85a1.06,1.06,0,0,0-2.11,0V10A1.06,1.06,0,0,0,34.47,11Z"/><path d="M37.81,11a1.06,1.06,0,0,0,1-1.06V8.85a1.06,1.06,0,0,0-2.11,0V10A1.06,1.06,0,0,0,37.81,11Z"/><path d="M31.13,13.36a1.06,1.06,0,0,0-1.06,1.06v1.11a1.06,1.06,0,1,0,2.11,0V14.42A1.06,1.06,0,0,0,31.13,13.36Z"/><path d="M34.47,16.59a1.05,1.05,0,0,0,1.05-1.06V14.42a1.06,1.06,0,1,0-2.11,0v1.11A1.05,1.05,0,0,0,34.47,16.59Z"/><path d="M37.81,16.59a1.05,1.05,0,0,0,1-1.06V14.42a1.06,1.06,0,1,0-2.11,0v1.11A1.05,1.05,0,0,0,37.81,16.59Z"/><path d="M31.13,18.93A1.06,1.06,0,0,0,30.07,20V21.1a1.06,1.06,0,1,0,2.11,0V20A1.06,1.06,0,0,0,31.13,18.93Z"/><path d="M35.52,20a1.06,1.06,0,1,0-2.11,0V21.1a1.06,1.06,0,1,0,2.11,0Z"/><path d="M37.81,22.16a1.05,1.05,0,0,0,1-1.06V20a1.06,1.06,0,1,0-2.11,0V21.1A1.05,1.05,0,0,0,37.81,22.16Z"/><path d="M7.74,21.16a1.06,1.06,0,0,0-1.06,1.06v1.11a1.06,1.06,0,0,0,2.12,0V22.22A1.06,1.06,0,0,0,7.74,21.16Z"/><path d="M11.08,21.16A1.06,1.06,0,0,0,10,22.22v1.11a1.06,1.06,0,0,0,2.12,0V22.22A1.06,1.06,0,0,0,11.08,21.16Z"/><path d="M14.42,24.39a1.06,1.06,0,0,0,1.06-1.06V22.22a1.06,1.06,0,0,0-2.12,0v1.11A1.07,1.07,0,0,0,14.42,24.39Z"/><path d="M7.74,26.73a1.06,1.06,0,0,0-1.06,1.05V28.9a1.06,1.06,0,0,0,2.12,0V27.78A1.06,1.06,0,0,0,7.74,26.73Z"/><path d="M11.08,26.73A1.06,1.06,0,0,0,10,27.78V28.9a1.06,1.06,0,1,0,2.12,0V27.78A1.06,1.06,0,0,0,11.08,26.73Z"/><path d="M14.42,30a1.06,1.06,0,0,0,1.06-1.06V27.78a1.06,1.06,0,0,0-2.12,0V28.9A1.07,1.07,0,0,0,14.42,30Z"/><path d="M7.74,32.29a1.07,1.07,0,0,0-1.06,1.06v1.12a1.06,1.06,0,0,0,2.12,0V33.35A1.07,1.07,0,0,0,7.74,32.29Z"/><path d="M11.08,32.29A1.07,1.07,0,0,0,10,33.35v1.12a1.06,1.06,0,0,0,2.12,0V33.35A1.07,1.07,0,0,0,11.08,32.29Z"/><path d="M14.42,35.52a1.05,1.05,0,0,0,1.06-1.05V33.35a1.06,1.06,0,1,0-2.12,0v1.12A1.06,1.06,0,0,0,14.42,35.52Z"/><path d="M7.74,37.86a1.07,1.07,0,0,0-1.06,1.06V40A1.06,1.06,0,0,0,8.8,40V38.92A1.07,1.07,0,0,0,7.74,37.86Z"/><path d="M11.08,37.86A1.07,1.07,0,0,0,10,38.92V40a1.06,1.06,0,0,0,2.12,0V38.92A1.07,1.07,0,0,0,11.08,37.86Z"/><path d="M15.48,40V38.92a1.06,1.06,0,0,0-2.12,0V40a1.06,1.06,0,0,0,2.12,0Z"/><path d="M37.81,27.73a1.06,1.06,0,0,0,1-1.06V25.56a1.06,1.06,0,1,0-2.11,0v1.11A1.06,1.06,0,0,0,37.81,27.73Z"/><path d="M37.81,33.3a1.06,1.06,0,0,0,1-1.06V31.13a1.06,1.06,0,1,0-2.11,0v1.11A1.06,1.06,0,0,0,37.81,33.3Z"/><path d="M37.81,38.86a1,1,0,0,0,1-1V36.69a1.06,1.06,0,1,0-2.11,0v1.12A1.05,1.05,0,0,0,37.81,38.86Z"/><path d="M37.81,44.43a1.05,1.05,0,0,0,1-1.06V42.26a1.06,1.06,0,1,0-2.11,0v1.11A1.05,1.05,0,0,0,37.81,44.43Z"/><path d="M23.27,13.31a1.05,1.05,0,0,0-1.05-1.06H15.53a1.06,1.06,0,0,0,0,2.12h6.69A1.06,1.06,0,0,0,23.27,13.31Z"/></g></g></svg>