<?xml version="1.0" encoding="UTF-8" standalone="no"?>
<!DOCTYPE svg PUBLIC "-//W3C//DTD SVG 1.1//EN" "http://www.w3.org/Graphics/SVG/1.1/DTD/svg11.dtd">
<svg width="100%" height="100%" viewBox="0 0 25 25" version="1.1" xmlns="http://www.w3.org/2000/svg" xmlns:xlink="http://www.w3.org/1999/xlink" xml:space="preserve" xmlns:serif="http://www.serif.com/" style="fill-rule:evenodd;clip-rule:evenodd;stroke-linejoin:round;stroke-miterlimit:2;">
    <g transform="matrix(1,0,0,1,-25.0956,-17.9894)">
        <g transform="matrix(0.0492126,0,0,0.0492126,-1.27154,17.891)">
            <g transform="matrix(1,0,0,1,533.78,0)">
                <path d="M442.5,82.1L351.1,82.1L351.1,16.1C351.1,8.3 344.8,2 337,2L56.2,2C26.3,2 2,26.3 2,56.2L2,442.5C2,479.7 32.3,510 69.5,510L442.5,510C479.7,510 510,479.7 510,442.5L510,149.6C510,112.4 479.7,82.1 442.5,82.1ZM56.2,30.2L322.9,30.2L322.9,82.1L56.2,82.1C41.9,82.1 30.2,70.5 30.2,56.2C30.2,41.9 41.9,30.2 56.2,30.2ZM481.8,442.5C481.8,464.2 464.2,481.8 442.5,481.8L69.5,481.8C47.8,481.8 30.2,464.2 30.2,442.5L30.2,103.7C37.9,107.9 46.8,110.3 56.2,110.3L442.5,110.3C464.2,110.3 481.8,127.9 481.8,149.6L481.8,442.5Z" style="fill-rule:nonzero;"/>
            </g>
            <g transform="matrix(1,0,0,1,533.78,0)">
                <path d="M442.6,135.5L336,135.5C328.8,135.5 321.9,141.7 321.9,149.6L321.9,241.3C321.9,249.1 328.2,255.4 336,255.4L442.6,255.4C450.4,255.4 456.7,249.1 456.7,241.3L456.7,149.7C456.7,141.8 450.4,135.5 442.6,135.5ZM428.4,227.2L350,227.2L350,163.8L428.4,163.8L428.4,227.2Z" style="fill-rule:nonzero;"/>
            </g>
            <g transform="matrix(1,0,0,1,533.78,0)">
                <path d="M442.6,294.1L69.6,294.1C61.8,294.1 55.5,300.4 55.5,308.2C55.5,316 61.8,322.3 69.6,322.3L442.6,322.3C450.4,322.3 456.7,316 456.7,308.2C456.7,300.4 450.4,294.1 442.6,294.1Z" style="fill-rule:nonzero;"/>
            </g>
            <g transform="matrix(1,0,0,1,533.78,0)">
                <path d="M69.6,255.4L256.1,255.4C263.9,255.4 270.2,249.1 270.2,241.3C270.2,233.5 263.9,227.2 256.1,227.2L69.6,227.2C61.8,227.2 55.5,233.5 55.5,241.3C55.5,249.1 61.8,255.4 69.6,255.4Z" style="fill-rule:nonzero;"/>
            </g>
            <g transform="matrix(1,0,0,1,533.78,0)">
                <path d="M442.6,361L69.6,361C61.8,361 55.5,367.3 55.5,375.1C55.5,382.9 61.8,389.2 69.6,389.2L442.6,389.2C450.4,389.2 456.7,382.9 456.7,375.1C456.7,367.3 450.4,361 442.6,361Z" style="fill-rule:nonzero;"/>
            </g>
            <g transform="matrix(1,0,0,1,533.78,0)">
                <path d="M442.6,427.9L69.6,427.9C61.8,427.9 55.5,434.2 55.5,442C55.5,449.8 61.8,456.1 69.6,456.1L442.6,456.1C450.4,456.1 456.7,449.8 456.7,442C456.7,434.2 450.4,427.9 442.6,427.9Z" style="fill-rule:nonzero;"/>
            </g>
            <g transform="matrix(1,0,0,1,533.78,0)">
                <path d="M70,161L96.2,195.4L108.5,195.4L108.5,140.5L96.2,140.5L96.2,175.8L69.2,140.5L57.8,140.5L57.8,195.4L70,195.4L70,161Z" style="fill-rule:nonzero;"/>
            </g>
            <g transform="matrix(1,0,0,1,533.78,0)">
                <path d="M162.5,184.6L134.3,184.6L134.3,173.2L158.9,173.2L158.9,162.7L134.3,162.7L134.3,151.4L161.6,151.4L161.6,140.5L122,140.5L122,195.4L162.5,195.4L162.5,184.6Z" style="fill-rule:nonzero;"/>
            </g>
            <g transform="matrix(1,0,0,1,533.78,0)">
                <path d="M194.7,195.4L206.7,157.2L218.7,195.4L227.8,195.4L247,140.5L233.7,140.5L222.8,172.1L213.1,140.5L200.3,140.5L190.5,172.1L179.7,140.5L166.4,140.5L185.6,195.4L194.7,195.4Z" style="fill-rule:nonzero;"/>
            </g>
            <g transform="matrix(1,0,0,1,533.78,0)">
                <path d="M272.9,185.2C267.9,185.2 262.4,182.6 256.5,177.4L249.2,186.4C256.2,192.8 264,196.1 272.7,196.1C284.6,196.1 292.8,189.2 292.8,179.5C293.2,170 286.7,165 276.3,162.5C268.8,160.5 264.4,159.2 264.2,155.3C264.6,152.2 266.3,150 270.8,150C275.9,150 280.8,151.8 285.6,155.4L291.8,146.4C286.2,142.1 279.6,139.3 271.2,139.2C259,139.9 251.9,144.9 251.5,155.5C251.5,165.5 257.4,170.1 270,172.9C275.4,174.2 280.5,175.7 280.1,179.8C280.3,183.3 276.3,185.4 272.9,185.2Z" style="fill-rule:nonzero;"/>
            </g>
        </g>
    </g>
</svg>
