<?xml version="1.0" encoding="UTF-8" standalone="no"?>
<!DOCTYPE svg PUBLIC "-//W3C//DTD SVG 1.1//EN" "http://www.w3.org/Graphics/SVG/1.1/DTD/svg11.dtd">
<svg width="100%" height="100%" viewBox="0 0 22 25" version="1.1" xmlns="http://www.w3.org/2000/svg" xmlns:xlink="http://www.w3.org/1999/xlink" xml:space="preserve" xmlns:serif="http://www.serif.com/" style="fill-rule:evenodd;clip-rule:evenodd;stroke-linejoin:round;stroke-miterlimit:2;">
    <g transform="matrix(1,0,0,1,-26.6003,-156.051)">
        <g transform="matrix(1,0,0,1,-673.386,-72.7003)">
            <g transform="matrix(-0.0493461,0,0,0.0493461,724.73,228.618)">
                <path d="M500.7,111.4C500.5,110.6 500.3,109.9 500.1,109.1C499.9,108.4 499.6,107.6 499.3,106.9C499,106.2 498.6,105.5 498.3,104.8C498.1,104.5 497.9,104.1 497.7,103.8C497.3,103.1 496.8,102.5 496.4,101.9C495.2,100.3 493.8,98.9 492.3,97.7C491.7,97.2 491,96.7 490.3,96.3C490,96.1 489.6,95.9 489.3,95.7C488.6,95.3 487.9,94.9 487.1,94.6C486.3,94.3 485.6,93.9 484.8,93.7L387.4,60.7L383.8,34.1C382,20.8 369.5,11.5 356,13.4L278.9,23.9L220.8,4C218.4,3.2 215.9,2.8 213.5,2.7L211.1,2.7C210.7,2.7 210.3,2.8 209.9,2.8C204.7,3.4 199.8,5.6 196,9C193,11.6 190.7,15 189.3,19L183,36.6L78.6,50.8C65,52.7 55.4,65 57.3,78.2L87.7,302.4L57.2,387.5C56.8,388.7 56.4,389.9 56.2,391.1C55.9,392.7 55.8,394.3 55.8,395.9C55.8,397.1 55.9,398.3 56.1,399.4C56.2,400.2 56.4,400.9 56.6,401.7C56.7,402.1 56.8,402.5 56.9,402.8C57.4,404.3 58,405.7 58.8,407.1C59,407.4 59.2,407.8 59.4,408.1C60.2,409.4 61.2,410.7 62.2,411.8C62.7,412.4 63.3,412.9 63.9,413.5C64.8,414.3 65.7,415 66.8,415.7C67.1,415.9 67.5,416.1 67.8,416.3C68.5,416.7 69.2,417.1 70,417.4C70.8,417.7 71.5,418.1 72.3,418.3L104.9,429.3L109.6,464.2C111.4,477.5 123.9,486.8 137.4,484.9L231.3,472.2L336.3,508C337.5,508.4 338.7,508.7 340,508.9C341.2,509.1 342.4,509.2 343.7,509.3C345.7,509.4 347.7,509.2 349.7,508.8C350.9,508.6 352,508.2 353.1,507.8C354.2,507.4 355.3,506.9 356.4,506.3C357.8,505.6 359.1,504.7 360.4,503.7C363.8,501 366.5,497.3 368.1,493L382.8,451.9L415,447.5C428.5,445.7 438.1,433.4 436.3,420.1L424.7,334.8L426.5,329.8L500,124.5C500.6,122.9 501,121.3 501.2,119.7C501.3,118.9 501.4,118.1 501.4,117.3C501.5,115.7 501.4,114.1 501.1,112.6C500.9,112.2 500.8,111.8 500.7,111.4ZM358.8,35.1C360,34.9 361.2,35.8 361.3,37L363.4,52.5L325.6,39.7L358.8,35.1ZM79.6,75.2C79.4,74 80.3,72.9 81.5,72.7L174.5,60.1L152.7,121L118.7,125.6L121.7,147.5L144.3,144.4L104.2,256.4L79.6,75.2ZM134.5,463.3C133.3,463.5 132.1,462.6 132,461.4L128.8,437.6L157.4,447.3L184.5,456.5L134.5,463.3ZM413.8,423.1C414,424.3 413.1,425.4 411.9,425.6L391,428.4L404.6,390.4L408,380.8L413.8,423.1ZM478.6,117.2L401.5,332.5L365.9,431.8L346.6,485.7C346.3,486.5 345.5,487.1 344.6,487.2C344.3,487.2 344,487.2 343.7,487.1L280.7,465.7L101.6,404.9L79.9,397.5C79.8,397.5 79.6,397.4 79.5,397.3C79.4,397.2 79.3,397.1 79.1,397C78.9,396.8 78.7,396.6 78.6,396.3C78.3,395.8 78.3,395.2 78.5,394.6L94.3,350.6L110.8,304.5L199.6,56.5L208,33.1L210.5,26.1C210.6,26 210.6,25.8 210.7,25.7C211.1,25.1 211.8,24.7 212.5,24.6C212.8,24.6 213.1,24.6 213.4,24.7L229.5,30.2L276.4,46.1L353.5,72.3L390.7,84.9L477.3,114.3C477.4,114.3 477.6,114.4 477.7,114.5C478.1,114.7 478.4,115.1 478.6,115.4C478.7,116.1 478.8,116.7 478.6,117.2Z" style="fill-rule:nonzero;"/>
                <path d="M214.4,109.6L418.1,178.7L425.6,157.8L221.9,88.7L214.4,109.6Z" style="fill-rule:nonzero;"/>
                <path d="M192,172.2L395.7,241.3L403.2,220.4L199.5,151.3L192,172.2Z" style="fill-rule:nonzero;"/>
                <path d="M169.9,233.8L373.6,302.9L381.1,282L177.4,212.9L169.9,233.8Z" style="fill-rule:nonzero;"/>
                <path d="M147.1,297.5L350.8,366.6L358.3,345.7L154.6,276.6L147.1,297.5Z" style="fill-rule:nonzero;"/>
                <path d="M259.381,394.132L332.1,418.8L339.6,397.9L266.881,373.232L259.381,394.132Z" style="fill-rule:nonzero;"/>
            </g>
            <g transform="matrix(1,0,0,1,673.386,72.7003)">
                <path d="M43.919,170.864C44.077,170.801 44.271,170.843 44.388,170.966C44.505,171.09 44.538,171.286 44.467,171.439C44.09,172.267 43.192,174.312 42.812,175.148C42.723,175.348 42.463,175.452 42.26,175.369C42.26,175.369 41.066,174.882 41.066,174.882C40.859,174.797 40.747,174.532 40.832,174.324C40.917,174.117 41.183,174.006 41.39,174.09L42.199,174.42C42.45,173.86 42.808,173.052 43.128,172.333C43.079,172.399 43.012,172.45 42.935,172.476L40.225,173.423L41.218,176.265L44.168,175.235L43.654,173.763C43.577,173.55 43.702,173.287 43.915,173.212C44.128,173.138 44.39,173.267 44.46,173.478C44.46,173.478 45.116,175.357 45.116,175.357C45.19,175.568 45.065,175.827 44.854,175.901L41.097,177.213C40.885,177.287 40.626,177.162 40.552,176.951L39.276,173.296C39.221,173.126 39.297,172.846 39.537,172.758L42.651,171.67C42.863,171.593 43.126,171.718 43.201,171.931C43.224,171.998 43.227,172.071 43.214,172.14C43.4,171.724 43.567,171.349 43.686,171.087C43.731,170.986 43.817,170.905 43.919,170.864Z" style="fill-rule:nonzero;"/>
            </g>
        </g>
    </g>
</svg>
