<?xml version="1.0" encoding="UTF-8" standalone="no"?>
<!DOCTYPE svg PUBLIC "-//W3C//DTD SVG 1.1//EN" "http://www.w3.org/Graphics/SVG/1.1/DTD/svg11.dtd">
<svg width="100%" height="100%" viewBox="0 0 26 21" version="1.1" xmlns="http://www.w3.org/2000/svg" xmlns:xlink="http://www.w3.org/1999/xlink" xml:space="preserve" xmlns:serif="http://www.serif.com/" style="fill-rule:evenodd;clip-rule:evenodd;stroke-linejoin:round;stroke-miterlimit:2;">
    <g transform="matrix(1,0,0,1,-25.072,-101.438)">
        <g transform="matrix(1,0,0,1,-635.55,-78.1239)">
            <g transform="matrix(1,0,0,1,5.49015,-0.0948213)">
                <g transform="matrix(0.0492126,0,0,0.0492126,662.657,163.992)">
                    <path d="M341.936,427.9L69.6,427.9C61.8,427.9 55.5,434.2 55.5,442C55.5,449.8 61.8,456.1 69.6,456.1L341.936,456.1C349.736,456.1 356.036,449.8 356.036,442C356.036,434.2 349.736,427.9 341.936,427.9Z" style="fill-rule:nonzero;"/>
                </g>
                <g>
                    <g transform="matrix(0.0347986,-0.0347986,0.0347986,0.0347986,648.28,172.779)">
                        <path d="M224.408,427.9L69.6,427.9C61.8,427.9 55.5,434.2 55.5,442C55.5,449.8 61.8,456.1 69.6,456.1L224.408,456.1C232.208,456.1 238.508,449.8 238.508,442C238.508,434.2 232.208,427.9 224.408,427.9Z" style="fill-rule:nonzero;"/>
                    </g>
                    <g transform="matrix(0.0347986,0.0347986,-0.0347986,0.0347986,679.042,167.946)">
                        <path d="M224.408,427.9L69.6,427.9C61.8,427.9 55.5,434.2 55.5,442C55.5,449.8 61.8,456.1 69.6,456.1L224.408,456.1C232.208,456.1 238.508,449.8 238.508,442C238.508,434.2 232.208,427.9 224.408,427.9Z" style="fill-rule:nonzero;"/>
                    </g>
                </g>
            </g>
            <g transform="matrix(-1,-1.22465e-16,1.22465e-16,-1,1340.8,379.47)">
                <g transform="matrix(0.0492126,0,0,0.0492126,662.657,163.992)">
                    <path d="M341.936,427.9L69.6,427.9C61.8,427.9 55.5,434.2 55.5,442C55.5,449.8 61.8,456.1 69.6,456.1L341.936,456.1C349.736,456.1 356.036,449.8 356.036,442C356.036,434.2 349.736,427.9 341.936,427.9Z" style="fill-rule:nonzero;"/>
                </g>
                <g>
                    <g transform="matrix(0.0347986,-0.0347986,0.0347986,0.0347986,648.28,172.779)">
                        <path d="M224.408,427.9L69.6,427.9C61.8,427.9 55.5,434.2 55.5,442C55.5,449.8 61.8,456.1 69.6,456.1L224.408,456.1C232.208,456.1 238.508,449.8 238.508,442C238.508,434.2 232.208,427.9 224.408,427.9Z" style="fill-rule:nonzero;"/>
                    </g>
                    <g transform="matrix(0.0347986,0.0347986,-0.0347986,0.0347986,679.042,167.946)">
                        <path d="M224.408,427.9L69.6,427.9C61.8,427.9 55.5,434.2 55.5,442C55.5,449.8 61.8,456.1 69.6,456.1L224.408,456.1C232.208,456.1 238.508,449.8 238.508,442C238.508,434.2 232.208,427.9 224.408,427.9Z" style="fill-rule:nonzero;"/>
                    </g>
                </g>
            </g>
        </g>
    </g>
</svg>
