<?xml version="1.0" encoding="UTF-8" standalone="no"?>
<!DOCTYPE svg PUBLIC "-//W3C//DTD SVG 1.1//EN" "http://www.w3.org/Graphics/SVG/1.1/DTD/svg11.dtd">
<svg width="100%" height="100%" viewBox="0 0 24 16" version="1.1" xmlns="http://www.w3.org/2000/svg" xmlns:xlink="http://www.w3.org/1999/xlink" xml:space="preserve" xmlns:serif="http://www.serif.com/" style="fill-rule:evenodd;clip-rule:evenodd;stroke-linejoin:round;stroke-miterlimit:2;">
    <g transform="matrix(1,0,0,1,-26.0206,-82.0141)">
        <g transform="matrix(1,0,0,1,-127.781,2.61358)">
            <path d="M165.329,80.272L165.496,80.155C165.876,79.892 166.349,79.776 166.816,79.774C167.142,79.775 167.466,79.832 167.757,79.972L169.497,80.816C169.643,80.887 169.863,80.932 170.091,80.931C170.385,80.933 170.689,80.857 170.867,80.744L172.644,79.638C172.905,79.475 173.2,79.401 173.49,79.401C173.977,79.401 174.463,79.609 174.783,80.015L176.605,82.347C176.843,82.652 176.951,83.023 176.952,83.388L176.952,83.388C176.951,83.796 176.816,84.211 176.526,84.533L173.484,87.897L173.772,88.163C174.091,88.458 174.253,88.863 174.252,89.264C174.252,89.628 174.119,89.998 173.85,90.286L173.667,90.482C173.44,90.726 173.147,90.872 172.842,90.928C172.857,91.013 172.867,91.099 172.867,91.186C172.867,91.55 172.733,91.92 172.465,92.208C172.465,92.208 172.282,92.404 172.282,92.404C171.985,92.721 171.579,92.882 171.177,92.882C171.078,92.882 170.979,92.869 170.882,92.848C170.832,93.119 170.711,93.38 170.51,93.595C170.51,93.595 170.328,93.791 170.328,93.791C170.031,94.108 169.624,94.27 169.221,94.269C168.856,94.27 168.485,94.137 168.196,93.87L167.837,93.539C167.772,93.718 167.673,93.888 167.536,94.036L167.352,94.232C167.056,94.55 166.65,94.711 166.248,94.71C165.882,94.711 165.511,94.577 165.222,94.309L164.128,93.297L163.334,94.126C163.039,94.435 162.639,94.59 162.243,94.59C161.87,94.59 161.493,94.453 161.202,94.177L161.008,93.992C160.84,93.832 160.722,93.641 160.646,93.438C160.414,93.571 160.153,93.64 159.892,93.639C159.52,93.64 159.143,93.502 158.852,93.226L158.657,93.041C158.464,92.858 158.335,92.634 158.262,92.396C158.098,92.455 157.925,92.485 157.754,92.484C157.381,92.485 157.004,92.347 156.713,92.071L156.514,91.882C156.207,91.589 156.052,91.192 156.052,90.799C156.052,90.584 156.103,90.369 156.197,90.169C155.988,90.103 155.79,89.993 155.622,89.834L155.428,89.65C155.117,89.356 154.96,88.957 154.961,88.562C154.961,88.191 155.099,87.816 155.376,87.527L156.277,86.587L154.323,84.92C153.979,84.627 153.801,84.209 153.802,83.793C153.801,83.444 153.926,83.089 154.178,82.808C154.178,82.808 156.338,80.389 156.338,80.389C156.526,80.179 156.762,80.026 157.016,79.922C157.268,79.82 157.54,79.766 157.814,79.766C158.053,79.766 158.295,79.807 158.52,79.904L159.707,80.41C159.893,80.49 160.188,80.542 160.482,80.541C160.775,80.542 161.07,80.49 161.256,80.41L162.442,79.904C162.768,79.766 163.139,79.708 163.511,79.707C163.923,79.708 164.331,79.778 164.678,79.948C164.937,80.077 165.167,80.192 165.329,80.272ZM164.466,80.881C164.4,80.848 164.332,80.814 164.261,80.779C164.093,80.693 163.802,80.634 163.512,80.636C163.249,80.635 162.985,80.682 162.81,80.758L161.623,81.264C161.28,81.409 160.883,81.469 160.482,81.47C160.082,81.469 159.684,81.409 159.341,81.264L158.154,80.758C158.06,80.717 157.941,80.695 157.815,80.695C157.667,80.694 157.508,80.726 157.369,80.782C157.232,80.838 157.114,80.918 157.035,81.006L154.876,83.425C154.78,83.533 154.735,83.662 154.734,83.793C154.735,83.951 154.8,84.104 154.929,84.215L156.922,85.915L157.335,85.484C157.631,85.176 158.03,85.02 158.427,85.02C158.799,85.02 159.176,85.158 159.468,85.434L159.665,85.622C159.939,85.884 160.089,86.228 160.119,86.577C160.136,86.575 160.154,86.574 160.171,86.574C160.544,86.574 160.921,86.712 161.212,86.988L161.406,87.173C161.716,87.467 161.873,87.865 161.873,88.26C161.873,88.4 161.85,88.54 161.81,88.676C162.056,88.737 162.29,88.86 162.486,89.045L162.68,89.23C162.686,89.235 162.69,89.241 162.694,89.247C162.694,89.247 162.855,89.486 162.984,89.759C163.063,89.926 163.128,90.106 163.143,90.254C163.146,90.254 163.149,90.254 163.152,90.254C163.524,90.254 163.901,90.391 164.192,90.667L164.387,90.852C164.697,91.146 164.854,91.545 164.853,91.939C164.853,92.154 164.802,92.367 164.709,92.567L165.857,93.63C165.968,93.732 166.107,93.782 166.249,93.782C166.405,93.782 166.558,93.722 166.671,93.601C166.671,93.601 166.853,93.405 166.854,93.405C166.956,93.295 167.005,93.157 167.006,93.017C167.005,92.872 166.95,92.731 166.844,92.621L165.467,91.35C165.438,91.321 165.437,91.275 165.465,91.246L165.996,90.675C166.01,90.66 166.029,90.651 166.049,90.651C166.062,90.651 166.074,90.654 166.084,90.659C166.091,90.662 166.097,90.666 166.103,90.671C166.103,90.671 168.83,93.189 168.83,93.189C168.94,93.291 169.08,93.341 169.222,93.342C169.379,93.341 169.533,93.28 169.646,93.159L169.828,92.963C169.931,92.854 169.981,92.715 169.981,92.574C169.981,92.421 169.921,92.273 169.806,92.162L167.073,89.635C167.058,89.621 167.049,89.603 167.049,89.583C167.048,89.563 167.055,89.543 167.069,89.529L167.6,88.959C167.629,88.929 167.676,88.927 167.706,88.955C167.706,88.955 170.786,91.802 170.786,91.802C170.895,91.904 171.035,91.954 171.177,91.954C171.334,91.954 171.487,91.893 171.6,91.772C171.6,91.772 171.782,91.576 171.782,91.576C171.885,91.466 171.935,91.328 171.936,91.187C171.935,91.031 171.874,90.878 171.753,90.766L168.457,87.713C168.443,87.699 168.434,87.68 168.433,87.66C168.432,87.64 168.44,87.621 168.453,87.606L168.986,87.036C169.014,87.006 169.061,87.005 169.091,87.033C169.091,87.033 172.17,89.88 172.17,89.88C172.281,89.982 172.42,90.032 172.562,90.032C172.719,90.032 172.872,89.971 172.985,89.85L173.168,89.654C173.27,89.544 173.321,89.406 173.321,89.265C173.321,89.109 173.26,88.957 173.139,88.844C173.139,88.844 170.824,86.704 170.824,86.704C170.424,86.333 169.702,85.745 169.259,85.427L167.259,83.993C167.105,83.88 166.85,83.807 166.596,83.809C166.381,83.808 166.173,83.86 166.035,83.944L165.311,84.378C165.057,84.531 164.772,84.602 164.492,84.602C163.997,84.601 163.501,84.383 163.184,83.96L163.021,83.742C162.826,83.479 162.73,83.169 162.731,82.865C162.73,82.404 162.951,81.946 163.36,81.658L164.466,80.881ZM163.908,91.817C163.885,91.707 163.83,91.604 163.744,91.522C163.744,91.522 163.549,91.337 163.549,91.337C163.437,91.232 163.295,91.18 163.151,91.18C162.996,91.18 162.846,91.239 162.733,91.356C162.733,91.356 161.631,92.507 161.631,92.507C161.525,92.617 161.473,92.758 161.473,92.902C161.473,92.943 161.477,92.984 161.486,93.024C161.509,93.134 161.564,93.237 161.651,93.32L161.845,93.504C161.956,93.61 162.098,93.661 162.243,93.662C162.397,93.661 162.548,93.603 162.66,93.485C162.66,93.485 162.66,93.485 162.66,93.485C162.66,93.485 163.763,92.334 163.763,92.334C163.869,92.224 163.92,92.083 163.921,91.939C163.921,91.898 163.916,91.857 163.908,91.817ZM159.893,92.711C160.047,92.711 160.198,92.652 160.31,92.535L162.056,90.712C162.162,90.602 162.214,90.461 162.215,90.317C162.214,90.164 162.155,90.014 162.037,89.902L161.842,89.717C161.731,89.612 161.59,89.56 161.445,89.56C161.305,89.56 161.169,89.611 161.061,89.708L159.249,91.6C159.166,91.703 159.123,91.826 159.123,91.954C159.123,92.107 159.182,92.257 159.3,92.369L159.495,92.554C159.606,92.659 159.748,92.711 159.893,92.711ZM157.754,91.556C157.909,91.555 158.059,91.497 158.172,91.38C158.172,91.38 160.782,88.655 160.782,88.655C160.888,88.544 160.939,88.403 160.94,88.26C160.939,88.106 160.881,87.956 160.763,87.844L160.568,87.659C160.457,87.554 160.315,87.502 160.171,87.502C160.024,87.502 159.882,87.557 159.771,87.663C159.639,87.804 157.142,90.404 157.142,90.403C157.036,90.514 156.985,90.655 156.985,90.799C156.985,90.951 157.043,91.1 157.159,91.212L157.356,91.399C157.468,91.504 157.609,91.556 157.754,91.556ZM159.011,86.284L158.824,86.105C158.712,86 158.571,85.948 158.426,85.948C158.272,85.948 158.121,86.007 158.008,86.125C158.008,86.125 156.051,88.167 156.051,88.167C155.944,88.278 155.893,88.419 155.893,88.562C155.893,88.716 155.952,88.865 156.07,88.978L156.265,89.162C156.376,89.267 156.517,89.319 156.662,89.319C156.779,89.319 156.894,89.284 156.992,89.216L159.095,87.025C159.161,86.929 159.194,86.818 159.195,86.706C159.194,86.645 159.164,86.568 159.131,86.497C159.086,86.401 159.032,86.315 159.011,86.284ZM172.802,87.265L175.835,83.911C175.952,83.784 176.021,83.588 176.02,83.388C176.02,83.211 175.966,83.039 175.871,82.918L174.048,80.585C173.925,80.425 173.707,80.328 173.491,80.329C173.363,80.329 173.241,80.361 173.139,80.425L171.361,81.531C170.989,81.759 170.538,81.857 170.091,81.86C169.743,81.859 169.397,81.798 169.09,81.651L167.349,80.807C167.216,80.742 167.021,80.702 166.816,80.703C166.521,80.7 166.209,80.787 166.035,80.914L163.896,82.416C163.742,82.525 163.663,82.692 163.662,82.864C163.662,82.978 163.697,83.091 163.772,83.192L163.764,83.183L163.931,83.407C164.053,83.573 164.273,83.674 164.492,83.673C164.613,83.673 164.731,83.642 164.83,83.583L165.553,83.148C165.868,82.961 166.233,82.881 166.596,82.88C167.022,82.882 167.452,82.99 167.803,83.239L169.803,84.673C170.29,85.023 171.017,85.616 171.457,86.023L172.802,87.265Z" style="fill-rule:nonzero;"/>
        </g>
    </g>
</svg>
