<?xml version="1.0" encoding="UTF-8" standalone="no"?>
<!DOCTYPE svg PUBLIC "-//W3C//DTD SVG 1.1//EN" "http://www.w3.org/Graphics/SVG/1.1/DTD/svg11.dtd">
<svg width="100%" height="100%" viewBox="0 0 25 25" version="1.1" xmlns="http://www.w3.org/2000/svg" xmlns:xlink="http://www.w3.org/1999/xlink" xml:space="preserve" xmlns:serif="http://www.serif.com/" style="fill-rule:evenodd;clip-rule:evenodd;stroke-linejoin:round;stroke-miterlimit:2;">
    <g transform="matrix(1,0,0,1,-25.4744,-49.3071)">
        <g transform="matrix(0.252524,0,0,0.252524,24.9694,49.1808)">
            <path d="M84,0.5L52.26,0.5C44.58,0.5 38.26,6.82 38.26,14.5L38.26,26.87C36.448,27.181 34.964,28.498 34.44,30.26C34.404,30.378 34.378,30.498 34.36,30.62L33.72,35.25C33.531,36.605 33.136,37.924 32.55,39.16L26.28,52.35C25.443,54.31 23.755,55.784 21.7,56.35C21.567,53.806 19.417,51.794 16.87,51.83L6.87,51.83C6.836,51.829 6.803,51.829 6.769,51.829C4.182,51.829 2.043,53.933 2,56.52L2,94.81C2.044,97.419 4.221,99.533 6.83,99.5L16.83,99.5C19.443,99.539 21.626,97.423 21.67,94.81L21.67,94.22L23.76,95.47C26.344,97.025 29.304,97.848 32.32,97.85L49.02,97.85C53.948,97.871 58.354,94.686 59.88,90L67.17,67.85C67.545,66.706 67.736,65.509 67.736,64.306C67.736,58.578 63.415,53.696 57.73,53C52.93,52.41 48.55,52.05 45.58,52C45.477,50.318 45.643,48.63 46.07,47C47.992,47.95 50.106,48.446 52.25,48.45L65.42,48.45C67.91,54.45 72.77,57.92 76.57,59.86C77.183,60.169 77.86,60.33 78.546,60.33C80.955,60.33 82.936,58.348 82.936,55.94C82.936,55.446 82.853,54.956 82.69,54.49C82.047,52.559 81.879,50.5 82.2,48.49L84,48.49C91.68,48.49 98,42.17 98,34.49L98,14.53C98,14.52 98,14.51 98,14.5C98,6.82 91.68,0.5 84,0.5ZM16.73,94.5L7,94.5L7,56.84L16.73,56.84L16.73,94.5ZM57.12,58C60.308,58.392 62.73,61.13 62.73,64.342C62.73,65.021 62.622,65.695 62.41,66.34L55.13,88.46C54.271,91.075 51.813,92.854 49.06,92.85L32.36,92.85C30.246,92.853 28.172,92.279 26.36,91.19L21.7,88.39L21.7,61.47L21.9,61.47C25.858,60.781 29.216,58.149 30.83,54.47L37,41.31C37.804,39.612 38.343,37.801 38.6,35.94L39.17,31.85C40.492,32.103 41.657,32.878 42.4,34C43.48,35.74 43.46,38.42 42.4,41.75C40.72,46.82 40.2,50.84 40.85,53.7C41.285,55.631 43.021,57.011 45,57C49.055,57.112 53.101,57.446 57.12,58ZM93,34.43C93,39.367 88.937,43.43 84,43.43L80.18,43.43C79.06,43.429 78.07,44.181 77.77,45.26C76.885,48.324 76.802,51.565 77.53,54.67C73.775,52.619 70.92,49.236 69.53,45.19C69.203,44.15 68.231,43.438 67.14,43.44L52.26,43.44C50.565,43.44 48.905,42.962 47.47,42.06C48.65,37.79 48.38,34.19 46.65,31.39C45.801,30.029 44.625,28.901 43.23,28.11L43.23,14.53C43.23,9.593 47.293,5.53 52.23,5.53L84,5.53C88.937,5.53 93,9.593 93,14.53L93,34.43Z" style="fill-rule:nonzero;"/>
        </g>
    </g>
</svg>
