<svg width="100" height="87" viewBox="0 0 100 87" fill="none" xmlns="http://www.w3.org/2000/svg">
<path d="M43.3542 30.3421H35.1875L40.2917 0.554555H48.4583L43.3542 30.3421ZM28.3333 0.53475L20.5417 21.0335L19.625 16.6169L16.875 3.2283C16.875 3.2283 16.5417 0.554555 13 0.554555H0.145833L0 1.04969C0 1.04969 3.9375 1.82211 8.54167 4.45625L15.625 30.3421H24.125L37.1042 0.554555L28.3333 0.53475ZM92.5 30.3421H100L93.4583 0.53475H86.8958C83.875 0.53475 83.125 2.75297 83.125 2.75297L70.9792 30.3421H79.4792L81.1875 25.9255H91.5625L92.5 30.3421ZM83.5208 19.8055L87.8125 8.65502L90.2292 19.8055H83.5208ZM71.6042 7.70436L72.7708 1.30717C72.7708 1.30717 69.1875 0 65.4375 0C61.3958 0 51.7708 1.68347 51.7708 9.86316C51.7708 17.5675 63.0625 17.6467 63.0625 21.7069C63.0625 25.767 52.9375 25.0342 49.6042 22.4793L48.3958 29.1736C48.3958 29.1736 52.0417 30.857 57.6042 30.857C63.1667 30.857 71.5833 28.1239 71.5833 20.6572C71.5833 12.9132 60.1875 12.1804 60.1875 8.81347C60.1667 5.44653 68.125 5.88225 71.6042 7.70436Z" fill="#001974"/>
<path d="M51.8763 82.7998C64.543 72.1642 65.0638 53.6857 51.8555 42.654C61.8346 35.8805 76.4596 37.9007 84.8763 47.2093C93.3554 56.5971 92.8346 70.7778 83.6679 79.6111C73.9804 88.9593 59.7305 88.2859 51.8763 82.7998Z" fill="#F79E1B"/>
<path d="M48.1466 42.6957C35.7717 52.8163 34.605 71.5919 48.0425 82.6235C40.5633 88.1096 26.1883 88.7434 16.605 79.7121C7.20918 70.8789 6.52168 56.5793 15.105 47.0727C23.7925 37.4868 38.4383 36.2589 48.1466 42.6957Z" fill="#EB001B"/>
<path d="M49.9163 43.8652C62.6455 53.0154 63.083 72.0683 50.208 81.5353C38.8122 73.8904 35.9372 54.8573 49.9163 43.8652Z" fill="#FF5F00"/>
</svg>
