<svg width="100" height="76" viewBox="0 0 100 76" fill="none" xmlns="http://www.w3.org/2000/svg">
<path d="M36.4971 0L0.0509766 21.1801L0 39.1949L63.5029 75.8582L99.9488 54.6781L100 36.6635L36.4971 0Z" fill="#378B4F"/>
<path d="M99.999 36.6641L99.9479 54.6787L63.502 75.8588L63.5531 57.8441L99.999 36.6641Z" fill="#378B4F"/>
<path d="M63.5541 57.8432L63.5029 75.8578L0 39.1945L0.0509766 21.1797L63.5541 57.8432Z" fill="#40A559"/>
<path d="M99.9998 36.6635L63.5539 57.8436L0.0507812 21.1801L36.4969 0L99.9998 36.6635Z" fill="#4DBA69"/>
<path d="M87.8914 36.1195C88.167 35.4617 88.7463 34.8385 89.6307 34.3246L89.6357 32.5232L41.8092 4.91016C39.2285 6.40996 35.0318 6.40996 32.434 4.91016L11.5637 17.0387C11.6451 17.0855 11.724 17.1336 11.8004 17.1826C11.724 17.1338 11.6451 17.0859 11.5637 17.0387L11.5586 18.84C12.4662 19.3639 13.0576 20.0018 13.334 20.6734C13.0586 21.3313 12.4791 21.9549 11.5943 22.4688L11.5893 24.2701L59.4162 51.8828C61.9969 50.383 66.1936 50.383 68.7912 51.8828L89.6615 39.7543L89.6666 37.9529C88.7588 37.4295 88.1678 36.7916 87.8914 36.1195ZM38.9553 22.5687C45.3502 18.8523 55.7535 18.8516 62.1904 22.5678C65.0311 24.2078 66.6238 26.2977 66.968 28.4402C66.618 30.5521 65.0535 32.6072 62.2699 34.2248C55.8748 37.9412 45.473 37.9414 39.0361 34.225C36.1912 32.5826 34.5994 30.4891 34.2582 28.3434C34.6109 26.2352 36.176 24.184 38.9553 22.5687Z" fill="#D2EDDA"/>
<path d="M13.5209 19.7732L13.5158 21.5746C13.5188 20.5855 12.8658 19.5951 11.5586 18.8404L11.5637 17.0391C12.8707 17.7938 13.5236 18.7842 13.5209 19.7732Z" fill="#ADDFBA"/>
<path d="M67.0453 27.5408L67.0402 29.3422C67.0473 26.8914 65.4299 24.4365 62.191 22.5668C55.7541 18.8504 45.351 18.8512 38.9559 22.5678C35.7789 24.4141 34.1885 26.8301 34.1816 29.2496L34.1867 27.4482C34.1938 25.0287 35.7838 22.6125 38.9609 20.7662C45.3561 17.0498 55.7592 17.049 62.1961 20.7654C65.435 22.6354 67.0521 25.0898 67.0453 27.5408Z" fill="#ADDFBA"/>
<path d="M87.7051 37.0211L87.7102 35.2197C87.7129 34.2434 88.3547 33.2686 89.6367 32.5234L89.6316 34.3248C88.3496 35.0697 87.708 36.0447 87.7051 37.0211Z" fill="#94D6A8"/>
<path d="M89.6664 37.9531L89.6613 39.7545L68.791 51.883L68.7961 50.0816L89.6664 37.9531Z" fill="#94D6A8"/>
<path d="M59.4219 50.0816L59.4168 51.883L11.5898 24.2703L11.5949 22.4688L59.4219 50.0816Z" fill="#ADDFBA"/>
<path d="M68.7961 50.0819L68.791 51.8833C66.1934 50.3835 61.9967 50.3836 59.416 51.8833L59.4211 50.0819C62.0018 48.5821 66.1986 48.5821 68.7961 50.0819Z" fill="#94D6A8"/>
<path d="M89.6369 32.523C87.0563 34.0228 87.0699 36.4537 89.6676 37.9535L68.7973 50.082C66.1996 48.5822 62.0029 48.5824 59.4223 50.082L11.5951 22.4691C14.1758 20.9693 14.1621 18.5385 11.5645 17.0387L32.4348 4.91016C35.0324 6.40996 39.2291 6.40996 41.81 4.91016L89.6369 32.523ZM39.0369 34.225C45.474 37.9414 55.8758 37.9414 62.2707 34.2248C68.6656 30.5084 68.6332 24.4824 62.1965 20.766C55.7594 17.0496 45.3564 17.0504 38.9613 20.7668C32.5662 24.4838 32.6002 30.5088 39.0369 34.225Z" fill="#D2EDDA"/>
<path d="M59.5131 24.5529L59.5266 24.5449L59.5348 21.6627L58.2381 20.9141L56.3539 22.009C55.6898 21.6986 54.9963 21.4527 54.2711 21.2725C53.5473 21.0916 52.8125 20.9955 52.0713 20.985C51.3272 20.9744 50.592 21.05 49.8631 21.2123C49.1342 21.376 48.4465 21.6449 47.8002 22.0205C47.3025 22.3098 46.9385 22.6047 46.7096 22.9045C46.4807 23.2043 46.3699 23.5221 46.3787 23.8584C46.3783 23.8445 46.3781 23.8307 46.3781 23.8168L46.3699 26.699C46.3699 26.7129 46.3701 26.7268 46.3703 26.7406C46.3764 27.077 46.498 27.4379 46.7309 27.8258C46.733 27.8295 46.7359 27.8336 46.7383 27.8373L45.8877 28.3316C45.4994 28.0344 45.1643 27.7223 44.8809 27.3932C44.5979 27.0641 44.3654 26.7578 44.1822 26.4717C44.0006 26.1865 43.8713 25.9381 43.7955 25.7289C43.7395 25.5738 43.707 25.4582 43.6988 25.3826L43.699 25.3176L39.6781 26.0865L39.6699 28.9689C39.9002 29.6197 40.2988 30.2691 40.8707 30.9158C40.8883 30.9357 40.9082 30.9547 40.9262 30.9744L40.7357 31.085L40.7275 33.9674L42.0242 34.716L44.1885 33.4582C44.8148 33.7906 45.4816 34.0668 46.1875 34.2877C46.8934 34.5086 47.6143 34.6469 48.3502 34.7049C49.0889 34.7629 49.8299 34.7195 50.5785 34.5752C51.3258 34.4301 52.0543 34.1523 52.7637 33.7402C53.3734 33.3857 53.7977 33.0266 54.0389 32.6607C54.2373 32.3623 54.3371 32.0578 54.3379 31.7475L54.3461 28.865C54.3461 28.8727 54.3443 28.8801 54.3443 28.8877C54.3457 28.8109 54.3428 28.734 54.332 28.6564C54.2848 28.3133 54.1301 27.9566 53.8783 27.5869L54.7096 27.1039C55.0119 27.3354 55.2748 27.5846 55.5014 27.8518C55.7266 28.1197 55.9164 28.3725 56.0668 28.6117C56.2172 28.8494 56.3279 29.0531 56.398 29.2236C56.452 29.3549 56.4793 29.4482 56.4844 29.5084L56.4842 29.5543L60.3732 28.8602L60.3814 25.9779C60.1766 25.5455 59.8826 25.0691 59.5131 24.5529Z" fill="#ADDFBA"/>
<path d="M59.5346 21.6621L59.5264 24.5443L57.6426 25.6393L57.6506 22.757L59.5346 21.6621Z" fill="#94D6A8"/>
<path d="M51.0352 26.9937L51.0434 24.1115C51.0439 23.9119 51.1826 23.731 51.4584 23.5707C52.1045 23.1951 52.9037 23.239 53.8557 23.7011L53.8475 26.5834C52.8957 26.1214 52.0965 26.0775 51.4502 26.4529C51.1742 26.6132 51.0355 26.7941 51.0352 26.9937Z" fill="#ADDFBA"/>
<path d="M43.6875 28.2305L43.6957 25.348C43.6957 25.3369 43.6965 25.327 43.6982 25.3184L43.69 28.2006C43.6885 28.2094 43.6877 28.2193 43.6875 28.2305Z" fill="#D2EDDA"/>
<path d="M54.7172 24.2227L54.709 27.1051L52.1719 28.5797L52.1801 25.6973L54.7172 24.2227Z" fill="#94D6A8"/>
<path d="M46.3691 26.6986L46.3773 23.8164C46.3773 23.8303 46.3775 23.8441 46.3777 23.858C46.3838 24.1943 46.5055 24.5553 46.7381 24.9432C46.9709 25.3293 47.301 25.7537 47.7283 26.2164L47.7201 29.0986C47.2928 28.6359 46.9627 28.2115 46.7299 27.8254C46.4971 27.4377 46.3756 27.0768 46.3695 26.7402C46.3693 26.7262 46.3691 26.7123 46.3691 26.6986Z" fill="#ADDFBA"/>
<path d="M56.4939 26.6467L56.4857 29.5289C56.4859 29.4711 56.4574 29.3693 56.3973 29.2229C56.3275 29.0527 56.2166 28.849 56.0662 28.6109C55.9158 28.3713 55.726 28.1189 55.5008 27.851C55.2742 27.5838 55.0111 27.3344 54.709 27.1031L54.7172 24.2207C55.0195 24.4521 55.2824 24.7014 55.509 24.9686C55.7342 25.2365 55.924 25.4893 56.0744 25.7285C56.2248 25.9664 56.3355 26.1701 56.4057 26.3404C56.4656 26.4871 56.4941 26.5889 56.4939 26.6467Z" fill="#ADDFBA"/>
<path d="M60.3814 25.9785L60.3734 28.8607L56.4844 29.5549L56.4926 26.6725L60.3814 25.9785Z" fill="#94D6A8"/>
<path d="M48.3699 26.8889L48.3619 29.7711L47.7207 29.099L47.7289 26.2168L48.3699 26.8889Z" fill="#ADDFBA"/>
<path d="M49.5537 28.6086L49.5455 31.4908C49.5457 31.4414 49.5373 31.3904 49.5207 31.3381C49.4377 31.0807 49.2518 30.7834 48.9629 30.4428L48.9711 27.5605C49.26 27.9012 49.4457 28.1984 49.5289 28.4559C49.5457 28.508 49.5539 28.559 49.5537 28.6086Z" fill="#ADDFBA"/>
<path d="M48.9717 27.5605L48.9635 30.443L46.7246 31.7439L46.733 28.8615L48.9717 27.5605Z" fill="#94D6A8"/>
<path d="M54.3463 28.8652L54.3381 31.7477C54.3373 32.058 54.2377 32.3625 54.0391 32.6609L54.0473 29.7785C54.2457 29.4799 54.3453 29.1756 54.3463 28.8652Z" fill="#ADDFBA"/>
<path d="M42.9197 29.8154L42.9115 32.6977C42.1223 32.1561 41.4426 31.5621 40.8707 30.9152C40.2988 30.2686 39.9 29.6191 39.6699 28.9684L39.6781 26.0859C39.9082 26.7367 40.307 27.3861 40.8789 28.0328C41.4508 28.6799 42.1305 29.2738 42.9197 29.8154Z" fill="#ADDFBA"/>
<path d="M42.0316 31.8348L42.0234 34.7172L40.7266 33.9686L40.7348 31.0859L42.0316 31.8348Z" fill="#ADDFBA"/>
<path d="M44.1961 30.5762L44.1877 33.4586L42.0234 34.7164L42.0316 31.834L44.1961 30.5762Z" fill="#94D6A8"/>
<path d="M54.0465 29.7777C53.8053 30.1434 53.3812 30.5029 52.7713 30.8572C52.0621 31.2695 51.3338 31.5473 50.5861 31.6922C49.8373 31.8365 49.0963 31.8795 48.3578 31.8219C47.6219 31.7641 46.901 31.6256 46.1951 31.4047C45.4893 31.1838 44.8225 30.9078 44.1961 30.5756L42.0318 31.8334L40.7352 31.0848L42.9193 29.8156C42.1301 29.274 41.4504 28.6801 40.8785 28.0332C40.3066 27.3865 39.9078 26.7371 39.6777 26.0863L43.6986 25.3174C43.6863 25.3816 43.7195 25.5193 43.7951 25.7289C43.8709 25.9383 44.0002 26.1867 44.1818 26.4717C44.3648 26.7576 44.5971 27.0639 44.8805 27.3932C45.1635 27.7223 45.4986 28.0342 45.8873 28.3316L48.3699 26.8891L47.7291 26.217C47.3018 25.7543 46.9717 25.3299 46.7389 24.9438C46.5061 24.5561 46.3846 24.1951 46.3785 23.8586C46.3695 23.5221 46.4803 23.2045 46.7094 22.9047C46.9383 22.6049 47.3025 22.31 47.8 22.0207C48.4463 21.6451 49.134 21.3762 49.8629 21.2125C50.5918 21.0504 51.327 20.9746 52.0711 20.9852C52.8123 20.9957 53.5471 21.0918 54.2709 21.2727C54.9963 21.4527 55.6895 21.6988 56.3537 22.009L58.2379 20.9141L59.5346 21.6627L57.6504 22.7576C58.3875 23.2709 58.9727 23.8166 59.4008 24.3949C59.826 24.9732 60.1553 25.5012 60.3816 25.9777L56.4926 26.6719C56.5035 26.6215 56.4762 26.5115 56.4063 26.341C56.3365 26.1709 56.2254 25.9672 56.075 25.7291C55.9246 25.4895 55.7348 25.2371 55.5096 24.9691C55.283 24.702 55.0199 24.4525 54.7178 24.2213L52.1805 25.6957L52.633 26.1291C53.0969 26.6 53.4834 27.0424 53.7924 27.4576C54.1 27.874 54.2793 28.273 54.3322 28.6561C54.384 29.0389 54.2891 29.4129 54.0465 29.7777ZM46.7322 28.8613C47.7338 29.3973 48.5443 29.4838 49.1668 29.1219C49.4906 28.9338 49.6104 28.7121 49.5287 28.4555C49.4457 28.198 49.2598 27.9008 48.9709 27.5602L46.7322 28.8613ZM51.5598 25.0342L53.8545 23.7004C52.9027 23.2385 52.1035 23.1945 51.4572 23.5699C51.1461 23.7508 51.0092 23.9576 51.0486 24.1883C51.0867 24.4199 51.257 24.7018 51.5598 25.0342Z" fill="#D2EDDA"/>
<path d="M54.0461 29.7793L54.0379 32.6617C53.7967 33.0273 53.3727 33.3869 52.7627 33.7412C52.0533 34.1535 51.325 34.4313 50.5775 34.5764C49.8287 34.7207 49.0877 34.7637 48.3492 34.7061C47.6133 34.6482 46.8924 34.5098 46.1865 34.2889C45.4807 34.068 44.8139 33.792 44.1875 33.4594L44.1957 30.5771C44.8221 30.9096 45.4889 31.1857 46.1947 31.4063C46.9006 31.6271 47.6215 31.7654 48.3574 31.8234C49.0963 31.8813 49.8371 31.8381 50.5857 31.6938C51.333 31.5488 52.0615 31.2709 52.7709 30.8588C53.3807 30.5043 53.8049 30.1451 54.0461 29.7793Z" fill="#ADDFBA"/>
</svg>
