<svg width="100" height="102" viewBox="0 0 100 102" fill="none" xmlns="http://www.w3.org/2000/svg">
<path d="M50.0843 0.0227697C58.7312 0.0227697 67.3781 -0.0404794 76.025 0.0438525C81.4632 0.0860185 86.693 1.098 91.1727 4.53453C95.9233 8.18188 98.7362 13.0099 99.5279 18.9553C99.8196 21.169 99.9655 23.4249 99.9655 25.6386C100.007 42.6947 100.007 59.7719 99.9863 76.828C99.9863 81.3609 99.3404 85.7883 97.0901 89.7941C93.6105 96.0557 88.2765 99.6187 81.3173 100.673C79.2963 100.989 77.2335 101.137 75.1708 101.137C58.1478 101.179 41.1249 101.179 24.1228 101.137C19.1638 101.116 14.3507 100.314 10.1002 97.5315C3.91194 93.4625 0.828227 87.5382 0.20315 80.2435C-0.00520906 77.7768 0.0364628 75.289 0.0156269 72.8223C-0.00520898 56.6938 -0.00520898 40.5864 0.0156269 24.4579C0.0156269 19.651 0.724048 14.9706 3.24519 10.7751C6.8498 4.85077 12.1213 1.39316 18.9138 0.507678C21.8308 0.128184 24.8104 0.0649355 27.7482 0.0438525C35.2075 -0.0193964 42.6459 0.0227697 50.0843 0.0227697ZM27.5815 57.4739C27.5815 54.5644 27.5815 51.8236 27.5815 49.0618C27.5815 47.86 28.7692 46.7637 30.1235 46.7005C31.5404 46.6161 32.2279 47.2486 32.353 48.7877C32.3946 49.4623 32.3738 50.1159 32.3738 50.7906C32.3738 52.9832 32.3738 55.1758 32.3738 57.4317C33.6448 57.4317 34.7908 57.4317 35.9784 57.4317C35.9784 53.8054 36.0826 50.2846 35.9367 46.7426C35.8534 44.7187 34.6241 43.6645 32.6238 43.4326C30.4777 43.1796 28.8109 44.1073 27.3315 45.7307C26.5606 44.0651 25.2062 43.2218 23.5602 43.4326C22.06 43.6434 20.6223 44.3392 19.1847 44.803C19.1638 44.6133 19.1222 44.2127 19.0805 43.791C17.8928 43.791 16.7885 43.791 15.6217 43.791C15.6217 48.366 15.6217 52.8778 15.6217 57.3895C16.8302 57.3895 17.9553 57.3895 19.1013 57.3895C19.1222 57.0311 19.143 56.7992 19.143 56.5673C19.143 54.0163 19.1222 51.4441 19.143 48.8931C19.143 47.7546 20.3723 46.7216 21.7058 46.6583C23.0393 46.5951 23.7269 47.1643 23.8727 48.5558C23.9561 49.3358 23.9144 50.137 23.9144 50.9171C23.9144 53.0675 23.9144 55.218 23.9144 57.4317C25.2271 57.4739 26.3314 57.4739 27.5815 57.4739ZM71.0244 50.5797C71.0036 54.8596 74.0248 57.8955 78.2961 57.8955C82.4008 57.8955 85.4012 54.7752 85.422 50.4954C85.4429 46.3842 82.2758 43.3483 78.0461 43.3694C73.9623 43.4326 71.0452 46.4264 71.0244 50.5797ZM46.2088 43.4537C42.0208 43.1585 38.8538 45.9836 38.5829 50.2424C38.3329 54.3747 41.1665 57.516 45.4587 57.8534C49.5634 58.1696 52.8763 55.1969 53.0222 50.8538C53.1472 46.6372 50.1885 43.4959 46.2088 43.4537ZM59.2104 57.4528C59.2104 54.7331 59.2104 52.0766 59.2104 49.4413C59.2104 47.7546 60.4189 46.7005 62.3983 46.7005C64.0235 46.7005 64.732 47.4805 64.7528 49.3569C64.7736 51.6339 64.7528 53.9319 64.7528 56.2089C64.7528 56.6305 64.7945 57.0311 64.7945 57.4528C66.0446 57.4528 67.1489 57.4528 68.2741 57.4528C68.2741 53.8265 68.3574 50.2846 68.2324 46.7637C68.1699 45.0138 66.8572 43.8121 65.1695 43.5169C63.2735 43.1796 61.5441 43.5802 60.0022 44.7608C59.773 44.9295 59.5438 45.0982 59.273 45.2879C59.2104 44.7187 59.1688 44.2548 59.1271 43.8332C57.9186 43.8332 56.7935 43.8332 55.6683 43.8332C55.6683 48.4293 55.6683 52.9199 55.6683 57.4528C56.8768 57.4528 57.9811 57.4528 59.2104 57.4528Z" fill="#323232"/>
<path d="M81.5897 50.7841C81.5481 52.2599 81.0897 53.5038 79.7145 54.2206C78.5477 54.811 77.3809 54.7477 76.2766 54.0309C74.8597 53.0822 74.318 50.6576 75.0681 48.7812C75.6932 47.2422 77.2559 46.4621 79.0061 46.8205C80.6104 47.1368 81.6731 48.7602 81.5897 50.7841Z" fill="#323232"/>
<path d="M49.26 50.5959C49.2808 52.8939 47.8848 54.5384 45.8846 54.5805C43.8218 54.6227 42.3633 52.9782 42.3633 50.6169C42.3633 48.34 43.801 46.6955 45.8012 46.6955C47.8015 46.6744 49.2183 48.2978 49.26 50.5959Z" fill="#323232"/>
</svg>
