<svg width="100" height="101" viewBox="0 0 100 101" fill="none" xmlns="http://www.w3.org/2000/svg">
<path d="M51.9227 100.919C47.0067 54.7805 45.9026 53.6633 0.0546875 48.5204C0.0546875 32.5437 0.0546875 16.5037 0.0546875 0C33.2585 0 66.4624 0 99.9995 0C99.9995 33.6186 99.9995 67.0897 99.9995 100.898C84.0016 100.919 68.1496 100.919 51.9227 100.919ZM20.6144 28.813C50.6728 32.8388 67.2331 50.6703 71.7741 80.5372C74.8362 80.3896 77.2734 80.2632 79.7314 80.1578C79.7314 60.0077 79.7314 40.4899 79.7314 20.6981C59.9007 20.6981 40.4242 20.6981 20.6352 20.6981C20.6144 23.375 20.6144 25.7146 20.6144 28.813Z" fill="#75AF26"/>
<path d="M38.3281 100.968C25.3299 100.968 12.7899 100.968 0 100.968C0 87.8362 0 75 0 61.8477C12.8524 61.8477 25.3924 61.8477 38.3281 61.8477C38.3281 74.8736 38.3281 87.7098 38.3281 100.968Z" fill="black"/>
</svg>
