<svg width="50" height="55" viewBox="0 0 50 55" fill="none" xmlns="http://www.w3.org/2000/svg">
<path d="M47.0245 15.2038L30.5365 3.42578V8.92178H19.5435H6.98047V21.4848V36.7888L19.5435 27.8158V21.4848H30.5365V26.9808L47.0245 15.2038Z" fill="#B900B6"/>
<path d="M2.97656 39.667L19.4656 51.445V45.948H30.4576H43.0206V33.386V18.082L30.4576 27.055V33.386H19.4656V27.89L2.97656 39.667Z" fill="#00A6DC"/>
<path d="M28.806 0.0644531V7.19245H5.25V35.9185L0 39.6675L21.195 54.8065V47.6785H44.75V18.9535L50 15.2035L28.806 0.0644531ZM41.29 44.2195H17.735V48.0845L5.952 39.6675L17.735 31.2515V35.1165H32.187V27.9455L41.29 21.4435V44.2195ZM20.948 31.8135V23.0575H29.053V31.8135H20.948ZM32.266 23.6195V19.7545H17.813V26.9255L8.71 33.4275V10.6515H32.265V6.78745L44.047 15.2035L32.266 23.6195Z" fill="white"/>
</svg>
