<svg width="445" height="271" viewBox="0 0 445 271" fill="none" xmlns="http://www.w3.org/2000/svg">
<path opacity="0.25" d="M374.572 49.3562L383.718 44.0378C384.32 43.683 384.758 43.1047 384.937 42.4283C385.117 41.7519 385.023 41.0319 384.676 40.4245L383.352 38.1323L396.903 30.2902C408.853 23.3615 422.019 18.7962 435.686 16.8418L442.726 15.8086C443.297 15.7157 443.822 15.438 444.22 15.018C444.619 14.5979 444.869 14.0586 444.933 13.4824C444.997 12.9063 444.871 12.3251 444.574 11.8276C444.277 11.33 443.826 10.9436 443.289 10.7274L440.158 9.4966C430.923 5.86153 420.989 4.36351 411.097 5.1143C401.204 5.86508 391.609 8.84529 383.026 13.8326L372.775 19.7607L371.451 17.4629C371.279 17.1608 371.048 16.8959 370.773 16.6834C370.498 16.471 370.183 16.3151 369.848 16.2249C369.512 16.1346 369.162 16.1118 368.818 16.1576C368.474 16.2034 368.142 16.317 367.841 16.4918L358.672 21.7989L356.025 17.2032C355.674 16.5938 355.096 16.1491 354.418 15.967C353.74 15.7849 353.017 15.8802 352.409 16.2321L343.24 21.5392C342.632 21.8912 342.189 22.4703 342.006 23.1497C341.823 23.8291 341.917 24.5533 342.266 25.1638L344.913 29.7595L335.744 35.0666C335.137 35.4196 334.694 35.9991 334.513 36.6784C334.331 37.3577 334.426 38.0814 334.775 38.6912L336.099 40.9891L325.859 46.9059C317.252 51.8621 309.873 58.7046 304.275 66.9219C298.677 75.1392 295.004 84.5186 293.531 94.3591L293.03 97.7015C292.942 98.2805 293.049 98.8723 293.332 99.3845C293.615 99.8968 294.059 100.301 294.596 100.533C295.132 100.766 295.73 100.814 296.296 100.671C296.862 100.527 297.366 100.2 297.727 99.7396L302.114 94.1502C310.64 83.2566 321.171 74.1031 333.136 67.1857L346.687 59.3437L348.011 61.6415C348.184 61.9431 348.415 62.2074 348.69 62.4195C348.965 62.6315 349.28 62.787 349.615 62.8772C349.95 62.9674 350.3 62.9905 350.644 62.9451C350.988 62.8997 351.32 62.7867 351.621 62.6126L360.807 57.3055L421.634 161.065C422.718 162.837 424.449 164.115 426.459 164.626C428.469 165.137 430.599 164.84 432.394 163.8C434.19 162.759 435.508 161.057 436.07 159.056C436.631 157.055 436.39 154.913 435.399 153.087L374.572 49.3562ZM385.673 18.4283C399.464 10.4012 415.858 8.15325 431.293 12.1727C418.261 14.4862 405.735 19.0723 394.284 25.7227L380.733 33.5422L378.086 28.9465L375.439 24.3508L385.673 18.4283ZM348.191 24.7968L352.77 22.1433L354.093 24.4411L349.509 27.1003L348.191 24.7968ZM330.5 62.6239C319.033 69.2469 308.812 77.8322 300.301 87.9906C304.542 72.5812 314.681 59.4734 328.512 51.5185L338.746 45.5961L341.393 50.1918L344.04 54.7875L330.5 62.6239ZM351.26 56.7297L340.672 38.3468L368.179 22.4256L378.768 40.8084L351.26 56.7297ZM429.874 159.393C429.266 159.745 428.543 159.841 427.865 159.659C427.187 159.476 426.609 159.032 426.258 158.422L365.431 54.6802L370.015 52.0267L430.859 155.775C431.21 156.385 431.306 157.11 431.124 157.791C430.942 158.471 430.499 159.052 429.89 159.405L429.874 159.393Z" fill="#EC6110"/>
<path opacity="0.25" d="M198.249 204.109C198.249 203.085 197.902 202.091 197.264 201.291C196.626 200.491 195.737 199.932 194.74 199.705L126.811 184.247L124.733 182.852C113.976 175.652 105.492 165.524 100.278 153.658L99.1519 151.044V137.256C99.152 136.176 98.7656 135.131 98.0629 134.312C97.3602 133.492 96.3878 132.953 95.3221 132.791L45.7594 125.27C45.1739 125.165 44.5735 125.177 43.9926 125.305C43.4118 125.434 42.862 125.676 42.3751 126.018C41.8882 126.361 41.4737 126.796 41.1556 127.3C40.8375 127.804 40.622 128.366 40.5217 128.954C40.4213 129.541 40.438 130.143 40.5708 130.724C40.7036 131.306 40.9499 131.855 41.2954 132.34C41.641 132.825 42.079 133.237 42.5841 133.552C43.0893 133.867 43.6516 134.078 44.2387 134.174H44.4077L90.1124 141.146V151.986C90.1177 152.608 90.2479 153.223 90.4953 153.793L92.0273 157.271C97.9302 170.711 107.538 182.183 119.72 190.339L122.497 192.202C122.957 192.503 123.466 192.721 124.001 192.845L189.238 207.716V219.77C189.24 220.967 189.716 222.115 190.561 222.96L219.139 251.613C219.969 252.475 221.107 252.97 222.302 252.991C223.497 253.012 224.652 252.555 225.511 251.723C226.371 250.89 226.866 249.75 226.886 248.552C226.907 247.354 226.452 246.196 225.621 245.335L225.509 245.222L198.249 217.896V204.109Z" fill="#EC6110"/>
<path opacity="0.6" d="M148.687 158.083H148.726L148.794 167.15L157.805 167.082L157.743 158.083H162.204V167.116H171.215V158.083H175.721C179.306 158.083 182.744 156.655 185.279 154.114C187.814 151.573 189.238 148.126 189.238 144.533V135.499C189.228 132.155 187.975 128.934 185.724 126.466C187.975 123.998 189.228 120.777 189.238 117.433V108.399C189.238 104.806 187.814 101.359 185.279 98.8181C182.744 96.277 179.306 94.8494 175.721 94.8494H171.215V85.8161H162.204V94.8494H157.738L157.805 85.85L148.794 85.7822L148.732 94.8494H135.17V103.883H144.181V149.049H135.17V158.083H148.687ZM153.193 103.883H175.721C176.916 103.883 178.062 104.359 178.907 105.206C179.752 106.053 180.227 107.202 180.227 108.399V117.433C180.227 118.631 179.752 119.779 178.907 120.627C178.062 121.474 176.916 121.949 175.721 121.949H153.193V103.883ZM175.721 130.983C176.916 130.983 178.062 131.459 178.907 132.306C179.752 133.153 180.227 134.302 180.227 135.499V144.533C180.227 145.731 179.752 146.88 178.907 147.727C178.062 148.574 176.916 149.049 175.721 149.049H153.193V130.983H175.721Z" fill="#EC6110" fill-opacity="0.6"/>
<g opacity="0.6">
<path opacity="0.6" d="M79.4766 111.849L114.914 118.06C115.216 118.256 115.493 118.488 115.742 118.749C115.86 118.845 115.978 118.946 116.091 119.054C116.339 119.371 116.543 119.721 116.699 120.092C116.744 120.194 116.829 120.279 116.868 120.386C117.054 120.886 117.149 121.416 117.15 121.95V147.215C120.985 155.272 126.811 162.212 134.074 167.376L167.073 174.88L206.07 183.766L212.778 185.29C213.773 185.519 214.661 186.08 215.296 186.882C215.932 187.683 216.277 188.676 216.275 189.7V210.414L269.037 263.305C269.394 263.68 269.685 264.113 269.899 264.586C269.955 264.725 270.004 264.866 270.045 265.01C270.182 265.393 270.263 265.794 270.287 266.201C270.287 266.303 270.355 266.438 270.355 266.494C270.355 266.551 270.355 266.607 270.355 266.664C270.342 267.199 270.238 267.728 270.045 268.228C270.045 268.267 269.978 268.295 269.978 268.335C269.776 268.776 269.504 269.18 269.172 269.532C268.793 269.91 268.36 270.229 267.888 270.48C267.742 270.554 267.59 270.622 267.438 270.684C266.928 270.885 266.386 270.992 265.838 271C266.376 270.989 266.908 270.882 267.409 270.684C267.567 270.622 267.713 270.554 267.86 270.48C268.332 270.229 268.765 269.91 269.144 269.532C269.476 269.18 269.748 268.776 269.949 268.335C269.949 268.295 270 268.267 270.017 268.228C270.21 267.728 270.315 267.199 270.327 266.664C270.327 266.607 270.361 266.557 270.361 266.494C270.333 266.398 270.311 266.3 270.293 266.201C270.264 265.794 270.181 265.394 270.045 265.01C270.004 264.866 269.955 264.725 269.899 264.586C269.687 264.113 269.396 263.679 269.037 263.305L216.275 210.414V189.7C216.276 188.677 215.93 187.685 215.295 186.885C214.659 186.085 213.772 185.525 212.778 185.296L206.064 183.772C215.365 176.629 222.788 167.321 227.69 156.653C232.593 145.986 234.826 134.281 234.197 122.553C233.568 110.825 230.096 99.4278 224.081 89.3487C218.066 79.2696 209.69 70.8128 199.679 64.7111C189.667 58.6094 178.323 55.0468 166.628 54.3321C154.934 53.6174 143.241 55.7721 132.565 60.6096C121.888 65.447 112.55 72.8212 105.358 82.0932C98.1662 91.3652 93.3383 102.255 91.2928 113.82L79.4766 111.849ZM134.097 167.376C126.827 162.213 120.993 155.273 117.15 147.215V121.95C117.149 121.415 117.055 120.884 116.874 120.38C116.829 120.273 116.744 120.188 116.699 120.087C116.545 119.714 116.341 119.364 116.091 119.048C115.978 118.941 115.86 118.839 115.742 118.743C115.488 118.481 115.205 118.25 114.897 118.054C114.729 117.977 114.556 117.911 114.379 117.857C114.083 117.703 113.769 117.587 113.444 117.512C115.08 108.548 119.144 100.208 125.192 93.4036C131.24 86.5995 139.037 81.5938 147.733 78.9342C156.428 76.2746 165.685 76.0636 174.492 78.3241C183.299 80.5847 191.315 85.2299 197.665 91.7513C204.015 98.2728 208.453 106.419 210.495 115.3C212.536 124.18 212.101 133.452 209.238 142.101C206.375 150.751 201.194 158.444 194.262 164.34C187.33 170.235 178.914 174.106 169.934 175.529L134.097 167.376ZM194.085 181.022L187.253 179.47C196.326 175.167 204.144 168.599 209.954 160.395C215.765 152.191 219.374 142.627 220.434 132.622C221.495 122.617 219.971 112.506 216.01 103.261C212.048 94.0166 205.782 85.9482 197.813 79.8309C189.845 73.7136 180.44 69.753 170.504 68.3295C160.568 66.9059 150.434 68.0673 141.074 71.7019C131.715 75.3366 123.445 81.3225 117.059 89.0848C110.673 96.8471 106.385 106.125 104.607 116.027L100.101 115.277C101.974 104.839 106.436 95.0405 113.076 86.7839C119.716 78.5274 128.321 72.0776 138.099 68.0281C147.877 63.9787 158.514 62.4596 169.032 63.6106C179.549 64.7617 189.608 68.546 198.284 74.6153C206.96 80.6845 213.974 88.8438 218.68 98.3422C223.386 107.841 225.634 118.373 225.215 128.97C224.797 139.567 221.727 149.889 216.287 158.985C210.847 168.081 203.212 175.659 194.085 181.022Z" fill="#EC6110"/>
<path opacity="0.6" d="M162.205 45.1664C163.4 45.1664 164.546 44.6905 165.391 43.8435C166.236 42.9965 166.711 41.8476 166.711 40.6497V22.5831C166.711 21.3852 166.236 20.2363 165.391 19.3893C164.546 18.5423 163.4 18.0664 162.205 18.0664C161.01 18.0664 159.864 18.5423 159.019 19.3893C158.174 20.2363 157.699 21.3852 157.699 22.5831V40.6497C157.699 41.8476 158.174 42.9965 159.019 43.8435C159.864 44.6905 161.01 45.1664 162.205 45.1664Z" fill="#EC6110"/>
<path opacity="0.6" d="M201.942 54.6515C202.454 54.9482 203.02 55.1407 203.607 55.2182C204.193 55.2956 204.79 55.2564 205.361 55.1027C205.933 54.9491 206.469 54.6841 206.938 54.3229C207.408 53.9616 207.802 53.5111 208.097 52.9973L217.109 37.3526C217.713 36.3187 217.883 35.0865 217.581 33.9271C217.279 32.7678 216.53 31.7761 215.498 31.1705C214.467 30.5648 213.237 30.3946 212.081 30.6974C210.924 31.0003 209.935 31.7512 209.331 32.7852L209.303 32.836L200.291 48.4806C199.995 48.9944 199.803 49.5616 199.726 50.1498C199.649 50.738 199.688 51.3357 199.841 51.9087C199.994 52.4818 200.259 53.019 200.619 53.4896C200.98 53.9602 201.429 54.355 201.942 54.6515Z" fill="#EC6110"/>
<path opacity="0.6" d="M235.533 84.9923C236.324 84.9927 237.101 84.7843 237.786 84.3882L253.392 75.3549C254.428 74.756 255.183 73.7693 255.492 72.6121C255.802 71.4548 255.64 70.2217 255.043 69.184C254.445 68.1464 253.461 67.3891 252.306 67.0789C251.152 66.7687 249.922 66.9309 248.887 67.5298L233.28 76.5631C232.421 77.06 231.749 77.8274 231.369 78.7462C230.989 79.665 230.922 80.6838 231.179 81.6446C231.436 82.6053 232.002 83.4542 232.789 84.0595C233.576 84.6648 234.541 84.9927 235.533 84.9923Z" fill="#EC6110"/>
<path opacity="0.6" d="M243.309 121.949C243.309 123.147 243.783 124.296 244.628 125.143C245.473 125.99 246.619 126.466 247.814 126.466H265.837C267.032 126.466 268.178 125.99 269.023 125.143C269.868 124.296 270.343 123.147 270.343 121.949C270.343 120.751 269.868 119.603 269.023 118.756C268.178 117.908 267.032 117.433 265.837 117.433H247.814C246.619 117.433 245.473 117.908 244.628 118.756C243.783 119.603 243.309 120.751 243.309 121.949Z" fill="#EC6110"/>
<path opacity="0.6" d="M240.033 160.122C238.998 159.523 237.768 159.36 236.613 159.671C235.459 159.981 234.474 160.738 233.877 161.776C233.279 162.814 233.118 164.047 233.427 165.204C233.737 166.361 234.492 167.348 235.527 167.947L251.134 176.98C251.646 177.277 252.212 177.469 252.799 177.546C253.386 177.624 253.982 177.585 254.554 177.431C255.125 177.277 255.661 177.012 256.13 176.651C256.6 176.29 256.994 175.84 257.29 175.326C257.586 174.812 257.778 174.245 257.855 173.657C257.932 173.068 257.893 172.471 257.74 171.898C257.586 171.325 257.322 170.788 256.962 170.317C256.601 169.846 256.152 169.451 255.64 169.155L240.033 160.122Z" fill="#EC6110"/>
</g>
<path opacity="0.25" d="M270.286 266.201C270.262 265.794 270.18 265.393 270.044 265.01C270.002 264.866 269.953 264.725 269.897 264.586C269.684 264.114 269.393 263.68 269.035 263.305L216.274 210.415V189.7C216.274 188.677 215.927 187.684 215.291 186.884C214.654 186.084 213.766 185.524 212.77 185.296L206.063 183.772L167.066 174.885L134.067 167.382C126.805 162.215 120.981 155.273 117.148 147.215V121.95C117.148 121.414 117.053 120.883 116.867 120.38C116.827 120.273 116.743 120.189 116.698 120.087C116.542 119.715 116.337 119.366 116.089 119.048C115.977 118.941 115.858 118.839 115.74 118.743C115.487 118.481 115.203 118.25 114.895 118.054L79.458 111.844L57.4927 108.174L35.8992 25.9708C35.66 25.0623 35.1442 24.2512 34.4236 23.6504L7.38935 1.06706C7.04826 0.786719 6.66895 0.556679 6.26292 0.383917H6.19534C5.71921 0.193985 5.21475 0.0852133 4.70283 0.0621042C4.64213 0.0279039 4.575 0.00675323 4.5057 0C4.43248 0 4.35927 0.0395208 4.28042 0.0451667C3.83847 0.0693722 3.40226 0.156827 2.98503 0.304875C2.88928 0.344396 2.78227 0.355687 2.68652 0.400854L2.59641 0.429083C2.15981 0.637096 1.76024 0.915564 1.41366 1.25338C1.31792 1.34371 1.25033 1.45098 1.16585 1.54696C0.903051 1.84523 0.681415 2.17754 0.506891 2.53498C0.435099 2.6685 0.371159 2.80612 0.315399 2.94712C0.118556 3.44751 0.0117703 3.97891 0 4.51667L0 266.483C0 267.681 0.474707 268.83 1.31969 269.677C2.16467 270.524 3.31071 271 4.5057 271H265.836C266.375 270.989 266.907 270.882 267.408 270.684C267.56 270.622 267.712 270.554 267.858 270.481C268.33 270.229 268.763 269.91 269.142 269.532C269.474 269.18 269.747 268.776 269.948 268.335C269.948 268.296 269.993 268.267 270.015 268.228C270.208 267.729 270.313 267.199 270.325 266.664C270.325 266.608 270.325 266.557 270.325 266.495C270.325 266.433 270.291 266.303 270.286 266.201ZM9.0114 14.1598L27.5467 29.6406L47.7604 106.531L9.0114 100.055V14.1598ZM193.745 261.967C193.746 261.373 193.629 260.786 193.403 260.237C193.177 259.689 192.846 259.191 192.427 258.771L174.404 240.704C173.986 240.285 173.489 239.953 172.942 239.726C172.395 239.499 171.809 239.383 171.217 239.383H161.8C160.744 233.069 157.489 227.335 152.613 223.199C147.738 219.063 141.558 216.793 135.171 216.793C128.784 216.793 122.604 219.063 117.729 223.199C112.853 227.335 109.598 233.069 108.542 239.383H100.99L84.2904 222.638C83.445 221.79 82.2983 221.314 81.1026 221.314C79.907 221.314 78.7603 221.79 77.9148 222.638C77.0694 223.485 76.5944 224.635 76.5944 225.833C76.5944 227.032 77.0694 228.181 77.9148 229.029L95.9376 247.096C96.3564 247.515 96.8534 247.847 97.4004 248.074C97.9474 248.301 98.5336 248.417 99.1254 248.417H169.352L182.87 261.967H9.0114V109.219L22.5285 111.477V171.633C22.528 172.227 22.6442 172.814 22.8703 173.363C23.0965 173.911 23.4281 174.409 23.8464 174.829L56.7099 207.767L23.8464 240.704C22.9868 241.537 22.4923 242.678 22.4717 243.876C22.4511 245.074 22.9061 246.231 23.7366 247.093C24.5671 247.954 25.7051 248.45 26.9002 248.471C28.0954 248.491 29.2497 248.035 30.1093 247.203L30.222 247.096L66.2676 210.962C66.6865 210.543 67.0189 210.045 67.2456 209.496C67.4724 208.948 67.5891 208.36 67.5891 207.767C67.5891 207.173 67.4724 206.585 67.2456 206.037C67.0189 205.489 66.6865 204.991 66.2676 204.571L31.5399 169.765V112.979L94.2931 123.469L108.137 125.761V148.192C108.137 148.814 108.267 149.43 108.52 149.999C113.041 160.294 120.402 169.081 129.736 175.326C130.19 175.633 130.695 175.855 131.229 175.981L207.262 193.313V212.283C207.262 212.877 207.378 213.464 207.604 214.013C207.83 214.561 208.162 215.059 208.58 215.479L254.961 261.967H193.745ZM152.552 239.383H117.79C118.772 235.509 121.014 232.073 124.162 229.619C127.309 227.165 131.183 225.833 135.171 225.833C139.159 225.833 143.033 227.165 146.18 229.619C149.328 232.073 151.57 235.509 152.552 239.383Z" fill="#EC6110"/>
</svg>
