<?xml version="1.0" encoding="UTF-8" standalone="no"?>
<!DOCTYPE svg PUBLIC "-//W3C//DTD SVG 1.1//EN" "http://www.w3.org/Graphics/SVG/1.1/DTD/svg11.dtd">
<svg width="100%" height="100%" viewBox="0 0 22 22" version="1.1" xmlns="http://www.w3.org/2000/svg" xmlns:xlink="http://www.w3.org/1999/xlink" xml:space="preserve" xmlns:serif="http://www.serif.com/" style="fill-rule:evenodd;clip-rule:evenodd;stroke-linejoin:round;stroke-miterlimit:2;">
    <g transform="matrix(7.30911e-17,1.19367,-1.19367,7.30911e-17,23.0329,-2.30428)">
        <circle cx="11.146" cy="10.081" r="9.215" style="fill:rgb(248,159,0);"/>
    </g>
    <g transform="matrix(0.0224761,0,0,0.0224761,7.40236,5.24469)">
        <path d="M275.1,334C247.7,351.4 210,358.3 185.1,360.9L206,381.5L282.3,457.8C310.2,486.4 264.8,531.1 236.6,503.5C217.5,484.1 189.5,456.1 160.3,426.9L84,503.4C55.8,530.9 10.4,485.8 38.6,457.7C58,438.3 85.7,410.3 114.9,381.4L135.5,360.8C110.9,358.2 72.6,351.7 44.9,333.9C12.3,312.9 -2,300.6 10.6,274.9C18,260.3 38.3,248 65.2,269.2C65.2,269.2 101.5,298.1 160.1,298.1C218.7,298.1 255,269.2 255,269.2C281.9,248.1 302.1,260.3 309.6,274.9C322,300.6 307.7,312.9 275.1,334ZM30.3,129.7C30.3,58 88.6,0 160,0C231.4,0 289.7,58 289.7,129.7C289.7,201.1 231.4,259.1 160,259.1C88.6,259.1 30.3,201.1 30.3,129.7ZM96.3,129.7C96.3,164.8 124.9,193.4 160,193.4C195.1,193.4 223.7,164.8 223.7,129.7C223.7,94.3 195.1,65.7 160,65.7C124.9,65.7 96.3,94.3 96.3,129.7Z" style="fill:white;fill-rule:nonzero;"/>
    </g>
</svg>
