<?xml version="1.0" standalone="no"?>
<!DOCTYPE svg PUBLIC "-//W3C//DTD SVG 1.1//EN" "http://www.w3.org/Graphics/SVG/1.1/DTD/svg11.dtd" >
<svg xmlns="http://www.w3.org/2000/svg">
<metadata>Generated by IcoMoon</metadata>
<defs>
<font id="theme-icon" horiz-adv-x="1024">
<font-face units-per-em="1024" ascent="960" descent="-64" />
<missing-glyph horiz-adv-x="1024" />
<glyph unicode="&#x20;" horiz-adv-x="512" d="" />
<glyph unicode="&#xe900;" glyph-name="bell" horiz-adv-x="896" d="M448-64c70.64 0 127.94 57.3 127.94 128h-255.88c0-70.7 57.3-128 127.94-128zM878.78 235.42c-38.64 41.52-110.94 103.98-110.94 308.58 0 155.4-108.96 279.8-255.88 310.32v41.68c0 35.34-28.64 64-63.96 64s-63.96-28.66-63.96-64v-41.68c-146.92-30.52-255.88-154.92-255.88-310.32 0-204.6-72.3-267.060-110.94-308.58-12-12.9-17.32-28.32-17.22-43.42 0.22-32.8 25.96-64 64.2-64h767.6c38.24 0 64 31.2 64.2 64 0.1 15.1-5.22 30.54-17.22 43.42z" />
<glyph unicode="&#xe901;" glyph-name="camera" d="M1024 672v-576c0-53-43-96-96-96h-832c-53 0-96 43-96 96v576c0 53 43 96 96 96h176l24.6 65.8c14 37.4 49.8 62.2 89.8 62.2h251c40 0 75.8-24.8 89.8-62.2l24.8-65.8h176c53 0 96-43 96-96zM752 384c0 132.4-107.6 240-240 240s-240-107.6-240-240 107.6-240 240-240 240 107.6 240 240zM688 384c0-97-79-176-176-176s-176 79-176 176 79 176 176 176 176-79 176-176z" />
<glyph unicode="&#xe902;" glyph-name="book" horiz-adv-x="1152" d="M1084.44 895.9c-109.6-6.22-327.44-28.86-461.92-111.18-9.28-5.68-14.54-15.78-14.54-26.34v-727.74c0-23.1 25.26-37.7 46.56-26.98 138.36 69.64 338.46 88.64 437.4 93.84 33.78 1.78 60.040 28.86 60.040 61.32v675.68c0.020 35.42-30.7 63.48-67.54 61.4zM529.46 784.72c-134.46 82.32-352.3 104.94-461.9 111.18-36.84 2.080-67.56-25.98-67.56-61.4v-675.7c0-32.48 26.26-59.56 60.040-61.32 98.98-5.2 299.18-24.22 437.54-93.9 21.24-10.7 46.42 3.88 46.42 26.92v728.24c0 10.58-5.24 20.28-14.54 25.98z" />
<glyph unicode="&#xe903;" glyph-name="copy" horiz-adv-x="896" d="M640 64v-80c0-26.51-21.49-48-48-48h-544c-26.51 0-48 21.49-48 48v736c0 26.51 21.49 48 48 48h144v-592c0-61.758 50.242-112 112-112h336zM640 752v208h-336c-26.51 0-48-21.49-48-48v-736c0-26.51 21.49-48 48-48h544c26.51 0 48 21.49 48 48v528h-208c-26.4 0-48 21.6-48 48zM881.942 814.058l-131.884 131.884c-8.686 8.686-20.686 14.058-33.94 14.058h-12.118v-192h192v12.118c0 13.254-5.372 25.254-14.058 33.94v0z" />
<glyph unicode="&#xe904;" glyph-name="download-solid" d="M432 960h160c26.6 0 48-21.4 48-48v-336h175.4c35.6 0 53.4-43 28.2-68.2l-304.2-304.4c-15-15-39.6-15-54.6 0l-304.6 304.4c-25.2 25.2-7.4 68.2 28.2 68.2h175.6v336c0 26.6 21.4 48 48 48zM1024 208v-224c0-26.6-21.4-48-48-48h-928c-26.6 0-48 21.4-48 48v224c0 26.6 21.4 48 48 48h293.4l98-98c40.2-40.2 105-40.2 145.2 0l98 98h293.4c26.6 0 48-21.4 48-48zM776 32c0 22-18 40-40 40s-40-18-40-40 18-40 40-40 40 18 40 40zM904 32c0 22-18 40-40 40s-40-18-40-40 18-40 40-40 40 18 40 40z" />
<glyph unicode="&#xe905;" glyph-name="add-user" horiz-adv-x="1280" d="M1248 544h-128v128c0 17.6-14.4 32-32 32h-64c-17.6 0-32-14.4-32-32v-128h-128c-17.6 0-32-14.4-32-32v-64c0-17.6 14.4-32 32-32h128v-128c0-17.6 14.4-32 32-32h64c17.6 0 32 14.4 32 32v128h128c17.6 0 32 14.4 32 32v64c0 17.6-14.4 32-32 32zM448 448c141.4 0 256 114.6 256 256s-114.6 256-256 256-256-114.6-256-256 114.6-256 256-256zM627.2 384h-33.4c-44.4-20.4-93.8-32-145.8-32s-101.2 11.6-145.8 32h-33.4c-148.4 0-268.8-120.4-268.8-268.8v-83.2c0-53 43-96 96-96h704c53 0 96 43 96 96v83.2c0 148.4-120.4 268.8-268.8 268.8z" />
<glyph unicode="&#xe906;" glyph-name="apple-pay" horiz-adv-x="1280" d="M233.8 643c-15-17.8-39-31.8-63-29.8-3 24 8.8 49.6 22.6 65.2 15 18.2 41.2 31.2 62.6 32.2 2.4-24.8-7.4-49.4-22.2-67.6zM255.6 608.6c-34.8 2-64.6-19.8-81-19.8-16.8 0-42 18.8-69.6 18.2-35.8-0.6-69-20.8-87.2-53-37.6-64.6-9.8-160 26.6-212.6 17.8-26 39-54.6 67-53.6 26.6 1 37 17.2 69 17.2 32.2 0 41.6-17.2 69.6-16.8 29 0.6 47.2 26 65 52 20.2 29.6 28.6 58.2 29 59.8-0.6 0.6-56 21.8-56.6 85.8-0.6 53.6 43.8 79 45.8 80.6-25 37.2-64 41.2-77.6 42.2zM456.4 681v-389.8h60.6v133.2h83.8c76.6 0 130.2 52.6 130.2 128.6s-52.8 128-128.2 128h-146.4zM517 630h69.8c52.6 0 82.6-28 82.6-77.2s-30-77.6-82.8-77.6h-69.6v154.8zM841.4 288.2c38 0 73.2 19.2 89.2 49.8h1.2v-46.8h56v194c0 56.2-45 92.6-114.2 92.6-64.2 0-111.8-36.8-113.6-87.2h54.6c4.6 24 26.8 39.8 57.2 39.8 37 0 57.8-17.2 57.8-49v-21.6l-75.6-4.6c-70.2-4.2-108.2-33-108.2-83 0.2-50.4 39.4-84 95.6-84zM857.8 334.4c-32.2 0-52.8 15.6-52.8 39.2 0 24.6 19.8 38.8 57.6 41l67.2 4.2v-22c0-36.4-31-62.4-72-62.4zM1062.8 185.2c59 0 86.8 22.6 111 90.8l106.2 298h-61.6l-71.2-230.2h-1.2l-71.2 230.2h-63.2l102.4-283.8-5.6-17.2c-9.2-29.2-24.2-40.6-51-40.6-4.8 0-14 0.6-17.8 1v-46.8c3.6-0.8 18.6-1.4 23.2-1.4z" />
<glyph unicode="&#xe907;" glyph-name="apple" horiz-adv-x="768" d="M637.4 422.6c-0.4 73.4 32.8 128.8 100 169.6-37.6 53.8-94.4 83.4-169.4 89.2-71 5.6-148.6-41.4-177-41.4-30 0-98.8 39.4-152.8 39.4-111.6-1.8-230.2-89-230.2-266.4q0-78.6 28.8-162.4c25.6-73.4 118-253.4 214.4-250.4 50.4 1.2 86 35.8 151.6 35.8 63.6 0 96.6-35.8 152.8-35.8 97.2 1.4 180.8 165 205.2 238.6-130.4 61.4-123.4 180-123.4 183.8zM524.2 751c54.6 64.8 49.6 123.8 48 145-48.2-2.8-104-32.8-135.8-69.8-35-39.6-55.6-88.6-51.2-143.8 52.2-4 99.8 22.8 139 68.6z" />
<glyph unicode="&#xe908;" glyph-name="arrow-left" horiz-adv-x="896" d="M515 69.8l-44.4-44.4c-18.8-18.8-49.2-18.8-67.8 0l-388.8 388.6c-18.8 18.8-18.8 49.2 0 67.8l388.8 388.8c18.8 18.8 49.2 18.8 67.8 0l44.4-44.4c19-19 18.6-50-0.8-68.6l-241-229.6h574.8c26.6 0 48-21.4 48-48v-64c0-26.6-21.4-48-48-48h-574.8l241-229.6c19.6-18.6 20-49.6 0.8-68.6z" />
<glyph unicode="&#xe909;" glyph-name="arrow-right" horiz-adv-x="896" d="M381 826.2l44.4 44.4c18.8 18.8 49.2 18.8 67.8 0l388.8-388.6c18.8-18.8 18.8-49.2 0-67.8l-388.8-388.8c-18.8-18.8-49.2-18.8-67.8 0l-44.4 44.4c-19 19-18.6 50 0.8 68.6l241 229.6h-574.8c-26.6 0-48 21.4-48 48v64c0 26.6 21.4 48 48 48h574.8l-241 229.6c-19.6 18.6-20 49.6-0.8 68.6z" />
<glyph unicode="&#xe90a;" glyph-name="ban" d="M512 944c-273.932 0-496-222.066-496-496s222.068-496 496-496 496 222.068 496 496-222.066 496-496 496zM772.216 708.216c130.896-130.896 140-330.962 41.354-471.274l-512.63 512.626c140.408 98.712 340.452 89.47 471.276-41.352zM251.784 187.784c-130.896 130.896-140 330.962-41.354 471.274l512.63-512.626c-140.406-98.712-340.452-89.472-471.276 41.352z" />
<glyph unicode="&#xe90b;" glyph-name="bar" horiz-adv-x="896" d="M32 696h832c17.674 0 32 14.326 32 32v80c0 17.674-14.326 32-32 32h-832c-17.674 0-32-14.326-32-32v-80c0-17.674 14.326-32 32-32zM32 376h832c17.674 0 32 14.326 32 32v80c0 17.674-14.326 32-32 32h-832c-17.674 0-32-14.326-32-32v-80c0-17.674 14.326-32 32-32zM32 56h832c17.674 0 32 14.326 32 32v80c0 17.674-14.326 32-32 32h-832c-17.674 0-32-14.326-32-32v-80c0-17.674 14.326-32 32-32z" />
<glyph unicode="&#xe90c;" glyph-name="bitcoin" d="M1008 448c0-273.934-222.066-496-496-496s-496 222.066-496 496 222.066 496 496 496 496-222.066 496-496zM724.698 518.66c9.874 65.998-40.382 101.478-109.1 125.146l22.292 89.404-54.426 13.562-21.702-87.048c-14.308 3.566-29.004 6.928-43.606 10.26l21.858 87.62-54.396 13.562-22.306-89.372c-11.844 2.698-23.47 5.364-34.754 8.168l0.062 0.28-75.060 18.74-14.478-58.124s40.382-9.254 39.53-9.826c22.044-5.502 26.028-20.088 25.36-31.65l-25.392-101.85c1.52-0.388 3.488-0.946 5.658-1.814-1.814 0.45-3.752 0.946-5.752 1.426l-35.592-142.676c-2.698-6.696-9.534-16.74-24.942-12.928 0.542-0.79-39.56 9.874-39.56 9.874l-27.020-62.294 70.828-17.654c13.176-3.302 26.090-6.758 38.8-10.012l-22.524-90.426 54.364-13.562 22.306 89.466c-0.128-0.559 14.408-4.432 29.005-8.151l14.369-3.103-22.23-89.046 54.426-13.562 22.524 90.256c92.808-17.562 162.598-10.478 191.972 73.454 23.672 67.58-1.178 106.562-50.008 131.982 35.56 8.196 62.348 31.584 69.494 79.898zM600.344 344.302c-16.82-67.58-130.616-31.046-167.51-21.886l29.888 119.798c36.892-9.206 155.2-27.434 137.622-97.912zM617.178 519.636c-15.346-61.472-110.062-30.24-140.786-22.584l27.096 108.654c30.726-7.656 129.672-21.946 113.69-86.070z" />
<glyph unicode="&#xe90d;" glyph-name="calculator-exchange" d="M881.3 934.86l8-165.54c-91.248 107.157-226.274 174.68-377.071 174.68-0.2 0-0.4 0-0.6 0h0.031c-242.2 0-443.84-173.84-487.080-403.64-0.254-1.311-0.399-2.818-0.399-4.36 0-13.255 10.745-24 23.999-24h98.1c11.3 0.013 20.77 7.833 23.307 18.356l0.033 0.164c38.465 155.742 176.974 269.406 342.031 269.406 121.088 0 227.888-61.172 291.183-154.299l0.786-1.226-202.92 9.72c-0.34 0.017-0.739 0.027-1.14 0.027-13.255 0-24-10.745-24-24 0-0.010 0-0.019 0-0.029v0.001-94.82c0-13.255 10.745-24 24-24v0h400.44c13.255 0 24 10.745 24 24v0 400.7c0 13.255-10.745 24-24 24v0h-94.74c-13.249-0.007-23.987-10.75-23.987-24 0-0.401 0.010-0.8 0.029-1.196l-0.002 0.056zM511.66 96c-0.089 0-0.195 0-0.301 0-121.025 0-227.753 61.213-290.911 154.368l-0.788 1.232 203.6-9.74c0.34-0.017 0.739-0.027 1.14-0.027 13.255 0 24 10.745 24 24 0 0.010 0 0.019 0 0.029v-0.001 94.8c0 13.255-10.745 24-24 24v0h-400.4c-13.255 0-24-10.745-24-24v0-400.66c0-13.255 10.745-24 24-24v0h94.7c0.009 0 0.019 0 0.030 0 13.255 0 24 10.745 24 24 0 0.422-0.011 0.842-0.032 1.258l0.002-0.058-8.3 165.14c91.244-106.957 226.149-174.34 376.792-174.34 0.165 0 0.329 0 0.494 0h-0.026c242.22 0 443.86 173.84 487.1 403.64 0.254 1.311 0.399 2.818 0.399 4.36 0 13.255-10.745 24-23.999 24h-98.1c-11.3-0.013-20.77-7.833-23.307-18.356l-0.033-0.164c-38.399-155.774-176.906-269.48-341.97-269.48-0.032 0-0.063 0-0.095 0h0.005z" />
<glyph unicode="&#xe90e;" glyph-name="cancel" horiz-adv-x="704" d="M485.44 448l200.14 200.14c24.56 24.56 24.56 64.38 0 88.96l-44.48 44.48c-24.56 24.56-64.38 24.56-88.96 0l-200.14-200.14-200.14 200.14c-24.56 24.56-64.38 24.56-88.96 0l-44.48-44.48c-24.56-24.56-24.56-64.38 0-88.96l200.14-200.14-200.14-200.14c-24.56-24.56-24.56-64.38 0-88.96l44.48-44.48c24.56-24.56 64.4-24.56 88.96 0l200.14 200.14 200.14-200.14c24.56-24.56 64.4-24.56 88.96 0l44.48 44.48c24.56 24.56 24.56 64.38 0 88.96l-200.14 200.14z" />
<glyph unicode="&#xe90f;" glyph-name="check" d="M347.796 81.192l-332.8 332.8c-19.994 19.994-19.994 52.412 0 72.408l72.406 72.408c19.994 19.996 52.414 19.996 72.408 0l224.19-224.188 480.19 480.188c19.994 19.994 52.414 19.994 72.408 0l72.406-72.408c19.994-19.994 19.994-52.412 0-72.408l-588.8-588.802c-19.996-19.994-52.414-19.994-72.408 0.002z" />
<glyph unicode="&#xe910;" glyph-name="chevron-down" horiz-adv-x="896" d="M414.058 197.048l-388.686 388.688c-18.746 18.746-18.746 49.138 0 67.882l45.334 45.334c18.714 18.714 49.044 18.75 67.802 0.080l309.492-308.042 309.49 308.042c18.758 18.67 49.088 18.634 67.802-0.080l45.334-45.334c18.746-18.746 18.746-49.138 0-67.882l-388.684-388.688c-18.746-18.744-49.138-18.744-67.884 0z" />
<glyph unicode="&#xe911;" glyph-name="chevron-left" horiz-adv-x="640" d="M69.040 481.94l388.7 388.68c18.74 18.74 49.14 18.74 67.88 0l45.34-45.34c18.72-18.72 18.74-49.040 0.080-67.8l-308.060-309.48 308.040-309.5c18.68-18.76 18.64-49.080-0.080-67.8l-45.34-45.34c-18.74-18.74-49.14-18.74-67.88 0l-388.68 388.7c-18.74 18.74-18.74 49.14 0 67.88z" />
<glyph unicode="&#xe912;" glyph-name="chevron-right" horiz-adv-x="640" d="M570.952 414.058l-388.688-388.686c-18.746-18.746-49.138-18.746-67.882 0l-45.334 45.334c-18.714 18.714-18.75 49.044-0.080 67.802l308.042 309.492-308.042 309.49c-18.67 18.758-18.634 49.088 0.080 67.802l45.334 45.334c18.746 18.746 49.138 18.746 67.882 0l388.686-388.686c18.746-18.744 18.746-49.136 0.002-67.882z" />
<glyph unicode="&#xe913;" glyph-name="chevron-up" horiz-adv-x="896" d="M481.942 698.952l388.686-388.686c18.746-18.746 18.746-49.138 0-67.882l-45.334-45.334c-18.714-18.714-49.044-18.75-67.802-0.080l-309.492 308.040-309.49-308.042c-18.758-18.67-49.088-18.634-67.802 0.080l-45.334 45.334c-18.746 18.746-18.746 49.138 0 67.882l388.686 388.686c18.744 18.746 49.136 18.746 67.882 0.002z" />
<glyph unicode="&#xe914;" glyph-name="comment-dots" d="M512 896c-282.8 0-512-186.2-512-416 0-99.2 42.8-190 114-261.4-25-100.8-108.6-190.6-109.6-191.6-4.4-4.6-5.6-11.4-3-17.4s8.2-9.6 14.6-9.6c132.6 0 232 63.6 281.2 102.8 65.4-24.6 138-38.8 214.8-38.8 282.8 0 512 186.2 512 416s-229.2 416-512 416zM256 416c-35.4 0-64 28.6-64 64s28.6 64 64 64 64-28.6 64-64-28.6-64-64-64zM512 416c-35.4 0-64 28.6-64 64s28.6 64 64 64 64-28.6 64-64-28.6-64-64-64zM768 416c-35.4 0-64 28.6-64 64s28.6 64 64 64 64-28.6 64-64-28.6-64-64-64z" />
<glyph unicode="&#xe915;" glyph-name="contacts" d="M352 528h320c17.68 0 32 14.32 32 32v32c0 17.68-14.32 32-32 32h-320c-17.68 0-32-14.32-32-32v-32c0-17.68 14.32-32 32-32zM320 368c0-17.68 14.32-32 32-32h320c17.68 0 32 14.32 32 32v32c0 17.68-14.32 32-32 32h-320c-17.68 0-32-14.32-32-32v-32zM512 125.74c-32.84 0-65.68 10.12-93.72 30.38l-418.28 302.16v-426.28c0-53.020 42.98-96 96-96h832c53.020 0 96 42.98 96 96v426.28l-418.28-302.16c-28.040-20.24-60.88-30.38-93.72-30.38zM987.22 634.1c-17.7 13.88-34.48 26.94-59.22 45.62v88.28c0 53.020-42.98 96-96 96h-155.1c-6.080 4.4-11.74 8.52-18.080 13.12-33.62 24.54-100.42 83.58-146.82 82.88-46.4 0.7-113.18-58.34-146.82-82.88-6.34-4.6-12-8.72-18.080-13.12h-155.1c-53.020 0-96-42.98-96-96v-88.28c-24.74-18.66-41.52-31.74-59.22-45.62-22.477-17.73-36.776-44.965-36.78-75.539v-21.301l192-138.7v369.44h640v-369.44l192 138.7v21.3c0 29.48-13.56 57.34-36.78 75.54z" />
<glyph unicode="&#xe916;" glyph-name="credit-card" horiz-adv-x="1152" d="M0 96c0-53 43-96 96-96h960c53 0 96 43 96 96v352h-1152v-352zM384 232c0 13.2 10.8 24 24 24h272c13.2 0 24-10.8 24-24v-80c0-13.2-10.8-24-24-24h-272c-13.2 0-24 10.8-24 24v80zM128 232c0 13.2 10.8 24 24 24h144c13.2 0 24-10.8 24-24v-80c0-13.2-10.8-24-24-24h-144c-13.2 0-24 10.8-24 24v80zM1152 800v-96h-1152v96c0 53 43 96 96 96h960c53 0 96-43 96-96z" />
<glyph unicode="&#xe917;" glyph-name="danger-triangle" horiz-adv-x="1152" d="M1139.034 79.974c36.916-63.988-9.422-143.974-83.154-143.974h-959.772c-73.874 0-119.998 80.11-83.154 143.974l479.892 832.056c36.934 64.018 129.44 63.902 166.308 0l479.88-832.056zM576 252c-50.81 0-92-41.19-92-92s41.19-92 92-92 92 41.19 92 92-41.19 92-92 92zM488.654 582.692l14.836-272c0.694-12.728 11.218-22.692 23.964-22.692h97.092c12.746 0 23.27 9.964 23.964 22.692l14.836 272c0.75 13.748-10.196 25.308-23.964 25.308h-126.766c-13.768 0-24.712-11.56-23.962-25.308z" />
<glyph unicode="&#xe918;" glyph-name="document" horiz-adv-x="1152" d="M1056 896h-960c-53 0-96-43-96-96v-32h1152v32c0 53-43 96-96 96zM0 96c0-53 43-96 96-96h960c53 0 96 43 96 96v608h-1152v-608zM704 560c0 8.8 7.2 16 16 16h288c8.8 0 16-7.2 16-16v-32c0-8.8-7.2-16-16-16h-288c-8.8 0-16 7.2-16 16v32zM704 432c0 8.8 7.2 16 16 16h288c8.8 0 16-7.2 16-16v-32c0-8.8-7.2-16-16-16h-288c-8.8 0-16 7.2-16 16v32zM704 304c0 8.8 7.2 16 16 16h288c8.8 0 16-7.2 16-16v-32c0-8.8-7.2-16-16-16h-288c-8.8 0-16 7.2-16 16v32zM352 576c70.6 0 128-57.4 128-128s-57.4-128-128-128-128 57.4-128 128 57.4 128 128 128zM134.2 167.6c16.8 51.4 65 88.4 121.8 88.4h16.4c24.6-10.2 51.4-16 79.6-16s55.2 5.8 79.6 16h16.4c56.8 0 105-37 121.8-88.4 6.4-19.8-10.4-39.6-31.2-39.6h-373.2c-20.8 0-37.6 20-31.2 39.6z" />
<glyph unicode="&#xe919;" glyph-name="dollar" horiz-adv-x="576" d="M418.4 493.2l-216 63.2c-25 7.2-42.4 30.6-42.4 56.6 0 32.6 26.4 59 59 59h132.6c24.4 0 48.4-7.4 68.4-21 12.2-8.2 28.6-6.2 39 4l69.6 68c14.2 13.8 12.2 36.8-3.6 49-49 38.4-110.2 59.8-173 60v96c0 17.6-14.4 32-32 32h-64c-17.6 0-32-14.4-32-32v-96h-5c-127.4 0-229.8-109.4-218-239.2 8.4-92.2 78.8-167.2 167.6-193.2l205-60c25-7.4 42.4-30.6 42.4-56.6 0-32.6-26.4-59-59-59h-132.6c-24.4 0-48.4 7.4-68.4 21-12.2 8.2-28.6 6.2-39-4l-69.6-68c-14.2-13.8-12.2-36.8 3.6-49 49-38.4 110.2-59.8 173-60v-96c0-17.6 14.4-32 32-32h64c17.6 0 32 14.4 32 32v96.4c93.2 1.8 180.6 57.2 211.4 145.4 43 123.2-29.2 249.6-145 283.4z" />
<glyph unicode="&#xe91a;" glyph-name="donate" d="M512 128c229.8 0 416 186.2 416 416s-186.2 416-416 416-416-186.2-416-416 186.2-416 416-416zM467.6 765.2v33.6c0 18.4 14.8 33.2 33.2 33.2h22.2c18.4 0 33.2-14.8 33.2-33.2v-34c31-1.6 61-12.2 86-30.8 11.2-8.2 12.4-24.6 2.4-34.2l-32.6-31c-7.6-7.4-19-7.6-28-2-10.8 6.8-22.8 10.2-35.6 10.2h-77.8c-18 0-32.6-16.4-32.6-36.6 0-16.4 10-31 24.2-35.2l124.6-37.4c51.4-15.4 87.4-64.8 87.4-120.2 0-68-52.8-123-118.2-124.8v-33.6c0-18.4-14.8-33.2-33.2-33.2h-22.2c-18.4 0-33.2 14.8-33.2 33.2v34c-31 1.6-61 12.2-86 30.8-11.2 8.2-12.4 24.6-2.4 34.2l32.6 31c7.6 7.4 19 7.6 28 2 10.8-6.8 22.8-10.2 35.6-10.2h77.8c18 0 32.6 16.4 32.6 36.6 0 16.4-10 31-24.2 35.2l-124.6 37.4c-51.4 15.4-87.4 64.8-87.4 120.2 0.2 68 52.8 123 118.2 124.8zM960 256h-65c-39.2-52-89.2-95.4-146-128h127.6c10.6 0 19.2-7.2 19.2-16v-32c0-8.8-8.6-16-19.2-16h-729.4c-10.6 0-19.2 7.2-19.2 16v32c0 8.8 8.6 16 19.2 16h127.6c-56.8 32.6-106.6 76-146 128h-64.8c-35.4 0-64-28.6-64-64v-192c0-35.4 28.6-64 64-64h896c35.4 0 64 28.6 64 64v192c0 35.4-28.6 64-64 64z" />
<glyph unicode="&#xe91b;" glyph-name="door-open" horiz-adv-x="1280" d="M1248 64h-160v669.1c0 54.52-43.060 98.9-96 98.9h-224v-128h192v-768h288c17.68 0 32 14.32 32 32v64c0 17.68-14.32 32-32 32zM624.48 957.98l-384-99.48c-28.5-7.38-48.48-33.9-48.48-64.34v-730.16h-160c-17.68 0-32-14.32-32-32v-64c0-17.68 14.32-32 32-32h672v957.64c0 43.16-39.12 74.82-79.52 64.34zM528 384c-26.5 0-48 28.66-48 64s21.5 64 48 64 48-28.66 48-64-21.5-64-48-64z" />
<glyph unicode="&#xe91c;" glyph-name="end-time" horiz-adv-x="768" d="M720 832c26.51 0 48 21.49 48 48v32c0 26.51-21.49 48-48 48h-672c-26.51 0-48-21.49-48-48v-32c0-26.51 21.49-48 48-48 0-181.93 102.032-335.468 241.684-384-139.652-48.532-241.684-202.070-241.684-384-26.51 0-48-21.49-48-48v-32c0-26.51 21.49-48 48-48h672c26.51 0 48 21.49 48 48v32c0 26.51-21.49 48-48 48 0 181.93-102.032 335.468-241.684 384 139.652 48.532 241.684 202.070 241.684 384zM384 544c-115.574 0-208 133.036-208 288h416c0-155.89-93.020-288-208-288z" />
<glyph unicode="&#xe91d;" glyph-name="email" d="M1004.6 578.4c7.8 6.2 19.4 0.4 19.4-9.4v-409c0-53-43-96-96-96h-832c-53 0-96 43-96 96v408.8c0 10 11.4 15.6 19.4 9.4 44.8-34.8 104.2-79 308.2-227.2 42.2-30.8 113.4-95.6 184.4-95.2 71.4-0.6 144 65.6 184.6 95.2 204 148.2 263.2 192.6 308 227.4zM512 320c46.4-0.8 113.2 58.4 146.8 82.8 265.4 192.6 285.6 209.4 346.8 257.4 11.6 9 18.4 23 18.4 37.8v38c0 53-43 96-96 96h-832c-53 0-96-43-96-96v-38c0-14.8 6.8-28.6 18.4-37.8 61.2-47.8 81.4-64.8 346.8-257.4 33.6-24.4 100.4-83.6 146.8-82.8z" />
<glyph unicode="&#xe91e;" glyph-name="exchange" d="M741.44 693.44c-62.524 58.544-143.664 90.636-229.744 90.56-154.916-0.136-288.656-106.356-325.582-253.7-2.688-10.726-12.244-18.3-23.302-18.3h-114.606c-14.996 0-26.388 13.614-23.614 28.352 43.274 229.8 245.034 403.648 487.408 403.648 132.896 0 253.582-52.272 342.63-137.37l71.43 71.43c30.238 30.238 81.94 8.822 81.94-33.942v-268.118c0-26.51-21.49-48-48-48h-268.118c-42.764 0-64.18 51.702-33.942 81.942l83.5 83.498zM64 368h268.118c42.764 0 64.18-51.702 33.942-81.942l-83.5-83.5c62.524-58.546 143.67-90.638 229.752-90.56 154.836 0.14 288.63 106.288 325.574 253.698 2.688 10.726 12.244 18.3 23.302 18.3h114.608c14.996 0 26.388-13.614 23.614-28.352-43.276-229.796-245.036-403.644-487.41-403.644-132.896 0-253.582 52.272-342.63 137.37l-71.43-71.43c-30.238-30.238-81.94-8.822-81.94 33.942v268.118c0 26.51 21.49 48 48 48z" />
<glyph unicode="&#xe91f;" glyph-name="exclamation" horiz-adv-x="384" d="M352 96c0-88.224-71.776-160-160-160s-160 71.776-160 160 71.776 160 160 160 160-71.776 160-160zM50.52 909.602l27.2-544c1.278-25.546 22.362-45.602 47.94-45.602h132.68c25.578 0 46.662 20.056 47.94 45.602l27.2 544c1.37 27.418-20.488 50.398-47.94 50.398h-187.080c-27.452 0-49.31-22.98-47.94-50.398z" />
<glyph unicode="&#xe920;" glyph-name="eye-slash" horiz-adv-x="1280" d="M640 160c-151.7 0-274.5 117.42-285.8 266.22l-209.8 162.14c-27.58-34.6-52.96-71.18-73.44-111.18-4.387-8.495-6.959-18.542-6.959-29.19s2.572-20.695 7.129-29.553l-0.17 0.363c108.46-211.62 323.18-354.8 569.040-354.8 53.82 0 105.74 8 155.78 20.92l-103.78 80.3c-15.55-3.151-33.498-5.043-51.857-5.219l-0.143-0.001zM1267.64 43.8l-221.1 170.88c66.318 56.14 120.801 123.919 160.761 200.48l1.739 3.66c4.387 8.495 6.959 18.542 6.959 29.19s-2.572 20.695-7.129 29.553l0.17-0.363c-108.46 211.62-323.18 354.8-569.040 354.8-108.057-0.135-209.564-28.059-297.794-77.006l3.154 1.606-254.44 196.66c-5.365 4.206-12.212 6.745-19.652 6.745-10.241 0-19.358-4.81-25.215-12.295l-0.053-0.070-39.26-50.54c-4.2-5.363-6.736-12.205-6.736-19.639 0-10.236 4.806-19.35 12.286-25.208l0.070-0.053 1176.72-909.46c5.365-4.206 12.212-6.745 19.652-6.745 10.241 0 19.358 4.81 25.215 12.295l0.053 0.070 39.28 50.54c4.196 5.361 6.728 12.2 6.728 19.63 0 10.242-4.812 19.36-12.298 25.217l-0.070 0.053zM900.2 327.8l-78.6 60.76c6.321 17.675 10.107 38.068 10.399 59.306l0.001 0.134c0.010 0.742 0.016 1.618 0.016 2.496 0 104.669-84.851 189.52-189.52 189.52-18.929 0-37.21-2.775-54.458-7.941l1.342 0.345c11.598-15.572 18.581-35.176 18.62-56.411v-0.009c-0.328-7.253-1.432-14.098-3.233-20.655l0.153 0.655-147.22 113.78c48.981 41.15 112.714 66.167 182.289 66.22h0.011c0.047 0 0.104 0 0.16 0 158.97 0 287.84-128.87 287.84-287.84 0-0.056 0-0.112 0-0.168v0.008c0-43.26-10.58-83.58-27.8-120.22z" />
<glyph unicode="&#xe921;" glyph-name="eye" horiz-adv-x="1152" d="M1145.040 477.2c-108.46 211.62-323.18 354.8-569.040 354.8s-460.64-143.28-569.040-354.82c-4.387-8.495-6.959-18.542-6.959-29.19s2.572-20.695 7.129-29.553l-0.17 0.363c108.46-211.62 323.18-354.8 569.040-354.8s460.64 143.28 569.040 354.82c4.387 8.495 6.959 18.542 6.959 29.19s-2.572 20.695-7.129 29.553l0.17-0.363zM576 160c-159.058 0-288 128.942-288 288s128.942 288 288 288c159.058 0 288-128.942 288-288v0c0-0.041 0-0.091 0-0.14 0-158.981-128.879-287.86-287.86-287.86-0.049 0-0.098 0-0.147 0h0.007zM576 640c-18.13-0.261-35.516-3.012-51.969-7.926l1.349 0.346c11.631-15.661 18.62-35.374 18.62-56.72 0-52.854-42.846-95.7-95.7-95.7-21.346 0-41.059 6.988-56.977 18.802l0.257-0.182c-4.247-15.047-6.689-32.328-6.689-50.179 0-105.796 85.764-191.56 191.56-191.56s191.56 85.764 191.56 191.56c0 105.796-85.764 191.56-191.56 191.56-0.159 0-0.317 0-0.476-0.001h0.025z" />
<glyph unicode="&#xe922;" glyph-name="facebook" horiz-adv-x="640" d="M558.28 384l28.44 185.32h-177.82v120.26c0 50.7 24.84 100.12 104.48 100.12h80.84v157.78s-73.36 12.52-143.5 12.52c-146.44 0-242.16-88.76-242.16-249.44v-141.24h-162.78v-185.32h162.78v-448h200.34v448z" />
<glyph unicode="&#xe923;" glyph-name="file-invoice-dollar" horiz-adv-x="768" d="M754 750l-195.8 196c-9 9-21.2 14-34 14h-12.2v-256h256v12.2c0 12.6-5 24.8-14 33.8zM448 688v272h-400c-26.6 0-48-21.4-48-48v-928c0-26.6 21.4-48 48-48h672c26.6 0 48 21.4 48 48v656h-272c-26.4 0-48 21.6-48 48zM128 816c0 8.84 7.16 16 16 16h160c8.84 0 16-7.16 16-16v-32c0-8.84-7.16-16-16-16h-160c-8.84 0-16 7.16-16 16v32zM128 656v32c0 8.84 7.16 16 16 16h160c8.84 0 16-7.16 16-16v-32c0-8.84-7.16-16-16-16h-160c-8.84 0-16 7.16-16 16zM416 128.24v-48.24c0-8.84-7.16-16-16-16h-32c-8.84 0-16 7.16-16 16v48.58c-22.58 1.16-44.54 9.040-62.74 22.7-7.8 5.86-8.2 17.54-1.14 24.28l23.5 22.42c5.54 5.28 13.78 5.52 20.26 1.46 7.74-4.84 16.52-7.44 25.64-7.44h56.22c13 0 23.6 11.84 23.6 26.38 0 11.9-7.22 22.38-17.54 25.46l-90 27c-37.18 11.16-63.16 46.84-63.16 86.78 0 49.040 38.1 88.88 85.34 90.14v48.24c0 8.84 7.16 16 16 16h32c8.84 0 16-7.16 16-16v-48.58c22.58-1.16 44.54-9.020 62.74-22.7 7.8-5.86 8.2-17.54 1.14-24.28l-23.5-22.42c-5.54-5.28-13.78-5.52-20.26-1.46-7.74 4.86-16.52 7.44-25.64 7.44h-56.22c-13 0-23.6-11.84-23.6-26.38 0-11.9 7.22-22.38 17.54-25.46l90-27c37.18-11.16 63.16-46.84 63.16-86.78 0-49.060-38.1-88.88-85.34-90.14z" />
<glyph unicode="&#xe924;" glyph-name="filter" d="M975.952 960h-927.896c-42.636 0-64.15-51.732-33.94-81.942l369.884-369.94v-412.118c0-15.662 7.642-30.34 20.474-39.324l160-111.96c31.566-22.096 75.526 0.298 75.526 39.324v524.078l369.894 369.94c30.148 30.15 8.782 81.942-33.942 81.942z" />
<glyph unicode="&#xe925;" glyph-name="finish" d="M486.4 580.2v-136.2c52.2-11.8 98.6-31.2 147.2-44.6v136.4c-52 11.6-98.8 31-147.2 44.4zM933 826.2c-68.6-31.8-153-63.8-234-63.8-107 0-195.6 69.6-330.4 69.6-50 0-94.6-8.8-136-24 5.6 14.6 8.2 30.4 7.2 47.2-3.6 56.8-50.2 102.4-107.2 104.8-64 2.6-116.6-48.6-116.6-112 0-38 19-71.6 48-91.8v-772.2c0-26.6 21.4-48 48-48h32c26.6 0 48 21.4 48 48v188.8c56.6 24.2 127.2 44.2 228.8 44.2 107.2 0 195.6-69.6 330.4-69.6 96.4 0 173.4 32.6 245 81.8 17.4 12 27.6 31.6 27.6 52.8v486.2c0.2 46.6-48.4 77.6-90.8 58zM339.2 309c-51.6-5.4-100-16.4-147.2-33.2v141c52.4 18.6 95 30 147.2 34.8zM928 578c-47.2-19.6-92.6-39-147.2-47.8v-142.2c49.6 6.8 102.8 23.6 147.2 52v-141c-50.2-32.2-97-49.4-147.2-54.2v143.2c-54-7.4-95.8-3-147.2 11.2v-134.8c-47.8 14.8-94.6 33.4-147.2 42.6v137c-39.4 8.8-81.6 13.6-147.2 7.6v140c-44.8-6.2-89.2-20.4-147.2-41.8v141c66.4 24.4 100.2 39.6 147.2 44v-143.2c54 7.4 96.8 2.6 147.2-11.4v134.8c47.4-14.8 94.4-33.4 147.2-42.6v-136.8c47.4-10.6 95.2-13.8 147.2-5.4v143.8c54 9.6 104.6 27.2 147.2 45z" />
<glyph unicode="&#xe926;" glyph-name="google-pay" horiz-adv-x="1280" d="M211.44 530v-82.5h114.2c-4.901-27.29-20.372-50.271-41.937-64.979l-0.343-0.221c-19.080-13.1-43.44-20.56-72-20.56-55.2 0-101.86 37.82-118.6 88.44-4.165 12.24-6.57 26.339-6.57 41s2.404 28.76 6.84 41.925l-0.271-0.925c16.74 50.92 63.4 88.74 118.6 88.74 0.625 0.012 1.363 0.020 2.102 0.020 30.727 0 58.586-12.28 78.938-32.199l-0.020 0.020 60.56 61.24c-36.236 34.479-85.374 55.69-139.467 55.69-0.715 0-1.429-0.004-2.143-0.011l0.109 0.001c-82.457-0.327-153.73-47.878-188.208-116.996l-0.552-1.224c-14.3-28.024-22.68-61.124-22.68-96.18s8.379-68.156 23.244-97.404l-0.565 1.224v-0.3c35.037-70.297 106.327-117.787 188.731-118h0.029c56.94 0 105.1 19.060 140 51.82 40 37.22 62.82 92.3 62.82 157.82 0 0.126 0 0.276 0 0.426 0 15.232-1.273 30.167-3.719 44.704l0.218-1.57zM990.26 538c-20.26 18.76-47.86 28.28-82.78 28.28-44.92 0-78.68-16.68-101-49.72l41.7-26.52q22.9 34 62.52 34c17.538-0.044 33.511-6.711 45.557-17.631l-0.057 0.051c11.893-10.367 19.369-25.54 19.38-42.458v-11.022c-18.2 10.14-41.1 15.5-69.28 15.5-32.88 0-59.3-7.76-78.98-23.54s-29.64-36.62-29.64-63.12c-0.017-0.615-0.027-1.339-0.027-2.065 0-24.163 10.783-45.808 27.799-60.385l0.108-0.090c18.5-16.68 42-25.020 69.58-25.020 32.58 0 58.42 14.6 78 43.78h2v-35.44h45.22v157.4c0.14 33.1-9.84 59.32-30.1 78zM951.8 359.4c-13.53-13.759-32.336-22.293-53.135-22.32h-0.005c-0.284-0.005-0.618-0.008-0.953-0.008-13.557 0-26.013 4.715-35.818 12.595l0.111-0.087c-9.478 7.157-15.54 18.403-15.54 31.065 0 0.068 0 0.137 0.001 0.205v-0.011c0 14 6.44 25.62 19.080 34.84s29.060 14 48.14 14c26.32 0.32 46.92-5.68 61.6-17.56 0-20.26-7.92-37.82-23.48-52.72zM764.5 643.4c-20.162 20.156-48.012 32.623-78.774 32.623-0.79 0-1.577-0.008-2.363-0.025l0.117 0.002h-125.34v-373.48h47.26v151.28h78c32 0 59 10.72 81.020 31.86 1.76 1.78 3.52 3.58 5.3 5.36 17.737 19.308 28.609 45.17 28.609 73.57 0 31.021-12.971 59.013-33.785 78.848l-0.044 0.042zM731.34 518.94c-11.214-11.948-27.106-19.391-44.736-19.391-0.684 0-1.365 0.011-2.043 0.033l0.099-0.003h-79.26v130.42h79.26c0.069 0 0.15 0 0.232 0 17.531 0 33.416-7.049 44.975-18.467l-0.006 0.006c12.067-12.018 19.534-28.648 19.534-47.021 0-17.627-6.873-33.649-18.084-45.532l0.030 0.033zM1228.62 558l-73.080-183.4h-0.9l-74.84 183.4h-51.38l103.58-239.1-58.7-128.64h48.7l158 367.74z" />
<glyph unicode="&#xe927;" glyph-name="google-play" d="M650.6 491.4l-441.4 442.6 561.6-322.4-120.2-120.2zM94 960c-26-13.6-43.4-38.4-43.4-70.6v-882.6c0-32.2 17.4-57 43.4-70.6l513.2 512-513.2 511.8zM944.4 508.8l-117.8 68.2-131.4-129 131.4-129 120.2 68.2c36 28.6 36 93-2.4 121.6zM209.2-38l561.6 322.4-120.2 120.2-441.4-442.6z" />
<glyph unicode="&#xe928;" glyph-name="google" horiz-adv-x="976" d="M976 436.4c0-283-193.8-484.4-480-484.4-274.4 0-496 221.6-496 496s221.6 496 496 496c133.6 0 246-49 332.6-129.8l-135-129.8c-176.6 170.4-505 42.4-505-236.4 0-173 138.2-313.2 307.4-313.2 196.4 0 270 140.8 281.6 213.8h-281.6v170.6h472.2c4.6-25.4 7.8-49.8 7.8-82.8z" />
<glyph unicode="&#xe929;" glyph-name="half-time" horiz-adv-x="768" d="M720 960h-672c-26.51 0-48-21.49-48-48v-32c0-26.51 21.49-48 48-48 0-181.93 102.032-335.468 241.684-384-139.652-48.532-241.684-202.070-241.684-384-26.51 0-48-21.49-48-48v-32c0-26.51 21.49-48 48-48h672c26.51 0 48 21.49 48 48v32c0 26.51-21.49 48-48 48 0 181.93-102.032 335.468-241.684 384 139.652 48.532 241.684 202.070 241.684 384 26.51 0 48 21.49 48 48v32c0 26.51-21.49 48-48 48zM569.844 192h-371.684c34.118 93.594 104.192 160 185.84 160 81.642 0 151.724-66.392 185.844-160zM569.882 704h-371.726c-14.18 38.904-22.156 82.504-22.156 128h416c0-45.61-7.974-89.174-22.118-128z" />
<glyph unicode="&#xe92a;" glyph-name="handshake" horiz-adv-x="1280" d="M869.4 832h-171.8c-16 0-31.4-6-43.2-16.8l-196.6-180c-0.2-0.2-0.4-0.6-0.6-0.8-33.2-31.2-32.6-81-4.2-112 25.4-27.8 78.8-35.2 112.2-5.4 0.2 0.2 0.6 0.2 0.8 0.4l159.8 146.4c13 11.8 33.4 11 45.2-2 12-13 11-33.2-2-45.2l-52.2-47.8 291.2-236.4c5.8-4.8 11-10 15.8-15.4v387l-109.2 109.2c-11.8 12-28.2 18.8-45.2 18.8zM1088 703.6v-447.8c0-35.4 28.6-64 64-64h128v511.8h-192zM1184 255.8c-17.6 0-32 14.4-32 32s14.4 32 32 32 32-14.4 32-32-14.4-32-32-32zM0 192h128c35.4 0 64 28.6 64 64v447.6h-192v-511.6zM96 319.8c17.6 0 32-14.4 32-32s-14.4-32-32-32-32 14.4-32 32c0 17.8 14.4 32 32 32zM967.8 282.6l-298.6 242.4-60-55c-59.4-54.2-150.4-49-203.4 8.8-53.8 58.8-49.6 149.8 8.8 203.4l163.6 149.8h-167.6c-17 0-33.2-6.8-45.2-18.8l-109.4-109.2v-447.8h36.6l181-163.8c54.8-44.6 135.4-36.2 180 18.6l0.4 0.4 35.8-31c31.8-26 78.8-21 104.6 10.8l62.8 77.2 10.8-8.8c27.4-22.2 67.8-18.2 90 9.4l19 23.4c22.4 27.6 18.2 67.8-9.2 90.2z" />
<glyph unicode="&#xe92b;" glyph-name="info" horiz-adv-x="384" d="M40 111.542h40v288.916h-40c-22.092 0-40 17.908-40 40v95.542c0 22.092 17.908 40 40 40h224c22.092 0 40-17.908 40-40v-424.458h40c22.092 0 40-17.908 40-40v-95.542c0-22.092-17.908-40-40-40h-304c-22.092 0-40 17.908-40 40v95.542c0 22.092 17.908 40 40 40zM192 960c-79.53 0-144-64.47-144-144s64.47-144 144-144 144 64.47 144 144-64.472 144-144 144z" />
<glyph unicode="&#xe92c;" glyph-name="logs" d="M1008 448.938c0.506-273.28-222.36-496.744-495.64-496.936-118.030-0.084-226.446 41.060-311.644 109.822-22.154 17.88-23.81 51.082-3.678 71.214l22.534 22.534c17.218 17.218 44.706 19.102 63.782 3.968 62.77-49.81 142.208-79.54 228.646-79.54 203.41 0 368 164.622 368 368 0 203.41-164.622 368-368 368-97.628 0-186.298-37.938-252.136-99.864l101.508-101.508c20.16-20.16 5.882-54.628-22.626-54.628h-290.746c-17.674 0-32 14.326-32 32v290.746c0 28.508 34.468 42.786 54.628 22.628l98.744-98.744c89.046 85.098 209.732 137.37 342.628 137.37 273.62 0 495.494-221.56 496-495.062zM646.176 291.37l19.646 25.26c16.276 20.926 12.506 51.084-8.42 67.358l-81.402 63.314v208.698c0 26.51-21.49 48-48 48h-32c-26.51 0-48-21.49-48-48v-271.302l130.818-101.748c20.926-16.274 51.082-12.506 67.358 8.42z" />
<glyph unicode="&#xe92d;" glyph-name="mails-all" horiz-adv-x="1152" d="M320 64c-51.2 0-102.4 44.8-128 64-128 89.6-166.4 121.6-192 140.8v-268.8c0-35.34 28.66-64 64-64h512c35.34 0 64 28.66 64 64v268.8c-25.6-19.2-64-51.2-192-140.8-25.6-19.2-76.8-64-128-64zM576 448h-512c-35.34 0-64-28.66-64-64v-32c51.2-38.4 44.8-38.4 230.4-172.8 19.2-12.8 57.6-51.2 89.6-51.2s70.4 38.4 89.6 44.8c185.6 134.4 179.2 134.4 230.4 172.8v38.4c0 35.34-28.66 64-64 64zM1088 640h-640c-35.34 0-64-28.66-64-64v-64h192c66.42 0 121.18-50.84 127.42-115.64l0.58 0.44v-268.8h384c35.34 0 64 28.66 64 64v384c0 35.34-28.66 64-64 64zM1024 384h-128v128h128v-128zM320 576c0 70.58 57.42 128 128 128h448v192c0 35.34-28.66 64-64 64h-640c-35.34 0-64-28.66-64-64v-384h192v64z" />
<glyph unicode="&#xe92e;" glyph-name="mobile" horiz-adv-x="640" d="M544 960h-448c-53 0-96-43-96-96v-832c0-53 43-96 96-96h448c53 0 96 43 96 96v832c0 53-43 96-96 96zM320 0c-35.4 0-64 28.6-64 64s28.6 64 64 64 64-28.6 64-64-28.6-64-64-64zM544 216c0-13.2-10.8-24-24-24h-400c-13.2 0-24 10.8-24 24v624c0 13.2 10.8 24 24 24h400c13.2 0 24-10.8 24-24v-624z" />
<glyph unicode="&#xe92f;" glyph-name="money-bill" horiz-adv-x="1280" d="M704 384h-32v176c0 8.84-7.16 16-16 16h-27.16c-9.48 0-18.74-2.8-26.62-8.060l-30.66-20.44c-4.322-2.907-7.127-7.78-7.127-13.308 0-3.307 1.004-6.379 2.724-8.929l-0.036 0.057 17.76-26.62c2.907-4.322 7.78-7.127 13.308-7.127 3.307 0 6.379 1.004 8.929 2.724l-0.057-0.036 0.94 0.62v-110.88h-32c-8.84 0-16-7.16-16-16v-32c0-8.84 7.16-16 16-16h128c8.84 0 16 7.16 16 16v32c0 8.84-7.16 16-16 16zM1216 832h-1152c-35.34 0-64-28.66-64-64v-640c0-35.34 28.66-64 64-64h1152c35.34 0 64 28.66 64 64v640c0 35.34-28.66 64-64 64zM96 160v128c70.7 0 128-57.3 128-128h-128zM96 608v128h128c0-70.7-57.3-128-128-128zM640 224c-106.040 0-192 100.3-192 224 0 123.72 85.96 224 192 224s192-100.28 192-224c0-123.74-86-224-192-224zM1184 160h-128c0 70.7 57.3 128 128 128v-128zM1184 608c-70.7 0-128 57.3-128 128h128v-128z" />
<glyph unicode="&#xe930;" glyph-name="money-check" horiz-adv-x="1280" d="M1216 896h-1152c-35.34 0-64-28.66-64-64v-768c0-35.34 28.66-64 64-64h1152c35.34 0 64 28.66 64 64v768c0 35.34-28.66 64-64 64zM352 304.24v-32.24c0-8.84-7.16-16-16-16h-32c-8.84 0-16 7.16-16 16v32.58c-22.58 1.16-44.54 9.040-62.74 22.7-7.8 5.86-8.2 17.54-1.14 24.28l23.5 22.42c5.54 5.28 13.78 5.52 20.26 1.46 7.74-4.84 16.52-7.44 25.64-7.44h56.22c13 0 23.6 11.84 23.6 26.38 0 11.9-7.22 22.38-17.54 25.46l-90 27c-37.18 11.16-63.16 46.84-63.16 86.78 0 49.040 38.1 88.88 85.34 90.14v32.24c0 8.84 7.16 16 16 16h32c8.84 0 16-7.16 16-16v-32.58c22.58-1.16 44.54-9.020 62.74-22.7 7.8-5.86 8.2-17.54 1.14-24.28l-23.5-22.42c-5.54-5.28-13.78-5.52-20.26-1.46-7.74 4.86-16.52 7.44-25.64 7.44h-56.22c-13 0-23.6-11.84-23.6-26.38 0-11.9 7.22-22.38 17.54-25.46l90-27c37.18-11.16 63.16-46.84 63.16-86.78 0-49.060-38.1-88.88-85.34-90.14zM832 336c0-8.84-7.16-16-16-16h-224c-8.84 0-16 7.16-16 16v32c0 8.84 7.16 16 16 16h224c8.84 0 16-7.16 16-16v-32zM1152 336c0-8.84-7.16-16-16-16h-160c-8.84 0-16 7.16-16 16v32c0 8.84 7.16 16 16 16h160c8.84 0 16-7.16 16-16v-32zM1152 528c0-8.84-7.16-16-16-16h-544c-8.84 0-16 7.16-16 16v32c0 8.84 7.16 16 16 16h544c8.84 0 16-7.16 16-16v-32z" />
<glyph unicode="&#xe931;" glyph-name="newspaper" horiz-adv-x="1152" d="M1104 832h-928c-26.51 0-48-21.49-48-48v-16h-80c-26.51 0-48-21.49-48-48v-544c0-61.856 50.144-112 112-112h944c53.020 0 96 42.98 96 96v624c0 26.51-21.49 48-48 48zM112 160c-8.837 0-16 7.163-16 16v0 496h32v-496c0-8.837-7.163-16-16-16v0zM584 192h-304c-13.254 0-24 10.746-24 24v16c0 13.254 10.746 24 24 24h304c13.254 0 24-10.746 24-24v-16c0-13.254-10.746-24-24-24zM1000 192h-304c-13.254 0-24 10.746-24 24v16c0 13.254 10.746 24 24 24h304c13.254 0 24-10.746 24-24v-16c0-13.254-10.746-24-24-24zM584 384h-304c-13.254 0-24 10.746-24 24v16c0 13.254 10.746 24 24 24h304c13.254 0 24-10.746 24-24v-16c0-13.254-10.746-24-24-24zM1000 384h-304c-13.254 0-24 10.746-24 24v16c0 13.254 10.746 24 24 24h304c13.254 0 24-10.746 24-24v-16c0-13.254-10.746-24-24-24zM1000 576h-720c-13.254 0-24 10.746-24 24v80c0 13.254 10.746 24 24 24h720c13.254 0 24-10.746 24-24v-80c0-13.254-10.746-24-24-24z" />
<glyph unicode="&#xe932;" glyph-name="piggy-bank" horiz-adv-x="1152" d="M1120 512h-59c-17.6 40-43.2 75.4-74.8 105l37.8 151h-64c-58.8 0-110.8-27-146-68.6-15.2 2.2-30.2 4.6-46 4.6h-256c-154.8 0-283.8-110-313.6-256h-86.4c-29.6 0-53 27-47 57.6 4.4 22.8 25.8 38.4 49 38.4h2c6.6 0 12 5.4 12 12v40c0 6.6-5.4 12-12 12-57 0-107.8-40.8-115-97.2-8.8-68.4 44.4-126.8 111-126.8h80c0-104.4 50.8-196.2 128-254.6v-161.4c0-17.6 14.4-32 32-32h128c17.6 0 32 14.4 32 32v96h256v-96c0-17.6 14.4-32 32-32h128c17.6 0 32 14.4 32 32v161.4c23.6 17.8 44.6 38.8 62.6 62.6h97.4c17.6 0 32 14.4 32 32v256c0 17.6-14.4 32-32 32zM864 384c-17.6 0-32 14.4-32 32s14.4 32 32 32 32-14.4 32-32-14.4-32-32-32zM512 768h256c10.8 0 21.4-0.8 31.8-1.6 0 0.6 0.2 1 0.2 1.6 0 106-86 192-192 192s-192-86-192-192c0-4.2 1-8.2 1.2-12.4 30.4 7.8 62 12.4 94.8 12.4z" />
<glyph unicode="&#xe933;" glyph-name="power-off" d="M800 851.8c126-90 208-237.2 208-403.8 0-273.6-221.6-495.4-495-496-273-0.6-496.6 222-497 495.2-0.2 166.6 81.8 314.2 207.6 404.4 23.4 16.6 56 9.6 70-15.4l31.6-56.2c11.8-21 6.2-47.6-13.2-62-83-61.6-136-159.2-136-269.8-0.2-184.6 149-336.2 336-336.2 183.2 0 337.2 148.4 336 338.2-0.6 103.6-49.4 203.6-136.2 268-19.4 14.4-24.8 41-13 61.8l31.6 56.2c14 24.8 46.4 32.2 69.6 15.6zM592 432v480c0 26.6-21.4 48-48 48h-64c-26.6 0-48-21.4-48-48v-480c0-26.6 21.4-48 48-48h64c26.6 0 48 21.4 48 48z" />
<glyph unicode="&#xe934;" glyph-name="question" d="M1008 448c0-273.994-222.086-496-496-496s-496 222.006-496 496c0 273.834 222.086 496 496 496s496-222.166 496-496zM525.31 780c-108.994 0-178.51-45.914-233.098-127.516-7.072-10.572-4.706-24.83 5.43-32.516l69.398-52.62c10.41-7.894 25.242-6.016 33.33 4.244 35.728 45.316 60.226 71.594 114.606 71.594 40.858 0 91.396-26.296 91.396-65.916 0-29.952-24.726-45.334-65.068-67.952-47.048-26.374-109.304-59.2-109.304-141.318v-8c0-13.254 10.746-24 24-24h112c13.254 0 24 10.746 24 24v2.666c0 56.924 166.372 59.294 166.372 213.334 0 116.004-120.33 204-233.062 204zM512 284c-50.73 0-92-41.27-92-92 0-50.728 41.27-92 92-92s92 41.272 92 92c0 50.73-41.27 92-92 92z" />
<glyph unicode="&#xe935;" glyph-name="quote" d="M928 896h-256c-53 0-96-43-96-96v-256c0-53 43-96 96-96h160v-128c0-70.6-57.4-128-128-128h-16c-26.6 0-48-21.4-48-48v-96c0-26.6 21.4-48 48-48h16c176.8 0 320 143.2 320 320v480c0 53-43 96-96 96zM352 896h-256c-53 0-96-43-96-96v-256c0-53 43-96 96-96h160v-128c0-70.6-57.4-128-128-128h-16c-26.6 0-48-21.4-48-48v-96c0-26.6 21.4-48 48-48h16c176.8 0 320 143.2 320 320v480c0 53-43 96-96 96z" />
<glyph unicode="&#xe936;" glyph-name="rates" d="M992 192h-864v608c0 17.68-14.32 32-32 32h-64c-17.68 0-32-14.32-32-32v-672c0-35.34 28.66-64 64-64h928c17.68 0 32 14.32 32 32v64c0 17.68-14.32 32-32 32zM928 768h-236.12c-42.76 0-64.18-51.7-33.94-81.94l64.8-64.8-146.74-146.76-146.74 146.74c-25 25-65.52 25-90.5 0l-137.38-137.38c-12.5-12.5-12.5-32.76 0-45.26l45.24-45.24c12.5-12.5 32.76-12.5 45.26 0l92.12 92.14 146.74-146.74c25-25 65.52-25 90.5 0l192 192 64.8-64.8c30.24-30.24 81.94-8.82 81.94 33.94v236.1c0.020 17.68-14.3 32-31.98 32z" />
<glyph unicode="&#xe937;" glyph-name="search-plus" d="M608 576v-64c0-13.2-10.8-24-24-24h-112v-112c0-13.2-10.8-24-24-24h-64c-13.2 0-24 10.8-24 24v112h-112c-13.2 0-24 10.8-24 24v64c0 13.2 10.8 24 24 24h112v112c0 13.2 10.8 24 24 24h64c13.2 0 24-10.8 24-24v-112h112c13.2 0 24-10.8 24-24zM1010 6.6l-56.6-56.6c-18.8-18.8-49.2-18.8-67.8 0l-199.6 199.4c-9 9-14 21.2-14 34v32.6c-70.6-55.2-159.4-88-256-88-229.8 0-416 186.2-416 416s186.2 416 416 416 416-186.2 416-416c0-96.6-32.8-185.4-88-256h32.6c12.8 0 25-5 34-14l199.4-199.4c18.6-18.8 18.6-49.2 0-68zM688 544c0 150.4-121.6 272-272 272s-272-121.6-272-272 121.6-272 272-272 272 121.6 272 272z" />
<glyph unicode="&#xe938;" glyph-name="search" d="M1010 74.6l-199.4 199.4c-9 9-21.2 14-34 14h-32.6c55.2 70.6 88 159.4 88 256 0 229.8-186.2 416-416 416s-416-186.2-416-416 186.2-416 416-416c96.6 0 185.4 32.8 256 88v-32.6c0-12.8 5-25 14-34l199.4-199.4c18.8-18.8 49.2-18.8 67.8 0l56.6 56.6c18.8 18.8 18.8 49.2 0.2 68zM416 288c-141.4 0-256 114.4-256 256 0 141.4 114.4 256 256 256 141.4 0 256-114.4 256-256 0-141.4-114.4-256-256-256z" />
<glyph unicode="&#xe939;" glyph-name="settings-cog" d="M974.8 328.6l-85.2 49.2c8.6 46.4 8.6 94 0 140.4l85.2 49.2c9.8 5.6 14.2 17.2 11 28-22.2 71.2-60 135.6-109.4 189.2-7.6 8.2-20 10.2-29.6 4.6l-85.2-49.2c-35.8 30.8-77 54.6-121.6 70.2v98.2c0 11.2-7.8 21-18.8 23.4-73.4 16.4-148.6 15.6-218.4 0-11-2.4-18.8-12.2-18.8-23.4v-98.4c-44.4-15.8-85.6-39.6-121.6-70.2l-85 49.2c-9.8 5.6-22 3.8-29.6-4.6-49.4-53.4-87.2-117.8-109.4-189.2-3.4-10.8 1.2-22.4 11-28l85.2-49.2c-8.6-46.4-8.6-94 0-140.4l-85.2-49.2c-9.8-5.6-14.2-17.2-11-28 22.2-71.2 60-135.6 109.4-189.2 7.6-8.2 20-10.2 29.6-4.6l85.2 49.2c35.8-30.8 77-54.6 121.6-70.2v-98.4c0-11.2 7.8-21 18.8-23.4 73.4-16.4 148.6-15.6 218.4 0 11 2.4 18.8 12.2 18.8 23.4v98.4c44.4 15.8 85.6 39.6 121.6 70.2l85.2-49.2c9.8-5.6 22-3.8 29.6 4.6 49.4 53.4 87.2 117.8 109.4 189.2 3 11-1.4 22.6-11.2 28.2zM512 288c-88.2 0-160 71.8-160 160s71.8 160 160 160 160-71.8 160-160-71.8-160-160-160z" />
<glyph unicode="&#xe93a;" glyph-name="settings" d="M992 192h-672v32c0 17.6-14.4 32-32 32h-64c-17.6 0-32-14.4-32-32v-32h-160c-17.6 0-32-14.4-32-32v-64c0-17.6 14.4-32 32-32h160v-32c0-17.6 14.4-32 32-32h64c17.6 0 32 14.4 32 32v32h672c17.6 0 32 14.4 32 32v64c0 17.6-14.4 32-32 32zM992 512h-160v32c0 17.6-14.4 32-32 32h-64c-17.6 0-32-14.4-32-32v-32h-672c-17.6 0-32-14.4-32-32v-64c0-17.6 14.4-32 32-32h672v-32c0-17.6 14.4-32 32-32h64c17.6 0 32 14.4 32 32v32h160c17.6 0 32 14.4 32 32v64c0 17.6-14.4 32-32 32zM992 832h-416v32c0 17.6-14.4 32-32 32h-64c-17.6 0-32-14.4-32-32v-32h-416c-17.6 0-32-14.4-32-32v-64c0-17.6 14.4-32 32-32h416v-32c0-17.6 14.4-32 32-32h64c17.6 0 32 14.4 32 32v32h416c17.6 0 32 14.4 32 32v64c0 17.6-14.4 32-32 32z" />
<glyph unicode="&#xe93b;" glyph-name="skype" horiz-adv-x="896" d="M849.4 360.4c5.8 28 9.4 57.8 9.4 87.6 0 227-183.8 410.6-410.6 410.6-29.8 0-59.4-3.4-87.6-9.4-38 29.4-85.2 46.8-136.6 46.8-123.6 0-224-100.4-224-224 0-51.4 17.4-98.6 46.6-136.4-5.8-28-9.4-57.8-9.4-87.6 0-227 183.8-410.6 410.6-410.6 29.8 0 59.4 3.4 87.6 9.4 38-29.2 85.2-46.6 136.4-46.6 123.6 0 224 100.4 224 224 0.2 51.2-17.2 98.4-46.4 136.2zM460.2 177.4c-131.2 0-241 58.4-241 130 0 32 18 61.2 59 61.2 62.4 0 68.2-89.8 176.2-89.8 51.4 0 84.6 22.8 84.6 52.6 0 37.4-32 43.2-84 56-125 30.8-235.6 44-235.6 174.4 0 118.4 117.2 162.2 218.2 162.2 110.2 0 221.6-43.8 221.6-110.8 0-33.8-22.8-63.6-60.6-63.6-56.6 0-58.4 67-150 67-51.4 0-84-14-84-45 0-39.6 41.6-43.6 138.2-66 82.8-18.6 181.4-53.6 181.4-155.2 0-118.2-114.2-173-224-173z" />
<glyph unicode="&#xe93c;" glyph-name="star-regular" horiz-adv-x="1152" d="M1056.2 617l-292.2 42.6-130.6 264.8c-23.4 47.2-91.2 47.8-114.8 0l-130.6-264.8-292.2-42.6c-52.4-7.6-73.4-72.2-35.4-109.2l211.4-206-50-291c-9-52.6 46.4-92 92.8-67.4l261.4 137.4 261.4-137.4c46.4-24.4 101.8 14.8 92.8 67.4l-50 291 211.4 206c38 37 17 101.6-35.4 109.2zM777.2 335.4l47.4-276.8-248.6 130.6-248.6-130.6 47.4 276.8-201.2 196 278 40.4 124.4 252 124.4-252 278-40.4-201.2-196z" />
<glyph unicode="&#xe93d;" glyph-name="star-solid" horiz-adv-x="1152" d="M518.6 924.4l-130.6-264.8-292.2-42.6c-52.4-7.6-73.4-72.2-35.4-109.2l211.4-206-50-291c-9-52.6 46.4-92 92.8-67.4l261.4 137.4 261.4-137.4c46.4-24.4 101.8 14.8 92.8 67.4l-50 291 211.4 206c38 37 17 101.6-35.4 109.2l-292.2 42.6-130.6 264.8c-23.4 47.2-91.2 47.8-114.8 0z" />
<glyph unicode="&#xe93e;" glyph-name="sub-menu" horiz-adv-x="384" d="M192 592c79.6 0 144-64.4 144-144s-64.4-144-144-144-144 64.4-144 144 64.4 144 144 144zM48 800c0-79.6 64.4-144 144-144s144 64.4 144 144-64.4 144-144 144-144-64.4-144-144zM48 96c0-79.6 64.4-144 144-144s144 64.4 144 144-64.4 144-144 144-144-64.4-144-144z" />
<glyph unicode="&#xe93f;" glyph-name="telegram" horiz-adv-x="896" d="M893.4 762.8l-135.2-637.6c-10.2-45-36.8-56.2-74.6-35l-206 151.8-99.4-95.6c-11-11-20.2-20.2-41.4-20.2l14.8 209.8 381.8 345c16.6 14.8-3.6 23-25.8 8.2l-472-297.2-203.2 63.6c-44.2 13.8-45 44.2 9.2 65.4l794.8 306.2c36.8 13.8 69-8.2 57-64.4z" />
<glyph unicode="&#xe940;" glyph-name="trash" horiz-adv-x="896" d="M64 32c0-53.019 42.981-96 96-96v0h576c53.019 0 96 42.981 96 96v0 672h-768zM608 544c0 17.673 14.327 32 32 32s32-14.327 32-32v0-448c0-17.673-14.327-32-32-32s-32 14.327-32 32v0zM416 544c0 17.673 14.327 32 32 32s32-14.327 32-32v0-448c0-17.673-14.327-32-32-32s-32 14.327-32 32v0zM224 544c0 17.673 14.327 32 32 32s32-14.327 32-32v0-448c0-17.673-14.327-32-32-32s-32 14.327-32 32v0zM864 896h-240l-18.8 37.4c-8.044 15.894-24.255 26.6-42.966 26.6-0.012 0-0.024 0-0.036 0h-228.598c-0.054 0-0.118 0-0.182 0-18.614 0-34.725-10.721-42.493-26.325l-0.124-0.276-18.8-37.4h-240c-17.673 0-32-14.327-32-32v0-64c0-17.673 14.327-32 32-32v0h832c17.673 0 32 14.327 32 32v0 64c0 17.673-14.327 32-32 32v0z" />
<glyph unicode="&#xe941;" glyph-name="user-shield" horiz-adv-x="1280" d="M1244.6 417.8l-230.4 90c-8.2 3.2-25.2 7.4-44.4 0l-230.4-90c-21.4-8.4-35.4-28-35.4-49.8 0-223.2 137.4-377.6 265.8-427.8 19.2-7.4 36-3.2 44.4 0 102.6 40 265.8 178.8 265.8 427.8 0 21.8-14 41.4-35.4 49.8zM992 35.2v378.2l191-74.6c-11.2-174.2-121.8-270.8-191-303.6zM448 448c141.4 0 256 114.6 256 256s-114.6 256-256 256-256-114.6-256-256 114.6-256 256-256zM640 368c0 5 1.6 9.6 2.2 14.4-5 0.2-9.8 1.6-15 1.6h-33.4c-44.4-20.4-93.8-32-145.8-32s-101.2 11.6-145.8 32h-33.4c-148.4 0-268.8-120.4-268.8-268.8v-83.2c0-53 43-96 96-96h704c13.6 0 26.6 3 38.4 8-108 85.8-198.4 233.4-198.4 424z" />
<glyph unicode="&#xe942;" glyph-name="user-tag" horiz-adv-x="1280" d="M1261.2 230.2l-180.6 180.4c-24 24-56.6 37.4-90.6 37.4h-158.6c-35.4 0-64-28.6-64-64v-158.4c0-34 13.4-66.4 37.4-90.4l180.6-180.4c25-25 65.6-25 90.6 0l185 185c25.2 25 25.2 65.4 0.2 90.4zM895.6 272.2c-26.6 0-48 21.4-48 48s21.4 48 48 48 48-21.4 48-48c0-26.4-21.4-48-48-48zM448 448.2c141.4 0 256 114.6 256 256 0 141.2-114.6 255.8-256 255.8s-256-114.6-256-256c0-141.2 114.6-255.8 256-255.8zM703.6 225.8v146.2c-24.4 7.2-49.8 12.4-76.4 12.4h-33.4c-44.4-20.4-93.8-32-145.8-32s-101.2 11.6-145.8 32h-33.4c-148.4-0.2-268.8-120.6-268.8-269v-83.2c0-53 43-96 96-96h704c31 0 58.2 15 75.8 37.8l-116 116c-36.2 36.2-56.2 84.4-56.2 135.8z" />
<glyph unicode="&#xe943;" glyph-name="user" horiz-adv-x="992" d="M496 944c-274 0-496-222-496-496s222-496 496-496 496 222 496 496-222 496-496 496zM496 752c97.2 0 176-78.8 176-176s-78.8-176-176-176-176 78.8-176 176 78.8 176 176 176zM496 64c-117.4 0-222.6 53.2-293 136.4 37.6 70.8 111.2 119.6 197 119.6 4.8 0 9.6-0.8 14.2-2.2 26-8.4 53.2-13.8 81.8-13.8s56 5.4 81.8 13.8c4.6 1.4 9.4 2.2 14.2 2.2 85.8 0 159.4-48.8 197-119.6-70.4-83.2-175.6-136.4-293-136.4z" />
<glyph unicode="&#xe944;" glyph-name="users-settings" horiz-adv-x="1280" d="M1221 277.4c5.2 28.2 5.2 57 0 85.2l51.6 29.8c6 3.4 8.6 10.4 6.6 17-13.4 43.2-36.4 82.4-66.4 114.8-4.6 5-12 6.2-18 2.8l-51.6-29.8c-21.8 18.6-46.8 33-73.8 42.6v59.6c0 6.8-4.8 12.8-11.4 14.2-44.6 10-90 9.6-132.4 0-6.6-1.4-11.4-7.4-11.4-14.2v-59.6c-27-9.6-52-24-73.8-42.6l-51.6 29.8c-5.8 3.4-13.4 2.2-18-2.8-30-32.4-53-71.6-66.4-114.8-2-6.6 0.8-13.6 6.6-17l51.6-29.8c-5.2-28.2-5.2-57 0-85.2l-51.6-29.8c-6-3.4-8.6-10.4-6.6-17 13.4-43.2 36.4-82.2 66.4-114.8 4.6-5 12-6.2 18-2.8l51.6 29.8c21.8-18.6 46.8-33 73.8-42.6v-59.6c0-6.8 4.8-12.8 11.4-14.2 44.6-10 90-9.6 132.4 0 6.6 1.4 11.4 7.4 11.4 14.2v59.6c27 9.6 52 24 73.8 42.6l51.6-29.8c5.8-3.4 13.4-2.2 18 2.8 30 32.4 53 71.6 66.4 114.8 2 6.6-0.8 13.6-6.6 17l-51.6 29.8zM992 223c-53.6 0-97 43.6-97 97s43.6 97 97 97 97-43.6 97-97-43.4-97-97-97zM192 512c70.6 0 128 57.4 128 128s-57.4 128-128 128-128-57.4-128-128 57.4-128 128-128zM640 448c3.8 0 7.4 1 11.2 1.2 16.6 43.4 41 84.2 72.6 118.4 14.8 16 35.8 25.2 57.8 25.2 13.8 0 27.4-3.6 39.2-10.6l15.8-9.2c1.6 1 3.2 1.8 4.8 2.8 14 29.2 22.4 61.6 22.4 96 0 123.8-100.2 224-224 224s-223.8-100-223.8-223.8c0-123.8 100.2-224 224-224zM850.4 59c-4.6 2.4-9.2 5.2-13.6 7.8-16.4-9.6-30.6-19.6-55-19.6-21.8 0-42.8 9.2-57.8 25.2-36.6 39.6-64.6 87.8-80.4 139.2-21.4 69 49.8 99.4 51.6 100.6-0.2 5.2-0.2 10.4 0 15.6l-15.8 9.2c-7.6 4.4-14 10-19.6 16.2-6.6-0.4-13-1.2-19.6-1.2-49.2 0-95.2 12-137 32h-16.6c-127.4 0-230.6-103.2-230.6-230.4v-57.6c0-53 43-96 96-96h510.8c-7.4 12-12.4 25.6-12.4 40.6v18.4zM346.2 410.8c-23.2 23-55 37.2-90.2 37.2h-128c-70.6 0-128-57.4-128-128v-64c0-35.4 28.6-64 64-64h131.8c12.6 94.8 69.8 174.6 150.4 218.8z" />
<glyph unicode="&#xe945;" glyph-name="users-slash" horiz-adv-x="1280" d="M265.3 535.36l-192.88 149.080c-5.211-13.173-8.289-28.428-8.42-44.386v-0.054c0-0.096 0-0.209 0-0.322 0-70.516 57.164-127.68 127.68-127.68 27.589 0 53.134 8.75 74.011 23.627l-0.391-0.265zM346.18 410.8c-23.071 22.988-54.898 37.2-90.045 37.2-0.047 0-0.095 0-0.142 0h-127.993c-70.665-0.068-127.932-57.335-128-127.993v-64.007c0-35.346 28.654-64 64-64v0h131.82c12.974 94.875 69.713 174.222 148.855 218.036l1.505 0.764zM1088 512c70.692 0 128 57.308 128 128s-57.308 128-128 128c-70.692 0-128-57.308-128-128v0c0.068-70.665 57.335-127.932 127.993-128h0.007zM1001.12 249.78c-31.407 67.907-93.262 117.087-167.557 130.355l-1.383 0.205-110.18 85.2c82.92 32.6 142 111.84 142 206.46 0 0.042 0 0.091 0 0.14 0 123.634-100.226 223.86-223.86 223.86-0.049 0-0.099 0-0.148 0h0.008c-114.28 0-207.38-85.66-221.2-196.16l-327.88 253.4c-5.365 4.206-12.212 6.745-19.652 6.745-10.241 0-19.358-4.81-25.215-12.295l-0.053-0.070-39.26-50.54c-4.2-5.363-6.736-12.205-6.736-19.639 0-10.236 4.806-19.35 12.286-25.208l0.070-0.053 1176.7-909.44c5.367-4.212 12.219-6.755 19.664-6.755 10.245 0 19.366 4.815 25.223 12.305l0.053 0.070 39.28 50.54c4.2 5.363 6.736 12.205 6.736 19.639 0 10.236-4.806 19.35-12.286 25.208l-0.070 0.053zM256 153.58v-57.58c0-53.019 42.981-96 96-96v0h576c9.001 0.124 17.637 1.482 25.812 3.911l-0.672-0.171-489.14 378c-116.52-11.4-208-108.58-208-228.16zM1152 448h-128c-0.040 0-0.087 0-0.135 0-35.147 0-66.975-14.212-90.049-37.204l0.004 0.004c80.646-44.536 137.353-123.916 150.012-217.289l0.168-1.511h132c35.346 0 64 28.654 64 64v0 64c-0.068 70.665-57.335 127.932-127.993 128h-0.007z" />
<glyph unicode="&#xe946;" glyph-name="users" horiz-adv-x="1280" d="M192 512c70.6 0 128 57.4 128 128s-57.4 128-128 128-128-57.4-128-128 57.4-128 128-128zM1088 512c70.6 0 128 57.4 128 128s-57.4 128-128 128-128-57.4-128-128 57.4-128 128-128zM1152 448h-128c-35.2 0-67-14.2-90.2-37.2 80.6-44.2 137.8-124 150.2-218.8h132c35.4 0 64 28.6 64 64v64c0 70.6-57.4 128-128 128zM640 448c123.8 0 224 100.2 224 224s-100.2 224-224 224-224-100.2-224-224 100.2-224 224-224zM793.6 384h-16.6c-41.6-20-87.8-32-137-32s-95.2 12-137 32h-16.6c-127.2 0-230.4-103.2-230.4-230.4v-57.6c0-53 43-96 96-96h576c53 0 96 43 96 96v57.6c0 127.2-103.2 230.4-230.4 230.4zM346.2 410.8c-23.2 23-55 37.2-90.2 37.2h-128c-70.6 0-128-57.4-128-128v-64c0-35.4 28.6-64 64-64h131.8c12.6 94.8 69.8 174.6 150.4 218.8z" />
<glyph unicode="&#xe947;" glyph-name="viber" d="M888 860.2c-25.4 23.4-128.2 98-357.4 99 0 0-270.2 16.2-401.8-104.6-73.2-73.2-99-180.6-101.8-313.6s-6.2-382.2 234-449.8h0.2l-0.2-103.2s-1.6-41.8 26-50.2c33.2-10.4 52.8 21.4 84.6 55.6 17.4 18.8 41.4 46.4 59.6 67.4 164.4-13.8 290.6 17.8 305 22.4 33.2 10.8 221 34.8 251.4 284 31.6 257.2-15.2 419.6-99.6 493zM915.8 386c-25.8-208-178-221.2-206-230.2-12-3.8-123-31.4-262.4-22.4 0 0-104-125.4-136.4-158-10.6-10.6-22.2-9.6-22 11.4 0 13.8 0.8 171.4 0.8 171.4-0.2 0-0.2 0 0 0-203.6 56.4-191.6 268.6-189.4 379.6s23.2 202 85.2 263.2c111.4 101 340.8 86 340.8 86 193.8-0.8 286.6-59.2 308.2-78.8 71.4-61.2 107.8-207.6 81.2-422.2zM637.8 547.6c0.8-17.2-25-18.4-25.8-1.2-2.2 44-22.8 65.4-65.2 67.8-17.2 1-15.6 26.8 1.4 25.8 55.8-3 86.8-35 89.6-92.4zM678.4 525c2 84.8-51 151.2-151.6 158.6-17 1.2-15.2 27 1.8 25.8 116-8.4 177.8-88.2 175.6-185-0.2-17.2-26.2-16.4-25.8 0.6zM772.4 498.2c0.2-17.2-25.8-17.4-25.8-0.2-1.2 163-109.8 251.8-241.6 252.8-17 0.2-17 25.8 0 25.8 147.4-1 266-102.8 267.4-278.4zM749.8 302v-0.4c-21.6-38-62-80-103.6-66.6l-0.4 0.6c-42.2 11.8-141.6 63-204.4 113-32.4 25.6-62 55.8-84.8 84.8-20.6 25.8-41.4 56.4-61.6 93.2-42.6 77-52 111.4-52 111.4-13.4 41.6 28.4 82 66.6 103.6h0.4c18.4 9.6 36 6.4 47.8-7.8 0 0 24.8-29.6 35.4-44.2 10-13.6 23.4-35.4 30.4-47.6 12.2-21.8 4.6-44-7.4-53.2l-24-19.2c-12.2-9.8-10.6-28-10.6-28s35.6-134.6 168.6-168.6c0 0 18.2-1.6 28 10.6l19.2 24c9.2 12 31.4 19.6 53.2 7.4 29.4-16.6 66.8-42.4 91.6-65.8 14-11.4 17.2-28.8 7.6-47.2z" />
<glyph unicode="&#xe948;" glyph-name="whatsapp" horiz-adv-x="896" d="M761.8 765.8c-83.8 84-195.4 130.2-314 130.2-244.8 0-444-199.2-444-444 0-78.2 20.4-154.6 59.2-222l-63-230 235.4 61.8c64.8-35.4 137.8-54 212.2-54h0.2c244.6 0 448.2 199.2 448.2 444 0 118.6-50.4 230-134.2 314zM447.8 82.6c-66.4 0-131.4 17.8-188 51.4l-13.4 8-139.6-36.6 37.2 136.2-8.8 14c-37 58.8-56.4 126.6-56.4 196.4 0 203.4 165.6 369 369.2 369 98.6 0 191.2-38.4 260.8-108.2s112.4-162.4 112.2-261c0-203.6-169.8-369.2-373.2-369.2zM650.2 359c-11 5.6-65.6 32.4-75.8 36-10.2 3.8-17.6 5.6-25-5.6s-28.6-36-35.2-43.6c-6.4-7.4-13-8.4-24-2.8-65.2 32.6-108 58.2-151 132-11.4 19.6 11.4 18.2 32.6 60.6 3.6 7.4 1.8 13.8-1 19.4s-25 60.2-34.2 82.4c-9 21.6-18.2 18.6-25 19-6.4 0.4-13.8 0.4-21.2 0.4s-19.4-2.8-29.6-13.8c-10.2-11.2-38.8-38-38.8-92.6s39.8-107.4 45.2-114.8c5.6-7.4 78.2-119.4 189.6-167.6 70.4-30.4 98-33 133.2-27.8 21.4 3.2 65.6 26.8 74.8 52.8s9.2 48.2 6.4 52.8c-2.6 5-10 7.8-21 13.2z" />
<glyph unicode="&#xe949;" glyph-name="menu-partners" horiz-adv-x="1536" d="M737.754 904.225l10.688 7.488c24.32 16.832 54.592 24.256 84.48 24.384 20.864-0.064 41.6-3.712 60.224-12.672l111.36-54.016c9.344-4.544 23.424-7.424 38.016-7.36 18.816-0.128 38.272 4.736 49.664 11.968l113.728 70.784c16.704 10.432 35.584 15.168 54.144 15.168 31.168 0 62.272-13.312 82.752-39.296l116.608-149.248c15.232-19.52 22.144-43.264 22.208-66.624v0c-0.064-26.112-8.704-52.672-27.264-73.28l-194.688-215.296 18.432-17.024c20.416-18.88 30.784-44.8 30.72-70.464 0-23.296-8.512-46.976-25.728-65.408l-11.712-12.544c-14.528-15.616-33.28-24.96-52.8-28.544 0.96-5.44 1.6-10.944 1.6-16.512 0-23.296-8.576-46.976-25.728-65.408 0 0-11.712-12.544-11.712-12.544-19.008-20.288-44.992-30.592-70.72-30.592-6.336 0-12.672 0.832-18.88 2.176-3.2-17.344-10.944-34.048-23.808-47.808 0 0-11.648-12.544-11.648-12.544-19.008-20.288-45.056-30.656-70.848-30.592-23.36-0.064-47.104 8.448-65.6 25.536l-22.976 21.184c-4.16-11.456-10.496-22.336-19.264-31.808l-11.776-12.544c-18.944-20.352-44.928-30.656-70.656-30.592-23.424-0.064-47.168 8.512-65.664 25.664l-70.016 64.768-50.816-53.056c-18.88-19.776-44.48-29.696-69.824-29.696-23.872 0-48 8.768-66.624 26.432l-12.416 11.84c-10.752 10.24-18.304 22.464-23.168 35.456-14.848-8.512-31.552-12.928-48.256-12.864-23.808-0.064-47.936 8.768-66.56 26.432l-12.48 11.84c-12.352 11.712-20.608 26.048-25.28 41.28-10.496-3.776-21.568-5.696-32.512-5.632-23.872-0.064-48 8.768-66.624 26.432l-12.736 12.096c-19.648 18.752-29.568 44.16-29.568 69.312 0 13.76 3.264 27.52 9.28 40.32-13.376 4.224-26.048 11.264-36.8 21.44l-12.416 11.776c-19.904 18.816-29.952 44.352-29.888 69.632 0 23.744 8.832 47.744 26.56 66.24l57.664 60.16-125.056 106.688c-22.016 18.752-33.408 45.504-33.344 72.128-0.064 22.336 7.936 45.056 24.064 63.040 0 0 138.24 154.816 138.24 154.816 12.032 13.44 27.136 23.232 43.392 29.888 16.128 6.528 33.536 9.984 51.072 9.984 15.296 0 30.784-2.624 45.184-8.832l75.968-32.384c11.904-5.12 30.784-8.448 49.6-8.384 18.752-0.064 37.632 3.264 49.536 8.384l75.904 32.384c20.864 8.832 44.608 12.544 68.416 12.608 26.368-0.064 52.48-4.544 74.688-15.424 16.576-8.256 31.296-15.616 41.664-20.736zM682.522 865.249c-4.224 2.112-8.576 4.288-13.12 6.528-10.752 5.504-29.376 9.28-47.936 9.152-16.832 0.064-33.728-2.944-44.928-7.808l-75.968-32.384c-21.952-9.28-47.36-13.12-73.024-13.184-25.6 0.064-51.072 3.904-73.024 13.184l-75.968 32.384c-6.016 2.624-13.632 4.032-21.696 4.032-9.472 0.064-19.648-1.984-28.544-5.568-8.768-3.584-16.32-8.704-21.376-14.336l-138.176-154.816c-6.144-6.912-9.024-15.168-9.088-23.552 0.064-10.112 4.224-19.904 12.48-27.008l127.552-108.8 26.432 27.584c18.944 19.712 44.48 29.696 69.888 29.696 23.808 0 47.936-8.832 66.624-26.496l12.608-12.032c17.536-16.768 27.136-38.784 29.056-61.12 1.088 0.128 2.24 0.192 3.328 0.192 23.872 0 48-8.832 66.624-26.496l12.416-11.84c19.84-18.816 29.888-44.288 29.888-69.568 0-8.96-1.472-17.92-4.032-26.624 15.744-3.904 30.72-11.776 43.264-23.616l12.416-11.84c0.384-0.32 0.64-0.704 0.896-1.088 0 0 10.304-15.296 18.56-32.768 5.056-10.688 9.216-22.208 10.176-31.68 0.192 0 0.384 0 0.576 0 23.808 0 47.936-8.768 66.56-26.432l12.48-11.84c19.84-18.816 29.888-44.352 29.824-69.568 0-13.76-3.264-27.392-9.216-40.192l73.472-68.032c7.104-6.528 16-9.728 25.088-9.728 9.984 0 19.776 3.84 27.008 11.584 0 0 11.648 12.544 11.712 12.544 6.528 7.040 9.664 15.872 9.728 24.832-0.064 9.28-3.584 18.304-10.368 25.344l-88.128 81.344c-1.856 1.856-1.92 4.8-0.128 6.656l33.984 36.544c0.896 0.96 2.112 1.536 3.392 1.536 0.832 0 1.6-0.192 2.24-0.512 0.448-0.192 0.832-0.448 1.216-0.768 0 0 174.528-161.152 174.528-161.152 7.040-6.528 16-9.728 25.088-9.792 10.048 0.064 19.904 3.968 27.136 11.712l11.648 12.544c6.592 6.976 9.792 15.872 9.792 24.896 0 9.792-3.84 19.264-11.2 26.368l-174.912 161.728c-0.96 0.896-1.536 2.048-1.536 3.328-0.064 1.28 0.384 2.56 1.28 3.456l33.984 36.48c1.856 1.92 4.864 2.048 6.784 0.256 0 0 197.12-182.208 197.12-182.208 6.976-6.528 15.936-9.728 25.024-9.728 10.048 0 19.84 3.904 27.072 11.648 0 0 11.648 12.544 11.648 12.544 6.592 7.040 9.792 15.872 9.856 24.896-0.064 9.984-3.968 19.776-11.712 26.944l-210.944 195.392c-0.896 0.896-1.472 2.112-1.536 3.392s0.448 2.496 1.28 3.456l34.112 36.48c1.792 1.92 4.8 1.984 6.72 0.192 0 0 197.056-182.208 197.056-182.208 7.104-6.528 16-9.728 25.088-9.728 10.048 0 19.84 3.904 27.072 11.648l11.712 12.544c6.528 7.040 9.792 15.872 9.792 24.896 0 9.984-3.904 19.712-11.648 26.944 0 0-148.16 136.96-148.16 136.96-25.6 23.744-71.808 61.376-100.16 81.728l-128 91.776c-9.856 7.232-26.176 11.904-42.432 11.776-13.76 0.064-27.072-3.264-35.904-8.64l-46.336-27.776c-16.256-9.792-34.496-14.336-52.416-14.336-31.68 0.064-63.424 14.016-83.712 41.088l-10.432 13.952c-12.48 16.832-18.624 36.672-18.56 56.128-0.064 29.504 14.080 58.816 40.256 77.248l70.784 49.728zM646.81 165.345c-1.472 7.040-4.992 13.632-10.496 18.88 0 0-12.48 11.84-12.48 11.84-7.168 6.72-16.256 10.048-25.472 10.048-9.92 0-19.52-3.776-26.752-11.264 0 0-70.528-73.664-70.528-73.664-6.784-7.040-10.112-16.064-10.112-25.28 0-2.624 0.256-5.248 0.832-7.808 1.472-7.040 4.992-13.632 10.56-18.944l12.416-11.776c7.104-6.784 16.192-10.048 25.472-10.112 9.856 0.064 19.52 3.776 26.688 11.328 0 0 0 0 0 0s70.592 73.664 70.592 73.664c6.784 7.040 10.048 16.064 10.112 25.28 0 2.624-0.32 5.248-0.832 7.808zM389.85 108.129c9.856 0 19.52 3.776 26.688 11.264l111.744 116.672c6.784 7.040 10.112 16.064 10.176 25.28-0.064 9.792-3.84 19.392-11.392 26.56l-12.48 11.84c-7.104 6.72-16.128 10.048-25.408 10.048-8.96 0-17.664-3.264-24.576-9.472l-115.968-121.088c-5.312-6.592-8.064-14.464-8.064-22.656 0-9.792 3.776-19.392 11.328-26.56l12.48-11.84c7.104-6.72 16.192-10.048 25.472-10.048zM252.954 182.049c9.92 0.064 19.52 3.776 26.752 11.264 0 0 167.040 174.4 167.040 174.4 6.784 7.104 10.048 16.128 10.112 25.28-0.064 9.856-3.776 19.456-11.328 26.624l-12.48 11.84c-7.104 6.72-16.192 10.048-25.408 10.048-9.408 0-18.496-3.52-25.6-10.304-8.448-9.024-168.256-175.424-168.256-175.36-6.784-7.104-10.048-16.128-10.048-25.344 0-9.728 3.712-19.264 11.136-26.432l12.608-11.968c7.168-6.72 16.192-10.048 25.472-10.048zM333.402 519.457l-11.968 11.456c-7.168 6.72-16.192 10.048-25.472 10.048-9.856 0-19.52-3.776-26.752-11.328 0 0-125.248-130.688-125.248-130.688-6.848-7.104-10.112-16.128-10.112-25.28 0-9.856 3.776-19.392 11.328-26.624l12.48-11.776c7.104-6.72 16.128-10.048 25.408-10.048 7.488 0 14.848 2.24 21.12 6.592l134.592 140.224c4.224 6.144 6.336 13.248 6.4 20.416-0.064 3.904-1.984 8.832-4.096 13.376-2.88 6.144-6.336 11.648-7.68 13.632zM1216.026 456.673l194.112 214.656c7.488 8.128 11.904 20.672 11.84 33.472 0 11.328-3.456 22.336-9.536 30.080l-116.672 149.312c-7.872 10.24-21.824 16.448-35.648 16.384-8.192 0-16-2.048-22.528-6.144l-113.792-70.784c-23.808-14.592-52.672-20.864-81.28-21.056-22.272 0.064-44.416 3.968-64.064 13.376l-111.424 54.016c-8.512 4.16-20.992 6.72-34.112 6.656-18.88 0.192-38.848-5.376-49.984-13.504l-136.896-96.128c-9.856-6.976-14.912-17.664-14.976-28.672 0-7.296 2.24-14.528 7.040-20.992l-0.512 0.576 10.688-14.336c7.808-10.624 21.888-17.088 35.904-17.024 7.744 0 15.296 1.984 21.632 5.76l46.272 27.84c20.16 11.968 43.52 17.088 66.752 17.152 27.264-0.128 54.784-7.040 77.248-22.976l128-91.776c31.168-22.4 77.696-60.352 105.856-86.4l86.080-79.488z" />
<glyph unicode="&#xe94a;" glyph-name="menu-reviews" d="M848.159 960.002h-328.299c-79.437 0-144.807-65.37-144.807-144.807v-127.948c-18.742-3.217-34.092-16.839-39.512-35.064-0.372-1.221-0.641-2.462-0.827-3.724l-6.62-47.89c-1.955-14.015-6.041-27.658-12.102-40.443l-64.853-136.429c-8.657-20.273-26.117-35.519-47.373-41.374-1.376 26.314-23.614 47.124-49.959 46.752h-103.434c-0.352 0.010-0.693 0.010-1.045 0.010-26.758 0-48.883-21.762-49.328-48.521v-396.048c0.455-26.986 22.973-48.852 49.959-48.51h103.434c27.027-0.403 49.607 21.483 50.062 48.51v6.103l21.618-12.929c26.727-16.084 57.344-24.597 88.539-24.617h172.734c50.972-0.217 96.545 32.726 112.329 81.196l75.403 229.106c3.879 11.833 5.854 24.214 5.854 36.657 0 59.247-44.694 109.743-103.496 116.942-49.648 6.103-94.952 9.826-125.672 10.343-1.065 17.398 0.652 34.857 5.068 51.717 19.88-9.826 41.746-14.957 63.922-14.998h136.222c25.755-62.060 76.024-97.952 115.329-118.018 6.34-3.196 13.343-4.861 20.439-4.861 24.917 0 45.407 20.501 45.407 45.407 0 5.11-0.859 10.178-2.544 14.998-6.651 19.973-8.388 41.27-5.068 62.060h18.618c79.437 0 144.807 65.37 144.807 144.807v206.454c0 0.103 0 0.207 0 0.31 0 79.437-65.37 144.807-144.807 144.807zM152.36-12.276h-100.641v389.532h100.641v-389.532zM570.129 365.257c32.975-4.055 58.026-32.375 58.026-65.598 0-7.023-1.117-13.995-3.31-20.666l-75.3-228.796c-8.885-27.048-34.309-45.449-62.784-45.407h-172.734c-21.866-0.031-43.318 5.906-62.060 17.17l-48.2 28.961v278.444h2.069c40.939 7.127 75.672 34.35 92.366 72.404l63.819 136.119c8.316 17.563 13.891 36.295 16.549 55.544l5.896 42.304c13.674-2.617 25.724-10.633 33.409-22.238 11.171-17.997 10.964-45.718 0-80.161-17.377-52.441-22.755-94.021-16.032-123.603 4.499-19.973 22.455-34.247 42.925-34.133 41.942-1.158 83.792-4.613 125.362-10.343zM941.25 609.051c0-51.065-42.025-93.090-93.090-93.090h-39.512c-11.585 0.010-21.825-7.768-24.928-18.928-9.154-31.692-10.012-65.215-2.482-97.331-38.839 21.214-68.37 56.206-82.747 98.055-3.382 10.757-13.436 18.122-24.721 18.101h-153.91c-17.532 0-34.702 4.944-49.545 14.274 12.205 44.166 9.412 81.402-8.482 110.364-8.782 14.077-20.945 25.745-35.374 33.926v140.463c0 51.065 42.025 93.090 93.090 93.090h328.609c51.065 0 93.090-42.025 93.090-93.090v-205.833z" />
<glyph unicode="&#xe94b;" glyph-name="menu-exchange" horiz-adv-x="1268" d="M1187.485 697.010h-653.525c-18.718 0-33.836-15.118-33.836-33.836s15.118-33.836 33.836-33.836h653.525c18.718 0 33.836 15.118 33.836 33.836s-15.118 33.836-33.836 33.836zM772.757 950.076l-262.685-262.685c-13.235-13.235-13.235-34.616 0-47.851s34.616-13.235 47.851 0l262.685 262.685c13.235 13.235 13.235 34.616 0 47.851s-34.616 13.235-47.851 0zM820.61 424.171l-262.685 262.685c-13.235 13.235-34.616 13.235-47.851 0s-13.235-34.616 0-47.851l262.685-262.685c13.235-13.235 34.616-13.235 47.851 0s13.235 34.616 0 47.851zM33.813 235.494h653.525c18.718 0 33.836 15.118 33.836 33.836s-15.118 33.836-33.836 33.836h-653.525c-18.718 0-33.836-15.118-33.836-33.836s15.118-33.836 33.836-33.836zM448.541-17.572l262.685 262.685c13.235 13.235 13.235 34.616 0 47.851s-34.616 13.235-47.851 0l-262.685-262.685c-13.235-13.235-13.235-34.616 0-47.851s34.616-13.235 47.851 0zM400.688 508.333l262.685-262.685c13.235-13.235 34.616-13.235 47.851 0s13.235 34.616 0 47.851l-262.685 262.685c-13.235 13.235-34.616 13.235-47.851 0s-13.235-34.616 0-47.851z" />
<glyph unicode="&#xe94c;" glyph-name="menu-privacy" horiz-adv-x="901" d="M899.248 740.256c-0.404 1.617-0.808 3.032-1.213 4.649-0.404 1.415-1.011 3.032-1.617 4.447s-1.415 2.83-2.021 4.245c-0.404 0.606-0.808 1.415-1.213 2.021-0.808 1.415-1.819 2.628-2.628 3.84-2.425 3.234-5.255 6.064-8.287 8.489-1.213 1.011-2.628 2.021-4.042 2.83-0.606 0.404-1.415 0.808-2.021 1.213-1.415 0.808-2.83 1.617-4.447 2.223s-3.032 1.415-4.649 1.819l-196.866 66.7-7.276 53.764c-3.638 26.882-28.903 45.679-56.19 41.839l-155.836-21.223-117.433 40.222c-4.851 1.617-9.904 2.425-14.755 2.628h-4.851c-0.808 0-1.617-0.202-2.425-0.202-10.51-1.213-20.414-5.659-28.095-12.532-6.064-5.255-10.712-12.127-13.542-20.212l-12.734-35.573-211.015-28.701c-27.489-3.84-46.892-28.701-43.052-55.381l61.445-453.157-61.647-172.006c-0.808-2.425-1.617-4.851-2.021-7.276-0.606-3.234-0.808-6.468-0.808-9.702 0-2.425 0.202-4.851 0.606-7.074 0.202-1.617 0.606-3.032 1.011-4.649 0.202-0.808 0.404-1.617 0.606-2.223 1.011-3.032 2.223-5.862 3.84-8.691 0.404-0.606 0.808-1.415 1.213-2.021 1.617-2.628 3.638-5.255 5.659-7.479 1.011-1.213 2.223-2.223 3.436-3.436 1.819-1.617 3.638-3.032 5.862-4.447 0.606-0.404 1.415-0.808 2.021-1.213 1.415-0.808 2.83-1.617 4.447-2.223s3.032-1.415 4.649-1.819l65.892-22.233 9.5-70.54c3.638-26.882 28.903-45.679 56.19-41.839l189.792 25.669 212.228-72.36c2.425-0.808 4.851-1.415 7.479-1.819 2.425-0.404 4.851-0.606 7.479-0.808 4.042-0.202 8.085 0.202 12.127 1.011 2.425 0.404 4.649 1.213 6.872 2.021s4.447 1.819 6.67 3.032c2.83 1.415 5.457 3.234 8.085 5.255 6.872 5.457 12.329 12.936 15.563 21.627l29.712 83.072 65.083 8.893c27.286 3.638 46.69 28.499 43.052 55.381l-23.446 172.41 3.638 10.106 148.559 414.956c1.213 3.234 2.021 6.468 2.425 9.702 0.202 1.617 0.404 3.234 0.404 4.851 0.202 3.234 0 6.468-0.606 9.5-0.404 0.808-0.606 1.617-0.808 2.425zM612.437 894.474c2.425 0.404 4.851-1.415 5.053-3.84l4.245-31.329-76.402 25.872 67.104 9.298zM48.114 813.424c-0.404 2.425 1.415 4.649 3.84 5.053l187.973 25.467-44.063-123.092-68.721-9.298 6.064-44.265 45.679 6.266-81.051-226.376-49.722 366.244zM159.078 28.99c-2.425-0.404-4.851 1.415-5.053 3.84l-6.468 48.105 112.582-38.201-101.061-13.744zM723.604 110.242c0.404-2.425-1.415-4.649-3.84-5.053l-42.243-5.659 27.489 76.806 6.872 19.404 11.723-85.497zM854.579 728.532l-266.801-744.818c-0.606-1.617-2.223-2.83-4.042-3.032-0.606 0-1.213 0-1.819 0.202l-533.197 181.101c-0.202 0-0.606 0.202-0.808 0.404s-0.404 0.404-0.808 0.606c-0.404 0.404-0.808 0.808-1.011 1.415-0.606 1.011-0.606 2.223-0.202 3.436l31.935 88.934 234.865 655.885c0.202 0.202 0.202 0.606 0.404 0.808 0.808 1.213 2.223 2.021 3.638 2.223 0.606 0 1.213 0 1.819-0.202l32.542-11.117 500.857-169.984c0.202 0 0.606-0.202 0.808-0.404 0.808-0.404 1.415-1.213 1.819-1.819 0.202-1.415 0.404-2.628 0-3.638zM320.574 743.894l411.722-139.666 15.159 42.243-411.722 139.666-15.159-42.243zM275.298 617.366l411.722-139.666 15.159 42.243-411.722 139.666-15.159-42.243zM230.629 492.859l411.722-139.666 15.159 42.243-411.722 139.666-15.159-42.243zM463.889 251.991l-2.019 0.691 8.448 24.685c10.88 31.791-3.66 65.666-32.382 75.495l-61.456 21.032c-28.722 9.829-60.968-8.034-71.848-39.825l-8.448-24.685-2.019 0.691c-11.815 4.043-24.862-2.351-28.905-14.165l-45.278-132.306c-4.043-11.815 2.351-24.862 14.165-28.905l169.589-58.037c11.815-4.043 24.862 2.351 28.905 14.165l45.278 132.306c4.026 11.764-2.292 24.76-14.031 28.859zM336.934 323.013c4.698 13.729 17.75 22.253 28.49 18.577l61.456-21.032c10.768-3.685 15.833-18.409 11.134-32.138l-8.448-24.685-101.081 34.592 8.448 24.685zM404.158 112.602l-148.054 50.667 37.908 110.771 148.054-50.667-37.908-110.771zM328.431 168.379c-3.033-8.862 1.762-18.646 10.624-21.679s18.646 1.762 21.679 10.624l5.684 16.609c4.781 2.679 8.41 7.027 10.193 12.209 4.043 11.815-2.351 24.862-14.165 28.905s-24.862-2.351-28.905-14.165c-1.766-5.187-1.562-10.847 0.575-15.894l-5.684-16.609z" />
<glyph unicode="&#xe94d;" glyph-name="menu-news" d="M887.936 798.538h-184.239v133.039c0 15.723-12.699 28.422-28.422 28.422h-566.022c-60.271 0-109.254-48.983-109.254-109.254v-778.683c0-74.986 61.077-136.063 136.063-136.063h751.874c74.986 0 136.063 61.077 136.063 136.063v590.413c0 74.986-61.077 136.063-136.063 136.063zM109.253 903.155h537.6v-104.617h-537.6c-28.825 0-52.409 23.383-52.409 52.208s23.584 52.409 52.409 52.409zM967.155 72.062c0-43.742-35.477-79.219-79.219-79.219h-751.874c-43.742 0-79.219 35.477-79.219 79.219v682.935c15.521-8.466 33.461-13.304 52.409-13.304h778.683c43.742 0 79.219-35.477 79.219-79.219v-590.413zM888.138 690.897h-214.879c-14.513 0-28.422-12.498-28.422-28.422v-184.844c0-15.723 12.699-28.422 28.422-28.422h214.879c15.723 0 28.422 12.699 28.422 28.422v184.643c0 15.924-12.699 28.624-28.422 28.624zM859.514 506.052h-158.035v127.798h158.035v-127.798zM888.138 371.199h-751.874c-15.723 0-28.422-12.699-28.422-28.422s12.699-28.422 28.422-28.422h751.874c15.723 0 28.422 12.699 28.422 28.422s-12.699 28.422-28.422 28.422zM136.264 449.208h375.937c15.723 0 28.422 12.699 28.422 28.422s-12.699 28.422-28.422 28.422h-375.937c-15.723 0-28.422-12.699-28.422-28.422s12.699-28.422 28.422-28.422zM888.138 236.345h-751.874c-15.723 0-28.422-12.699-28.422-28.422s12.699-28.422 28.422-28.422h751.874c15.723 0 28.422 12.699 28.422 28.422s-12.699 28.422-28.422 28.422zM888.138 101.492h-751.874c-15.723 0-28.422-12.699-28.422-28.422s12.699-28.422 28.422-28.422h751.874c15.723 0 28.422 12.699 28.422 28.422s-12.699 28.422-28.422 28.422zM137.070 639.495l52.813-69.342h24.794v110.665h-24.794v-71.156l-54.425 71.156h-22.98v-110.665h24.592v69.342zM323.527 591.923h-56.844v22.98h49.587v21.165h-49.587v22.778h55.030v21.972h-79.824v-110.665h81.638v21.77zM388.434 570.153l24.189 77.002 24.189-77.002h18.343l38.702 110.665h-26.809l-21.972-63.698-19.553 63.698h-25.802l-19.754-63.698-21.77 63.698h-26.809l38.702-110.665h18.343zM546.066 590.714c-10.079 0-21.165 5.241-33.058 15.723l-14.715-18.142c14.11-12.901 29.833-19.553 47.37-19.553 23.987 0 40.517 13.909 40.517 33.461 0.806 19.15-12.296 29.228-33.26 34.268-15.118 4.031-23.987 6.652-24.391 14.513 0.806 6.249 4.233 10.683 13.304 10.683 10.28 0 20.157-3.628 29.833-10.885l12.498 18.142c-11.288 8.668-24.592 14.312-41.524 14.513-24.592-1.411-38.904-11.49-39.71-32.857 0-20.157 11.893-29.43 37.291-35.074 10.885-2.62 21.165-5.644 20.359-13.909 0.403-7.055-7.66-11.288-14.513-10.885z" />
<glyph unicode="&#xe94e;" glyph-name="menu-manual" horiz-adv-x="901" d="M835.398 744.423h-700.631c-44.463 0-80.842 36.379-80.842 80.842s36.379 80.842 80.842 80.842h700.631c35.624 0 35.651 53.895 0 53.895h-700.631c-74.105 0-134.737-60.632-134.737-134.737v-754.525c0-74.105 60.632-134.737 134.737-134.737h700.631c14.821 0 26.947 12.126 26.947 26.947v754.525c0 14.821-12.126 26.947-26.947 26.947zM134.767-10.103c-44.463 0-80.842 36.379-80.842 80.842v646.736c22.905-17.516 49.853-26.947 80.842-26.947h673.683v-700.631h-673.683zM835.398 798.317h-700.631c-35.611 0-35.678 53.895 0 53.895h700.631c35.624 0 35.651-53.895 0-53.895zM459.574 153.863v282.066c0 15.723-12.699 28.422-28.422 28.422s-28.422-12.699-28.422-28.422v-282.066c0-15.723 12.699-28.422 28.422-28.422s28.422 12.699 28.422 28.422zM459.574 523.937c0 15.723-12.699 28.422-28.422 28.422s-28.422-12.699-28.422-28.422c0-15.723 12.699-28.422 28.422-28.422s28.422 12.699 28.422 28.422z" />
<glyph unicode="&#xe94f;" glyph-name="menu-user-agreement" horiz-adv-x="901" d="M1.479 740.296c0.404 1.617 0.808 3.032 1.213 4.649 0.404 1.415 1.011 3.032 1.617 4.447s1.415 2.83 2.021 4.245c0.404 0.606 0.808 1.415 1.213 2.021 0.808 1.415 1.819 2.628 2.628 3.84 2.425 3.234 5.255 6.064 8.287 8.489 1.213 1.011 2.628 2.021 4.042 2.83 0.606 0.404 1.415 0.808 2.021 1.213 1.415 0.808 2.83 1.617 4.447 2.223s3.032 1.415 4.649 1.819l196.866 66.7 7.276 53.764c3.638 26.882 28.903 45.679 56.19 41.839l155.836-21.223 117.433 40.222c4.851 1.617 9.904 2.425 14.755 2.628h4.851c0.808 0 1.617-0.202 2.425-0.202 10.51-1.213 20.414-5.659 28.095-12.532 6.064-5.255 10.712-12.127 13.542-20.212l12.734-35.573 211.015-28.701c27.489-3.84 46.892-28.701 43.052-55.381l-61.445-453.157 61.647-172.006c0.808-2.425 1.617-4.851 2.021-7.276 0.606-3.234 0.808-6.468 0.808-9.702 0-2.425-0.202-4.851-0.606-7.074-0.202-1.617-0.606-3.032-1.011-4.649-0.202-0.808-0.404-1.617-0.606-2.223-1.011-3.032-2.223-5.862-3.84-8.691-0.404-0.606-0.808-1.415-1.213-2.021-1.617-2.628-3.638-5.255-5.659-7.479-1.011-1.213-2.223-2.223-3.436-3.436-1.819-1.617-3.638-3.032-5.862-4.447-0.606-0.404-1.415-0.808-2.021-1.213-1.415-0.808-2.83-1.617-4.447-2.223s-3.032-1.415-4.649-1.819l-65.892-22.233-9.5-70.54c-3.638-26.882-28.903-45.679-56.19-41.839l-189.792 25.669-212.228-72.36c-2.425-0.808-4.851-1.415-7.479-1.819-2.425-0.404-4.851-0.606-7.479-0.808-4.042-0.202-8.085 0.202-12.127 1.011-2.425 0.404-4.649 1.213-6.872 2.021s-4.447 1.819-6.67 3.032c-2.83 1.415-5.457 3.234-8.085 5.255-6.872 5.457-12.329 12.936-15.563 21.627l-29.712 83.072-65.083 8.893c-27.286 3.638-46.69 28.499-43.052 55.381l23.446 172.41-3.638 10.106-148.559 414.956c-1.213 3.234-2.021 6.468-2.425 9.702-0.202 1.617-0.404 3.234-0.404 4.851-0.202 3.234 0 6.468 0.606 9.5 0.404 0.808 0.606 1.617 0.808 2.425zM288.29 894.515c-2.425 0.404-4.851-1.415-5.053-3.84l-4.245-31.329 76.402 25.872-67.104 9.298zM852.613 813.465c0.404 2.425-1.415 4.649-3.84 5.053l-187.973 25.467 44.063-123.092 68.721-9.298-6.064-44.265-45.679 6.266 81.051-226.376 49.722 366.244zM741.648 29.030c2.425-0.404 4.851 1.415 5.053 3.84l6.468 48.105-112.582-38.201 101.061-13.744zM177.123 110.283c-0.404-2.425 1.415-4.649 3.84-5.053l42.243-5.659-27.489 76.806-6.872 19.404-11.723-85.497zM46.148 728.573l266.801-744.818c0.606-1.617 2.223-2.83 4.042-3.032 0.606 0 1.213 0 1.819 0.202l533.197 181.101c0.202 0 0.606 0.202 0.808 0.404s0.404 0.404 0.808 0.606c0.404 0.404 0.808 0.808 1.011 1.415 0.606 1.011 0.606 2.223 0.202 3.436l-31.935 88.934-234.865 655.885c-0.202 0.202-0.202 0.606-0.404 0.808-0.808 1.213-2.223 2.021-3.638 2.223-0.606 0-1.213 0-1.819-0.202l-32.542-11.117-500.857-169.984c-0.202 0-0.606-0.202-0.808-0.404-0.808-0.404-1.415-1.213-1.819-1.819-0.202-1.415-0.404-2.628 0-3.638zM580.153 743.935l-411.722-139.666-15.159 42.243 411.722 139.666 15.159-42.243zM625.428 617.407l-411.722-139.666-15.159 42.243 411.722 139.666 15.159-42.243zM670.097 492.9l-411.722-139.666-15.159 42.243 411.722 139.666 15.159-42.243zM716.181 364.148l-411.722-139.666-15.159 42.243 411.722 139.666 15.159-42.243zM489.237 168.834l-146.981-49.859-15.159 42.243 146.981 49.859 15.159-42.243zM709.374 353.26c6.472 2.58 14.418 0.86 19.21-4.178 4.792-5.079 6.144-13.107 3.236-19.374-15.442-33.915-52.224-117.678-67.789-151.921-3.645-8.192-14.295-12.452-22.61-9.052 0 0-48.906 19.948-48.906 19.948-8.479 3.482-13.066 14.336-9.585 22.856 3.482 8.479 14.377 13.025 22.856 9.585l33.137-13.517c10.281 22.938 24.945 56.033 38.052 85.484-2.007-2.703-4.751-4.792-7.905-5.857l-111.002-38.789 40.673-116.408 120.832 42.189-21.053 60.293c-3.154 8.724 1.966 19.497 10.691 22.569 8.724 3.031 19.456-2.253 22.323-10.895 0 0 26.87-76.964 26.87-76.964 3.031-8.643-2.089-19.251-10.732-22.282l-153.887-53.74c-8.684-3.031-19.292 2.089-22.323 10.732l-52.265 149.709c-2.253 6.963 0.86 18.432 10.691 22.036l127.549 44.564c8.684 3.154 19.456-1.966 22.528-10.691 0.942-2.744 1.065-5.734 0.532-8.561 7.619 17.039 14.459 32.399 19.333 43.131 1.843 4.137 5.366 7.455 9.544 9.134z" />
<glyph unicode="&#xe950;" glyph-name="logo-coin24" horiz-adv-x="979" d="M538.842 960.049v-133.336h-440.636v-537.364l-98.206-70.11 396.472-283.207v133.336h440.617v537.346l98.206 70.128-396.453 283.207zM772.367 134.091h-440.617v-72.317l-220.412 157.466 220.412 157.41v-72.298h270.338v134.14l170.28 121.626v-426.027zM391.851 366.137v163.789h151.611v-163.789h-151.611zM603.564 519.432v72.28h-270.356v-134.14l-170.28-121.626v426.046h440.617v72.298l220.393-157.448-220.374-157.41z" />
<glyph unicode="&#xe951;" glyph-name="phone" d="M986.8 910.8l-208 48c-22.6 5.2-45.8-6.6-55-27.8l-96-224c-8.4-19.6-2.8-42.6 13.8-56l121.2-99.2c-72-153.4-197.8-281-354.4-354.4l-99.2 121.2c-13.6 16.6-36.4 22.2-56 13.8l-224-96c-21.4-9.4-33.2-32.6-28-55.2l48-208c5-21.6 24.2-37.2 46.8-37.2 512.2 0 928 415 928 928 0 22.4-15.4 41.8-37.2 46.8z" />
<glyph unicode="&#xe952;" glyph-name="city" horiz-adv-x="1280" d="M1232 576h-272v336c0 26.52-21.48 48-48 48h-288c-26.52 0-48-21.48-48-48v-144h-128v160c0 17.68-14.32 32-32 32h-32c-17.68 0-32-14.32-32-32v-160h-128v160c0 17.68-14.32 32-32 32h-32c-17.68 0-32-14.32-32-32v-160h-80c-26.52 0-48-21.48-48-48v-720c0-35.34 28.66-64 64-64h1152c35.34 0 64 28.66 64 64v528c0 26.52-21.5 48-48 48zM256 152c0-13.26-10.74-24-24-24h-80c-13.26 0-24 10.74-24 24v80c0 13.26 10.74 24 24 24h80c13.26 0 24-10.74 24-24v-80zM256 344c0-13.26-10.74-24-24-24h-80c-13.26 0-24 10.74-24 24v80c0 13.26 10.74 24 24 24h80c13.26 0 24-10.74 24-24v-80zM256 536c0-13.26-10.74-24-24-24h-80c-13.26 0-24 10.74-24 24v80c0 13.26 10.74 24 24 24h80c13.26 0 24-10.74 24-24v-80zM512 152c0-13.26-10.74-24-24-24h-80c-13.26 0-24 10.74-24 24v80c0 13.26 10.74 24 24 24h80c13.26 0 24-10.74 24-24v-80zM512 344c0-13.26-10.74-24-24-24h-80c-13.26 0-24 10.74-24 24v80c0 13.26 10.74 24 24 24h80c13.26 0 24-10.74 24-24v-80zM512 536c0-13.26-10.74-24-24-24h-80c-13.26 0-24 10.74-24 24v80c0 13.26 10.74 24 24 24h80c13.26 0 24-10.74 24-24v-80zM832 344c0-13.26-10.74-24-24-24h-80c-13.26 0-24 10.74-24 24v80c0 13.26 10.74 24 24 24h80c13.26 0 24-10.74 24-24v-80zM832 536c0-13.26-10.74-24-24-24h-80c-13.26 0-24 10.74-24 24v80c0 13.26 10.74 24 24 24h80c13.26 0 24-10.74 24-24v-80zM832 728c0-13.26-10.74-24-24-24h-80c-13.26 0-24 10.74-24 24v80c0 13.26 10.74 24 24 24h80c13.26 0 24-10.74 24-24v-80zM1152 152c0-13.26-10.74-24-24-24h-80c-13.26 0-24 10.74-24 24v80c0 13.26 10.74 24 24 24h80c13.26 0 24-10.74 24-24v-80zM1152 344c0-13.26-10.74-24-24-24h-80c-13.26 0-24 10.74-24 24v80c0 13.26 10.74 24 24 24h80c13.26 0 24-10.74 24-24v-80z" />
<glyph unicode="&#xe953;" glyph-name="funnel-dollar" horiz-adv-x="1280" d="M866.92 628.12l202.4 223.74c39.9 39.9 11.64 108.14-44.8 108.14h-961.040c-56.44 0-84.7-68.24-44.8-108.14l365.32-403.86v-311.84c0-25.18 11.86-48.88 32-64l159.98-120c41.72-31.28 96.94-13.94 118.44 27.14-72.82 69.94-118.42 168-118.42 276.7 0 179.58 124.1 330.34 290.92 372.12zM960 576c-176.74 0-320-143.26-320-320s143.26-320 320-320 320 143.26 320 320-143.26 320-320 320zM992 96.24v-32.24c0-8.84-7.16-16-16-16h-32c-8.84 0-16 7.16-16 16v32.58c-22.58 1.16-44.54 9.040-62.74 22.7-7.8 5.86-8.2 17.54-1.14 24.28l23.5 22.42c5.54 5.28 13.78 5.52 20.26 1.46 7.74-4.84 16.52-7.44 25.64-7.44h56.22c13 0 23.6 11.84 23.6 26.38 0 11.9-7.22 22.38-17.54 25.46l-90 27c-37.18 11.16-63.16 46.84-63.16 86.78 0 49.040 38.1 88.88 85.34 90.14v32.24c0 8.84 7.16 16 16 16h32c8.84 0 16-7.16 16-16v-32.58c22.58-1.16 44.54-9.020 62.74-22.7 7.8-5.86 8.2-17.54 1.14-24.28l-23.5-22.42c-5.54-5.28-13.78-5.52-20.26-1.46-7.74 4.86-16.52 7.44-25.64 7.44h-56.22c-13 0-23.6-11.84-23.6-26.38 0-11.9 7.22-22.38 17.54-25.46l90-27c37.18-11.16 63.16-46.84 63.16-86.78 0-49.060-38.080-88.88-85.34-90.14z" />
<glyph unicode="&#xe954;" glyph-name="file-image" horiz-adv-x="768" d="M768 716.118v-12.118h-256v256h12.118c13.254 0 25.254-5.372 33.94-14.058l195.882-195.882c8.687-8.687 14.059-20.687 14.060-33.942v0zM496 640c-26.4 0-48 21.6-48 48v272h-400c-26.51 0-48-21.49-48-48v-928c0-26.51 21.49-48 48-48h672c26.51 0 48 21.49 48 48v656h-272zM225.090 608c53.020 0 96-42.98 96-96s-42.98-96-96-96-96 42.98-96 96 42.982 96 96 96zM641.090 128h-512l0.97 96.97 79.030 79.030c9.372 9.372 23.598 8.402 32.97-0.97l79.030-79.030 207.030 207.030c9.372 9.372 24.568 9.372 33.942 0l79.028-79.030v-224z" />
<glyph unicode="&#xe955;" glyph-name="edit" horiz-adv-x="1152" d="M805.2 793.6l180.4-180.4c7.6-7.6 7.6-20 0-27.6l-436.8-436.8-185.6-20.6c-24.8-2.8-45.8 18.2-43 43l20.6 185.6 436.8 436.8c7.6 7.6 20 7.6 27.6 0zM1129.2 839.4l-97.6 97.6c-30.4 30.4-79.8 30.4-110.4 0l-70.8-70.8c-7.6-7.6-7.6-20 0-27.6l180.4-180.4c7.6-7.6 20-7.6 27.6 0l70.8 70.8c30.4 30.6 30.4 80 0 110.4zM768 267.6v-203.6h-640v640h459.6c6.4 0 12.4 2.6 17 7l80 80c15.2 15.2 4.4 41-17 41h-571.6c-53 0-96-43-96-96v-704c0-53 43-96 96-96h704c53 0 96 43 96 96v315.6c0 21.4-25.8 32-41 17l-80-80c-4.4-4.6-7-10.6-7-17z" />
<glyph unicode="&#xe956;" glyph-name="menu-city" horiz-adv-x="933" d="M911.155-20.582h-23.962v890.47c-0.115 11.943-9.766 21.594-21.698 21.709h-319.294c-11.943-0.115-21.594-9.766-21.709-21.698v-69.643h-24.986v69.632c-0.115 11.943-9.766 21.594-21.698 21.709h-69.643v46.694c0.065 0.631 0.102 1.364 0.102 2.106 0 11.989-9.719 21.709-21.709 21.709s-21.709-9.719-21.709-21.709c0-0.742 0.037-1.475 0.11-2.197l-0.007 0.091v-46.694h-69.632c-11.943-0.115-21.594-9.766-21.709-21.698v-69.643h-46.694c-0.010 0-0.023 0-0.035 0-11.557 0-21.005-9.031-21.671-20.421l-0.003-0.059v-138.035h-137.83c-0.061 0.001-0.133 0.001-0.206 0.001-11.876 0-21.504-9.628-21.504-21.504 0-0.072 0-0.145 0.001-0.217v0.011-640.614h-23.962c-11.989 0-21.709-9.719-21.709-21.709s9.719-21.709 21.709-21.709h889.446c11.989 0 21.709 9.719 21.709 21.709s-9.719 21.709-21.709 21.709v0zM250.88-20.582h-47.923v47.718h47.923v-47.718zM272.589 70.554h-91.341c-11.428-0.561-20.481-9.963-20.481-21.48 0-0.081 0-0.161 0.001-0.241v0.012-69.427h-71.885v617.882h276.070v-617.882h-70.656v69.427c0 11.989-9.719 21.709-21.709 21.709v0zM317.030 800.256v47.923h139.059v-47.923zM706.15 458.24c-0.061 0.001-0.133 0.001-0.206 0.001-11.876 0-21.504-9.628-21.504-21.504 0-0.072 0-0.145 0.001-0.217v0.011-1.024h-25.395v1.024c0.065 0.631 0.102 1.364 0.102 2.106 0 11.989-9.719 21.709-21.709 21.709s-21.709-9.719-21.709-21.709c0-0.742 0.037-1.475 0.11-2.197l-0.007 0.091v-1.024h-47.923v412.672h275.866v-868.762h-116.326v457.114c0.001 0.061 0.001 0.133 0.001 0.205 0 11.876-9.628 21.504-21.504 21.504 0 0-0.001 0-0.001 0v0zM684.442 392.090v-412.672h-276.275v412.672zM386.662 640.717h-138.035v116.326h275.866v-321.536h-116.326v47.923h46.899c11.049 1.109 19.603 10.359 19.603 21.606s-8.554 20.498-19.512 21.599l-0.091 0.007h-46.899v47.923h46.899c11.989 0 21.709 9.719 21.709 21.709s-9.719 21.709-21.709 21.709v0h-46.899v1.024c0.001 0.061 0.001 0.133 0.001 0.205 0 11.876-9.628 21.504-21.504 21.504 0 0-0.001 0-0.001 0v0zM477.798 4.403c11.943 0.115 21.594 9.766 21.709 21.698v319.499c0 11.989-9.719 21.709-21.709 21.709s-21.709-9.719-21.709-21.709v0-319.488c0.115-11.943 9.766-21.594 21.698-21.709h0.011zM546.202 4.403c11.943 0.115 21.594 9.766 21.709 21.698v319.499c0 11.989-9.719 21.709-21.709 21.709s-21.709-9.719-21.709-21.709v0-319.488c0.115-11.943 9.766-21.594 21.698-21.709h0.011zM614.4 4.403c11.943 0.115 21.594 9.766 21.709 21.698v319.499c0.39 1.54 0.614 3.308 0.614 5.128 0 11.989-9.719 21.709-21.709 21.709s-21.709-9.719-21.709-21.709c0-1.82 0.224-3.588 0.646-5.278l-0.032 0.15v-319.488c0.086-11.531 9.065-20.938 20.413-21.705l0.067-0.004zM637.542 800.256c-0.068 0.001-0.149 0.001-0.229 0.001-11.517 0-20.919-9.053-21.478-20.431l-0.002-0.050v-24.576c-0.065-0.631-0.102-1.364-0.102-2.106 0-11.989 9.719-21.709 21.709-21.709s21.709 9.719 21.709 21.709c0 0.742-0.037 1.475-0.11 2.197l0.007-0.091v23.552c0.017 0.314 0.027 0.681 0.027 1.051 0 11.311-9.169 20.48-20.48 20.48-0.37 0-0.737-0.010-1.102-0.029l0.051 0.002zM705.946 734.72c11.485 0.093 20.839 9.090 21.501 20.421l0.003 0.059v23.552c-1.109 11.049-10.359 19.603-21.606 19.603s-20.498-8.554-21.599-19.512l-0.007-0.091v-23.552c0.669-11.449 10.117-20.48 21.674-20.48 0.012 0 0.024 0 0.037 0h-0.002zM774.349 734.72c11.449 0.669 20.48 10.117 20.48 21.674 0 0.012 0 0.024 0 0.037v-0.002 22.323c-1.109 11.049-10.359 19.603-21.606 19.603s-20.498-8.554-21.599-19.512l-0.007-0.091v-23.552c0.656-11.46 10.109-20.506 21.675-20.506 0.372 0 0.742 0.009 1.109 0.028l-0.052-0.002zM637.542 686.387c-11.989 0-21.709-9.719-21.709-21.709v0-22.733c-0.065-0.631-0.102-1.364-0.102-2.106 0-11.989 9.719-21.709 21.709-21.709s21.709 9.719 21.709 21.709c0 0.742-0.037 1.475-0.11 2.197l0.007-0.091v22.733c0 0 0 0.001 0 0.001 0 11.917-9.603 21.592-21.493 21.708h-0.011zM705.946 620.237c0 0 0.001 0 0.001 0 11.876 0 21.504 9.628 21.504 21.504 0 0.072 0 0.144-0.001 0.216v-0.011 22.733c0.065 0.631 0.102 1.364 0.102 2.106 0 11.989-9.719 21.709-21.709 21.709s-21.709-9.719-21.709-21.709c0-0.742 0.037-1.475 0.11-2.197l-0.007 0.091v-22.733c-0.001-0.061-0.001-0.133-0.001-0.206 0-11.876 9.628-21.504 21.504-21.504 0.072 0 0.145 0 0.217 0.001h-0.011zM774.349 620.237c11.428 0.561 20.481 9.963 20.481 21.48 0 0.081 0 0.161-0.001 0.241v-0.012 22.733c0.065 0.631 0.102 1.364 0.102 2.106 0 11.989-9.719 21.709-21.709 21.709s-21.709-9.719-21.709-21.709c0-0.742 0.037-1.475 0.11-2.197l-0.007 0.091v-22.733c-0.001-0.071-0.001-0.156-0.001-0.24 0-11.876 9.628-21.504 21.504-21.504 0.433 0 0.863 0.013 1.289 0.038l-0.059-0.003zM637.542 572.314c0 0-0.001 0-0.001 0-11.989 0-21.709-9.719-21.709-21.709 0-0.072 0-0.144 0.001-0.216v0.011-22.528c-0.065-0.631-0.102-1.364-0.102-2.106 0-11.989 9.719-21.709 21.709-21.709s21.709 9.719 21.709 21.709c0 0.742-0.037 1.475-0.11 2.197l0.007-0.091v22.528c0.001 0.061 0.001 0.133 0.001 0.206 0 11.918-9.604 21.593-21.494 21.708h-0.011zM727.45 550.4c0.065 0.631 0.102 1.364 0.102 2.106 0 11.989-9.719 21.709-21.709 21.709s-21.709-9.719-21.709-21.709c0-0.742 0.037-1.475 0.11-2.197l-0.007 0.091v-22.528c-0.065-0.631-0.102-1.364-0.102-2.106 0-11.989 9.719-21.709 21.709-21.709s21.709 9.719 21.709 21.709c0 0.742-0.037 1.475-0.11 2.197l0.007-0.091zM774.349 506.163c11.428 0.561 20.481 9.963 20.481 21.48 0 0.081 0 0.161-0.001 0.241v-0.012 22.528c0.065 0.631 0.102 1.364 0.102 2.106 0 11.989-9.719 21.709-21.709 21.709s-21.709-9.719-21.709-21.709c0-0.742 0.037-1.475 0.11-2.197l-0.007 0.091v-22.528c-0.001-0.071-0.001-0.156-0.001-0.24 0-11.876 9.628-21.504 21.504-21.504 0.433 0 0.863 0.013 1.289 0.038l-0.059-0.003zM158.515 526.643c-11.989 0-21.709-9.719-21.709-21.709v0-22.733c0-11.989 9.719-21.709 21.709-21.709s21.709 9.719 21.709 21.709v0 22.733c0 11.989-9.719 21.709-21.709 21.709v0zM226.918 526.643c-0.122 0.002-0.266 0.004-0.41 0.004-11.989 0-21.709-9.719-21.709-21.709 0-0.001 0-0.003 0-0.004v0-22.733c0-11.989 9.719-21.709 21.709-21.709s21.709 9.719 21.709 21.709v0 22.733c0 0.001 0 0.003 0 0.004 0 11.845-9.487 21.475-21.278 21.705h-0.021zM295.322 460.493c11.989 0 21.709 9.719 21.709 21.709v0 22.733c0 11.989-9.719 21.709-21.709 21.709s-21.709-9.719-21.709-21.709v0-22.733c0.115-11.943 9.766-21.594 21.698-21.709h0.011zM158.515 412.57c0 0-0.001 0-0.001 0-11.917 0-21.592-9.603-21.708-21.493v-22.949c0-11.989 9.719-21.709 21.709-21.709s21.709 9.719 21.709 21.709v0 22.938c-0.116 11.901-9.79 21.504-21.708 21.504 0 0-0.001 0-0.001 0v0zM226.918 412.57c-0.122 0.002-0.266 0.004-0.411 0.004-11.919 0-21.594-9.605-21.708-21.497v-22.949c0-11.989 9.719-21.709 21.709-21.709s21.709 9.719 21.709 21.709v0 22.938c-0.112 11.759-9.557 21.276-21.278 21.504h-0.021zM295.322 345.6c11.989 0 21.709 9.719 21.709 21.709v0 23.757c0 11.989-9.719 21.709-21.709 21.709s-21.709-9.719-21.709-21.709v0-22.938c-0.006-0.183-0.009-0.399-0.009-0.615 0-12.034 9.7-21.802 21.707-21.913h0.011zM158.515 298.701c-11.943-0.115-21.594-9.766-21.709-21.698v-22.949c0-11.989 9.719-21.709 21.709-21.709s21.709 9.719 21.709 21.709v0 22.938c-0.115 11.943-9.766 21.594-21.698 21.709h-0.011zM226.918 298.701c-0.061 0.001-0.133 0.001-0.206 0.001-12.031 0-21.797-9.695-21.913-21.699v-22.949c0-11.989 9.719-21.709 21.709-21.709s21.709 9.719 21.709 21.709v0 22.938c-0.109 11.803-9.532 21.369-21.268 21.708l-0.031 0.001zM295.322 232.55c0.061-0.001 0.133-0.001 0.205-0.001 11.876 0 21.504 9.628 21.504 21.504 0 0 0 0.001 0 0.001v0 22.938c0 11.989-9.719 21.709-21.709 21.709s-21.709-9.719-21.709-21.709v0-22.938c0.116-11.901 9.79-21.504 21.708-21.504 0 0 0.001 0 0.001 0v0zM158.515 184.627c-11.943-0.115-21.594-9.766-21.709-21.698v-22.129c0-11.989 9.719-21.709 21.709-21.709s21.709 9.719 21.709 21.709v0 22.118c-0.115 11.943-9.766 21.594-21.698 21.709h-0.011zM226.918 184.627c-0.061 0.001-0.133 0.001-0.206 0.001-12.031 0-21.797-9.695-21.913-21.699v-22.129c0-11.989 9.719-21.709 21.709-21.709s21.709 9.719 21.709 21.709v0 22.118c-0.109 11.803-9.532 21.369-21.268 21.708l-0.031 0.001zM317.030 140.8v22.118c0 11.989-9.719 21.709-21.709 21.709s-21.709-9.719-21.709-21.709v0-22.118c0-11.989 9.719-21.709 21.709-21.709s21.709 9.719 21.709 21.709v0zM774.349 392.090c11.449 0.669 20.48 10.117 20.48 21.674 0 0.012 0 0.024 0 0.037v-0.002 22.733c0.065 0.631 0.102 1.364 0.102 2.106 0 11.989-9.719 21.709-21.709 21.709s-21.709-9.719-21.709-21.709c0-0.742 0.037-1.475 0.11-2.197l-0.007 0.091v-22.733c0-0.007 0-0.016 0-0.024 0-11.989 9.719-21.709 21.709-21.709 0.36 0 0.718 0.009 1.074 0.026l-0.050-0.002zM774.349 278.016c11.449 0.669 20.48 10.117 20.48 21.674 0 0.012 0 0.024 0 0.037v-0.002 22.733c0.065 0.631 0.102 1.364 0.102 2.106 0 11.989-9.719 21.709-21.709 21.709s-21.709-9.719-21.709-21.709c0-0.742 0.037-1.475 0.11-2.197l-0.007 0.091v-22.733c0-0.007 0-0.016 0-0.024 0-11.989 9.719-21.709 21.709-21.709 0.36 0 0.718 0.009 1.074 0.026l-0.050-0.002zM774.349 164.147c11.311 0 20.48 9.169 20.48 20.48v0 23.962c0.065 0.631 0.102 1.364 0.102 2.106 0 11.989-9.719 21.709-21.709 21.709s-21.709-9.719-21.709-21.709c0-0.742 0.037-1.475 0.11-2.197l-0.007 0.091v-22.938c0-0.010 0-0.023 0-0.035 0-11.876 9.628-21.504 21.504-21.504 0.432 0 0.862 0.013 1.288 0.038l-0.059-0.003zM774.349 50.074c11.428 0.561 20.481 9.963 20.481 21.48 0 0.081 0 0.161-0.001 0.241v-0.012 22.733c0.065 0.631 0.102 1.364 0.102 2.106 0 11.989-9.719 21.709-21.709 21.709s-21.709-9.719-21.709-21.709c0-0.742 0.037-1.475 0.11-2.197l-0.007 0.091v-22.733c-0.001-0.071-0.001-0.156-0.001-0.24 0-11.876 9.628-21.504 21.504-21.504 0.433 0 0.863 0.013 1.289 0.038l-0.059-0.003zM476.57 687.411c0.001 0.061 0.001 0.133 0.001 0.205 0 11.876-9.628 21.504-21.504 21.504 0 0-0.001 0-0.001 0h-137.011c-11.989 0-21.709-9.719-21.709-21.709s9.719-21.709 21.709-21.709v0h137.011c11.901 0.116 21.504 9.79 21.504 21.708 0 0 0 0.001 0 0.001v0z" />
<glyph unicode="&#xe957;" glyph-name="clock" d="M512 944c-274 0-496-222-496-496s222-496 496-496 496 222 496 496-222 496-496 496zM696.98 318v0l-40-50c-5.914-7.349-14.907-12.012-24.99-12.012-7.592 0-14.566 2.644-20.052 7.060l0.062-0.048-134 99.44c-18.355 14.784-30 37.257-30 62.45 0 0.004 0 0.007 0 0.011v-0.001 311.1c0 17.673 14.327 32 32 32v0h64c17.673 0 32-14.327 32-32v0-288l116-85c7.348-5.914 12.010-14.906 12.010-24.988 0-7.601-2.65-14.584-7.078-20.073l0.048 0.061z" />
</font>
</defs>
</svg>
