<svg xmlns="http://www.w3.org/2000/svg" xmlns:xlink="http://www.w3.org/1999/xlink" width="199" height="227" fill-rule="evenodd" stroke-linejoin="round" stroke-miterlimit="2" xmlns:v="https://vecta.io/nano"><style><![CDATA[.B{fill:#fff}.C{fill:#4dba69}.D{fill:#94d6a8}.E{fill-rule:nonzero}.F{fill:#5b7373}]]></style><path d="M100.3 120.9c-.517.259-.846.79-.846 1.368 0 .238.056.472.162.685a1.33 1.33 0 0 0 .084.147c.4.8 1.5 1.1 2.2.6.517-.259.846-.79.846-1.368 0-.238-.056-.472-.162-.685a1.33 1.33 0 0 0-.084-.147c-.4-.7-1.4-1-2.2-.6m-1.6-2.7c-.6.3-.7 1-.4 1.6s1 .7 1.6.4.7-1 .4-1.6-1-.8-1.6-.4m0 12.9c-.6.3-.7 1-.4 1.6s1 .7 1.6.4.7-1 .4-1.6-1-.8-1.6-.4m5.6-9.7c-.6.3-.7 1-.4 1.6s1 .7 1.6.4.7-1 .4-1.6c-.4-.6-1.1-.8-1.6-.4M93 127.8c-.6.3-.7 1-.4 1.6s1 .7 1.6.4.7-1 .4-1.6c-.3-.5-1-.7-1.6-.4m0-6.4c-.6.3-.7 1-.4 1.6s1 .7 1.6.4.7-1 .4-1.6c-.4-.6-1.1-.8-1.6-.4m11.3 6.3c-.6.3-.7 1-.4 1.6s1 .7 1.6.4.7-1 .4-1.6c-.4-.5-1.1-.7-1.6-.4m2.9-2.9c-.4.3-.6.8-.3 1.2s.8.6 1.2.3.6-.8.3-1.2c-.2-.4-.8-.6-1.2-.3m-16.9 0c-.4.3-.6.8-.3 1.2s.8.6 1.2.3.6-.8.3-1.2c-.2-.4-.8-.6-1.2-.3"/><use xlink:href="#H"/><use xlink:href="#H" x="-8.6" y="14.5"/><path d="M94.5 119.1c.4.3 1 .1 1.3-.3s.1-1-.3-1.3-1-.1-1.3.3c-.3.5-.2 1 .3 1.3m8.5 14.6c.4.3 1 .1 1.3-.3s.1-1-.3-1.3-1-.1-1.3.3c-.3.5-.1 1 .3 1.3"/><path d="M102.1 124.2c-.8.4-1.1 1.5-.6 2.2.259.517.79.846 1.368.846.238 0 .472-.056.685-.162a1.33 1.33 0 0 0 .147-.084c.8-.4 1.1-1.5.6-2.2-.4-.8-1.4-1-2.2-.6m-1.8 3.3c-.517.259-.846.79-.846 1.368 0 .238.056.472.162.685a1.33 1.33 0 0 0 .084.147c.4.8 1.5 1.1 2.2.6.517-.259.846-.79.846-1.368 0-.238-.056-.472-.162-.685a1.33 1.33 0 0 0-.084-.147c-.259-.517-.79-.846-1.368-.846-.238 0-.472.056-.685.162a1.33 1.33 0 0 0-.147.084m-2.2-6.6c.517.259.846.79.846 1.368 0 .238-.056.472-.162.685a1.33 1.33 0 0 1-.084.147c-.259.517-.79.846-1.368.846-.238 0-.472-.056-.685-.162a1.33 1.33 0 0 1-.147-.084c-.517-.259-.846-.79-.846-1.368 0-.238.056-.472.162-.685a1.33 1.33 0 0 1 .084-.147c.4-.7 1.4-1 2.2-.6m-1.9 3.3c.8.4 1.1 1.5.6 2.2-.4.8-1.5 1.1-2.2.6-.8-.4-1.1-1.5-.6-2.2.4-.8 1.4-1 2.2-.6m1.9 3.3c.517.259.846.79.846 1.368 0 .238-.056.472-.162.685a1.33 1.33 0 0 1-.084.147c-.259.517-.79.846-1.368.846-.238 0-.472-.056-.685-.162a1.33 1.33 0 0 1-.147-.084c-.517-.259-.846-.79-.846-1.368 0-.238.056-.472.162-.685a1.33 1.33 0 0 1 .084-.147c.259-.517.79-.846 1.368-.846.238 0 .472.056.685.162a1.33 1.33 0 0 1 .147.084m1.8-12.2c0 .384-.316.7-.7.7s-.7-.316-.7-.7.316-.7.7-.7.7.316.7.7"/><path d="M99.9 135.8c0 .384-.316.7-.7.7s-.7-.316-.7-.7.316-.7.7-.7.7.316.7.7m-9.3-16c.3.2.5.6.3 1-.2.3-.6.5-1 .3-.3-.2-.5-.6-.3-1 .2-.3.7-.5 1-.3m17.9 10.2c.3.2.5.6.3 1-.2.3-.6.5-1 .3-.3-.2-.5-.6-.3-1s.6-.5 1-.3m-18.6 0c.3-.2.8-.1 1 .3.2.3.1.8-.3 1-.3.2-.8.1-1-.3s-.1-.8.3-1m17.8-10.2c.3-.2.8-.1 1 .3.2.3.1.8-.3 1s-.8.1-1-.3c-.1-.3 0-.8.3-1M94 115.7a.65.65 0 0 1-.6.6.65.65 0 0 1-.6-.6.65.65 0 0 1 .6-.6c.3.1.6.3.6.6m11.6 19.7a.65.65 0 0 1-.6.6.65.65 0 0 1-.6-.6.65.65 0 0 1 .6-.6c.3 0 .6.2.6.6"/><path d="M105.2 116.3c-.3.2-.6.1-.8-.2s-.1-.6.2-.8.6-.1.8.2c.2.2.1.6-.2.8m-11.5 19.6c-.3.2-.6.1-.8-.2s-.1-.6.2-.8.6-.1.8.2.1.7-.2.8m16.6-9.9c-.3-.2-.4-.5-.2-.8s.5-.4.8-.2.4.5.2.8-.5.4-.8.2m-22.8.1c-.3-.2-.4-.5-.2-.8s.5-.4.8-.2.4.5.2.8-.5.4-.8.2"/><use xlink:href="#I" fill="#8ac072"/><path d="M129.3 74.5c.2.3.2.7.1 1s-.3.6-.6.8l-3.1 1.6-1.2-2.3 3.1-1.6c.6-.4 1.4-.1 1.7.5m-2.8-4.5c.3.1.6.3.8.6.3.6.1 1.4-.6 1.8l-3.1 1.6-1.2-2.3 3.1-1.6c.3-.1.7-.2 1-.1m.5-1.6c-.8-.2-1.6-.2-2.3.2l-.4.2-1-1.9-1.5.8 1 1.9-1.3.7-1-1.9-.4.2-1.4.8 1 1.9-1.8.9.9 1.7 1.8-.9 3.2 6.1-1.8.9.9 1.7 1.8-.9.8 1.6.4-.2 1.4-.8-.9-1.7 1.3-.7.9 1.7 1.5-.8-.9-1.7.4-.2c.3-.1.5-.3.7-.5.4-.3.6-.8.8-1.3.2-.8.2-1.6-.2-2.3a2.92 2.92 0 0 0-1.8-1.5c.3-.8.2-1.6-.2-2.4-.5-.8-1.1-1.4-1.9-1.6" class="B"/><path d="M34 176.8c0 6.2-5 11.2-11.2 11.2s-11.2-5-11.2-11.2 5-11.2 11.2-11.2 11.2 5 11.2 11.2" fill="#212121"/><path d="M22.8 179l-2.2-2.2 2.2-2.2 2.2 2.2-2.2 2.2zm5-2.2l2 2.1 2.1-2.1-2.1-2-2.1 2h.1zm-8.6-1.4l3.6-3.6 3.6 3.6 2-2-5.6-5.7-5.6 5.6 2 2.1zm7.2 2.8l-3.6 3.6-3.6-3.5-2 2 5.6 5.6 5.6-5.6-2-2.1zm-8.6-1.4l-2-2.1-2.1 2.1 2.1 2.1 2-2v-.1z" fill="#f4bb0b"/><circle cx="149.13" cy="73.794" r="12.076" transform="matrix(.989168 0 0 .987544 2.941 1.41597)" class="B"/><g fill="#f1b100" class="E"><path d="M149.1 71.8c.2 0 .4-.1.6-.3v-.1c0-.2-.2-.2-.4-.2-.2.1-.4.1-.6.1 0 0-.1.1-.2.1.2.3.4.4.6.4zm3.4.3c.1 0 .1-.1.2-.1 0-.1-.1-.1-.1-.2-.3-.1-.6-.1-1-.1.2.3.7.5.9.4z"/><path d="M150.4 62.3c-6.618.022-11.978 5.382-12 12 .022 6.618 5.382 11.978 12 12 6.618-.022 11.978-5.382 12-12 0-6.7-5.4-12-12-12zm-5.5 5.1l.4-.4s0-.1.1-.2h-.2c0-.2.1-.3.2-.3.2-.2.5-.2.8-.1.2 0 .4 0 .6-.1.1-.1.2-.1.3-.2V66c-.1 0-.2-.1-.3-.1 0-.2.2-.3.5-.3.2 0 .4 0 .6.1s.7 0 .8-.2c-.1 0-.2-.1-.3-.1.1-.2.3-.2.4-.2.2 0 .5 0 .7.2s.5.1.8.1c0-.2-.2-.2-.3-.3.3-.2.8-.1 1.1.2.2.2.3.3.5.2.1 0 .2 0 .3.1.1-.2-.1-.2-.2-.4.1-.1.3-.1.4 0 .3.1.6.3.8.6 0 .1.1.1.2.2s.2.1.3.1c.1-.2-.1-.3-.2-.5.3-.1.5 0 .7.1s.3.3.4.6a.55.55 0 0 0 .5.3c.1 0 .1-.1.1-.1-.1-.1-.1-.2-.2-.3h.3a.9.9 0 0 1 .6.6c.1.2.2.3.4.3-.1-.2-.1-.3-.1-.5h.1c.4.3.7.7.8 1.2v.7c0 .3-.1.6-.1.8 0 .1 0 .2-.1.2-.2.2-.2.5-.3.8v.2c0 .2 0 .5-.2.7s-.2.6-.2.9c0 .2-.1.2-.2.3-.2.1-.3.3-.5.6 0 .1-.1.2-.1.3h-.1v-.3c.1-.7.1-1.3-.2-1.9v-.3c.3-.4.3-.8.3-1.3 0-.1 0-.3-.1-.5-.1-.3-.3-.5-.6-.5s-.6.2-.6.5c0 .1 0 .3-.1.5-.1-.1-.2-.1-.2-.1-1.1-.8-2.3-1.1-3.6-.6-.1 0-.2.1-.3.1h-.4c-.7-.4-1.5-.6-2.3-.7-.6-.1-1.3-.2-1.8-.5-.3-.2-.3-.2-.2-.4zm-2.1.4c.1 0 .1.1.2.1l.6.6c.5.4 1.1.6 1.8.7l2.1.3c.3.1.6.2.8.3s.4 0 .6-.1l-.1-.1c-.7-.4-1.4-.6-2.1-.6-.6-.1-1.2-.1-1.8-.4-.5-.2-.8-.5-1.1-.9-.1-.1-.1-.2-.1-.3 0 0 0-.1.1-.1h.2c.1.1.2.2.2.3.6.7 1.4.9 2.2 1.1.6.1 1.1.2 1.6.3s.9.3 1.3.7c.1.1.2.1.3.1.3-.1.5.1.6.4v.9c0 .1.1.2.2.2.3-.1.6 0 .8.1 0 0 .1.1.1 0 .3-.1.6-.2.7-.5.2-.3.4-.5.8-.4h.8c.2 0 .5-.2.5-.4v-.7l.1-.1s.1 0 .1.1c.1.4.1.8-.1 1.2-.1.2-.2.2-.4.2h-.8c-.1 0-.3.1-.4.1-.1.1-.2.2-.1.3 0 .1.1.2.3.2.1 0 .2.1.2.1.1.3.2.6.7.5-.2.1-.2.1-.2.2-.1 0-.2.1-.3.1-.2 0-.2 0-.3.3v.2c-.1 0-.1 0-.2-.1-.2-.2-.2-.2-.3.1-.1.2-.2.2-.3 0-.1-.1-.2-.1-.2 0-.2.2-.2.2-.3 0-.2.1-.2.4-.6.4v-.3h-.1c-.1.1-.2.3-.2.5 0 .4.1.8.3 1.2.2.5.4.9.6 1.4.1.3.1.6 0 .9a.88.88 0 0 1-.828.583c-.102 0-.203-.018-.298-.052a.68.68 0 0 1-.074-.031c-.5-.2-.8-.6-1-1.1-.1-.1-.1-.2-.2-.3v-.2h.1c0 .1.1.1.1.2.2.3.4.6.7.8.3.3.5.3.8.2.254-.18.373-.498.3-.8-.1-.3-.2-.5-.3-.8-.2-.5-.6-1-.7-1.6 0-.1 0-.3-.1-.4s-.3 0-.4-.1c-.2 0-.3 0-.5-.1l-.1-.1c-.1-.1-.1-.2-.2-.3s-.2 0-.2.1 0 .2.1.3c.1.2.3.3.5.5.1.1.1 0 .2 0 0 0 .1-.1.2-.1s.1.1.2.1c.1.2.1.5.2.8v.2c-.1.3-.6.5-.9.5l.2-.2c.1-.1.1-.2.1-.3-.1 0-.2-.1-.3-.1s-.2.1-.3.1c-.2.1-.3.2-.5.3-.4.2-.8 0-.9-.3-.1-.1-.1-.2-.3-.2 0-.1 0-.2.1-.3 0-.1.1-.2 0-.3s-.2-.2-.4-.1h-.1c0-.2 0-.2.3-.6-.2-.1-.3-.3-.5-.4-.1-.1-.1-.2 0-.3.5-.4 1.1-.4 1.6 0 .1 0 .1.1.2.1a.9.9 0 0 0-.6-.6c-.3-.1-.6-.1-.9-.2.3-.3.8-.2 1.1-.5-.1-.1-.1-.1-.2-.1-.6-.3-1.2-.5-1.9-.7-.7-.1-1.4-.3-1.9-.8-.4-.3-.7-.6-.9-1-.3-.6-.3-.7-.3-.9 0 .1 0 0 0 0zm9.2 5.3c.1.1.2.1.3.2.1 0 .2.1.2.1.1 0 .2-.1.2-.3V73c.1 0 .1.1.2.1.1.1.3.2.5.4.1.1.2.2.1.4h-.1c-.1 0-.2 0-.2.1 0 .3 0 .3-.3.2h-.2c0 .1-.1.3-.1.4l-.1.1-.1-.1c-.1-.3-.2-.3-.5-.2-.1.1-.2 0-.3-.1-.1-.2-.1-.4-.2-.6v-.2h.1c.1.2.3.2.5.1.1 0 0-.2 0-.5zm-11.2-1.3c.1 0 .3-.1.5-.2.1-.1.2-.1.4-.1.2.1.4.5.3.7l-.1.1h-.7c-.4-.1-.5-.2-.4-.5zm1.5 2.3c-.1.3-.2.6-.5.9-.4.4-1.2.5-1.6.3-.2-.1-.4-.3-.3-.6.3.2.6.3.9.2.1 0 .2-.1.2-.2-.9 0-1.5-.3-1.6-1.3 0-.5.1-.8.5-1.1v.6c.1.5.5.9.9 1 .5.1 1.1-.1 1.3-.6v-.1c-.1.1-.2.1-.2.1-.5.3-1.2.1-1.5-.2-.2-.2-.2-.7 0-1 .1-.1.2-.1.3 0 .2.3.5.4.9.4.5-.1.8-.3 1-.8.2-.7.5-1.3.9-1.9.1-.2.1-.2.3-.1.1.1.3.2.5.2.2.1.2.1 0 .3-.5.6-.9 1.2-1.2 1.9-.4.8-.6 1.4-.8 2zm19.4-2.2c-.1-.1-.2 0-.3 0h-.2c-.2 0-.5 0-.6.2.1 0 .1.1.2.1l.4.4c.1.1.1.1.1.2.1.1.1.3 0 .3s-.3-.1-.4-.1-.2-.1-.2-.2c-.1-.3-.4-.4-.7-.5h-.2c-.1.1-.1.2-.2.3v.3h-.1c-.4-.2-.5-.7-.2-1 .1-.1.1-.2-.1-.3-.1 0-.2-.1-.4-.1v.5c.2 2.2-.5 4.2-2 5.8-1.1 1.2-2.5 1.9-4.2 2.2-.2 0-.4 0-.6.1-.1 0-.2.1-.2.2-.1.5-.5.7-.8.9l-.1.3v-.1c0-.1-.1-.2-.1-.3-.1 0-.2 0-.3.1s-.1.2-.1.3a.78.78 0 0 1-.4.4c0-.4-.1-.4-.4-.2-.1 0-.2.1-.3.2.1.1.2.1.2.1.2.1.3.2.5.4.1.1.1.3.1.4v.5c0 .2-.1.3-.3.5 0-.2-.1-.3-.1-.5 0-.1-.1-.2-.2-.2-.2 0-.3-.1-.5-.3-.1-.1-.1-.1-.2 0a.76.76 0 0 1-.4.2c-.2.1-.3.3-.5.5-.1.2-.1.4-.2.6s-.2.3-.4.3-.1.2-.1.2c-.2 0-.2-.1-.2-.3s-.1-.4-.1-.6.1-.3.2-.5l.6-.6c-.2 0-.4 0-.6-.1h-.4c-.1 0-.2.1-.3.2s-.3.3-.5.2c0 0-.1 0-.1.1s-.1.2-.1.4c0-.1-.1-.1-.1-.2 0-.2-.1-.4-.1-.6 0-.1.1-.2.2-.3.4-.3.8-.5 1.3-.4h.2c-.1-.1-.2-.2-.3-.2-.2-.1-.4-.1-.6-.2-.1-.1-.2-.2-.3-.2s-.1-.1-.2-.1h-.2c0-.2.2-.4.5-.4.1 0 .2-.1.3-.1h.3a.9.9 0 0 1 .6.6l.3.3c.1-.3 0-.7-.3-.9-.1-.1-.2-.1-.2-.3s0-.3-.3-.3h-.1c.1-.2.3-.2.6-.1.1 0 .3.1.4.1.2 0 .3.1.4.3s.2.5.4.8c0-.1.1-.1.1-.2.1-.2.2-.5.3-.8 0-.1 0-.2-.1-.2-.8-.3-1.5-.7-2.2-1.1h-.3c0 .1 0 .1.1.2l.1.1h-.3c-.2-.1-.4-.2-.5-.4s-.2-.5-.2-.7a.55.55 0 0 0-.3-.5c-.1-.1-.2-.3-.3-.4h-.1c0 .1 0 .2.1.3v.2c-.1 0-.2 0-.2-.1a1.69 1.69 0 0 1-.3-1c-.1-.4-.2-.8-.3-1.1h-.1v.3s-.1 0-.1-.1c-.2-.2-.2-.5-.1-.8 0-.4.1-.8.2-1.2 0-.1 0-.2-.1-.2v-.2c.1-.5.4-1 .6-1.5 0-.1.1-.1.1-.2-.2-.1-.1-.2 0-.3.2-.3.5-.5.8-.8.1-.1.2-.1.3-.1.3.1.7.1 1 .2.1 0 .1 0 .2.1-.1.2-.2.3-.2.5 0 .3-.2.5-.3.6-.3.4-.3.4 0 .8.1.1.2.3.1.5-.1.3 0 .5.2.7l.1.1c.2 0 .2.1.3.3 0 .1.2.2.2.4l.2.2c.3.6.8.7 1.4.5.3-.1.3-.1.3.2.2.9.7 1.6 1.5 2.1.6.4 1.4.2 1.8-.4.2-.4.5-.8.7-1.1.2-.2.5-.4.7-.6 0 0 .1 0 .2-.1 0 .1 0 .2-.1.3v.2c0 .1.1.1.1.2.1 0 .1-.1.2-.1s.1-.1.2-.1c.2 0 .2-.1.2-.3.1-.4.1-.9.4-1.2 0-.1.1-.1.1-.2h.1v.3c0 .1 0 .1.2.1.3-.1.5-.3.4-.7v-.7c0-.1.1-.2.2-.4h.1c0 .1.1.2.1.3.4-.1.5-.3.4-.7v-.9s.1-.1.1-.2c0 .1.1.2.1.3.3-.1.4-.3.3-.6 0-.3-.1-.6-.1-.9 0-.1 0-.2.1-.4l.2.2c0-.1.1-.2.1-.3 0-.2-.1-.5-.1-.7s0-.5.2-.8c0 .1.1.2.1.2l.3.6c.1.2.3.5.4.7 0 .1.1.2.2.2.405.209.776.479 1.1.8l.3.3h.1v-.6s0-.1.1-.1c.2-.1.3-.2.5-.3 0 .2.1.5.1.7.3-.1.6-.1.9 0-.1.2-.3.4-.4.6h.1c.3 0 .518.2.718.5v.1l-.418.1z"/></g><use xlink:href="#I" x="-102.1" fill="#f7931a"/><path d="M25.7 77.8c-.1.3-.3.6-.6.8s-.7.2-1 .1l-3.4-1 .8-2.5 3.4 1c.6.1 1 .9.8 1.6m1.1-5.2c.2.3.2.7.1 1-.2.7-.9 1.1-1.6.9l-3.4-1 .8-2.5 3.4 1c.3 0 .6.3.7.6m1.5-.8c-.4-.7-1-1.2-1.8-1.5l-.4-.1.6-2.1-1.6-.5-.6 2.1-1.4-.4.6-2.1-.4-.1-1.6-.5-.6 2-1.9-.6-.5 1.8 1.9.6-2 6.6-1.9-.6-.5 1.8 1.9.6-.5 1.7.4.1 1.6.5.5-1.8 1.4.4-.5 1.8 1.6.5.5-1.8.5.1c.3.1.6.1.9.1.5 0 1-.1 1.4-.4.7-.4 1.2-1 1.5-1.8.2-.8.1-1.7-.3-2.4.7-.4 1.3-1 1.5-1.8.2-.7.1-1.5-.3-2.2" class="B"/><use xlink:href="#J" fill="#0986d3"/><path d="M107 98.3l-1.7 4.9c-.4 1-1.3 1.7-2.4 1.7H92.5l.8-2.6h9.6l1.7-4.9h-9.8l.8-2.6h9a2.61 2.61 0 0 1 2.1 1.1c.493.699.606 1.601.3 2.4m-8.1.3v.2l-.7 2.4h-7l.8-2.6h6.9z" class="B"/><path d="M187.7 99.9c0 6.5-5.3 11.8-11.8 11.8s-11.8-5.3-11.8-11.8 5.3-11.8 11.8-11.8 11.8 5.3 11.8 11.8" fill="#f4f4f4"/><path d="M175.6 104.8l1 .9h-3.7c-2.6 0-4.7-2.1-4.7-4.7 0-.8.2-1.5.5-2.2.3-.6.8-1.1 1.3-1.5 0 0 .1 0 .1-.1l1-.6-.4-.3-2.6-2.2h3.4l2.6 2.2.3.3h.1l2.2 1.9h-3.8c-.4 0-.7.1-1 .2-.7.3-1.2.9-1.4 1.6-.1.2-.1.4-.1.7v.3c.2 1.2 1.2 2.2 2.5 2.2h1.2l1.5 1.3z" fill="#226dff"/><path d="M184.8 105.7h-3.4l-2.5-2.2-.1-.1-1.5-1.3-.9-.8h2c.4 0 .7-.1 1.1-.2.7-.3 1.2-.9 1.4-1.6 0-.2.1-.4.1-.6v-.3c-.2-1.2-1.2-2.2-2.5-2.2h-1.2l-1.6-1.4-1-.9h3.7c2.6 0 4.7 2.1 4.7 4.7 0 .8-.2 1.5-.5 2.2-.3.6-.8 1.1-1.3 1.5 0 0-.1 0-.1.1l.1.1 3.5 3z" fill="#1bd9a2"/><use xlink:href="#J" x="51.2" fill="#c3a723"/><path d="M151.6 104H149v-3.4h2.6v-1.4H149v-3.4h2.5s3.1 0 3.1 3.8c-.1 4.5-3 4.4-3 4.4m-.4-10.6h-4.7v5.8H145v1.4h1.6v5.8h5s5.5.2 5.5-6.9c-.1-6.1-5.9-6.1-5.9-6.1" class="B"/><path d="M187.9 125.6c-.022 6.618-5.382 11.978-12 12-6.618-.022-11.978-5.382-12-12 .022-6.618 5.382-11.978 12-12 6.6 0 12 5.3 12 12z"/><path d="M171.3 122.6l.9 2.9-2.6 4.6 1.7-7.5zm8.3 2.9l.9-2.9 1.7 7.5-2.6-4.6zm-.3.6l3.1 5.5-6.1 3.7 3-9.2zm-3.9 9.2l-6.1-3.7 3.1-5.5 3 9.2zm.5-15.2l3.1 5.4-3.1 9.5-3.1-9.5 3.1-5.4zm-.2-.6l-3 5.4-1-3.2 4.1-5.6v3.4h-.1zm.5-3.5l4.1 5.6-1 3.2-3-5.4V116h-.1zm6.9 15.7l-2.3-10.1v-.1l-4.6-6.4c0-.1-.1-.1-.2-.1s-.2 0-.2.1l-4.6 6.4v.1l-2.3 10.1c0 .1 0 .2.1.3l6.9 4.2 6.9-4.2c.3-.1.3-.2.3-.3zm-37.9-4.2l5 2.5v4.1l-5-6.6zm10.4 0l-5.1 6.6V130l5.1-2.5z" class="B"/><path d="M150.4 113.8c-6.5 0-11.8 5.3-11.8 11.8s5.3 11.8 11.8 11.8 11.8-5.3 11.8-11.8c-.1-6.5-5.3-11.8-11.8-11.8" fill="#659172"/><path d="M150.4 136.4c-6 0-10.8-4.9-10.8-10.8 0-6 4.9-10.8 10.8-10.8 6 0 10.8 4.9 10.8 10.8s-4.8 10.8-10.8 10.8" class="B"/><path d="M155.9 124.4l-5.5-8.8-5.8 8.8 5.8-2.3 5.5 2.3zm-11 2.5l5.5 8.6 5.7-8.6-5.7 3.4-5.5-3.4zm11.2-1.2l-5.7-2.4-5.8 2.4 5.8 3.5 5.7-3.5z" fill="#659172"/><path d="M59.5 74.2c0 6.2-5 11.2-11.2 11.2s-11.2-5-11.2-11.2S42.1 63 48.3 63s11.2 5.1 11.2 11.2" fill="#497391"/><path d="M43.3 75.6l4.8-9.9v12.5l-4.8-2.6zm10 0l-4.9 2.6V65.7l4.9 9.9zm-10 .4l4.8 2.4v3.9L43.3 76zm10 0l-4.9 6.3v-3.9l4.9-2.4z" class="B"/><use xlink:href="#J" x="-50.9" y="76.9" fill="#573f8f"/><path d="M48.6 177.8h-1.4c-.2 0-.3.1-.3.3v1.5c0 .2.1.3.3.3H50c.2 0 .3-.1.3-.3v-1.5c0-.2-.1-.3-.3-.3h-1.4m-5.1 6.3c-.1-.3 0-.5.3-.5.4-.1.6-.4.7-.8v-8.3c0-.4 0-.4.4-.4h1.8c.3 0 .3.1.3.3v1.1c0 .2 0 .3.3.3h2.8c.2 0 .3-.1.3-.3V174c0-.2-.1-.3-.3-.3h-6.5a.76.76 0 0 0-.4.2l-1.5 2.5c-.1.1-.1.3 0 .4l1.5 2.6c.1.1.2.2.3.2h.4c.1 0 .2.1.2.2v1.5c0 .2-.1.2-.2.2h-2.1c-.1 0-.2-.1-.3-.2l-2.6-4.6c-.1-.1-.1-.3 0-.4l2.6-4.6c0-.1.2-.2.3-.2H44c.3 0 .4-.1.4-.4s0-.7-.1-1c0-.2-.3-.3-.4-.5-.1-.1-.1-.3-.2-.5H47c.1 0 .3.1.3.1 0 .1.1.3-.1.4-.1.1-.3.2-.3.3-.1.4-.1.9-.1 1.4 0 0 .1.2.2.2h2.9c.1 0 .2-.1.2-.2v-1c0-.3-.2-.5-.4-.7-.1-.1-.1-.3-.2-.5h3.4c.1 0 .3.1.3.1 0 .1.1.3-.1.4-.1.1-.3.3-.3.4-.1.2-.1.5-.1.7v8.3c0 .3.1.4.4.4.8 0 .8 0 1.2-.7.1-.3.2-.6.4-.9l-.1-.1h2.9c.1 0 .3.1.3.1 0 .1.1.3-.2.4-.2.1-.4.3-.5.5l-1.3 2.2c-.2.3-.3.4-.7.4h-7.8c-.4 0-.4 0-.4.4 0 .3 0 .5.1.8.1.4.3.6.7.7.2 0 .3.1.3.3s-.2.2-.3.2h-3.8c-.2.4-.3.4-.4.4m12.6-8.6h-1.3c-.2 0-.3-.1-.3-.3 0-.5-.4-.9-.6-1.3 0-.1-.2-.1-.3-.1-.6 0-.5.1-.5-.5v-1.2c0-.2.1-.3.3-.3h2.1c.2 0 .3.1.4.3.4.8.9 1.5 1.3 2.3.1.2.4.4.6.5s.2.3.1.4c0 .1-.2.1-.3.1-.6.1-1 .1-1.5.1m-4.6 8.6h-2c-.1 0-.2-.1-.2-.2s0-.3.2-.3c.6-.1.8-.4.8-1s0-.6.6-.6h1.5c.3 0 .4.1.4.4v.5c.1.4.3.6.7.7.2 0 .3.1.3.3s-.2.2-.3.2c-.8.1-1.4 0-2 0" class="B"/><path d="M101.8 171.6c.2 0 .4-.2.4-.4s-.2-.4-.4-.4-.4.2-.4.4.2.4.4.4m-1-.8c.274 0 .5-.226.5-.5s-.226-.5-.5-.5-.5.226-.5.5.226.5.5.5m.4 1.4c-.274 0-.5.226-.5.5s.226.5.5.5.5-.226.5-.5-.226-.5-.5-.5m-1.7-2.1a.65.65 0 0 0 .6-.6.65.65 0 0 0-.6-.6.65.65 0 0 0-.6.6c0 .4.3.6.6.6m-.2 1.9a.65.65 0 0 0 .6.6.65.65 0 0 0 .6-.6.65.65 0 0 0-.6-.6.65.65 0 0 0-.6.6m1.7 3.3a.65.65 0 0 0 .6-.6.65.65 0 0 0-.6-.6.65.65 0 0 0-.6.6.65.65 0 0 0 .6.6m-3.2-5.6h.002c.384 0 .7-.316.7-.7s-.315-.699-.698-.7H97.8c-.384 0-.7.316-.7.7s.314.698.696.7m2.104 4.5c0-.384-.316-.7-.7-.7s-.7.316-.7.7.316.7.7.7.7-.316.7-.7m-2.4-2.7c0 .384.316.7.7.7s.7-.316.7-.7-.316-.7-.7-.7-.7.316-.7.7m-1.8-1.8c.4 0 .8-.4.8-.8s-.4-.8-.8-.8-.8.4-.8.8c0 .5.3.8.8.8m-.4 1.7c0 .4.4.8.8.8s.8-.4.8-.8-.4-.8-.8-.8-.8.3-.8.8m1.9 1.9c-.4 0-.8.4-.8.8s.4.8.8.8.8-.4.8-.8-.4-.8-.8-.8m-4-3c.5 0 .9-.4.9-.9s-.4-.9-.9-.9-.9.4-.9.9.4.9.9.9"/><use xlink:href="#H" x="-9.9" y="53.5"/><use xlink:href="#H" x="-8.8" y="56.2"/><path d="M90.9 174c.601-.005 1.095-.499 1.1-1.1-.005-.601-.499-1.095-1.1-1.1-.601.005-1.095.499-1.1 1.1 0 .7.5 1.1 1.1 1.1m1.1.5c-.601.005-1.095.499-1.1 1.1.005.601.499 1.095 1.1 1.1.601-.005 1.095-.499 1.1-1.1-.005-.601-.499-1.095-1.1-1.1m-2.8 1.9c-.7 0-1.3.6-1.3 1.3s.6 1.3 1.3 1.3 1.3-.6 1.3-1.3-.5-1.3-1.3-1.3m5 1.3c-.1-.2-.4-.3-.6-.2s-.3.4-.2.6.4.3.6.2.3-.4.2-.6m-.9 1c-.3.1-.3.5-.2.7.1.3.5.3.7.2.3-.1.3-.5.2-.7s-.5-.3-.7-.2m2.4-.6c.2-.1.3-.4.2-.7-.1-.2-.4-.3-.7-.2-.2.1-.3.4-.2.7s.5.3.7.2m-1.8 3.1c.3-.2.4-.5.2-.8s-.5-.4-.8-.2-.4.5-.2.8c.1.3.5.4.8.2m1.1-1.7c.2.3.5.4.8.2s.4-.5.2-.8-.5-.4-.8-.2c-.3.1-.4.5-.2.8m2-3.1c-.3.2-.4.5-.2.8s.5.4.8.2.4-.5.2-.8-.5-.4-.8-.2m-2.4 5.7c-.2-.3-.6-.4-.9-.3-.3.2-.4.6-.3.9.2.3.6.4.9.3.4-.1.5-.6.3-.9m3.5-2.9c.3-.2.4-.6.3-.9-.2-.3-.6-.4-.9-.3-.3.2-.4.6-.3.9.1.4.5.5.9.3m-1.8 2.3c.3-.2.4-.6.3-.9-.2-.3-.6-.4-.9-.3-.3.2-.4.6-.3.9.1.4.5.5.9.3m-.7 2.4c-.2-.4-.7-.5-1.1-.3s-.5.7-.3 1.1.7.5 1.1.3.6-.7.3-1.1m1.7-.4c.4-.2.5-.7.3-1.1s-.7-.5-1.1-.3-.5.7-.3 1.1.7.5 1.1.3m1.8-2.3c.4-.2.5-.7.3-1.1s-.7-.5-1.1-.3-.5.7-.3 1.1.7.5 1.1.3m-3 4.3c-.4.2-.6.8-.3 1.2s.8.6 1.2.3c.4-.2.6-.8.3-1.2-.2-.4-.8-.6-1.2-.3m1.9-1.6c-.4.2-.6.8-.3 1.2.2.4.8.6 1.2.3s.6-.8.3-1.2c-.2-.4-.8-.5-1.2-.3m2.7-.7c.4-.2.6-.8.3-1.2-.2-.4-.8-.6-1.2-.3-.4.2-.6.8-.3 1.2.2.4.8.6 1.2.3m-.5 2.3c-.5.3-.7 1-.4 1.5s1 .7 1.5.4.7-1 .4-1.5-.9-.6-1.5-.4m1.8-2.2c-.5.3-.7 1-.4 1.5s1 .7 1.5.4.7-1 .4-1.5-.9-.7-1.5-.4m3.1 1.2c-.6.3-.8 1.1-.5 1.8s1.1.8 1.8.5.8-1.1.5-1.8c-.4-.6-1.2-.9-1.8-.5m-1.2-3.4c-.2-.1-.5 0-.6.2s0 .5.2.6.5 0 .6-.2 0-.4-.2-.6m.7.5c.3.1.6.1.7-.2s.1-.6-.2-.7-.6-.1-.7.2c-.1.2 0 .5.2.7m-1.8-1.8c-.2-.1-.6-.1-.7.2-.1.2-.1.6.2.7.2.1.6.1.7-.2s.1-.6-.2-.7m3.1 1c.3.2.6.1.8-.2s.1-.6-.2-.8-.6-.1-.8.2-.1.7.2.8m-1.7-1.9c-.3-.2-.6-.1-.8.2s-.1.6.2.8.6.1.8-.2.1-.6-.2-.8m-3.5.7c.3.2.6.1.8-.2s.1-.6-.2-.8-.6-.1-.8.2c-.1.2 0 .6.2.8m7.1-1.1c-.3-.2-.7-.1-.9.3-.2.3-.1.7.3.9.3.2.7.1.9-.3s.1-.8-.3-.9m-6.1-1.1c-.2.3-.1.7.3.9.3.2.7.1.9-.3.2-.3.1-.7-.3-.9-.3-.1-.7 0-.9.3m3.2 1.4c.3.2.7.1.9-.3s.1-.7-.3-.9c-.3-.2-.7-.1-.9.3-.2.3-.1.7.3.9m4.1-2.2c-.4-.2-.9-.1-1.1.3s-.1.9.3 1.1.9.1 1.1-.3.1-.9-.3-1.1m-3 .5c.4.2.9.1 1.1-.3s.1-.9-.3-1.1-.9-.1-1.1.3c-.3.4-.1.9.3 1.1m-3-.4c.4.2.9.1 1.1-.3s.1-.9-.3-1.1-.9-.1-1.1.3 0 .9.3 1.1m6.9-2.6c-.4-.2-1-.1-1.2.3s-.1 1 .3 1.2 1 .1 1.2-.3c.3-.3.2-.9-.3-1.2m-3.2.7c.4.2 1 .1 1.2-.3s.1-1-.3-1.2-1-.1-1.2.3c-.3.4-.1 1 .3 1.2m-1.6-.7c.2-.4.1-1-.3-1.2s-1-.1-1.2.3-.1 1 .3 1.2c.4.3.9.2 1.2-.3m1.9-2c.5.3 1.2.1 1.5-.4s.1-1.2-.4-1.5-1.2-.1-1.5.4-.1 1.2.4 1.5m-1.8-2.3c-.5-.3-1.2-.1-1.5.4s-.1 1.2.4 1.5 1.2.1 1.5-.4.1-1.2-.4-1.5m-1.6-1.3c.6.3 1.4.1 1.8-.5.3-.6.1-1.4-.5-1.8-.6-.3-1.4-.1-1.8.5-.3.6-.1 1.4.5 1.8"/><use xlink:href="#K" fill="#3d3e3c"/><path d="M22.8 88.9c6.075 0 11 4.925 11 11s-4.925 11-11 11-11-4.925-11-11 4.925-11 11-11" class="B"/><path d="M30.3 95.4c-.3-.5-.6-.9-.9-1.3L17 106.5c.4.3.8.7 1.3.9l12-12zm-1.9-2.2l-1.3-.9-12 12c.3.5.6.9.9 1.3l12.4-12.4zm-2.7-1.6c-.6-.2-1.2-.3-1.8-.4l-9.8 9.8c.1.6.2 1.2.4 1.8l11.2-11.2zm-3.8-.4c-1.9.2-3.8 1-5.3 2.5s-2.3 3.4-2.5 5.3l7.8-7.8zm9.5 7.4c-.1-.6-.2-1.2-.5-1.8l-11.3 11.3c.6.2 1.2.4 1.8.5l10-10zm.1 1.9l-8.1 8.1c2-.1 4-1 5.6-2.5s2.4-3.5 2.5-5.6" fill="#b6b7ba"/><path d="M21.8 103l.5-3.7 3.2-2.4v-2.2l-2.8 2.1.5-4.3h-3.5l-.8 7-2.2 1.6v2.2l2-1.4-.5 3.9h11.6V103h-8z" fill="#f8f9f7"/><path d="M18.6 105.5h11v-2.3h-8.1l.6-4.1 3.2-2.3v-1.6l-3 2.1.6-4.6h-3l-.7 6.8-2.2 1.6v1.6l2.1-1.5-.5 4.3zm11.5.6H17.9l.4-3.6-1.9 1.4V101l2.3-1.6.8-7.1h4.1l-.6 3.9 2.8-2v2.9l-3.3 2.4-.5 3.3h8l.1 3.3z" fill="#3d3e3c"/><path d="M114.6 117.6l9.6 4.6 11.3-4.1-9.7-4.5-11.2 4z" fill="url(#A)"/><path d="M114.1 132.9l9.9 4.7v-15l-9.9-4.7v15z" fill="url(#B)"/><path d="M125.6 122.2v6.7l10 4.7v-15l-10 3.6z" fill="url(#C)"/><path d="M64.9 178.7h1.5c.4 0 .7.2.8.6 1.1 2.5 2.9 4 5.6 4.3 2.9.3 5.5-1.2 6.7-3.7.2-.4.1-.9-.3-1.1s-.9 0-1.1.4c-.8 1.6-2.2 2.5-3.9 2.8-2.477.287-4.833-1.228-5.6-3.6-.801-2.761.812-5.691 3.573-6.492l.027-.008c2.3-.6 4.7.4 5.9 2.6.1.3.3.5.6.5s.6 0 .8-.3.2-.6.1-.8l-.9-1.4a6.78 6.78 0 0 0-5.117-2.332c-2.754.003-5.245 1.681-6.283 4.232-.2.4-.4.6-.9.6h-3l-.059.002c-.417 0-.767-.325-.798-.741-.01-.123.01-.247.057-.36 1-3.4 3.1-5.9 6.4-7.4 1.8-.8 3.7-1.1 5.6-.9 4.2.5 7.2 2.6 9.2 6.3.9 1.8 1.3 3.7 1.1 5.7-.3 4.9-3.6 8.7-7.9 10.1-5.5 1.8-11.4-.8-13.8-6.1-.3-.6-.5-1.2-.7-1.9-.1-.5.2-.9.7-1h1.7v-.001zm-.4 1.6c1.1 3.4 5 6.9 10.3 6.3 5.2-.6 9.2-5.3 8.7-10.7-.505-5.13-4.947-9.045-10.1-8.9-2.6.1-4.9 1.1-6.7 2.9a9.5 9.5 0 0 0-2.2 3.4h1.3c.2 0 .3-.1.4-.3 1.7-3.3 5.1-5.1 8.7-4.5 2.9.4 4.9 2 6.2 4.6.5.9.2 2-.5 2.7-.8.7-1.9.9-2.8.4-.5-.2-.8-.6-1-1.1-.7-1.4-2.2-2.2-3.6-2-2.2.3-3.5 2.3-3.1 4.2.3 1.8 2.2 3.2 4 2.9 1.2-.2 2.2-.9 2.7-2 .6-1.1 1.8-1.6 2.9-1.2 1.4.5 2 2 1.3 3.4-2.2 4.3-7.6 5.9-11.7 3.3-1.4-.8-2.4-2-3.2-3.4-.1-.1-.2-.2-.2-.3-.4.3-.9.3-1.4.3z" fill="url(#D)" class="E"/><g fill="#2ea6df"><path d="M171.5 83.6h6l4.9-3.5 1.9-5.7-1.9-5.7-4.9-3.5h-6l-4.9 3.5-1.9 5.7 1.9 5.7 4.9 3.5zm6.2.3h-6.2l-5-3.6-1.9-5.9 1.9-5.9 5-3.7h6.2l5 3.7 1.9 5.9-1.9 5.9-5 3.6z"/><use xlink:href="#L"/><use xlink:href="#L" x="6.2"/><path d="M172.2 83.6c0 .384-.316.7-.7.7s-.7-.316-.7-.7c-.011-.373.286-.689.659-.7h.04c.3 0 .7.3.7.7"/><use xlink:href="#L" x="-4.9" y="15.2"/><path d="M165.4 74.3c0 .384-.316.7-.7.7s-.7-.316-.7-.7c-.011-.373.286-.689.659-.7h.04c.3 0 .7.3.7.7"/><use xlink:href="#L" x="-4.9" y="3.6"/><path d="M183.7 74.3c0 .384.316.7.7.7s.7-.316.7-.7-.316-.7-.7-.7-.7.316-.7.7m-1.8-5.8c0 .384.316.7.7.7s.7-.316.7-.7-.316-.7-.7-.7-.7.316-.7.7"/><use xlink:href="#L" x="6.3" y="18.7"/><path d="M170.7 78.5l4.1 1.4 4.6-1.4 3.1 1.3V68.7l-3.1 1.3-4.6-1.4-4.1 1.4h-.1l-4-1.3v11.2l4.1-1.4zm12.1 1.9l-3.4-1.5-4.5 1.4-4.1-1.4-4.4 1.4v-12l4.4 1.4 4.1-1.4 4.5 1.3 3.4-1.5v12.3z"/><path d="M164.6 74.1h19.9v.4h-19.9z"/><path d="M175 68.5l2.4 5.3 1.8-4-1.6-4.6-2.6 3.3zm-4.1 1.3l1.6 4 2.1-5.3-3.1-3.3-.6 4.6zm-4.2 4.5l3.9 4.1 1.6-4.1-1.6-4.1-3.9 4.1zm6 0l2.1 5.4 2.4-5.4-2.4-5.3-2.1 5.3zm-1.8 4.4l.7 4.5 3.1-3.2-2.1-5.3-1.7 4zm4.1 1.4l2.6 3.2 1.6-4.6-1.8-4.1-2.4 5.5zm-3.7 3.9l-.8-5.2-4.3-4.5 4.3-4.5.7-5.3 3.5 3.7 2.9-3.7 1.9 5.3-2 4.4 2 4.5-1.8 5.2-2.9-3.6-3.5 3.7z"/><path d="M179.5 78.8l-.3-.2 3.2-4.3-3.2-4.3.3-.2 3.3 4.5-3.3 4.5zm-9.5-8.9c0 .384.316.7.7.7s.7-.316.7-.7-.316-.7-.7-.7-.7.316-.7.7"/><path d="M174.1 68.5c0 .384.316.7.7.7s.7-.316.7-.7-.316-.7-.7-.7-.7.316-.7.7m5.8.8c-.3-.3-.7-.3-1 0s-.3.7 0 1 .7.3 1 0 .2-.7 0-1"/><use xlink:href="#M"/><use xlink:href="#M" x="5.9"/><use xlink:href="#M" x="10.8"/><use xlink:href="#M" x="16.1" y="0.1"/><use xlink:href="#M" x="12.9" y="4.5"/><path d="M187.9 82.4c0-.6-.5-1-1-1-.533.038-.962.467-1 1 .038.533.467.962 1 1 .6 0 1-.5 1-1m-13.4-3c-.4.2-.5.6-.4.9.2.4.6.5.9.4.4-.2.5-.6.4-.9s-.5-.5-.9-.4"/><path d="M170.4 78.1c-.4.2-.5.6-.4.9.2.4.6.5.9.4.4-.2.5-.6.4-.9-.1-.4-.5-.6-.9-.4m16.4 4.4l-4.3-2.2.1-.3 4.4 2.2-.2.3z"/></g><path d="M111 74.2c0 6.5-5.3 11.8-11.8 11.8s-11.8-5.3-11.8-11.8 5.3-11.8 11.8-11.8c6.5.1 11.8 5.4 11.8 11.8" fill="#020100"/><path d="M92.4 66.9l11.3 2.6h.1l2.3 1.6c.1.1.2.2.1.4l-7.9 11.3c-.1.2-.3.2-.4 0l-5.8-15.5c-.1-.2.1-.4.3-.4" class="B"/><path d="M92.8 67.9l10.3 2.4 2.2 1.5-7.2 10.3-5.3-14.2z" fill="#020100"/><g class="B"><path d="M98.1 83c-.2 0-.2-.1-.2-.3l.8-7.8-6.5-7.4c-.1-.1-.1-.2 0-.3s.2-.1.3 0l6.5 7.5s.1.1.1.2l-.8 7.9c.1.1-.1.2-.2.2"/><path d="M98.9 75.1c-.1 0-.1 0-.2-.1s-.1-.2 0-.3l4.6-4.9c.1-.1.2-.1.3 0s.1.2 0 .3l-3.8 4 5.9-2.8c.1-.1.3 0 .3.1s0 .3-.1.3L99 75c0 .1 0 .1-.1.1"/></g><path d="M85.8 74.2c0 6.6-5.3 11.9-11.9 11.9S62 80.8 62 74.2s5.3-11.9 11.9-11.9 11.9 5.4 11.9 11.9" fill="#1ba27a"/><g class="B"><path d="M79.4 68.3H68.1v2.8h4.3v4h2.7v-4h4.3v-2.8z"/><path d="M73.8 75.5c-3.5 0-6.4-.6-6.4-1.3s2.9-1.3 6.4-1.3 6.4.6 6.4 1.3-2.9 1.3-6.4 1.3m7.2-1c0-.9-3.2-1.6-7.2-1.6s-7.2.7-7.2 1.6c0 .8 2.5 1.4 5.8 1.6v5.8h2.7V76c3.4-.1 5.9-.8 5.9-1.5"/></g><path d="M22.8 136.8c-6.2 0-11.2-5-11.2-11.2s5-11.2 11.2-11.2 11.2 5 11.2 11.2c0 6.1-5.1 11.2-11.2 11.2" fill="#c9c9c9"/><path d="M22.8 115c-5.76 0-10.5 4.74-10.5 10.5S17.04 136 22.8 136s10.5-4.74 10.5-10.5c0-5.7-4.7-10.5-10.5-10.5" class="B"/><path d="M176 36.4c-6.693.053-12.053 5.466-12 12.08 0 1.227.213 2.427.56 3.547a.72.72 0 0 0 .16.453c1.68 4.613 6.106 7.92 11.28 7.92h.08c3.2-.027 6.213-1.28 8.453-3.573s3.493-5.306 3.467-8.506c-.053-6.56-5.413-11.92-12-11.92V36.4zm4.773 3.707c-.003.686-.567 1.25-1.253 1.254-.687-.003-1.251-.567-1.254-1.254.003-.687.567-1.251 1.254-1.254.686.004 1.25.568 1.253 1.254zm-4.72 18.666H176c-4.373 0-8.133-2.747-9.653-6.586l6.373-5.52 7.733 11.12c-1.376.65-2.879.987-4.4.987v-.001zm7.333-3.067c-.507.507-1.04.933-1.6 1.333l-3.707-5.36 3.44-2.96 3.44 4.96c-.454.728-.981 1.407-1.573 2.027zm2.32-3.627l-3.413-4.96c-.133-.187-.32-.293-.533-.32a.77.77 0 0 0-.613.187l-3.973 3.413-3.68-5.333c-.133-.187-.32-.293-.533-.32a.77.77 0 0 0-.613.187l-6.506 5.626c-.133-.667-.213-1.387-.24-2.107-.023-5.692 4.626-10.402 10.318-10.452a10.21 10.21 0 0 1 1.6.133c-.507.507-.8 1.2-.8 1.973 0 1.536 1.264 2.8 2.8 2.8 1.52 0 2.747-1.2 2.8-2.693 2.453 1.893 4.027 4.827 4.053 8.133.027 1.28-.213 2.533-.667 3.733z" fill="#ec6110" class="E"/><path d="M18.9 124.7l-1.8-1.8c-.3-.3-.3-.8 0-1.1l4.7-4.7c.5-.5 1.3-.5 1.9 0l4.8 4.8c.3.3.3.8 0 1.1l-1.8 1.8c-.2.2-.5.2-.7 0l-2.6-2.6c-.4-.4-1-.4-1.3 0l-2.5 2.5c-.2.2-.5.2-.7 0" fill="#2fafd7"/><path d="M30.9 126.7l-7.2 7.2c-.5.5-1.3.5-1.9 0l-7.2-7.2c-.5-.5-.5-1.3 0-1.9l1.1-1.1c.3-.3.8-.3 1.1 0l1.8 1.8c.4.4 1 .4 1.3 0l2.5-2.5c.2-.2.5-.2.7 0l2.6 2.6c.2.2.4.3.7.3a1.08 1.08 0 0 0 .7-.3l1.8-1.8c.3-.3.8-.3 1.1 0l1.1 1.1c.4.4.4 1.3-.2 1.8" fill="#d8d8d8"/><path d="M136.8 99.9c0 6.6-5.3 11.9-11.9 11.9S113 106.5 113 99.9 118.3 88 124.9 88s11.9 5.3 11.9 11.9" fill="#0c2a92"/><g class="B"><path d="M131 98.4c-1.9 0-4.2.3-6.6.7-2.7.5-5.2 1.3-7 2.1-1.7.8-2.7 1.6-2.6 2.1.1.6 1.3.9 3.2 1 2 .1 4.6-.2 7.2-.7 2.7-.5 5.2-1.3 7-2.1 1.7-.8 2.7-1.6 2.6-2.1s-1.3-.9-3.2-1h-.6m-12.3 6.2h-.6c-1.5 0-3.2-.3-3.4-1.2-.1-.5.3-1.3 2.7-2.4 1.8-.8 4.3-1.6 7-2.1s5.3-.8 7.3-.7c1.5 0 3.2.3 3.4 1.2.1.5-.3 1.3-2.7 2.4-1.8.8-4.3 1.6-7 2.1-2.5.5-4.8.7-6.7.7"/><path d="M133.2 96.5l-1.8.9-.4 1-1.6 4.5-3.1.8-1.4-4h-.3l-1.6 4.6-.2.6-1.7.6-.4-1-3.3-8.8h2.2l1.6 4.2.5 1.2.6-1.5 1.5-3.9h1.8l1.1 3 .9 2.3.9-2.5 1.1-2.8 2.2-1.1 1.4 1.9z"/></g><path d="M55 131.9c.2-4.2-2.2-6.2-3.6-7a4.73 4.73 0 0 1-2-2.2c-1.5-3.3.7-5.9.7-5.9 1.4-1.7 3-2.6 5.4-2.1a20.58 20.58 0 0 1 4.8 2.1v.1c0 5.7-2 10.9-5.3 15" fill="#67afe2"/><path d="M52.4 134.6c-1.3 1.1-2.6 2.1-4.1 3-4.7-2.7-8.4-6.9-10.4-12.1 1.8.9 4.1 1.8 5.7 1.2 3.2-1 5.4-2.7 8.5 0 1.7 1.5 2.1 3.5 1.7 5.5-.3 1-.7 1.8-1.4 2.4" fill="#1ebbad"/><path d="M52.4 113.9c-1.9.7-4.3 2.3-4.5 5.4v.2c0 .8 0 4.7-4 6.1 0 0-2.9 1-5.3-1-1-.8-1.6-2-1.9-3.3-.3-1.4-.4-2.9-.4-4.4 3.5-2.1 7.6-3.2 12-3.2 1.4-.1 2.7 0 4.1.2" fill="#f7a800"/><path d="M73.8 114.3c-6.2 0-11.2 5-11.2 11.2s5 11.2 11.2 11.2 11.2-5 11.2-11.2-5-11.2-11.2-11.2" class="F"/><path d="M73.8 114.9c5.9 0 10.7 4.8 10.7 10.7s-4.8 10.7-10.7 10.7-10.7-4.8-10.7-10.7c.1-5.9 4.8-10.7 10.7-10.7" class="B"/><path d="M74 127.5l-2.2-1.6s-2.4 1.9-1.5 4c.1.2.3.4.6.4.7 0 2.2-.2 3.1-2.8z" fill="#ff8b00"/><path d="M76 124.6s2.9 2.1.5 5.8h-.1c-.1-.4-.6-2.3-2.2-3.2l1.8-2.6zm-2.3-1.6s-3-1.9-5.6 1.7c0 0 0 .1 0 0 .4-.1 2.3-.3 3.8.8l1.8-2.5z" class="F"/><path d="M79.3 122.5c1.2-2.4-.3-4.8-.3-4.8s-2.9-.5-4.6 1.5c-1.2 1.4-2.7 4.1-3.5 5.6-.3.6-.1 1.2.4 1.6l2.4 1.6c.5.3 1.2.3 1.6-.2 1.2-1.3 3.1-3.6 4-5.3" fill="#e6ffff"/><path d="M78.2 117.6c-1 0-2.6.2-3.8 1.6s-2.7 4.1-3.5 5.6c-.3.6-.1 1.2.4 1.6l2.4 1.6c.2.1.4.2.7.2s.7-.1.9-.4c1.1-1.2 3-3.6 3.9-5.3 1.2-2.4-.3-4.8-.3-4.8s-.2-.1-.7-.1m0 .5h.6c.3.6 1.1 2.4.2 4.2-.9 1.6-2.8 3.9-3.8 5.2-.1.2-.4.3-.6.3s-.3 0-.4-.1l-2.4-1.6c-.3-.2-.4-.7-.3-1 .8-1.5 2.2-4.1 3.4-5.5.9-1.4 2.4-1.5 3.3-1.5m-2.1 3.6c-.6-.4-.7-1.2-.3-1.7.4-.6 1.2-.7 1.7-.3.6.4.7 1.2.3 1.7s-1.1.7-1.7.3m1.6-2.4c-.8-.5-1.8-.3-2.3.4-.5.8-.3 1.8.4 2.3.8.5 1.8.3 2.3-.4.6-.8.4-1.8-.4-2.3m-10.4 14.2l-.2-.1 2.3-3.2.2.1-2.3 3.2zm1.4-.3l-.2-.1 1.2-1.8.2.1-1.2 1.8z" class="F"/><path d="M85.8 99.9c0 6.6-5.3 11.9-11.9 11.9S62 106.5 62 99.9 67.2 88 73.8 88s12 5.3 12 11.9" class="B"/><path d="M84 106.2c-.6 1.1-1.5 2-2.4 2.8 0 0-.1.1-.2.1l-2.1 1.4c-.1.1-.3.1-.4.2-1.6.7-3.3 1.1-5.1 1.1-1.9 0-3.6-.4-5.2-1.2-.1 0-.2-.1-.2-.1-.8-.4-1.5-.9-2.1-1.4l-.2-.2a13.11 13.11 0 0 1-2.4-2.8h5v-6.4L74 105l5.1-5.1v6.2l4.9.1z" fill="#4c4c4c"/><path d="M85.8 99.9c0 1.4-.2 2.7-.6 3.9h-3.5v-10l-7.8 7.8-7.9-7.9v10.1h-3.5c-.4-1.2-.6-2.5-.6-3.9 0-2 .5-3.8 1.3-5.5.4-.8.9-1.5 1.4-2.1.4-.5.9-1 1.4-1.4.8-.7 1.7-1.3 2.6-1.7 1.6-.8 3.3-1.2 5.2-1.2 1.8 0 3.6.4 5.1 1.1 1 .5 1.9 1 2.7 1.7.5.5 1 .9 1.4 1.5l1.4 2.1c.9 1.7 1.4 3.5 1.4 5.5" fill="#f60"/><path d="M175.9 164.8c-6.618.022-11.978 5.382-12 12 .022 6.618 5.382 11.978 12 12 6.618-.022 11.978-5.382 12-12-.022-6.618-5.382-11.978-12-12" fill="#266ba6"/><path d="M175.9 187.8c-6.075 0-11-4.925-11-11s4.925-11 11-11 11 4.925 11 11-4.925 11-11 11" class="B"/><path d="M178.5 178.2h-.5c-.5-.4-.8-.9-.8-1.5 0-.4.2-.8.5-1.1.2 0 .4.1.7.1 1.8 0 3.2-1.5 3.2-3.2 0-1.8-1.5-3.2-3.2-3.2-1.8 0-3.2 1.5-3.2 3.2 0 .8.3 1.6.8 2.2-.1.4-.2.8-.5 1s-1 .2-1.7.2c-.5-1.2-1.6-2.1-3-2.1-1.8 0-3.2 1.5-3.2 3.2 0 1.8 1.5 3.2 3.2 3.2a3.27 3.27 0 0 0 3.1-2.3c.6-.1 1.1-.1 1.3.1.3.3.5.9.6 1.5-.4.5-.6 1.2-.6 1.9 0 1.8 1.5 3.2 3.2 3.2 1.8 0 3.2-1.5 3.2-3.2.1-1.8-1.3-3.2-3.1-3.2" fill="#2c71ae"/><path d="M136.8 176.8c0 6.6-5.3 11.9-11.9 11.9s-11.9-5.3-11.9-11.9 5.3-11.9 11.9-11.9 11.9 5.3 11.9 11.9" fill="#38ae50"/><path d="M135.1 176.8c0 5.633-4.567 10.2-10.2 10.2s-10.2-4.567-10.2-10.2c0-5.6 4.6-10.2 10.2-10.2s10.2 4.6 10.2 10.2" class="B"/><path d="M128.9 178.9v2h-6.7l8.1-8.1c.2-.1.3-.3.4-.5s.1-.5 0-.8-.3-.5-.5-.5c-.2-.1-.4-.1-.6 0h-9.7c-.5 0-.9.4-.9.9v7.2l4.1-4.1H121v-2h6.6l-8.3 8.3c-.3.3-.3.8-.1 1.1.1.3.5.5.8.5h10.1c.5 0 .9-.4.9-.9v-7.2l-4.1 4.1h2z" fill="#38ae50"/><use xlink:href="#K" x="25.5" fill="#208abe"/><path d="M48.3 89.1c6 0 10.8 4.9 10.8 10.8s-4.9 10.8-10.8 10.8-10.8-4.9-10.8-10.8 4.8-10.8 10.8-10.8" class="B"/><path d="M53.6 102c-.2-.1-.5 0-.6.2-.5 1-1.1 1.6-1.8 2-.6.3-1.4.6-2.4.6h-3c-.4 0-.6-.4-.4-.7l2.3-2.7 1-1.2 4.4-5.3c.1-.1.1-.2.1-.3v-.1c0-.2-.2-.4-.5-.4h-4.1v-1.9h-1v1.9h-2.2v-1c0-.1-.1-.2-.2-.2h-.6c-.1 0-.1 0-.1.1l-.6 1.3-1.2 2.4c-.1.2 0 .5.2.6s.5 0 .6-.2c.3-.5.7-.9 1-1.2.4-.3.9-.6 1.4-.7.59-.133 1.194-.2 1.8-.2H50c.4 0 .6.4.4.7l-1.7 2-6 7.2c-.1.1-.1.2-.1.3v.1c0 .2.2.4.5.4h4.7v1.8h1v-1.8h3.4c.2 0 .4-.1.4-.3l1.2-2.9c.2-.2 0-.4-.2-.5" fill="#208abe"/><path d="M138.5 176.1c.1-.7.2-1.3.4-2 .2-1.1.6-2.1 1.2-3.1l4.8 6.3c.5.7.5.7-.1 1.3-.4.4-.7.8-1.1 1.1a.47.47 0 0 0-.1.6c.6 1 1.3 1.9 2.3 2.6a1.38 1.38 0 0 0 .4.3c-.6.5-1.2 1-1.9 1.4l-1.3.9a.37.37 0 0 1-.3.153c-.078 0-.154-.024-.217-.07-.032-.023-.06-.05-.083-.083-1.8-1.7-3.1-3.7-3.6-6.2-.1-.6-.2-1.2-.4-1.8v-1.4zm12.6-11.2c.7.1 1.3.2 2 .4 1.1.2 2.1.7 3.2 1.3l-7.2 5.2-1.6-1.6c-.2-.3-.5-.3-.8-.1-1.1.6-2 1.5-2.8 2.6-.2-.2-.3-.4-.4-.5l-2-2.6a.37.37 0 0 1-.153-.3c0-.078.024-.154.07-.217.023-.032.05-.06.083-.083 2-2.1 4.4-3.4 7.3-3.9.3 0 .5-.1.8-.1l1.5-.1zm-6.6 22.2l7.2-5.4 1.5 1.7c.3.3.5.3.9.1 1.1-.6 2-1.5 2.7-2.6.4.5.7 1 1.1 1.4l1.2 1.6c.3.3.2.6-.1.9-1.9 2-4.2 3.2-6.9 3.7-2.6.4-5.1 0-7.5-1.3.1 0 0 0-.1-.1m10-16.7l3.2-2.4c.2-.2.4 0 .5.1 1.1 1 2 2.1 2.6 3.4 1 1.9 1.4 3.9 1.3 6-.1 1.8-.6 3.5-1.5 5.2l-1.4-1.8-3.7-4.9c-.2-.2-.2-.4 0-.6.5-.5.9-1 1.4-1.4.2-.2.2-.4.1-.7-.5-1-1.3-1.9-2.2-2.6 0-.1-.1-.2-.3-.3"/><g class="E"><path d="M108 25h-6.4l1.2 2.6h3.3L108 25zm3.2-4.9H99.4l1.2 2.6h8.7l1.9-2.6z" fill="#003750"/><path d="M99.4 12.9L90.2 33h3.5l5.7-13 5.7 13h3.5l-9.2-20.1z" fill="#00ad67"/><path d="M87.2 20.1l1.9 2.6h11.4l-1.2-2.6H87.2zm3.5 4.9l1.9 2.6h10.1l-1.2-2.6H90.7z" fill="#003750"/><path d="M74.3 32.8c3-2.7 3.2-7.3 0-10.1 2.4-1.7 5.9-1.2 7.9 1.2 1.99 2.4 1.86 5.952-.3 8.2-2.3 2.3-5.7 2.1-7.6.7z" fill="#ff9a00"/><path d="M73.4 22.7c-3 2.6-3.2 7.3 0 10.1-1.8 1.4-5.2 1.5-7.5-.7s-2.4-5.8-.4-8.2c2-2.5 5.6-2.8 7.9-1.2z" fill="red"/><path d="M73.8 23c3.1 2.3 3.2 7.1.1 9.5-2.8-1.9-3.4-6.7-.1-9.5z" fill="url(#E)"/><path d="M72.2 19.6h-2l1.2-7.5h2l-1.2 7.5zm-3.6-7.5l-1.9 5.1-.2-1.1-.7-3.4-.8-.7h-3.1v.1s.9.2 2.1.9l1.7 6.6h2l3.1-7.5h-2.2zM84 19.6h1.8l-1.6-7.5h-1.6c-.7 0-.9.6-.9.6l-2.9 6.9h2.1l.4-1.1h2.5l.2 1.1zm-2.1-2.7l1-2.8.6 2.8h-1.6zm-2.9-3l.3-1.6s-.9-.3-1.8-.3c-1 0-3.3.4-3.3 2.5 0 2 2.7 2 2.7 3s-2.4.8-3.2.2l-.3 1.7s.9.4 2.2.4 3.3-.7 3.3-2.6c0-2-2.7-2.1-2.7-3 .1-.9 2-.8 2.8-.3z" fill="#0064b4"/><path d="M66.6 16.1l-.7-3.4s-.1-.7-.9-.7h-3.1v.1s.9.2 1.9.8c.1.1.2.1.3.2l.6.5c.3.2 1 1.1 1.2 1.3l.7 1.2" fill="#ffa000"/><path d="M23.2 54c.9-.9 1.6-2 2-3.3h-.6s-.4 1.1-.7 1.6-.7.9-1.1 1.4c-.9-.8-1.8-2.9-1.8-2.9h-.6c.4 1.3 1.1 2.4 2 3.3h-.1c-.8.7-1.8 1.1-2.8 1.4-.7.2-1.4.2-2.1.2-1.5-.1-2.9-.7-4-1.6A6.95 6.95 0 0 1 11 50c-.1-.6-.2-1.2-.1-1.8.1-1.4.5-2.6 1.3-3.7 1-1.4 2.3-2.3 3.9-2.7.9-.3 1.7-.3 2.6-.3 1.4.1 2.6.6 3.6 1.4.1 0 .1.1.2.2-.9.9-1.6 2-2 3.3h.6s1-2.1 1.8-2.9a7.55 7.55 0 0 1 1.1 1.4c.3.5.7 1.6.7 1.6h.6c-.4-1.3-1.1-2.4-2-3.3l.1-.1c.8-.6 1.6-1 2.6-1.3.7-.2 1.5-.3 2.3-.2 1.8.1 3.3.8 4.5 2 1 1 1.7 2.2 2 3.7.1.6.2 1.2.1 1.9-.1 1.2-.4 2.2-1 3.2-1 1.6-2.4 2.6-4.2 3.1-.7.2-1.4.3-2.1.2a5.42 5.42 0 0 1-2.5-.6c-.8-.3-1.3-.6-1.9-1.1.1.1.1.1 0 0zm-11.1-3.8l.4-2.2c.1.7.1 1.5.2 2.2h.7l1-2.1-.4 2.1h.7l.6-3.2h-1.2l-.9 1.9c0-.6-.1-1.8-.1-1.8H12l-.6 3.1h.7zm21.1-2.3l-.1-.1c-.1-.1-.2-.2-.4-.2h-.4c-.3 0-.6.2-.8.5-.1.2-.2.5-.3.7 0 .2-.1.4 0 .6 0 .2.1.5.3.6.2.2.4.3.6.2.1 0 .3-.1.4-.1h.1c0 .1.1.2.1.2.4 0 .4 0 .8-.1l.6-3.2h-.7a2.45 2.45 0 0 0-.2.9zm-4.7 2.2c.1.1.1.1.2.1h.6l.3-1.3c0-.2.1-.3.1-.5 0-.3-.2-.6-.5-.7h-.8c-.2 0-.4 0-.6.1 0 .2-.1.4-.1.6h.1c.3 0 .6-.1.9-.1h.2c.1 0 .1.1.2.1v.2h-.2c-.3 0-.5 0-.8.1s-.6.3-.7.7c-.1.3 0 .6.3.8.1.1.3.1.5.1-.1-.1.1-.1.3-.2zm-11.3.1l.3-1.4v-.5c0-.3-.2-.5-.4-.6-.1-.1-.3-.1-.4-.1h-.8c-.1 0-.2 0-.3.1 0 .2-.1.4-.1.6.2 0 .4-.1.6-.1h.5c.2 0 .3.2.2.3-.3 0-.6 0-.9.1-.4.1-.6.4-.7.8s.1.7.5.8c.2.1.3 0 .5 0 .1 0 .2-.1.3-.1 0 0 0 .1.1.1h.6zm9.6-.8h-.4c-.4 0-.6-.2-.7-.6v-.6c.2-.4.6-.8 1.2-.6.1 0 .1.1.2.1l.5-.5c-.1-.1-.2-.2-.4-.3-.3-.1-.6-.2-.9-.1-.5.1-.8.3-1.1.7-.3.5-.4 1-.3 1.5.1.6.5 1 1 1.1h.7c.1 0 .3-.1.4-.1-.1-.2-.1-.4-.2-.6zm-3.7-.3c0-.1 0-.1 0 0 .1-.2.1-.5.1-.7 0-.4-.3-.7-.7-.8h-.4c-.3 0-.6.1-.8.3-.4.4-.6.9-.4 1.5.1.4.4.7.9.7h.8c.1 0 .2 0 .3-.1.1 0 .1-.1.1-.1 0-.1 0-.3.1-.4v-.1H22c-.3 0-.4-.3-.3-.6.4.3.9.3 1.4.3zm-3.6-1.4c-.4-.1-.7-.1-1-.1-.1 0-.3.1-.4.1a.78.78 0 0 0-.4.4.45.45 0 0 0 0 .5c0 .2.1.3.3.3h.1c.2.1.3.2.5.3.1 0 .1.1.1.2s-.1.1-.2.2h-.9c0 .2-.1.3-.1.5h.2c.3.1.6.1.9 0h.3c.4-.1.6-.4.6-.9a.55.55 0 0 0-.3-.5c-.2-.1-.3-.2-.5-.3l-.1-.1c-.1-.1 0-.3.1-.3h.6c.1 0 .2-.1.2-.3zm1.2 1.8h-.2c-.1 0-.2-.1-.2-.2v-.1c0-.3.1-.5.1-.7 0-.1 0-.2.1-.3h.4c0-.2.1-.4.1-.6h-.4c0-.2.1-.5.1-.7H20v.1l-.5 2.4v.3c0 .2.1.4.3.4a.78.78 0 0 0 .8-.1c.1-.1.1-.3.1-.5zm9.3-1.9l-.5 2.6h.7v-.1c.1-.3.1-.7.2-1 0-.2.1-.4.2-.6.1-.1.2-.2.4-.2h.1c.1-.2.1-.4.2-.7-.2 0-.4 0-.7.2 0-.1 0-.2-.1-.2H30zm-6.1 2.6c.1-.4.1-.8.2-1.1 0-.2.1-.4.2-.6.1-.1.2-.2.4-.2h.1c.1-.2.1-.4.2-.7-.3 0-.5.1-.7.2 0-.1 0-.2-.1-.2h-.6l-.5 2.6h.8z" fill="url(#F)"/><g class="B"><path d="M23.2 48.4c0-.4-.3-.7-.7-.8h-.4c-.3 0-.6.1-.8.3-.4.4-.6.9-.4 1.5.1.4.4.7.9.7h.8c.1 0 .2 0 .3-.1.1 0 .1-.1.1-.1 0-.1 0-.3.1-.4v-.1H22c-.3 0-.4-.3-.3-.6h1.5v-.4zm-.7.2h-.9c0-.2.1-.3.3-.4.1-.1.2-.1.3-.1.2 0 .2.1.3.3v.2z"/><path d="M20.5 49.5c-.1 0-.2-.1-.2-.2v-.1c0-.3.1-.5.1-.7 0-.1 0-.2.1-.3h.4c0-.2.1-.4.1-.6h-.4c0-.2.1-.5.1-.7H20v.1l-.5 2.4v.3c0 .2.1.4.3.4a.78.78 0 0 0 .8-.1v-.5h-.1zm-3-1.2c0-.3-.2-.5-.4-.6-.1-.1-.3-.1-.4-.1h-.8c-.1 0-.2 0-.3.1 0 .2-.1.4-.1.6.2 0 .4-.1.6-.1h.5c.2 0 .3.2.2.3-.3 0-.6 0-.9.1-.4.1-.6.4-.7.8s.1.7.5.8c.2.1.3 0 .5 0 .1 0 .2-.1.3-.1 0 0 0 .1.1.1h.7v-.1l.3-1.4c-.1-.1-.1-.3-.1-.4zm-1 1.1c0 .1-.1.1-.1.2-.1.1-.3.1-.4.1-.2 0-.2-.2-.2-.3a.55.55 0 0 1 .5-.3h.3c0 .1 0 .2-.1.3z"/><path d="M19.2 48.8c-.2-.1-.3-.2-.5-.3l-.1-.1c-.1-.1 0-.3.1-.3h.6c0-.2.1-.3.2-.5h-.1c-.3-.1-.6-.1-.9 0-.1 0-.3.1-.4.1a.78.78 0 0 0-.4.4.45.45 0 0 0 0 .5c0 .2.1.3.3.3h.1c.2.1.3.2.5.3.1 0 .1.1.1.2s-.1.1-.2.2h-.9c0 .2-.1.3-.1.5h.2c.3.1.6.1.9 0h.3c.4-.1.6-.4.6-.9-.1-.1-.1-.2-.3-.4zm-5-1.7l-.9 1.9c0-.6-.1-1.8-.1-1.8H12l-.6 3.1h.7l.4-2.2c.1.7.1 1.5.2 2.2h.7l1-2.1-.4 2.1h.7l.6-3.2h-1.1zm10.1.7c0-.1 0-.2-.1-.2h-.6l-.5 2.6h.7c.1-.3.1-.7.2-1.1 0-.2.1-.4.2-.6.1-.1.2-.2.4-.2h.1c.1-.2.1-.4.2-.7-.2 0-.4.1-.6.2zm5.3.6c0-.3-.2-.6-.5-.7h-.8c-.2 0-.4 0-.6.1 0 .2-.1.4-.1.6h.1c.3 0 .6-.1.9-.1h.2c.1 0 .1.1.2.1v.2h-.2c-.3 0-.5 0-.8.1s-.6.3-.7.7c-.1.3 0 .6.3.8.1.1.3.1.5.1s.4 0 .6-.2v.1c0 .1.1.1.2.1h.6l.3-1.3c-.2-.3-.2-.5-.2-.6zm-1 .9c0 .1-.1.2-.1.2-.1.1-.3.2-.4.1-.2 0-.2-.2-.2-.3s.1-.2.3-.3a.45.45 0 0 1 .5 0c0 .1 0 .2-.1.3zm4.6-1.4l-.1-.1c-.1-.1-.2-.2-.4-.2h-.4c-.3 0-.6.2-.8.5-.1.2-.2.5-.3.7 0 .2-.1.4 0 .6 0 .2.1.5.3.6.2.2.4.3.6.2.1 0 .3-.1.4-.1h.1c0 .1.1.2.1.2.4 0 .4 0 .8-.1l.6-3.2h-.7a2.45 2.45 0 0 0-.2.9zm-.5 1.4s0 .1 0 0c-.3.3-.6.2-.7-.1v-.3c0-.2.1-.4.3-.6.1-.1.2-.1.3-.1.2 0 .3 0 .3.2 0 .1 0 .2.1.3 0 .2-.1.4-.3.6z"/><path d="M31.4 47.6c-.2 0-.4 0-.7.2 0-.1 0-.2-.1-.2H30l-.5 2.6h.7v-.1c.1-.3.1-.7.2-1 0-.2.1-.4.2-.6.1-.1.2-.2.4-.2h.1c.2-.3.2-.5.3-.7zm-4.5.1c.1 0 .1.1.2.1l.5-.5c-.1-.1-.2-.2-.4-.3-.3-.1-.6-.2-.9-.1-.5.1-.8.3-1.1.7-.3.5-.4 1-.3 1.5.1.6.5 1 1 1.1h.7c.1 0 .3-.1.4-.1-.1-.2-.1-.4-.2-.6h-.4c-.4 0-.6-.2-.7-.6v-.6c.2-.4.6-.8 1.2-.6z"/></g><path d="M16 49.7c.2 0 .3 0 .4-.1.1 0 .1-.1.1-.2s0-.2.1-.3h-.3a.55.55 0 0 0-.5.3c0 .1 0 .2.2.3z" fill="red"/><path d="M22.5 48.4c0-.2-.1-.2-.3-.3-.1 0-.3 0-.3.1-.2.1-.2.2-.3.4h.9v-.2z" fill="#ff5607"/><path d="M28.1 49.7c.2 0 .3 0 .4-.1s.1-.1.1-.2v-.3c-.2 0-.4-.1-.5 0-.1 0-.2.1-.3.3 0 .1.1.2.3.3z" fill="#ffa931"/><path d="M32.7 49.4s0-.1 0 0c.2-.2.3-.4.3-.7 0-.1 0-.2-.1-.3 0-.1-.2-.2-.3-.2s-.2.1-.3.1c-.2.2-.3.3-.3.6v.3c.1.3.4.4.7.2z" fill="#ffab00"/></g><path d="M120.6 22.2l-1.5 4.8h-1.8l-1.5-4.8c0-.1-.1-.1-.2-.1s-.2.1-.2.2v4.9h-2.6v-8.4h2.9c.5 0 1 .4 1.1.8l1.2 4.1c.1.2.2.2.2 0l1.2-4.1c.1-.4.6-.8 1.1-.8h2.9v8.3h-2.6v-4.9c0-.1-.1-.2-.2-.2.1 0 0 .1 0 .2z" fill="#00b743"/><path d="M128.1 18.7c.2 2 2 3.5 4.2 3.5h4.5v-.6c0-1.6-1.3-2.9-2.9-2.9h-5.8z" fill="#00abea"/><g class="E"><path d="M128.4 27v-4.4h8.4c-.4.8-1 1.4-1.8 1.7l1.8 2.7h-3s0-.1-.1-.2l-1.3-2.1c-.1-.2-.2-.2-.4-.2h-.9V27h-2.7zm-3.8 0v-8.3h2.6V27h-2.6z" fill="#00b743"/><path d="M42.9 10.9h11.6c1.3 0 2.6.3 3.6 1.1 1.1.9 1.8 2 2 3.4.1.5.1 1.1.1 1.6v12.1c0 1.1-.2 2.1-.7 3.1-.8 1.5-2.1 2.3-3.8 2.6-.5.1-1 .1-1.5.1H42c-1.2 0-2.3-.2-3.4-.9-1.5-1-2.2-2.4-2.4-4.1V16.6c0-1.1.2-2.3.8-3.2.9-1.4 2.1-2.2 3.8-2.4.7-.1 1.4-.1 2.1-.1z" fill="url(#G)" transform="matrix(0 -1 1 0 25.3 71.1)"/><path d="M47.1 24.6c1 .1 1.8-.6 1.8-1.7 0-1-.7-1.7-1.6-1.8-1-.1-1.8.6-1.8 1.6-.1 1.1.5 1.8 1.6 1.9zm0-2.6c.5 0 .8.4.8.9s-.3.9-.8.9-.8-.4-.8-.9.4-.9.8-.9zm7.8 2.6c1 0 1.7-.7 1.7-1.8 0-1-.8-1.7-1.8-1.7s-1.7.7-1.7 1.7c.1 1.1.8 1.8 1.8 1.8zm-.7-2.1c.2-.4.5-.6.9-.5s.6.5.6.9a.82.82 0 0 1-.5.8c-.3.1-.6.1-.8 0-.3-.2-.4-.8-.2-1.2zm-13.4 1.8v-1.8c0-.3.3-.5.6-.5s.5.1.5.5v2.2h.9v-2s.3-.5.6-.6c.3 0 .5.1.5.5v2.1h.9v-2.5c0-.5-.3-.7-.8-.8s-.9.2-1.3.5c-.2-.4-.5-.6-.9-.5-.4 0-.7.2-1.1.3v-.3h-.8v3.3h.8c.1-.3.1-.3.1-.4zm9.6-1.7c0-.4.3-.7.8-.7.4 0 .6.2.6.6v1.9h.8v-2.6c0-.4-.3-.7-.7-.8-.5-.1-.9 0-1.2.3-.1 0-.1.1-.2.1v-.3h-.8v3.3h.9c-.2-.5-.2-1.1-.2-1.8z" class="B"/><path d="M23.2 34.6C22 23.9 21.8 23.6 11 22.5V11.2h23.5v23.4H23.2zm-7.3-16.7c7.1.9 11 5.1 12 12 .7 0 1.3-.1 1.9-.1V16H15.9v1.9z" fill="#2abd2a"/></g><path d="M11 25.5h9v9.1h-9z" fill="#211f1f"/><g class="E"><path d="M158.6 27.1c-.4-2.6-1.9-4.1-4.4-4.6.8-.2 1.6-.1 2.4 0 0-.3.1-.5.1-.7 0-3.7-2.6-6.6-5.9-7.1-3.9-.6-7.5 1.9-8.2 5.8-.7 3.8 1.9 7.5 5.7 8.2.5.1 1 .1 1.4.1.2 0 .3-.1.3-.3 0-.6-.1-1.1-.1-1.7 0-.1 0-.2.1-.3.1.1.2.2.2.3.7 1.1 1.6 2.1 2.7 2.8.9.5 1.9.8 3 1 2.5.5 4.6 1.8 6.1 3.8v.1c.1.1.2.3 0 .4-.1 0-.3 0-.4-.1-.8-.7-1.7-1.3-2.6-1.8-1.3-.7-2.6-1-4.1-1-1.1 0-2.3.1-3.4.2-.8 0-1.6.1-2.3.1-3.9-.2-6.8-2-8.8-5.3-.8-1.3-1.2-2.7-1.4-4.3-.589-5.367 3.02-10.369 8.3-11.5.851-.204 1.724-.305 2.6-.3 4.4.1 8.2 2.8 9.7 6.9.6 1.4.8 2.9.7 4.4-.1 1.7-.6 3.2-1.4 4.7-.2.1-.2.2-.3.2zm-3.2 2.5c-.7 0-1.3-.7-1.1-1.3.1-.3.3-.5.7-.4.5.1.8.3 1 .7.1.2.2.5.1.7-.2.2-.4.3-.7.3zm2.5-2.3c0 .1 0 .2-.1.3s-.2.2-.3.1c-.4-.3-.7-.7-.7-1.3 0-.1.1-.3.2-.3s.3 0 .4.1c.3.3.4.7.5 1.1z" fill="#ff9800"/><path d="M92.4 48.4c-.3-.2-.7-.4-1.2-.5-.2 0-.6 0-1.3-.1h-.3c-.1 0-.3 0-.3-.1-.3 0-.3-.2-.3-.4 0-.3.1-.4.2-.5s.4-.1.9-.1c.4 0 .7.1.8.2s.1.3.1.5h1.6v-.3c0-.9-.3-1.4-1.1-1.6-.3-.1-.8-.1-1.5-.1h-1.2c-.4 0-.8.2-1.1.3-.2.1-.3.3-.4.6s-.1.6-.1 1a3.74 3.74 0 0 0 .2 1.2c.2.3.5.5 1.1.6.2 0 .6.1 1.1.1.7 0 1 .1 1.1.1.2.1.3.2.3.5v.3c0 .1-.1.2-.3.3h-1.2c-.2 0-.3 0-.4-.1-.2-.1-.3-.3-.3-.6v-.1h-1.7c0 .5 0 .9.1 1.2.1.4.4.7.9.8.4.1 1 .2 1.9.2.6 0 1 0 1.2-.1.6-.1 1.1-.4 1.2-.9.1-.3.2-.6.2-1.2V49c.1-.1 0-.4-.2-.6z" fill="#002398"/><path d="M105.2 49.1c.1-.3.2-.8.2-1.4s0-1-.1-1.2c-.2-.5-.5-.9-1.1-1-.2-.1-.6-.1-1-.1h-3.3v6.5h1.8v-1.7h2.3c.5-.2.9-.5 1.2-1.1zm-1.7-.9c0 .2-.1.3-.2.3s-.3.1-.6.1h-1.1v-1.9h1.4c.2 0 .4.2.5.3 0 .1.1.3.1.6-.1.3-.1.5-.1.6zm5.7-2.9h-2.7l-2 6.5h1.8l.3-1.2h2.4l.3 1.2h1.8l-1.9-6.5zm-2.1 4.1l.8-2.8.8 2.8h-1.6z" fill="#031087"/><path d="M94.2 47.4h-.8l-.4.9h.9v.6h-.5l-.4.9h1.2c.5 1.2 1.7 2 3.1 2 .7 0 1.3-.2 1.9-.6V50c-.4.5-1 .8-1.7.8-.8 0-1.5-.4-1.9-1H98l.4-.9H95v-.6h3.5l.5-1h-3.7s1.2-1.1 2-1.1c.7 0 1.4.3 1.8.9l.4-.8c-.6-.6-1.4-.9-2.3-.9-1.4 0-3 2-3 2z" fill="#ffb300"/><g fill="#0055a2"><path d="M136.9 48v1.7c-.1.5-.1 1-.3 1.5-.6 2.4-1.7 4.4-3.5 6.1-1.3 1.2-2.8 2.1-4.5 2.6-1 .3-2 .5-3 .5h-1.3c-.4 0-.7-.1-1.1-.1-.8-.1-1.6-.3-2.4-.6-1.9-.7-3.6-1.8-4.9-3.4-.8-.9-1.5-2-1.9-3.1-.6-1.5-1-3-1-4.6 0-.5 0-1 .1-1.5 0-.6.2-1.2.3-1.8.5-1.9 1.5-3.6 2.9-5.1 1.1-1.1 2.3-2 3.7-2.7 1.5-.7 3-1 4.7-1.1.5 0 1 0 1.5.1.6 0 1.2.2 1.8.3 2 .5 3.7 1.5 5.2 2.8 1.3 1.2 2.2 2.5 2.9 4.1.5 1.3.9 2.6.9 4-.2.3-.1.3-.1.3zm-22.8 4.2h21.4c.1 0 .2 0 .2-.1.3-1 .5-1.9.5-3 0-.6 0-1.3-.1-1.9-.1-.7-.2-1.3-.4-2-.1-.2-.1-.2-.2-.2H114c-.1 0-.1 0-.1.1-.3 1-.5 2.1-.5 3.1 0 .6 0 1.2.1 1.8.1.7.2 1.3.4 2 .1.2 0 .2.2.2zm5.1-7.7h5.3c.1 0 .1 0 .1-.1v-3.2c0-.1 0-.1-.1-.1h-3.8c-.1 0-.1 0-.2.1-.3.5-.6 1-.8 1.5s-.4 1.1-.5 1.8zm0 8.2v.1c.3 1.2.7 2.2 1.4 3.2 0 .1.1.1.2.1h3.7c.1 0 .1-.1.1-.1v-3.2c0-.1 0-.1-.1-.1h-5.3zm5.9-11.7v3.3c0 .1 0 .1.1.1h5.2c.1 0 .1 0 .1-.1-.3-1.2-.7-2.2-1.4-3.2 0-.1-.1-.1-.2-.1h-3.8zm5.4 11.7h-5.3c-.1 0-.1 0-.1.1V56c0 .1 0 .1.1.1h3.7c.1 0 .1 0 .2-.1.6-.9 1-1.9 1.3-2.9.1-.1.1-.3.1-.4zm-.7-11.7c0 .1.1.1.1.1a9.57 9.57 0 0 1 1.2 3.2c0 .1 0 .1.2.1h4.3c0-.1-.1-.2-.1-.3a14.35 14.35 0 0 0-1.9-3.1c-.1-.1-.1-.1-.2-.1H130l-.2.1zm-9.9.1s0-.1 0 0h-3.6s-.1 0-.1.1c-.2.2-.3.4-.5.6-.617.83-1.12 1.738-1.5 2.7 0 .1 0 .1.1.1h4.1c.2 0 .2 0 .2-.1.2-.9.5-1.8.9-2.6l.4-.8zm15.6 11.6h-4.3c-.1 0-.1 0-.1.1s0 .2-.1.2c-.3 1.1-.7 2.1-1.2 3 0 0 0 .1-.1.1h3.6c.1 0 .1 0 .2-.1.8-.9 1.4-1.9 1.9-3 0 0 .1-.2.1-.3zm-15.6 3.4c-.6-1.1-1-2.2-1.3-3.3 0-.1 0-.1-.1-.1h-4.3c0 .1 0 .1.1.2.475 1.153 1.115 2.231 1.9 3.2.1.1.1.1.2.1 1.1-.1 2.3-.1 3.5-.1-.1 0 0 0 0 0zm-3.1-15.7h3.4s.1 0 .1-.1c.5-.7 1-1.3 1.6-1.8.5-.5 1-.9 1.6-1.3 0 0 .1 0 .1-.1-1.3.1-2.5.5-3.6 1-1.2.7-2.3 1.4-3.2 2.3zm16.1.1c-1-1-2.1-1.8-3.3-2.3-1.1-.5-2.2-.8-3.4-.9.1.1.2.1.3.2 1.1.8 2.1 1.8 2.9 3 0 .1.1.1.2.1h3.2c0-.1 0-.1.1-.1zm0 16.2h-3.4s-.1 0-.1.1c-.9 1.2-1.9 2.3-3.2 3.1l-.1.1c1.5-.2 2.9-.6 4.2-1.4 1-.5 1.8-1.1 2.6-1.9zm-9.4 3.2l-.2-.2c-1.1-.8-2.1-1.8-3-3 0-.1-.1-.1-.2-.1h-3.4c2 1.9 4.2 3 6.8 3.3zM121 40.5h3.4c.1 0 .1 0 .1-.1v-3.1c-.6.1-3.3 2.5-3.5 3.2zm4.1-3.3v3.2c0 .1 0 .1.1.1h3.5c-1-1.4-2.2-2.4-3.6-3.3zM121 56.7c1 1.3 2.2 2.4 3.6 3.3v-3.1c0-.1-.1-.1-.1-.1h-3.3c-.1-.1-.1-.1-.2-.1zm4.1 3.3c1.4-.9 2.6-2 3.6-3.3h-3.6V60zM124 46.1h.9c-.3.3-.4.6-.6 1l-1.8 3.4c-.1.1-.1.3-.2.4l-.1.1h-.4c-.1 0-.1 0-.1-.1 0-.5-.1-1-.1-1.5s-.1-.9-.1-1.4v-.1l-.1.1-1.6 2.9c0 .1-.1.1-.2.1h-.2s-.1 0-.1-.1c0-.3-.1-.7-.1-1 0-.4-.1-.7-.1-1.1 0-.3-.1-.6-.1-.9 0-.4-.1-.7-.1-1.1v-.3c0-.2-.1-.4-.2-.5h1.4c-.2.3-.2.6-.2.9s.1.6.1 1c0 .3.1.6.1.9v.4s0-.1.1-.1l1.6-3c.1-.1.1-.2.3-.2s.2 0 .2.2c0 .3 0 .5.1.8 0 .3.1.7.1 1s.1.6.1 1v.3s0-.1.1-.1l1.2-2.4v-.1c.2 0 .3-.2.1-.5zm-5.9.1c-.1.3-.2.6-.2.9v-.2c-.1-.4-.4-.6-.8-.6h-.4a.9.9 0 0 0-.6.6c-.1.3 0 .6.2.8.1.1.3.2.5.3.3.2.6.4.8.6.5.5.5 1.3.1 1.8-.3.4-.7.5-1.1.6-.6.1-1.1 0-1.6-.2-.1 0-.2-.1-.3-.2 0 0-.1-.1 0-.1.1-.3.1-.6.3-.9v.1c0 .1 0 .2.1.3.1.4.5.7.9.7h.5c.6-.1.9-.8.5-1.3-.1-.2-.3-.4-.5-.5-.2-.2-.5-.3-.7-.5-.7-.6-.5-1.7.3-2.1a1.69 1.69 0 0 1 1-.3c.1 0 .5.1 1 .2zm13.3-.1l-.3.8h-.1c-.1-.3-.4-.5-.7-.5h-.6c-.2 0-.3.1-.3.3-.1.2-.1.5-.2.7-.1.3-.2.6-.2.8v.1h1.2c.1 0 .3-.1.3-.2h.1l-.3.9c-.1-.2-.3-.3-.6-.3h-.7c-.1 0-.1 0-.1.1-.2.6-.3 1.2-.5 1.8 0 .2-.1.3.1.5h-1.4a.55.55 0 0 0 .3-.5l1.1-3.8c.1-.3.1-.3 0-.6.9-.1 1.9-.1 2.9-.1z"/><path d="M132.8 51h-1.5c.3-.2.4-.6.5-.9l1-3.6c0-.2 0-.2-.1-.2h-.5c-.3 0-.5.2-.7.4l-.1.1v-.1c.1-.2.2-.5.2-.7 0-.1 0-.1.1-.1h3.6l-.3.9-.1-.1a.82.82 0 0 0-.8-.5h-.2c-.1 0-.1 0-.2.1l-1.1 3.8c0 .1-.1.3-.1.4.2.3.2.4.3.5zm-8.5 0c.3-.2.4-.6.5-.9l.9-3.2c0-.1.1-.3.1-.4v-.3h1.4c-.4.3-.4.7-.5 1.1l-.9 3.1c0 .1-.1.3-.1.4v.4c-.5-.2-.9-.2-1.4-.2z"/></g><path d="M46.7 52.4h-2l1.2-7.5h2l-1.2 7.5zm-3.6-7.5L41.2 50l-.2-1.1-.7-3.4-.9-.7h-3.1v.1s.9.2 2.1.9l1.7 6.6h2.1l3.1-7.6-2.2.1zm15.4 7.5h1.8l-1.6-7.5h-1.6c-.7 0-.9.6-.9.6l-2.9 6.9h2.1l.4-1.1h2.5l.2 1.1zm-2.2-2.7l1-2.8.6 2.8h-1.6zm-2.8-3.1l.3-1.6s-.9-.3-1.8-.3c-1 0-3.3.4-3.3 2.5 0 1.9 2.7 2 2.7 3s-2.4.8-3.2.2l-.3 1.7s.9.4 2.2.4 3.3-.7 3.3-2.6c0-2-2.7-2.1-2.7-3 0-.8 1.9-.7 2.8-.3z" fill="#0064b4"/><path d="M41 48.9l-.7-3.4s-.1-.7-.9-.7h-3.1v.1s.9.2 1.9.8c.1.1.2.1.3.2l.6.5c.3.2 1 1.1 1.2 1.4l.7 1.1" fill="#ffa000"/><path d="M175.3 34.9l-1.8-.3c-4.8-.9-8.6-5-9.3-9.8-1-6.2 3-11.9 8.6-13.3 3.1-.8 6-.4 8.7 1 .1 0 .1.1.2.2l-.5.5c-.2.1-.3.3-.4.4-.6-.5-1.1-1.1-1.7-1.6l-2.8 2.5c-.6-.6-1.1-1.2-1.7-1.8l-5.3 4.7 3.3 3.7c-.4.4-.8.7-1.3 1.1l3.3 3.7c-.3.3-.7.6-1 .9-.2.1-.3.2-.1.5l4.6 5.1c.9-.9 1.8-1.7 2.8-2.6.8.9 1.5 1.8 2.3 2.6l-.3.3c-1.8 1.3-3.8 2.1-6 2.3-.2 0-.3.1-.5.1-.3-.2-.7-.2-1.1-.2zm1.7-17.4l-2.8 2.5-2.5-2.8 2.8-2.5c.78.98 1.615 1.914 2.5 2.8zm-.5 2.1c.8 1 1.6 1.8 2.5 2.8l-2.8 2.5-2.5-2.8c.98-.78 1.914-1.615 2.8-2.5zm2 5l2.5 2.8-2.8 2.5-2.3-2.6c-.1-.1 0-.3 0-.4l2.6-2.3zm-1.6-8.7l2-1.8 1.8 2.1c-.7.6-1.3 1.2-2 1.9-.5-.8-1.1-1.5-1.8-2.2zm7.7 9l-2 1.8-1.8-2.1 2-1.8c.6.8 1.2 1.4 1.8 2.1zm-2 4.1l2-1.8 1.8 2.1c-.7.6-1.3 1.2-2 1.9l-1.8-2.2zm.2-8.6l-2 1.8-1.8-2c.7-.6 1.3-1.2 2-1.9.5.7 1.2 1.4 1.8 2.1zm5 3.1l-1.4 1.2c-.4-.5-.8-.9-1.2-1.3.5-.4.9-.8 1.3-1.2.5.4.9.8 1.3 1.3zm-4.8-9.8l1.2 1.4c-.5.4-.9.8-1.3 1.2-.4-.5-.8-.9-1.2-1.3.4-.5.8-.9 1.3-1.3zm.5 5.4c.5-.4.9-.8 1.3-1.2l1.2 1.3c-.5.4-.9.8-1.3 1.2l-1.2-1.3z" fill="#0085d3"/><path d="M79.2 36.8c.2.1.2.3.2.5v22.5c0 .5 0 .5-.5.5h-1.4c-.5 0-.5 0-.5-.5v-7.9c0-.3-.1-.4-.4-.4h-.9a.55.55 0 0 0-.5.3l-4.1 8.1c-.1.3-.3.4-.6.4h-1.9c-.2 0-.3-.1-.5-.1V60l.1-.1 4.7-8.4c0-.1.1-.2.1-.3-.1-.1-.3-.1-.4-.2-1.7-.8-2.8-2.1-3.3-3.9a9.99 9.99 0 0 1 .6-6.8c.8-1.7 2.1-2.8 4-3.2.4-.1.8-.1 1.1-.2l4.2-.1zm-2.2 2c-.7 0-1.5-.1-2.2 0-1.3.2-2.1 1-2.6 2.1-.9 2-.9 4.1-.2 6.2.4 1.2 1.3 2.1 2.6 2.4.6.1 1.3.1 1.9.1.4 0 .4 0 .4-.4V39.1c.1 0 .1-.1.1-.3z" fill="red"/><path d="M146.6 38.9l-8.2 4.8v5.4l15.7 9.1 8.2-4.8V48l-15.7-9.1z" fill="#7bcc92"/><path d="M162.4 48v5.4l-8.2 4.8v-5.4l8.2-4.8z" fill="#65c27c"/><path d="M154.1 52.8v5.4l-15.7-9.1v-5.4l15.7 9.1zm8.3-4.8l-8.2 4.8-15.7-9.1 8.2-4.8 15.7 9.1z" fill="#7bcc92"/><g class="D"><path d="M147.5 40s-.1.1-.2.1V40h.2zm-.3.2s0-.1 0 0z"/><path d="M147.2 40.2c0-.1 0-.1 0 0 0-.1 0 0 0 0z"/><path d="M146 40.2c-.1 0-.1-.1-.2-.1V40c.1 0 .1.1.2.2.3.1.8.1 1.2 0-.4.2-.9.1-1.2 0z"/></g><path d="M140.6 43.7c0-.1-.1-.2-.3-.3-.1 0-.1-.1-.2-.1v-.1c.1 0 .2.1.2.1.2.2.3.3.3.4z" class="C"/><path d="M154 43.8l-6.6-3.7V40l6.6 3.8z" class="D"/><path d="M146.8 48l-6.6-3.7v-.1l6.6 3.8z" class="C"/><path d="M140.6 43.7c0 .2-.1.3-.3.4-.1 0-.1.1-.2.1v-.1c.1 0 .1 0 .2-.1.2 0 .3-.1.3-.3z" class="D"/><path d="M145.2 45.9c0-.8.5-1.6 1.5-2.2v.1c-1 .6-1.5 1.4-1.5 2.1z" class="C"/><path d="M146.8 48.1c-1-.6-1.5-1.4-1.5-2.1v-.1c-.1.7.4 1.5 1.5 2.2 0-.1 0-.1 0 0z" class="D"/><path d="M154 43.8c-2-1.1-5.3-1.1-7.3.1v-.1c2-1.2 5.3-1.2 7.3 0z" class="C"/><path d="M160.6 47.6l-6.6-3.7v-.1l6.6 3.8z" class="D"/><path d="M155.6 45.9c0-.7-.5-1.5-1.5-2.1v-.1c1 .6 1.5 1.4 1.5 2.2z" class="C"/><path d="M155.6 46c0 .8-.5 1.5-1.5 2.1V48c1-.6 1.5-1.3 1.5-2 0-.1 0-.1 0 0z" class="D"/><path d="M160.2 48.1c0-.2.1-.3.3-.4.1 0 .1-.1.2-.1v.1c-.1 0-.1 0-.2.1-.2 0-.3.2-.3.3zm-6.9 3.7l-6.6-3.7V48l6.6 3.8z" class="C"/><g class="D"><path d="M153.3 48.4c-2 .8-4.8.7-6.6-.4 1.8 1 4.6 1.2 6.6.4z"/><path d="M146.8 48.1c0-.1 0 0 0 0zm7.3 0c-.2.1-.5.3-.8.4v-.1c.3-.2.5-.3.8-.3 0-.1 0-.1 0 0z"/><path d="M160.2 48.1c0 .1.1.2.3.3.1 0 .1.1.2.1v.1c-.1 0-.2-.1-.2-.1-.2-.1-.3-.3-.3-.4zm-12.3.5c-.4-.1-.8-.3-1.2-.5V48l1.2.6c0-.1 0 0 0 0z"/><path d="M147.9 48.6s0-.1 0 0c0-.1.1-.1 0 0 .1-.1.1 0 0 0zm.1 0s0-.1 0 0c0-.1 0 0 0 0z"/><path d="M148 48.6s0-.1 0 0c.4.1.8.2 1.3.2v.1l-1.3-.3z"/><path d="M149.3 48.9s0-.1 0 0c0-.1 0-.1 0 0z"/><path d="M149.3 48.9s0-.1 0 0c0-.1 0 0 0 0zm.1 0c0-.1 0 0 0 0z"/><path d="M149.4 48.9c0-.1 0-.1 0 0 0-.1 0 0 0 0zm1.9 0h-.2v-.1c.1.1.1 0 .2.1z"/><path d="M150.9 48.9c.1-.1.1-.1.2-.1v.1h-.2zm-1 0h-.6v-.1c.3 0 .5.1.6.1z"/><path d="M154 43.8c2 1.2 2 3.1 0 4.2-.2.1-.5.3-.8.4-2 .8-4.8.7-6.6-.4-2-1.2-2-3.1 0-4.2 2.1-1.2 5.4-1.2 7.4 0z"/></g><path d="M155 51.8s-.1 0-.2-.1c-.4-.2-.9-.2-1.3 0-.1 0-.1.1-.2.1v-.1s.1-.1.2-.1c.4-.2.9-.2 1.3 0 .1.1.1.2.2.2z" class="C"/><path d="M146.6 38.9l15.7 9.1-8.2 4.8-15.7-9.1 8.2-4.8zm8.4 12.9l5.7-3.3c-.1 0-.2-.1-.2-.1-.4-.2-.4-.5 0-.8.1 0 .1-.1.2-.1l-13.2-7.6s-.1.1-.2.1c-.4.2-.9.2-1.3 0-.1 0-.1-.1-.2-.1l-5.7 3.3c.1 0 .2.1.2.1.4.2.4.5 0 .8-.1 0-.1.1-.2.1l6.6 3.8c.7.4 1.6.7 2.6.8-.9-.1-1.8-.4-2.6-.8l6.6 3.8s.1-.1.2-.1c.4-.2.9-.2 1.3 0 .1 0 .1.1.2.1z" class="D"/><path d="M154 43.8c-2-1.2-5.3-1.2-7.3 0s-2 3.1 0 4.2l-6.6-3.8c.1 0 .1 0 .2-.1.4-.2.4-.5 0-.8-.1 0-.1-.1-.2-.1l5.7-3.3s.1.1.2.1c.4.2.9.2 1.3 0 .1 0 .1-.1.2-.1l6.5 3.9z" class="C"/><path d="M145.8 39.9l-5.7 3.3h.1l5.6-3.3zm5.5 8.9h-.4c.1.1.2.1.4 0z" class="D"/><g class="C"><path d="M160.6 48.5l-5.7 3.4v-.1l5.7-3.3z"/><path d="M160.6 47.6c-.1 0-.1 0-.2.1-.4.2-.4.5 0 .8.1 0 .1.1.2.1l-5.7 3.3s-.1-.1-.2-.1c-.4-.2-.9-.2-1.3 0-.1 0-.1.1-.2.1l-6.6-3.8c1.8 1 4.6 1.2 6.6.4.3-.1.5-.2.8-.4 2-1.2 2-3.1 0-4.2l6.6 3.7z"/></g><g fill="#65c27c"><path d="M138.4 46.5l15.8 9.1v-.1l-15.8-9z"/><use xlink:href="#N"/><path d="M138.4 46.9l15.8 9.1v-.1l-15.8-9z"/><use xlink:href="#N" y="0.4"/><path d="M154.1 58l-15.7-9.1v.1l15.7 9z"/><use xlink:href="#N" y="1.4"/><use xlink:href="#N" y="1.1"/><use xlink:href="#N" y="0.7"/><use xlink:href="#N" y="-2.9"/><use xlink:href="#N" y="-2.5"/><use xlink:href="#N" y="-1.1"/><path d="M138.4 43.9l15.7 9.2V53l-15.7-9.1z"/><use xlink:href="#N" y="-1.4"/><use xlink:href="#N" y="-2.1"/><use xlink:href="#N" y="-1.8"/></g><g class="C"><path d="M154.1 56.6l8.3-4.7v-.1l-8.3 4.8z"/><use xlink:href="#O"/><path d="M154.1 56.9l8.3-4.7v-.1l-8.3 4.8zm0-1.1l8.2-4.7V51l-8.2 4.8zm0 2.3l8.2-4.8v-.1l-8.2 4.9zm0-.5l8.3-4.7v-.1l-8.3 4.8zm0-.3l8.3-4.7v-.1l-8.3 4.8z"/><use xlink:href="#O" y="-1.1"/><use xlink:href="#O" y="-2.5"/><use xlink:href="#O" y="-2.9"/><use xlink:href="#O" y="-3.2"/><path d="M154.1 54.8l8.2-4.7V50l-8.2 4.8z"/><use xlink:href="#O" y="-0.7"/><use xlink:href="#O" y="-2.1"/><use xlink:href="#O" y="-1.8"/></g><path d="M151.5 41.7l-8.3 4.8v5.4l3.5 2v-5.4l8.3-4.8-3.5-2z" fill="#e0e0e2"/><path d="M146.6 48.5l-3.5-2v5.4l3.5 2v-5.4z" fill="#d8d8da"/><path d="M31.193 149.1l-3.5 1.5-9.2 4.7 9.2 4.4v-7.3l3.5-1.6v10.8l-3.5 1.5-13.5-6.5v-3.4l9.3-4.6-9.3-4.5v-3.5l3.5-1.5 13.4 6.5v3.5h.1z" fill="#49c1bf"/><path d="M14.293 140.8l13.5 6.5 3.5-1.5-13.4-6.5-3.6 1.5z" fill="#077a8f"/><path d="M27.795 147.235l3.5-1.5v3.4l-3.5 1.5v-3.4z" fill="#298e97"/><path d="M14.293 140.756v3.5l9.3 4.5-9.3 4.6v3.4l13.5 6.5v-3.5l-9.2-4.4 9.2-4.7v-3.4l-13.5-6.5z" fill="#49c1bf"/><path d="M27.795 163.2l3.5-1.5v-10.8l-3.5 1.6v10.7z" fill="#298e97"/><path d="M56.1 154c-.1-.8-.2-1.6-.5-2.4-.2-.7-.5-1.4-.9-2.1-.1-.1-.1-.2-.3-.2-.1 0-.1.1-.2.2l-.3.8c-.3.8-.7 1.6-1.2 2.3-.8 1.2-1.8 2.2-2.7 3.2-.6.6-1.1 1.1-1.6 1.8-.8 1-1.3 2.1-1.5 3.3l-.3.8c-.2.3-.5.5-.8.7-.1.1-.2.1-.2.2s.1.2.2.2.2.1.3.1c.4.1.8.2 1.3.2.6.1 1.3 0 1.9 0 .8-.1 1.6-.4 2.4-.7.9-.4 1.6-1 2.3-1.7.6-.7 1.1-1.4 1.5-2.3.392-1.056.595-2.173.6-3.3V154z" fill="#009de2"/><path d="M40.4 155.6c0-2 .6-3.7 1.7-5.1.3-.4.7-.7 1.1-1.1l.9-.9c.9-1 1.6-2 2.3-3.1.3-.5.5-1.1.7-1.7.2-.7.3-1.4.4-2.1.1-.5.1-1.1.1-1.6v-.4c0-.1 0-.2.1-.3s.2 0 .2.1c.2.2.5.4.7.7.9.9 1.6 2 2.1 3.1.5 1 .8 2 .9 3.1 0 .3.1.7.1 1 0 .8-.2 1.5-.6 2.1-.6 1-1.4 1.9-2.2 2.6l-.9.9c-.6.7-1.2 1.3-1.6 2.1-.8 1.1-1.4 2.3-1.9 3.6-.312.818-.58 1.653-.8 2.5-.1.3-.2.3-.4.1-.5-.4-.9-.9-1.2-1.4-.7-.9-1.1-2-1.3-3.1-.3-.4-.3-.8-.4-1.1z" fill="#272d5e"/></g><path d="M73.8 139.2c-6.575.022-11.978 5.425-12 12 .022 6.575 5.425 11.978 12 12 6.575-.022 11.978-5.425 12-12-.022-6.575-5.425-11.978-12-12zm3.2 17.2l-1.2-4.3-2.5 4.3h-1.9l3.8-6.7-.6-2.3-5.1 9.1h-1.9l6.5-11.5h1.6l.8 2.9h1.7L77 150l1.7 6.5H77v-.1z" fill="#193544"/><g class="E"><path d="M110.9 148.8c-.2-.8-.4-1.5-.7-2.3-.306-.698-.675-1.367-1.1-2a11.91 11.91 0 0 0-1.5-1.8c-.6-.6-1.1-1-1.8-1.5-.633-.425-1.302-.794-2-1.1-.7-.3-1.5-.5-2.3-.7s-1.6-.2-2.4-.2-1.6.1-2.4.3-1.5.4-2.3.7c-.698.306-1.367.675-2 1.1a11.91 11.91 0 0 0-1.8 1.5c-.6.6-1 1.1-1.5 1.8-.425.633-.794 1.302-1.1 2-.3.7-.5 1.5-.7 2.3s-.2 1.6-.2 2.4.1 1.6.2 2.4c.2.8.4 1.5.7 2.3.306.698.675 1.367 1.1 2a11.91 11.91 0 0 0 1.5 1.8c.6.6 1.1 1 1.8 1.5s1.3.8 2 1.1 1.5.5 2.3.7 1.6.2 2.4.2 1.6-.1 2.4-.2l2.3-.7c.698-.306 1.367-.675 2-1.1a11.91 11.91 0 0 0 1.8-1.5c.6-.6 1-1.1 1.5-1.8.425-.633.794-1.302 1.1-2 .3-.7.5-1.5.7-2.3s.2-1.6.2-2.4c.1-.9 0-1.7-.2-2.5zm-11.7 12.9c-5.76 0-10.5-4.74-10.5-10.5s4.74-10.5 10.5-10.5 10.5 4.74 10.5 10.5-4.74 10.5-10.5 10.5zm.2-.9h1.1c.1 0 .2 0 .3-.1h.1c.1 0 .2 0 .3-.1-1.2 0-2.1-.1-2.7-.3-1.4-.3-2.6-.8-3.7-1.7-1.8-1.5-2.8-3.7-2.7-5.9 0-1.6.6-3.2 1.7-4.6 1.4-1.7 3.4-2.5 5.4-2.6h.3v-1.6h-.3c-.6 0-1.2.1-1.8.2s-1.2.3-1.8.6-1.1.6-1.6 1-1 .8-1.4 1.4c-.4.5-.7 1-1 1.5s-.5 1.1-.7 1.6c-.2.6-.3 1.1-.3 1.7v.8c0 .6.1 1.2.2 1.8s.3 1.2.6 1.8c.3.7.9 1.7 1.7 2.4 1.6 1.3 3.7 2 5.9 2h.4v.1z"/><path d="M102.1 159.2c-.6 0-1.3-.1-1.8-.2-2.5-.5-4.7-2-5.5-4.3-1-2.8.5-5.9 3.3-6.9.6-.2 1.1-.3 1.7-.3.7 0 1.5.1 2.1.4l.7-1.5c-.2-.1-.4-.2-.6-.2-.7-.2-1.4-.3-2.2-.3s-1.5.1-2.2.4c-.9.3-1.7.8-2.4 1.4-.3.3-.7.6-.9 1s-.5.7-.7 1.1-.4.8-.5 1.3c-.1.4-.2.9-.2 1.3-.1.9.1 1.9.4 2.8.304.907.818 1.729 1.5 2.4.6.7 1.3 1.1 2.2 1.6s2 .7 3.1.9c.7.1 1.7.1 2.3.1l1-.4c.2-.1.5-.2.7-.4s.3-.2.7-.4c0 0 .1 0 .1-.1-1.5.3-1.9.3-2.8.3z"/><path d="M105.1 157.4c-.4 0-.9.1-1.5.1-1.1 0-2.4-.1-3.6-.5-1.8-.6-3.4-2.1-3.4-4v-.03c.021-1.829 1.511-3.333 3.34-3.37h.06c1.3 0 2.4.7 2.9 1.7l1.5-.7c-.2-.4-.5-.8-.9-1.2-.5-.5-1-.8-1.6-1.1s-1.3-.4-1.9-.4-1.3.1-1.9.4c-.6.2-1.1.6-1.6 1.1s-.8 1-1.1 1.6-.4 1.3-.4 1.9.1 1.4.4 2 .6 1.1 1.1 1.6c.8.9 1.9 1.5 3.1 1.9 1.1.4 2.8.5 4.4.4.4 0 .8-.1 1.3-.2.5-.4 1-.9 1.5-1.5-.5.2-1.2.3-1.7.3z"/><path d="M112.9 139.9l19.5 19.5c-1.8 1.8-3.9 2.9-6.4 3.2-5.9.7-10.9-2.4-12.7-8.1-.3-1-.4-2.1-.5-3.2-.1-3.7 0-7.5 0-11.2.1 0 .1-.1.1-.2zm24 22.3V151c0-3.1-1.2-5.8-3.4-7.9-3.6-3.5-7.8-4.2-12.5-2.5-1.4.5-2.7 1.4-3.8 2.5l19.6 19.5c0-.2.1-.3.1-.4z" fill="#00a9c2"/></g><circle cx="150.4" cy="151.2" r="12" fill="#94e400"/><g class="E"><path d="M144 145.8h2.9v-2.4l-.6-.6v-.6h1.9c.2.1.4.2.7.3v3.2h7.4l.7.7-4.5 4.5c.1 0 .3-.1.4-.1.4-.1.9-.1 1.3.1.7.2 1.3.5 1.8 1a4.32 4.32 0 0 1 1.2 2.2c.1.5.2.9.2 1.4 0 .8-.2 1.6-.6 2.3-.4.9-1.1 1.5-2 1.8-.8.3-1.6.4-2.5.4-.5 0-1-.1-1.5-.3-1.1-.4-1.8-1.6-1.8-2.7 0-.5.2-.8.6-1.1.2-.1.5-.1.8-.1.6.1 1.1.5 1.1 1.2a1.69 1.69 0 0 1-.3 1c-.1.1-.3.2-.4.3l.2.2c.2.2.5.3.8.3.5.1 1 .2 1.5.1.9-.2 1.5-.7 1.9-1.6.3-.7.3-1.3.3-2 0-.6-.1-1.2-.3-1.8-.2-.5-.4-.9-.8-1.2-.6-.4-1.2-.6-1.9-.5-.3 0-.6.2-.9.3-.3.2-.6.3-.9.5v-.5l3.9-5.3s0-.1.1-.1h-5.6v5.6c0 .3 0 .6.2.9.2.5.7.7 1.2.7.3 0 .6-.2.9-.4s.5-.5.7-.8c.1-.2.4-.2.5 0 .1.1.1.3.1.4 0 .3-.2.6-.4.9-.5.7-1.2 1-2 1-.5 0-.9 0-1.3-.1-1-.2-1.6-.9-1.8-1.9 0-.2-.1-.5-.1-.7v-5.6h-2.9c-.2-.2-.2-.5-.2-.9z"/><path d="M172.5 149.5c-1 0-1.8.2-1.7 1.7 0 .7-.4 1.3-1.1 1.6-.6.2-1.3.2-1.9-.4-.5-.5-.6-1.2-.4-1.9.3-.7.8-1 1.5-1.1.3 0 .6 0 .9-.1.6-.1.9-.5.9-1.3 0-1.2.4-1.7 1.2-2 1-.3 2 .3 2.2 1.4.2 1.8.2 1.8 2 2 .9.1 1.5.8 1.4 1.7 0 .9-.6 1.6-1.5 1.6-1 .1-1.7-.5-1.9-1.4 0-.1 0-.3-.1-.4.1-1.1-.2-1.3-1.5-1.4zm15.3-2.4c-.3-.7-1.1-1.1-1.9-1-.8.2-1.4.8-1.4 1.7 0 1.4-.2 1.6-1.6 1.8h-.3c-.6 0-1 .3-1.3.9-.2.3-.2.8-.2 1.1-.1 1-.4 1.3-1.4 1.4h-.4c-1 .1-1.7.8-1.6 1.8 0 1 .7 1.7 1.7 1.7.9 0 1.7-.7 1.8-1.7.1-1.4.4-1.7 1.7-1.7.9-.1 1.6-.7 1.7-1.6.1-1.5.3-1.7 1.8-1.8 1-.1 1.6-.7 1.6-1.9-.1-.3-.1-.5-.2-.7zm-22.2 5.8c-1 0-1.7.7-1.7 1.8 0 .9.7 1.7 1.6 1.7 1 0 1.8-.7 1.8-1.7s-.7-1.8-1.7-1.8z" fill="#2e90e9"/></g><path d="M35.06 203c0 6.627-5.373 12-12 12s-12-5.373-12-12 5.373-12 12-12 12 5.373 12 12" fill="#103f68"/><path d="M15.492 198.606v8.788l7.61 4.394 7.61-4.394v-8.788l-7.61-4.394-7.61 4.394z" class="B"/><path d="M16.214 199.023v7.954l6.888 3.977 6.889-3.977v-7.954l-6.889-3.977-6.888 3.977z" fill="#103f68"/><path d="M25.553 198.483h-5.19l-.577 2.619h6.44l-.673-2.619zm-4.181 4.493l-1.586-.961-1.706 1.322 2.355 4.181h.913l1.201-1.009v-.577l-1.177-1.081v-1.875zm5.046-.961l-1.586.961v1.874l-1.177 1.081v.577l1.201 1.009h.913l2.355-4.181-1.706-1.322v.001zm-5.062-.489l.577 1.49-.192 1.682h2.643l-.192-1.682.577-1.49h-3.413z" class="B"/><defs><linearGradient id="A" x1="114.6" y1="117.9" x2="135.5" y2="117.9" xlink:href="#P"><stop offset="0" stop-color="#a8d62b"/><stop offset="1" stop-color="#75bb24"/></linearGradient><linearGradient id="B" x1="114.1" y1="127.75" x2="124" y2="127.75" xlink:href="#P"><stop offset="0" stop-color="#a8d62b"/><stop offset="1" stop-color="#75bb24"/></linearGradient><linearGradient id="C" x1="125.6" y1="126.1" x2="135.6" y2="126.1" xlink:href="#P"><stop offset="0" stop-color="#a8d62b"/><stop offset="1" stop-color="#75bb24"/></linearGradient><linearGradient id="D" x1="62.481" y1="176.905" x2="84.95" y2="176.905" xlink:href="#P"><stop offset="0" stop-color="#0098ff"/><stop offset=".11" stop-color="#059df6"/><stop offset=".28" stop-color="#12aadd"/><stop offset=".5" stop-color="#28c0b5"/><stop offset=".75" stop-color="#46de7d"/><stop offset="1" stop-color="#68ff3f"/></linearGradient><linearGradient id="E" x1="71.555" y1="27.75" x2="76.176" y2="27.75" xlink:href="#P"><stop offset="0" stop-color="red"/><stop offset=".48" stop-color="#ff6700"/><stop offset="1" stop-color="#ff9a00"/></linearGradient><linearGradient id="F" x1="10.859" y1="48.62" x2="34.941" y2="48.62" xlink:href="#P"><stop offset="0" stop-color="red"/><stop offset=".32" stop-color="red"/><stop offset=".4" stop-color="#ff2d00"/><stop offset=".51" stop-color="#ff6700"/><stop offset=".59" stop-color="#ff8c00"/><stop offset=".64" stop-color="#ff9a00"/></linearGradient><linearGradient id="G" x1="36.2" y1="22.9" x2="60.2" y2="22.9" xlink:href="#P"><stop offset="0" stop-color="#1c1e23"/><stop offset="1" stop-color="#323742"/></linearGradient><path id="H" d="M102.6 118.3c0 .5.4.9.9.9s.9-.4.9-.9-.4-.9-.9-.9-.9.4-.9.9"/><path id="I" d="M136.9 74.2c-.022 6.618-5.382 11.978-12 12-6.618-.022-11.978-5.382-12-12 .022-6.618 5.382-11.978 12-12 6.618.022 11.978 5.382 12 12"/><path id="J" d="M111.2 99.9c-.022 6.575-5.425 11.978-12 12-6.575-.022-11.978-5.425-12-12 .022-6.575 5.425-11.978 12-12 6.575.022 11.978 5.425 12 12"/><path id="K" d="M22.8 87.9c-6.575.022-11.978 5.425-12 12 .022 6.575 5.425 11.978 12 12 6.575-.022 11.978-5.425 12-12-.022-6.575-5.425-11.978-12-12"/><path id="L" d="M172.1 64.9c0 .384-.316.7-.7.7s-.7-.316-.7-.7.316-.7.7-.7.7.316.7.7"/><path id="M" d="M167.2 74.2c0-.384-.316-.7-.7-.7s-.7.316-.7.7.316.7.7.7.7-.316.7-.7"/><path id="N" d="M138.4 47.2l15.7 9.1v-.1l-15.7-9z"/><path id="O" d="M154.1 56.2l8.2-4.7v-.1l-8.2 4.8z"/><linearGradient id="P" gradientUnits="userSpaceOnUse"/></defs></svg>