<svg xmlns="http://www.w3.org/2000/svg" width="215.9" height="79.6" xmlns:v="https://vecta.io/nano"><path d="M137.7 36.4V34c0-.8-.6-1.4-1.3-1.4h-.1c-.5 0-1 .2-1.3.7-.3-.4-.7-.7-1.2-.7-.4 0-.8.2-1.1.5v-.5h-.8v3.7h.8v-2.1c0-.5.4-.9.9-.9h0c.5 0 .8.3.8 1v2.1h.8v-2.1c0-.5.4-.9.9-.9h0c.6 0 .8.3.8 1v2.1l.8-.1zm12-3.7h-1.3v-1.1h-.8v1.1h-.8v.7h.8v1.7c0 .9.3 1.4 1.3 1.4a1.69 1.69 0 0 0 1-.3l-.2-.7c-.2.1-.5.2-.7.2-.4 0-.5-.2-.5-.6v-1.7h1.3l-.1-.7zm6.9-.1c-.4 0-.8.2-1 .5v-.5h-.8v3.7h.8v-2.1c0-.6.3-1 .8-1a.9.9 0 0 1 .5.1l.2-.8c-.2.1-.4 0-.5.1h0zm-10.4.4c-.5-.3-1-.4-1.5-.4-.9 0-1.5.5-1.5 1.2s.4 1 1.3 1.1l.4.1c.4.1.6.2.6.4s-.3.5-.9.5c-.4 0-.9-.1-1.2-.4l-.4.5c.5.3 1 .5 1.6.5 1.1 0 1.7-.5 1.7-1.2s-.5-1-1.3-1.1h-.4c-.4 0-.6-.1-.6-.4s.3-.4.7-.4.8.1 1.2.3l.3-.7zm21.5-.4c-.4 0-.8.2-1 .5v-.5h-.8v3.7h.8v-2.1c0-.6.3-1 .8-1a.9.9 0 0 1 .5.1l.2-.8c-.1.1-.3 0-.5.1h0zm-10.4 2h0c0 1 .8 1.9 1.9 1.9h.1c.5 0 1-.1 1.3-.4l-.4-.7a1.69 1.69 0 0 1-1 .3c-.7-.1-1.1-.6-1.1-1.3a1.27 1.27 0 0 1 1.1-1.1 1.69 1.69 0 0 1 1 .3l.4-.7c-.4-.3-.8-.5-1.3-.4h-.1c-1 0-1.9.8-1.9 1.9v.2zm7.6 1.8v-3.8h-.8v.4c-.3-.4-.7-.5-1.2-.5-1.1.1-1.9 1-1.8 2.1.1 1 .8 1.7 1.8 1.8.4 0 .9-.2 1.2-.5v.4l.8.1zm-3-1.8a1.11 1.11 0 0 1 1.1-1.1 1.11 1.11 0 0 1 1.1 1.1 1.11 1.11 0 0 1-1.1 1.1h0a1.11 1.11 0 0 1-1.1-1.1h0zm-9.7-2c-1.1 0-1.9.9-1.9 1.9a1.97 1.97 0 0 0 1.9 1.9h0c.5 0 1.1-.2 1.5-.5l-.4-.6c-.3.2-.7.4-1.1.4-.5.1-1-.3-1.1-.9h0 2.7v-.2c.1-1-.5-1.9-1.5-2h-.1zm0 .7h0c.5 0 .9.4.9.9h-1.9c0-.5.5-.9 1-.9h0zm20.1 3v-5.1h-.8v1.9c-.3-.4-.7-.5-1.2-.5-1.1 0-1.9.9-1.9 1.9a1.97 1.97 0 0 0 1.9 1.9c.5 0 .9-.2 1.2-.5v.5l.8-.1zm-3-1.8c.1-.6.6-1 1.2-.9s1 .6.9 1.2c-.1.5-.5.9-1 .9h0c-.6 0-1.1-.5-1.1-1.2h0 0 0zm-27.1 1.8v-3.6h-.8v.5c-.3-.4-.7-.6-1.1-.5-1.1 0-1.9.9-1.9 1.9a1.97 1.97 0 0 0 1.9 1.9c.4 0 .9-.2 1.1-.5v.5l.8-.2zm-3-1.8c0-.6.6-1.1 1.2-1.1s1.1.6 1.1 1.2a1.11 1.11 0 0 1-1.1 1.1h0c-.7 0-1.2-.5-1.2-1.2h0zm34.5 1.3h.1l.1.1.1.1v.3s0 .1-.1.1l-.1.1c-.2.1-.4 0-.5-.2V36c0-.1.1-.2.2-.2h.2 0zm0 .6h.1l.1-.1c.1-.1.1-.3 0-.4l-.1-.1h-.1-.1s-.1 0-.1.1c-.1.1-.1.3 0 .4l.1.1h.1zm0-.4h.1v.1.1h-.1l.1.1h-.1l-.1-.1h0v.1h-.1V36h.2zm-.1.1h0 0 0z"/><path d="M145.9 4.5h12.2v21.9h-12.2z" fill="#ff5f00"/><path d="M146.7 15.5A13.89 13.89 0 0 1 152 4.6c-6-4.7-14.8-3.7-19.5 2.3s-3.7 14.8 2.3 19.5c5 4 12.1 4 17.2 0-3.4-2.6-5.3-6.7-5.3-10.9z" fill="#eb001b"/><path d="M173.2 24.1v-.5h.2v-.1h-.5v.1h.2l.1.5h0zm.9 0v-.5h-.1l-.2.4-.2-.4h-.1v.5h.1v-.4l.1.4h.1l.1-.4v.4h.2zm.4-8.6a13.87 13.87 0 0 1-13.9 13.9c-3.1 0-6.1-1-8.6-3 6-4.7 7.1-13.5 2.3-19.5-.7-.9-1.5-1.6-2.3-2.3C158-.1 166.8.9 171.5 7c2 2.4 3 5.4 3 8.5h0z" fill="#f79e1b"/><path d="M137.7 78v-2.4c0-.8-.6-1.4-1.4-1.4h-.1c-.5 0-1 .2-1.3.7-.3-.4-.7-.7-1.2-.7-.4 0-.8.2-1.1.5v-.4h-.8V78h.8v-2.1c0-.5.4-.9.9-.9h0c.5 0 .8.3.8 1v2h.8v-2.1c0-.5.4-.9.9-.9h0c.6 0 .8.3.8 1v2h.9zm12-3.7h-1.3v-1.1h-.8v1.1h-.8v.7h.8v1.7c0 .9.3 1.4 1.3 1.4a1.69 1.69 0 0 0 1-.3l-.2-.7c-.2.1-.5.2-.7.2-.4 0-.5-.2-.5-.6V75h1.3l-.1-.7zm6.9-.1c-.4 0-.8.2-1 .5v-.4h-.8V78h.8v-2.1c0-.6.3-1 .8-1a.9.9 0 0 1 .5.1l.2-.8h-.5 0zm-10.4.4c-.5-.3-1-.4-1.5-.4-.9 0-1.5.4-1.5 1.2s.4 1 1.3 1.1l.4.1c.4.1.6.2.6.4s-.3.4-.9.4c-.4 0-.9-.1-1.2-.4l-.4.6c.5.3 1 .5 1.6.5 1.1 0 1.7-.5 1.7-1.2s-.5-1-1.3-1.1h-.4c-.4-.1-.6-.1-.6-.4s.3-.4.7-.4.8.1 1.2.3l.3-.7zm21.5-.4c-.4 0-.8.2-1 .5v-.4h-.8V78h.8v-2.1c0-.6.3-1 .8-1a.9.9 0 0 1 .5.1l.2-.8h-.5 0zm-10.3 1.9h0c0 1.1.8 1.9 1.9 1.9h.1c.5 0 1-.1 1.3-.4l-.4-.7a1.69 1.69 0 0 1-1 .3c-.7 0-1.2-.5-1.2-1.2s.5-1.2 1.2-1.2a1.69 1.69 0 0 1 1 .3l.4-.7c-.4-.3-.8-.5-1.3-.4h-.1c-1.1.2-1.9 1-1.9 2.1h0zm7.5 1.9v-3.7h-.8v.4c-.3-.4-.7-.6-1.2-.5-1.1 0-1.9.9-1.9 1.9a1.97 1.97 0 0 0 1.9 1.9h0c.5 0 .9-.2 1.2-.5v.5h.8zm-3-1.8c0-.6.6-1.1 1.2-1.1s1.1.6 1.1 1.2a1.11 1.11 0 0 1-1.1 1.1h0c-.7-.1-1.2-.6-1.2-1.2h0 0 0zm-9.7-2c-1.1.1-1.9 1-1.8 2.1.1 1 .8 1.7 1.8 1.8h0c.6 0 1.1-.2 1.5-.5l-.4-.6c-.3.2-.7.4-1.1.4-.5.1-1-.3-1.1-.9h2.7v-.3c.1-1-.6-1.8-1.6-1.9v-.1h0zm0 .8h0c.5 0 .9.4.9.9h-1.9c0-.6.5-1 1-.9h0zm20.2 3v-5.1h-.8v1.9c-.3-.4-.7-.5-1.2-.5-1.1.1-1.9 1-1.8 2.1.1 1 .8 1.7 1.8 1.8.5 0 .9-.2 1.2-.5v.3h.8zm-3-1.9c0-.6.5-1.1 1.2-1.1.6 0 1.1.5 1.1 1.2h0a1.11 1.11 0 0 1-1.1 1.1h0 0c-.7 0-1.2-.5-1.2-1.2 0 .1 0 0 0 0h0zM142.2 78v-3.7h-.8v.4c-.3-.3-.7-.5-1.1-.5-1.1-.1-2 .7-2.1 1.8s.7 2 1.8 2.1h0 .3c.4 0 .9-.2 1.1-.5v.4h.8zm-3-1.8c0-.6.6-1.1 1.2-1.1s1.1.6 1.1 1.2a1.11 1.11 0 0 1-1.1 1.1h0c-.7-.1-1.2-.5-1.2-1.2h0zm34.5 1.3h.1l.1.1.1.1v.3s0 .1-.1.1l-.1.1c-.2.1-.4 0-.5-.2v-.3l.1-.1.1-.1h.2 0zm0 .6h.1s.1 0 .1-.1c.1-.1.1-.3 0-.4l-.1-.1h-.1 0l-.1.1c-.1.2-.1.4.1.5-.1 0-.1 0 0 0h.1-.1zm0-.4h.1v.1.1h-.1l.1.1h-.1l-.1-.1h0v.1h-.1v-.3h.2zm-.1 0h0l.1.1-.1-.1z" fill="#fff"/><path d="M145.9 46.2h12.2v21.9h-12.2z" fill="#ff5f00"/><path d="M146.7 57.1a13.89 13.89 0 0 1 5.3-10.9c-6-4.8-14.8-3.7-19.5 2.3-4.8 6-3.7 14.8 2.3 19.5a13.97 13.97 0 0 0 17.3 0c-3.4-2.6-5.4-6.6-5.4-10.9z" fill="#eb001b"/><path d="M173.2 65.7v-.4h.2v-.1h-.5v.1h.2l.1.4h0zm.9 0v-.5h-.1l-.2.4-.2-.4h-.1v.5h.1v-.4l.1.4h.1l.1-.4v.4h.2zm.4-8.6A13.87 13.87 0 0 1 160.6 71c-3.1 0-6.1-1.1-8.6-3 6-4.7 7.1-13.5 2.4-19.5a13.63 13.63 0 0 0-2.4-2.4c6-4.7 14.8-3.7 19.5 2.3 2 2.5 3 5.5 3 8.7h0z" fill="#f79e1b"/><path d="M213.1 77.9h0l-.1.2h0l.1-.2h0zm.3.2h0v-.2.2h0l-.1-.2v.2h0v-.2h0l.1.2v-.2h.1l-.1.2zm-31.5 0h-.5v-5.2h.5v5.2zm3.5-5.2c.4 0 .8.1 1.2.2.3.1.6.3.9.5.2.2.4.5.6.8a2.8 2.8 0 0 1 0 2.2c-.1.3-.3.6-.6.8s-.6.4-.9.5c-.4.1-.8.2-1.2.2h-1.9v-5.2h1.9zm-1.5.4v4.4h1.4c.3 0 .7 0 1-.2.3-.1.5-.2.7-.4s.4-.4.4-.7c.2-.6.3-1.2.1-1.8-.1-.3-.2-.5-.4-.7s-.5-.3-.7-.4c-.3-.1-.7-.2-1-.2h-1.5zm9.9-.5c.2 0 .4 0 .7.1.2 0 .4.1.6.2s.3.2.5.3.3.3.4.4l-.4.2c-.1-.1-.2-.3-.3-.4s-.3-.2-.4-.3c-.2-.1-.3-.1-.5-.2-.2 0-.4-.1-.5-.1-.3 0-.6.1-.9.2s-.5.3-.7.5-.4.4-.5.7c-.2.6-.2 1.2 0 1.8.1.3.3.5.5.7.4.4 1 .6 1.6.6.2 0 .3 0 .5-.1.5-.1.9-.4 1.2-.8l.4.3a.78.78 0 0 1-.4.4c-.1.1-.3.2-.5.3s-.4.2-.6.2c-.6.1-1.2.1-1.7-.1-.3-.1-.6-.3-.9-.6-.2-.2-.4-.5-.6-.8a2.8 2.8 0 0 1 0-2.2c.1-.3.3-.6.6-.8.2-.2.5-.4.9-.6.3.2.6.1 1 .1h0zm3.6 2.4c.1-.1.2-.2.2-.3.1-.1.2-.2.3-.2.1-.1.2-.1.3-.1h.4c.2 0 .4 0 .6.1s.3.2.5.3c.1.1.2.3.3.4.1.2.1.4.1.6v2.2h-.4v-2c0-.2 0-.3-.1-.5-.1-.1-.1-.3-.2-.4s-.2-.2-.4-.2c-.2-.1-.3-.1-.5-.1s-.3 0-.5.1c-.1.1-.3.1-.4.2s-.2.2-.2.4c-.1.1-.1.3-.1.5v2h-.3v-5.4h.4v2.4zm5.6-.7c.2 0 .4 0 .7.1.2.1.4.2.5.4.2.2.3.4.3.6.1.2.1.5.1.7v.2h-3c0 .2.1.4.1.6a1.38 1.38 0 0 0 .3.4.76.76 0 0 0 .4.2c.4.1.8.1 1.2 0 .2-.1.4-.2.5-.4l.2.3-.3.3c-.1.1-.2.1-.4.2-.1 0-.2.1-.4.1h-.4c-.2 0-.5 0-.7-.1s-.4-.2-.6-.4-.3-.4-.4-.6a1.95 1.95 0 0 1 0-1.5c.1-.2.2-.4.4-.6s.4-.3.6-.4c.4.1.6 0 .9-.1h0zm0 .4c-.2 0-.3 0-.5.1-.3.1-.5.4-.7.6-.1.2-.1.3-.1.5h2.5c0-.2-.1-.3-.1-.5-.1-.1-.1-.3-.3-.4-.2-.2-.5-.3-.8-.3zm4.2-.4c.2 0 .5.1.7.1.2.1.4.2.6.4l-.3.3c-.1-.1-.3-.2-.5-.3s-.4-.1-.6-.1-.4 0-.5.1a1.38 1.38 0 0 0-.4.3c-.1.1-.2.3-.3.4-.1.4-.1.8 0 1.1a1.21 1.21 0 0 0 .7.7.9.9 0 0 0 .5.1c.2 0 .4 0 .6-.1s.3-.2.5-.3l.3.3c-.2.2-.4.3-.6.4s-.5.1-.7.1c-.3 0-.5 0-.7-.1-.4-.2-.8-.5-.9-1-.2-.5-.2-1 0-1.4s.5-.8.9-1c.2 0 .5-.1.7 0h0zm2.8 1.6h.6l1.5-1.5h.6l-1.7 1.7 1.7 1.9h-.5l-1.5-1.7h-.7v1.7h-.4v-5.4h.4v3.3zm-24.1-5.9v-1.8-.1c0-.6-.5-1-1.1-1.1h-.1c-.4 0-.8.2-1 .5-.2-.3-.6-.5-.9-.5s-.7.1-.8.4v-.3h-.6v2.9h.6v-1.7a.68.68 0 0 1 .7-.7h0c.4 0 .6.3.6.8v1.6h.6v-1.6-.1a.68.68 0 0 1 .7-.7h0c.4 0 .6.3.6.8v1.6h.7zm9.3-2.9h-1v-.9h-.6v.9h-.6v.6h.6v1.3c0 .7.3 1 1 1 .3 0 .5-.1.8-.2l-.2-.5c-.2.1-.4.2-.6.2-.3 0-.4-.2-.4-.5v-1.3h1v-.6zm5.3-.1c-.3 0-.6.1-.8.4v-.3h-.6v2.9h.6v-1.6c0-.5.2-.7.6-.7.1 0 .3 0 .4.1l.2-.6c-.1-.2-.3-.2-.4-.2h0zm-8 .3c-.4-.2-.8-.3-1.2-.3-.7 0-1.2.3-1.2.9s.3.8 1 .8h.3c.4 0 .5.1.5.3s-.2.3-.7.3a1.69 1.69 0 0 1-1-.3l-.3.5a1.92 1.92 0 0 0 1.2.4c.8 0 1.3-.4 1.3-.9s-.4-.8-1-.9h-.3c-.3 0-.5-.1-.5-.3s.2-.3.6-.3c.3 0 .6.1.9.2l.4-.4zm16.7-.3c-.3 0-.6.2-.8.4v-.3h-.6v2.9h.6v-1.6c0-.5.2-.7.6-.7.1 0 .3 0 .4.1l.2-.6c-.1-.2-.3-.2-.4-.2h0zm-8 1.5h0c0 .8.7 1.4 1.4 1.4h0a1.69 1.69 0 0 0 1-.3l-.3-.5c-.2.2-.5.3-.8.2-.5 0-.8-.4-.8-.9s.4-.9.8-.9c.3 0 .5.1.8.3l.3-.5a1.69 1.69 0 0 0-1-.3h-.1c-.8 0-1.4.7-1.4 1.4l.1.1h0zm5.8 1.5v-2.8h-.6v.3c-.2-.3-.6-.4-.9-.4a1.54 1.54 0 0 0-1.5 1.5 1.54 1.54 0 0 0 1.5 1.5c.4 0 .7-.1.9-.4v.3h.6zm-2.4-1.5c0-.5.4-.9.9-.8.5 0 .9.4.8.9 0 .5-.4.8-.9.8h0c-.4.1-.8-.3-.8-.9h0 0 0zm-7.5-1.5a1.54 1.54 0 0 0-1.5 1.5 1.54 1.54 0 0 0 1.5 1.5h0a1.92 1.92 0 0 0 1.2-.4l-.3-.5c-.2.2-.5.3-.8.3-.4 0-.8-.3-.9-.7h2.1v-.2c.1-.7-.4-1.4-1.3-1.5h0 0zm0 .6h0a.68.68 0 0 1 .7.7h-1.5c.1-.4.4-.7.8-.7h0zm15.6 2.4v-4h-.6v1.5c-.2-.3-.6-.4-.9-.4a1.54 1.54 0 0 0-1.5 1.5 1.54 1.54 0 0 0 1.5 1.5c.4 0 .7-.1.9-.4v.3h.6zm-2.3-1.5c0-.5.4-.8.9-.8s.8.4.8.9-.4.8-.9.8h0c-.4.1-.8-.3-.8-.9h0zm-21 1.5v-2.8h-.6v.3c-.2-.3-.6-.4-.9-.4a1.54 1.54 0 0 0-1.5 1.5 1.54 1.54 0 0 0 1.5 1.5c.4 0 .7-.1.9-.4v.3h.6zm-2.3-1.5c0-.5.4-.9.9-.9s.9.4.9.9-.4.9-.9.9h0 0c-.5 0-.9-.4-.9-.9h0zm26.7 1h.1s.1 0 .1.1l.1.1v.2l-.1.1-.1.1h-.1c-.1 0-.2-.1-.3-.2v-.2s0-.1.1-.1l.1-.1h.1 0zm0 .5c0 .1 0 .1 0 0h.2c.1-.1.1-.2 0-.3h-.3c-.1.1-.1.2 0 .3h.1c-.1 0-.1 0 0 0h0zm0-.3h0l.1.1h-.1l.1.1h-.1l-.1-.1h0v.1h-.1v-.3l.2.1zm-.1 0v.1h.1 0-.1v-.1z" fill="#fff"/><path d="M192.2 45.5h9.4v16.9h-9.4z" fill="#ff5f00"/><path d="M192.8 54c0-3.3 1.6-6.4 4.2-8.4-4.7-3.7-11.4-2.9-15.1 1.8s-2.9 11.4 1.8 15.1c3.9 3.1 9.4 3.1 13.3 0-2.6-2-4.2-5.2-4.2-8.5z" fill="#eb001b"/><path d="M213.4 60.7v-.3h.1v-.1h-.4v.1h.1l.2.3h0zm.6 0v-.4h-.1l-.1.3-.1-.3h-.1v.4h0v-.3l.1.3h.1l.1-.3v.3h.1zm.4-6.7c0 6-4.9 10.7-10.9 10.7-2.4 0-4.7-.8-6.5-2.3 4.7-3.7 5.5-10.5 1.8-15.1a7.69 7.69 0 0 0-1.8-1.8c4.7-3.7 11.5-2.8 15.1 1.9 1.5 1.9 2.3 4.2 2.3 6.6h0z" fill="#f79e1b"/><path d="M213.1 36.3h0l-.1.2h0l.1-.2h0zm.3.2h0v-.2.2h0l-.1-.2v.2h0v-.2h0l.1.2v-.2h.1l-.1.2zm-31.5 0h-.5v-5.2h.5v5.2zm3.5-5.3c.4 0 .8.1 1.2.2.3.1.6.3.9.5.2.2.4.5.6.8a2.8 2.8 0 0 1 0 2.2c-.1.3-.3.6-.6.8s-.6.4-.9.5c-.4.1-.8.2-1.2.2h-1.9v-5.2h1.9zm-1.5.5V36h1.4c.3 0 .7 0 1-.2.3-.1.5-.2.7-.4s.4-.4.4-.7c.2-.6.2-1.2 0-1.8-.1-.3-.3-.5-.4-.7-.2-.2-.5-.4-.7-.4-.3-.1-.7-.2-1-.1h-1.4zm9.9-.5c.2 0 .4 0 .7.1.2.1.4.1.6.2s.3.2.5.3.3.3.4.4l-.4.2c-.1-.1-.2-.3-.3-.4s-.3-.2-.4-.3c-.2-.1-.3-.1-.5-.2-.2 0-.4-.1-.5-.1-.3 0-.6.1-.9.2s-.5.3-.7.5-.4.4-.5.7c-.2.6-.2 1.2 0 1.8.1.3.3.5.5.7s.4.4.7.5c.4.2.9.2 1.4.1s.9-.4 1.2-.8l.4.3a.78.78 0 0 1-.4.4c-.1.1-.3.3-.5.3-.2.1-.4.2-.6.2-.6.1-1.2.1-1.7-.1-.3-.1-.6-.3-.9-.5-.2-.2-.4-.5-.6-.8a2.8 2.8 0 0 1 0-2.2c.1-.3.3-.6.6-.9.2-.2.5-.4.9-.5.3-.1.6-.1 1-.1h0zm3.6 2.4c.1-.1.2-.2.2-.3.1-.1.2-.1.3-.2s.2-.1.3-.1h.4c.2 0 .4 0 .6.1s.3.2.5.3c.1.1.2.3.3.5s.1.4.1.6v2.2h-.4v-2c0-.2 0-.3-.1-.5-.1-.1-.1-.3-.2-.4s-.2-.2-.4-.2c-.2-.1-.3-.1-.5-.1s-.3 0-.5.1c-.1.1-.3.1-.4.2s-.2.2-.2.4c-.1.2-.1.3-.1.5v2h-.3v-5.5h.4v2.4zm5.6-.7c.2 0 .4 0 .7.1.2.1.4.2.5.4.2.2.3.4.3.6.1.2.1.5.1.7v.2h-3c0 .2.1.4.1.5a1.38 1.38 0 0 0 .3.4.76.76 0 0 0 .4.2.9.9 0 0 0 .5.1c.2 0 .5 0 .7-.1s.4-.2.5-.4l.2.3-.3.3c-.1.1-.2.1-.4.2-.1 0-.2.1-.4.1h-.4c-.2 0-.5 0-.7-.1s-.4-.2-.6-.4-.3-.4-.4-.6a1.95 1.95 0 0 1 0-1.5c.1-.2.2-.4.4-.6s.4-.3.6-.4h.9 0zm0 .4c-.2 0-.3 0-.5.1-.1.1-.3.1-.4.2s-.2.2-.3.4-.1.3-.1.5h2.5c0-.2-.1-.3-.1-.5-.1-.1-.1-.3-.3-.4-.2-.2-.5-.3-.8-.3zm4.3-.4c.2 0 .5 0 .7.1s.4.2.6.4l-.3.3c-.1-.1-.3-.2-.5-.3s-.4-.1-.6-.1-.4 0-.5.1c-.2.1-.3.2-.4.3s-.2.3-.3.5c-.1.4-.1.8 0 1.1a1.21 1.21 0 0 0 .7.7.9.9 0 0 0 .5.1c.2 0 .4 0 .6-.1s.3-.2.5-.3l.3.3c-.2.2-.4.3-.6.4s-.5.1-.7.1c-.3 0-.5 0-.7-.1-.4-.2-.8-.5-.9-1a1.95 1.95 0 0 1 0-1.5c.2-.4.5-.8.9-1 .2 0 .4-.1.7 0h0zm2.7 1.5h.6l1.5-1.5h.6l-1.7 1.7 1.7 1.8h-.5l-1.5-1.7h-.7v1.7h-.4V31h.4v3.4zm-24.1-5.8v-1.9c0-.6-.4-1.1-1-1.1h-.1c-.4 0-.8.2-1 .5-.2-.3-.6-.5-.9-.5s-.7.1-.9.4v-.4h-.6v2.9h.6v-1.7a.68.68 0 0 1 .7-.7h0c.4 0 .6.3.6.8v1.6h.6v-1.7a.68.68 0 0 1 .7-.7h0c.4 0 .6.3.6.8v1.6l.7.1zm9.3-2.9h-1v-.9h-.6v.9h-.6v.6h.6v1.3c0 .7.3 1.1 1 1.1.3 0 .5-.1.8-.2l-.2-.5c-.2.1-.4.2-.6.2-.3 0-.4-.2-.4-.5v-1.3h1v-.7zm5.3-.1c-.3 0-.6.1-.8.4v-.4h-.6v2.9h.6V27c0-.5.2-.7.6-.7.1 0 .3 0 .4.1l.2-.6c-.1-.1-.3-.1-.4-.2h0zm-8 .3c-.4-.2-.8-.3-1.2-.3-.7 0-1.2.3-1.2.9s.3.8 1 .9h.3c.4 0 .5.1.5.3s-.2.3-.7.3a1.69 1.69 0 0 1-1-.3l-.3.5a1.92 1.92 0 0 0 1.2.4c.8 0 1.3-.4 1.3-.9s-.4-.8-1-.9h-.3c-.3 0-.5-.1-.5-.3s.2-.3.6-.3c.3 0 .6.1.9.2l.4-.5zm16.6-.3c-.3 0-.6.2-.8.4v-.4h-.6v2.9h.6V27c0-.5.2-.7.6-.7.1 0 .3 0 .4.1l.2-.6c-.1-.1-.2-.1-.4-.2h0zm-8 1.4h0c0 .8.6 1.5 1.4 1.5h.1a1.69 1.69 0 0 0 1-.3l-.3-.5c-.2.2-.5.3-.8.2-.5 0-.9-.5-.8-1 0-.4.4-.8.8-.8.3 0 .5.1.8.3l.3-.5c-.3-.2-.6-.4-1-.4h-.1c-.7 0-1.4.7-1.4 1.5h0 0zm5.8 1.6v-2.9h-.6v.3c-.2-.3-.6-.4-.9-.4a1.54 1.54 0 0 0-1.5 1.5 1.54 1.54 0 0 0 1.5 1.5c.4 0 .7-.1.9-.4v.4h.6zm-2.3-1.5c0-.5.4-.8.9-.8s.8.4.8.9-.4.8-.9.8h0c-.4 0-.8-.4-.8-.9h0 0zm-7.5-1.5a1.54 1.54 0 0 0-1.5 1.5 1.54 1.54 0 0 0 1.5 1.5h0a1.92 1.92 0 0 0 1.2-.4l-.3-.5c-.2.2-.5.3-.8.3-.4 0-.8-.3-.9-.7h2.1v-.2c.1-.8-.4-1.5-1.3-1.5h0 0zm0 .5h0a.68.68 0 0 1 .7.7h-1.5c.1-.4.4-.7.8-.7h0zm15.6 2.5v-4h-.6v1.5c-.2-.3-.5-.4-.9-.4a1.54 1.54 0 0 0-1.5 1.5 1.54 1.54 0 0 0 1.5 1.5c.4 0 .7-.1.9-.4v.3h.6zm-2.3-1.5c0-.5.4-.9.9-.8.5 0 .9.4.8.9 0 .5-.4.8-.9.8h0c-.4.1-.8-.3-.8-.9h0zm-21 1.5v-2.9h-.6v.3c-.2-.3-.5-.4-.9-.4a1.54 1.54 0 0 0-1.5 1.5 1.54 1.54 0 0 0 1.5 1.5c.4 0 .7-.1.9-.4v.4h.6zm-2.3-1.5c0-.5.4-.8.9-.8s.9.4.9.9-.4.9-.9.9h0c-.5 0-.9-.4-.9-1 0 .1 0 .1 0 0h0 0zm26.7 1h.1l.1.1.1.1v.2l-.1.1-.1.1h-.1c-.1 0-.2-.1-.3-.2v-.2s0-.1.1-.1l.1-.1h.1zm0 .5h0 .2c.1-.1.1-.2 0-.3h-.1-.1-.1-.1c-.1.1-.1.2 0 .3h0 .2 0zm0-.3h0 0 0c.1.1 0 .1 0 0l.1.2h-.1v-.2h0l-.1.2h-.1v-.2h.2zm-.1 0h0l.1.1v-.1h0-.1z"/><path d="M192.2 3.9h9.4v16.9h-9.4z" fill="#ff5f00"/><path d="M192.8 12.3c0-3.3 1.6-6.4 4.2-8.5-4.7-3.7-11.5-2.8-15.1 1.9s-2.8 11.5 1.9 15.1c3.9 3 9.4 3 13.3 0-2.7-2-4.3-5.1-4.3-8.5z" fill="#eb001b"/><path d="M213.4 19v-.3h.1v-.1h-.4v.1h.1l.2.3h0zm.6 0v-.5h-.1l-.1.3-.1-.3h-.1v.5h0v-.3l.1.3h.1l.1-.3v.3h.1zm.4-6.7c0 6-4.9 10.8-10.8 10.7-2.4 0-4.7-.8-6.5-2.3 4.7-3.7 5.5-10.5 1.8-15.1a7.69 7.69 0 0 0-1.8-1.8c4.7-3.7 11.5-2.8 15.1 1.9 1.4 1.9 2.2 4.2 2.2 6.6h0z" fill="#f79e1b"/><path d="M39.9 48.6l-5.2 24.2h-6.3l5.2-24.2h6.3zm26.3 15.7l3.3-9.1 1.9 9.1h-5.2zm7 8.5H79l-5-24.2h-5.4c-1.1 0-2.2.7-2.6 1.8l-9.3 22.4h6.6l1.3-3.6h8l.6 3.6zm-16.3-7.9c0-6.4-8.8-6.7-8.8-9.6 0-.9.8-1.8 2.7-2 2.1-.2 4.3.2 6.2 1.1l1.1-5.1c-1.9-.7-3.9-1.1-5.8-1.1-6.2 0-10.5 3.3-10.6 8 0 3.5 3.1 5.4 5.5 6.6s3.2 1.9 3.2 3c0 1.6-1.9 2.3-3.7 2.4-2.2.1-4.5-.5-6.4-1.5L39.1 72c2.2.9 4.6 1.3 7 1.3 6.5-.1 10.8-3.3 10.8-8.4M31 48.6L20.9 72.8h-6.6l-5-19.3c-.1-.9-.7-1.7-1.5-2.1-2-.9-4-1.6-6.2-2.1l.1-.7h10.7a3 3 0 0 1 2.9 2.5l2.6 14 6.5-16.5H31zM84 58h40.5v20.2H84zm19.4-14.6l-2 9.1h-2.3l2-9.1h2.3zm9.9 5.8l1.2-3.4.7 3.4h-1.9zm2.6 3.3h2.2l-1.9-9.1h-2c-.4 0-.8.3-1 .7l-3.6 8.4h2.5l.5-1.4h3l.3 1.4zm-6.1-3c0-2.4-3.3-2.5-3.3-3.6 0-.3.3-.7 1-.8.8-.1 1.6.1 2.3.4l.4-1.9c-.7-.3-1.5-.4-2.2-.4-2.3 0-4 1.2-4 3 0 1.3 1.2 2 2.1 2.5s1.2.7 1.2 1.1c0 .6-.7.9-1.4.9-.8 0-1.7-.2-2.4-.6l-.4 2c.8.3 1.7.5 2.6.5 2.4 0 4-1.3 4.1-3.1m-9.8-6.2l-3.8 9.1h-2.5l-1.9-7.3c0-.3-.2-.6-.6-.8-.7-.4-1.5-.6-2.3-.8l.1-.3h4c.5 0 1 .4 1.1.9l1 5.3 2.5-6.2 2.4.1z" fill="#fff"/><path d="M93.4 69.2c.4.2.8.3 1.2.3.5 0 .8-.2.8-.6s-.2-.6-.8-.8c-.8-.3-1.2-.7-1.2-1.3.1-.8.8-1.4 1.6-1.3.4 0 .8.1 1.1.2l-.2.7c-.3-.1-.6-.2-.9-.2-.5 0-.8.3-.8.6s.3.5.9.8c.8.3 1.2.7 1.2 1.4s-.6 1.4-1.7 1.4c-.4 0-.9-.1-1.2-.3v-.9zm6.1-1.2h-1.7v1.3h1.9v.7h-2.8v-4.6h2.7v.7h-1.8v1.2h1.7v.7zm4.2 2c-.4.1-.8.2-1.2.2-1.2.1-2.2-.8-2.3-2v-.3c-.1-1.3.9-2.4 2.2-2.4.5 0 .9.1 1.4.2l-.2.7c-.3-.1-.6-.2-.9-.2-.8-.1-1.6.6-1.6 1.4v.2c-.1.8.5 1.6 1.3 1.6h.3c.3 0 .6-.1.9-.2l.1.8zm1.4-4.5v2.7c0 .9.4 1.3 1 1.3s1-.4 1-1.3v-2.7h.9v2.6c0 1.4-.7 2-1.8 2s-1.8-.6-1.8-2v-2.6h.7zm4.5 2.1h.5c.6 0 .9-.3.9-.8s-.3-.7-.9-.7h-.5v1.5zm-.8-2c.4-.1.8-.1 1.3-.1s1 .1 1.4.4a1.24 1.24 0 0 1 .1 1.7.55.55 0 0 1-.5.3h0a1.27 1.27 0 0 1 .7.9c.1.4.2.9.4 1.3h-.9c-.1-.3-.2-.7-.3-1.1-.1-.6-.3-.8-.8-.8h-.4V70h-.8v-4.4z"/><path d="M115.2 68h-1.7v1.3h1.9v.7h-2.8v-4.6h2.7v.7h-1.8v1.2h1.7v.7z"/><path d="M84 16.3h40.5v20.2H84zm19.4-14.6l-2 9.1h-2.3l2-9.1h2.3zm9.9 5.9l1.2-3.4.7 3.4h-1.9zm2.6 3.2h2.2l-1.9-9h-2c-.4 0-.8.3-1 .7l-3.6 8.4h2.5l.5-1.4h3l.3 1.3zm-6.1-3c0-2.4-3.3-2.5-3.3-3.6 0-.3.3-.7 1-.8.8-.1 1.6.1 2.3.4l.4-1.8c-.7-.3-1.5-.4-2.2-.4-2.3 0-4 1.2-4 3 0 1.3 1.2 2 2.1 2.5s1.2.7 1.2 1.1c0 .6-.7.9-1.4.9-.8 0-1.7-.2-2.4-.6l-.4 2c.8.3 1.7.5 2.6.5 2.5 0 4.1-1.2 4.1-3.1M100 1.7l-3.8 9.1h-2.5l-1.9-7.3c0-.3-.2-.6-.6-.8-.6-.3-1.4-.5-2.2-.7v-.3h4c.5 0 1 .4 1.1.9l1 5.3 2.5-6.2h2.4z" fill="#1a1f71"/><path d="M93.4 27.6c.3.2.7.3 1.1.3.5 0 .8-.2.8-.6s-.2-.5-.8-.8c-.8-.3-1.2-.7-1.2-1.3.1-.8.8-1.4 1.6-1.3h.1c.4 0 .8.1 1.1.2l-.2.7c-.3-.1-.6-.2-.9-.2-.5 0-.8.3-.8.5s.3.5.9.8c.8.3 1.2.7 1.2 1.4-.1.8-.8 1.5-1.7 1.4h-.1c-.4 0-.9-.1-1.2-.3l.1-.8zm6.1-1.2h-1.7v1.4h1.9v.7h-2.8v-4.6h2.7v.7h-1.8v1.2h1.7v.6zm4.2 1.9c-.4.2-.8.2-1.2.2-1.2.1-2.2-.8-2.3-2v-.3c-.1-1.3.9-2.4 2.2-2.4.5 0 .9.1 1.4.2l-.2.7c-.3-.1-.6-.2-.9-.2-.8-.1-1.6.6-1.6 1.4v.1.3c-.1.8.5 1.6 1.3 1.6h.3c.3 0 .6-.1.9-.2l.1.6zm1.4-4.4v2.7c0 .9.4 1.3 1 1.3s1-.4 1-1.3v-2.7h.9v2.6c0 1.4-.7 2-1.8 2s-1.8-.6-1.8-2v-2.6h.7zm4.5 2h.5c.6 0 .9-.3.9-.8s-.3-.7-.9-.7h-.5v1.5zm-.8-2c.4-.1.8-.1 1.3-.1s1 .1 1.4.4a1.24 1.24 0 0 1 .1 1.7.55.55 0 0 1-.5.3h0a1.27 1.27 0 0 1 .7.9c.1.4.2.9.4 1.3h-.9c-.1-.3-.2-.7-.3-1.1-.1-.6-.3-.8-.8-.8h-.4v1.9h-.8v-4.5zm6.4 2.5h-1.7v1.4h1.9v.7h-2.8v-4.6h2.7v.7h-1.8v1.2h1.7v.6z" fill="#fff"/><path d="M39.9 7l-5.2 24.2h-6.3L33.7 7h6.2zm26.3 15.6l3.3-9.1 1.9 9.1h-5.2zm7 8.6H79L74 7h-5.4c-1.1 0-2.2.7-2.6 1.8l-9.3 22.4h6.6l1.3-3.6h8l.6 3.6zm-16.3-7.9c0-6.4-8.8-6.7-8.8-9.6 0-.9.8-1.8 2.7-2 2.1-.2 4.3.2 6.2 1.1l1.1-5.1c-1.9-.7-3.9-1.1-5.8-1.1-6.2 0-10.5 3.3-10.6 8 0 3.5 3.1 5.4 5.5 6.6s3.2 2 3.2 3c0 1.6-1.9 2.3-3.7 2.4-2.3.1-4.5-.4-6.5-1.5L39 30.3c2.2.9 4.6 1.3 7 1.3 6.6 0 10.9-3.3 10.9-8.3M31 7L20.9 31.2h-6.6l-5-19.3c-.1-.9-.7-1.7-1.5-2.1-2-.9-4-1.6-6.2-2.1l.2-.7h10.6a3 3 0 0 1 2.9 2.5l2.6 14L24.4 7H31z" fill="#1a1f70"/></svg>