<svg xmlns="http://www.w3.org/2000/svg" width="279" height="147.7" xmlns:v="https://vecta.io/nano"><radialGradient id="A" cx="-46.296" cy="-177.453" r=".92" gradientTransform="matrix(26.95 0 0 27.01 1285.34 4902.5698)" gradientUnits="userSpaceOnUse"><stop offset=".18" stop-color="#f18b3c"/><stop offset=".61" stop-color="#ed701e"/><stop offset="1" stop-color="#e95400"/></radialGradient><path d="M67.1 116.7l-.1-.5c-.6-3.4-2.8-6.2-5.8-7.8 1-1 1.7-2.4 1.9-3.8a6.62 6.62 0 0 0-1.4-4.9c-1.1-1.4-2.7-2.3-4.4-2.6a6.62 6.62 0 0 0-4.9 1.4c-1.4 1.1-2.3 2.7-2.6 4.4a6.62 6.62 0 0 0 1.4 4.9c.1.2.3.4.5.5-1.4.7-2.6 1.7-3.6 2.9-1.4-1.3-3.1-2.3-4.9-2.9a9.71 9.71 0 0 0 1.6-13.7c-1.3-1.7-3.2-2.9-5.3-3.4-2.5-.6-5.2-.2-7.4 1.1-2.3 1.3-3.9 3.5-4.5 6-.9 3.8.4 7.7 3.5 10.1-1.8.7-3.4 1.7-4.9 2.9-1-1.2-2.2-2.2-3.6-2.9 1-1.1 1.6-2.4 1.9-3.8.4-3.6-2.2-6.9-5.8-7.4-1.7-.2-3.5.3-4.9 1.3-2.9 2.2-3.4 6.3-1.2 9.2l.1.1c.1.2.3.4.5.5-3.2 1.6-5.4 4.7-5.9 8.3-.1.7.1 1.5.6 2 .4.6 1.1.9 1.8 1H21a17.4 17.4 0 0 0-.6 4.5v1c0 1.4 1.2 2.6 2.6 2.7h28.6c1.4-.1 2.5-1.3 2.6-2.7v-1a17.4 17.4 0 0 0-.6-4.5h11.1c1.4-.3 2.4-1.5 2.4-2.9h0zm-48.4-6.2c2.1.3 4 1.4 5.2 3.2a21.11 21.11 0 0 0-1.8 2.7H10.5c.7-3.9 4.4-6.5 8.2-5.9zm-1-3.3a3.37 3.37 0 1 1 0-6.8 3.37 3.37 0 0 1 3.4 3.4h0c.1 1.9-1.4 3.4-3.4 3.4h0zm42.7 4.4c1.7 1.1 2.9 2.8 3.3 4.7H52.1c-.5-1-1.1-1.9-1.8-2.8 2.4-3.1 6.8-4 10.1-1.9zm-4-4.4a3.37 3.37 0 1 1 0-6.8 3.37 3.37 0 0 1 3.4 3.4c.1 1.9-1.4 3.4-3.4 3.4h0zm-19.3 3.2c7.5 0 13.6 6.1 13.7 13.6v.5H23.4v-.4c0-7.5 6-13.6 13.6-13.7h.1zm0-3.2c-3.6 0-6.6-3-6.6-6.6s3-6.6 6.6-6.6 6.6 3 6.6 6.6h0 0c0 3.6-2.9 6.6-6.6 6.6z" fill="url(#A)"/><radialGradient id="B" cx="-46.043" cy="-180.233" r="1" gradientTransform="matrix(27.41 0 0 27.41 1298.97 4978.6997)" gradientUnits="userSpaceOnUse"><stop offset=".18" stop-color="#f18b3c"/><stop offset=".61" stop-color="#ed701e"/><stop offset="1" stop-color="#e95400"/></radialGradient><path d="M58.2 17.3l-1.1-.3c-3-.5-5.9-1.4-8.7-2.6-2.9-1.2-5.7-2.7-8.4-4.3-1.6-.9-2-1.1-2.9-1.1s-1.3.2-2.9 1.1c-2.7 1.7-5.6 3.1-8.5 4.3-3.7 1.5-7.6 2.6-11.5 3.4-.5.1-1 .4-1.3.9a1.69 1.69 0 0 0-.3 1v22.5c.1 5.4 4 11.4 12 18.2C29.2 64.3 36 69 37.1 69s8-4.8 12.6-8.5c8-6.9 12-12.8 12-18.3V22.8c0-4.7 0-4.8-3.5-5.5zm-.3 4.1v20.8c0 4.3-3.7 9.6-10.6 15.4-2.5 2-5 3.9-7.6 5.7-.8.6-1.6 1.1-2.5 1.6-.6-.4-1.5-1-2.5-1.6a105.6 105.6 0 0 1-7.5-5.7c-7-5.9-10.6-11.2-10.7-15.4V21.3c3.8-.8 7.5-2 11.1-3.4 3.1-1.3 6.1-2.8 9-4.6.2-.1.5-.3.7-.4.3.1.5.2.8.4 2.9 1.7 5.9 3.3 9 4.6 3 1.3 6.2 2.2 9.5 2.8.4 0 .7.1 1.1.2h.4c-.2.1-.2.3-.2.5z" fill="url(#B)"/><radialGradient id="C" cx="-42.225" cy="-203.091" r="1" gradientTransform="matrix(10.07 0 0 10.07 462.26 2082.2202)" gradientUnits="userSpaceOnUse"><stop offset=".18" stop-color="#f18b3c"/><stop offset=".61" stop-color="#ed701e"/><stop offset="1" stop-color="#e95400"/></radialGradient><path d="M30.2 34.9c-1.1-1-2.7-.9-3.7.2-.9 1-.9 2.5 0 3.5l6.3 6.3c.5.5 1.1.7 1.8.7s1.4-.3 1.8-.9l11.2-12.3c.9-1 .9-2.5-.1-3.4l-.1-.1c-.9-.9-2.4-.9-3.4 0l-.1.1-9.5 10.2-4.2-4.3z" fill="url(#C)"/><radialGradient id="D" cx="-6.579" cy="-295.698" r="1" gradientTransform="matrix(2.88 0 0 2.82 103.33 879.05)" gradientUnits="userSpaceOnUse"><stop offset=".18" stop-color="#f18b3c"/><stop offset=".61" stop-color="#ed701e"/><stop offset="1" stop-color="#e95400"/></radialGradient><path d="M84.3 40.9c-1.6 0-2.8 1.3-2.8 2.9s1.3 2.8 2.9 2.8c1.5 0 2.8-1.3 2.8-2.8 0-1.6-1.3-2.9-2.9-2.9h0z" fill="url(#D)"/><radialGradient id="E" cx="-32.121" cy="-216.812" r="1" gradientTransform="matrix(7.43 0 0 7.29 340.24 1616.0699)" gradientUnits="userSpaceOnUse"><stop offset=".18" stop-color="#f18b3c"/><stop offset=".61" stop-color="#ed701e"/><stop offset="1" stop-color="#e95400"/></radialGradient><path d="M92.2 38c.2.1.5.2.7.2s.3 0 .5-.1a29.72 29.72 0 0 1 16.2 0c.1.1.3.1.5.1.7 0 1.3-.5 1.6-1.1.1-.4.1-.9-.1-1.3a1.59 1.59 0 0 0-1-.8c-3-.9-6-1.3-9.1-1.3s-6.1.4-9.1 1.2a1.59 1.59 0 0 0-1 .8c-.2.4-.2.9-.1 1.3.2.4.5.8.9 1z" fill="url(#E)"/><radialGradient id="F" cx="-44.255" cy="-179.316" r="1" gradientTransform="matrix(29.95 0 0 29.38 1427.15 5308.0298)" gradientUnits="userSpaceOnUse"><stop offset=".18" stop-color="#f18b3c"/><stop offset=".61" stop-color="#ed701e"/><stop offset="1" stop-color="#e95400"/></radialGradient><path d="M129.9 36.1c-.4 0-.7 0-1.1-.1a16.28 16.28 0 0 0 .3-3.1c-.1-2.2-2-4-4.2-3.9h-.1c-2.1.1-3.8 1.8-3.9 3.9 0 2 1.5 3.9 3.8 5.2-.2.4-.4.8-.7 1.2-3.1-4.6-8.5-8-15.1-9.5.8-.7 1.4-1.5 1.9-2.4 4.7-.2 8.4-4.1 8.4-8.8 0-2.4-1-4.7-2.7-6.3-1.6-1.7-3.9-2.7-6.3-2.6-3.4 0-6.5 1.9-8.1 4.9-4.8.2-8.6 4.3-8.4 9.1.1 2.2 1 4.2 2.5 5.8-3.7.6-7.2 1.8-10.4 3.6-1.5-1.1-3.4-1.7-5.3-1.7-.9 0-1.7.7-1.7 1.6h0c0 1.7.5 3.3 1.4 4.7-1.4 1.7-2.5 3.7-3.1 5.8H77c-2.9 0-5.2 2.3-5.3 5.2 0 2.8 1.5 5.5 3.9 7l8.4 5.1v6.1c0 .9.7 1.7 1.7 1.7h4.9c.6 0 1.2-.3 1.5-.9l1.2-2.6a33.33 33.33 0 0 0 16.6 0l1.3 2.5c.3.6.9.9 1.5.9h4.9c.9 0 1.7-.7 1.7-1.6h0v-6.3c4.7-3.4 7.4-8.2 7.4-13.1a14.26 14.26 0 0 0-.9-5c.9-.9 1.6-2 2.1-3.2.7.1 1.4.2 2.1.2.9 0 1.7-.7 1.7-1.6h0c-.1-1-.8-1.7-1.8-1.8zm-5.7-3.2c0-.4.4-.8.8-.8s.8.4.8.8c0 .7 0 1.3-.1 2-.7-.4-1.3-1.1-1.5-2zM86.5 58.3l-9.2-5.6c-1.5-.9-2.4-2.5-2.4-4.2 0-1.1.9-2 2-2h1.5c.8 0 1.4-.5 1.6-1.3.6-2.5 1.8-4.7 3.6-6.5.6-.6.6-1.5 0-2h0c-.5-.5-.9-1.1-1.1-1.7.7.3 1.4.7 2 1.3.6.5 1.4.6 2.1.2 4.4-3 9.7-4.5 15-4.4 12 0 21.8 6.9 21.8 15.3 0 4.1-2.4 8-6.7 11a1.75 1.75 0 0 0-.7 1.4v5.4h-2.3l-1.5-2.8c-.4-.7-1.2-1-2-.8a30.32 30.32 0 0 1-17.4 0c-.8-.2-1.6.1-2 .8l-1.5 2.8H87v-5.4c.2-.6 0-1.2-.5-1.5zm14.9-38.2c-.1.2-.2.5-.2.7v4.8c.1.9.9 1.6 1.8 1.6.8-.1 1.5-.8 1.6-1.6v-.4c.8.7 1.8 1.2 2.8 1.5-1.8 2.4-5.3 2.9-7.7 1.1-.1 0-.1-.1-.2-.2-1.3-1.1-2.1-2.7-2.2-4.4 0-2.5 1.7-4.7 4.1-5.4v.6c-.2.5-.2 1.2 0 1.7zm3.1-1.7c0-3.1 2.6-5.7 5.7-5.7s5.7 2.6 5.7 5.7-2.6 5.7-5.7 5.7-5.7-2.6-5.7-5.7z" fill="url(#F)"/><radialGradient id="G" cx="-17.9" cy="-260.673" r="1" gradientTransform="matrix(3.95 0 0 3.88 181.24 1028.5601)" gradientUnits="userSpaceOnUse"><stop offset=".18" stop-color="#f18b3c"/><stop offset=".61" stop-color="#ed701e"/><stop offset="1" stop-color="#e95400"/></radialGradient><path d="M107.5 16.1l.5-.1v4.9l-.6-.1-.1 1.5.8.1v.5h1.6v-.4h.2v.4h1.6v-.6c.5-.1 1-.3 1.4-.6.5-.4.8-1 .8-1.7 0-.8-.5-1.6-1.3-1.9.9-.5 1.2-1.6.7-2.5 0 0 0-.1-.1-.1-.1-.2-.3-.4-.5-.6-.3-.2-.7-.4-1.1-.5v-.3h-1.6v.4h-.2v-.4H108v.7l-.8.2.3 1.1zm2.7 5h-.6v-2.2h.6c.5 0 .9.1 1.3.3.3.2.5.5.5.9 0 .8-1 1-1.8 1zm-.6-5.3h.6c.4 0 .7.1 1.1.2.2.2.4.4.4.7 0 .6-.6 1-1.5 1h-.7l.1-1.9z" fill="url(#G)"/><radialGradient id="H" cx="-41.951" cy="-179.052" r=".989" gradientTransform="matrix(30.08 0 0 30.08 1433.71 5425.2002)" gradientUnits="userSpaceOnUse"><stop offset=".18" stop-color="#f18b3c"/><stop offset=".61" stop-color="#ed701e"/><stop offset="1" stop-color="#e95400"/></radialGradient><path d="M201.6 54.9c-.1-.3-.3-.6-.5-.8l-6.9-6.9c2.1-3.8 3.2-8.1 3.2-12.5.2-14.2-11.1-26-25.3-26.2s-26 11.1-26.2 25.3v1c0 4.4 1.1 8.7 3.2 12.5l-6.9 6.9c-.8.7-.8 1.9-.1 2.7 0 .1 0 .1.1.1h0c.2.2.5.4.8.5l7.5 2.5 2.5 7.5c.4 1 1.5 1.6 2.5 1.3.3-.1.6-.3.8-.5l8.6-8.6c4.5 1.2 9.1 1.2 13.6 0l8.6 8.6c.7.8 1.9.8 2.7.1l.1-.1c.2-.2.4-.5.5-.8l2.5-7.5 7.5-2.5c1-.4 1.6-1.6 1.2-2.6zm-45.8 8.2l-1.8-5.4a2.1 2.1 0 0 0-1.3-1.3l-5.4-1.8 4.1-4.1c2.5 3.2 5.7 5.7 9.3 7.5l-4.9 5.1zm15.9-6.6c-12 0-21.7-9.8-21.7-21.8S159.8 13 171.8 13s21.7 9.8 21.7 21.8h0c0 12-9.8 21.7-21.8 21.7zm19 0a2.1 2.1 0 0 0-1.3 1.3l-1.8 5.4-5-5c3.7-1.7 6.9-4.3 9.3-7.5l4.1 4.1-5.3 1.7z" fill="url(#H)"/><radialGradient id="I" cx="-11.268" cy="-237.876" r=".99" gradientTransform="matrix(5.13 0 0 5.13 219.28 1247.4501)" gradientUnits="userSpaceOnUse"><stop offset=".18" stop-color="#f18b3c"/><stop offset=".61" stop-color="#ed701e"/><stop offset="1" stop-color="#e95400"/></radialGradient><path d="M158 31.1l3.2-1.7 3.2 1.7-.6-3.6 2.6-2.5-3.6-.5-1.6-3.3-1.6 3.3-3.6.5 2.6 2.5-.6 3.6z" fill="url(#I)"/><radialGradient id="J" cx="-11.298" cy="-237.866" r=".99" gradientTransform="matrix(5.13 0 0 5.13 240.46 1247.4701)" gradientUnits="userSpaceOnUse"><stop offset=".18" stop-color="#f18b3c"/><stop offset=".61" stop-color="#ed701e"/><stop offset="1" stop-color="#e95400"/></radialGradient><path d="M179.6 27.5l-.6 3.6 3.3-1.7 3.2 1.7-.6-3.6 2.6-2.5-3.6-.5-1.6-3.3-1.7 3.3-3.6.5 2.6 2.5z" fill="url(#J)"/><radialGradient id="K" cx="-11.268" cy="-237.886" r=".99" gradientTransform="matrix(5.13 0 0 5.13 216.89 1258.8201)" gradientUnits="userSpaceOnUse"><stop offset=".18" stop-color="#f18b3c"/><stop offset=".61" stop-color="#ed701e"/><stop offset="1" stop-color="#e95400"/></radialGradient><path d="M161.4 38.9l2.7-2.6-3.7-.5-1.6-3.3-1.6 3.3-3.6.5 2.6 2.6-.6 3.6 3.2-1.7 3.3 1.7-.7-3.6z" fill="url(#K)"/><radialGradient id="L" cx="-11.298" cy="-237.886" r=".99" gradientTransform="matrix(5.13 0 0 5.13 243.04 1258.8201)" gradientUnits="userSpaceOnUse"><stop offset=".18" stop-color="#f18b3c"/><stop offset=".61" stop-color="#ed701e"/><stop offset="1" stop-color="#e95400"/></radialGradient><path d="M187.5 38.9l2.6-2.6-3.6-.5-1.7-3.3-1.6 3.3-3.6.5 2.6 2.6-.6 3.6 3.2-1.7 3.3 1.7-.6-3.6z" fill="url(#L)"/><radialGradient id="M" cx="-11.288" cy="-237.856" r=".99" gradientTransform="matrix(5.13 0 0 5.13 230.04 1241.88)" gradientUnits="userSpaceOnUse"><stop offset=".18" stop-color="#f18b3c"/><stop offset=".61" stop-color="#ed701e"/><stop offset="1" stop-color="#e95400"/></radialGradient><path d="M174.5 21.8l2.6-2.5-3.6-.5-1.7-3.3-1.6 3.3-3.6.5 2.6 2.5-.6 3.6 3.2-1.7 3.3 1.7-.6-3.6z" fill="url(#M)"/><radialGradient id="N" cx="-11.288" cy="-237.896" r=".99" gradientTransform="matrix(5.13 0 0 5.13 236.55 1269.04)" gradientUnits="userSpaceOnUse"><stop offset=".18" stop-color="#f18b3c"/><stop offset=".61" stop-color="#ed701e"/><stop offset="1" stop-color="#e95400"/></radialGradient><path d="M180 45.8l-1.6-3.2-1.6 3.2-3.7.6 2.7 2.5-.7 3.6 3.3-1.7 3.2 1.7-.6-3.6 2.6-2.5-3.6-.6z" fill="url(#N)"/><radialGradient id="O" cx="-11.278" cy="-237.896" r=".99" gradientTransform="matrix(5.13 0 0 5.13 223.47 1269.2001)" gradientUnits="userSpaceOnUse"><stop offset=".18" stop-color="#f18b3c"/><stop offset=".61" stop-color="#ed701e"/><stop offset="1" stop-color="#e95400"/></radialGradient><path d="M166.9 45.8l-1.6-3.2-1.6 3.2-3.6.6 2.6 2.5-.6 3.6 3.2-1.7 3.2 1.7-.6-3.6 2.6-2.5-3.6-.6z" fill="url(#O)"/><radialGradient id="P" cx="48.741" cy="-302.765" r="1" gradientTransform="matrix(2.68 0 0 2.68 110.74 838.9)" gradientUnits="userSpaceOnUse"><stop offset=".18" stop-color="#f18b3c"/><stop offset=".61" stop-color="#ed701e"/><stop offset="1" stop-color="#e95400"/></radialGradient><path d="M241.4 30.3a2.69 2.69 0 1 0 0-5.4 2.69 2.69 0 0 0-2.7 2.7h0 0a2.69 2.69 0 0 0 2.7 2.7z" fill="url(#P)"/><radialGradient id="Q" cx="-14.296" cy="-214.51" r="1" gradientTransform="matrix(7.65 0 0 7.65 351.31 1685.4501)" gradientUnits="userSpaceOnUse"><stop offset=".18" stop-color="#f18b3c"/><stop offset=".61" stop-color="#ed701e"/><stop offset="1" stop-color="#e95400"/></radialGradient><path d="M245.6 50.4c-.8-.2-1.7-1-1.7-3V34.1c0-.2-.2-.4-.4-.4h-5.3c-.8 0-1.4.6-1.4 1.4 0 .6.4 1.1 1 1.3.8.2 1.7 1 1.7 3v8.1c0 2-.9 2.7-1.7 3-.7.2-1.1 1-.9 1.7.2.6.7 1 1.3 1h7c.8 0 1.4-.6 1.4-1.3v-.1c-.1-.6-.4-1.1-1-1.4z" fill="url(#Q)"/><radialGradient id="R" cx="-39.593" cy="-179.086" r=".999" gradientTransform="matrix(30 0 0 30 1429.6001 5411.5801)" gradientUnits="userSpaceOnUse"><stop offset=".18" stop-color="#f18b3c"/><stop offset=".61" stop-color="#ed701e"/><stop offset="1" stop-color="#e95400"/></radialGradient><path d="M241.7 9c-16.6 0-30 13.4-30 30s13.4 30 30 30 30-13.4 30-30-13.4-30-30-30zm0 55.7C227.5 64.7 216 53.2 216 39s11.5-25.7 25.7-25.7 25.7 11.5 25.7 25.7-11.5 25.7-25.7 25.7h0z" fill="url(#R)"/><radialGradient id="S" cx="-43.44" cy="-178.022" r="1" gradientTransform="matrix(26.52 0 0 26.52 1254.4299 4830.6001)" gradientUnits="userSpaceOnUse"><stop offset=".18" stop-color="#f18b3c"/><stop offset=".61" stop-color="#ed701e"/><stop offset="1" stop-color="#e95400"/></radialGradient><path d="M119.4 103.2v-7c0-9.4-7.7-17.1-17.1-17.1s-17.1 7.7-17.1 17.1v7c-3.2.2-5.6 2.8-5.5 6v24c-.1 3.2 2.5 5.9 5.7 6h33.5c3.2.1 5.9-2.5 6-5.7v-24.3c.1-3.1-2.3-5.8-5.5-6zm-29.5 0v-6.9c0-6.9 5.6-12.5 12.5-12.5s12.5 5.6 12.5 12.5v6.9h-25zm-5.5 6c-.1-.7.4-1.3 1.1-1.4H119c.7-.1 1.3.4 1.4 1.1v24.3c.1.7-.4 1.3-1.1 1.4H85.7c-.7.1-1.3-.4-1.4-1.1v-24.3h.1z" fill="url(#S)"/><radialGradient id="T" cx="-31.187" cy="-206.187" r="1" gradientTransform="matrix(7.49 0 0 7.49 335.74 1664.83)" gradientUnits="userSpaceOnUse"><stop offset=".18" stop-color="#f18b3c"/><stop offset=".61" stop-color="#ed701e"/><stop offset="1" stop-color="#e95400"/></radialGradient><path d="M100 123.9v3.7c0 1.2.9 2.2 2.1 2.3h.2c1.2 0 2.2-1 2.3-2.2v-3.8c3-1.4 4.3-5 2.8-8-1.3-2.7-4.4-4.1-7.3-3.1-2.3.9-3.8 3.1-3.7 5.6a5.62 5.62 0 0 0 3.6 5.5zm.9-5.5c0-.8.6-1.4 1.4-1.4s1.4.6 1.4 1.4-.6 1.4-1.4 1.4h0c-.7.1-1.3-.4-1.4-1.1v-.3z" fill="url(#T)"/><radialGradient id="U" cx="-41.924" cy="-176.735" r="1" gradientTransform="matrix(29.97 0 0 30.03 1428.0699 5416.6899)" gradientUnits="userSpaceOnUse"><stop offset=".18" stop-color="#f18b3c"/><stop offset=".61" stop-color="#ed701e"/><stop offset="1" stop-color="#e95400"/></radialGradient><path d="M201.7 81h0c0-.9-.7-1.7-1.7-1.7h-.1c-3.5 0-21.5.5-33.1 12.1-1.8 1.8-3.3 3.7-4.7 5.8-3.6-1.1-9.6 1.5-14.3 6.2-5.7 5.7-6.1 14.4-6.1 14.5 0 .6.3 1.2.8 1.5.3.1.5.2.8.2s.6-.1.9-.3h.1c3.6-2.9 6.8-4.6 9.8-5.2-.1.2-.2.5-.2.7-.1.5-.3.9-.5 1.4h0a2.22 2.22 0 0 0 .3 1.6h0l9.1 9.2c.3.3.7.5 1.2.5h.5c.7-.2 1.5-.4 2.2-.7-.5 2.9-2.2 6.1-5.2 9.8h0c-.4.5-.4 1.2-.1 1.8h0c.3.5.9.8 1.5.8h.1c.1 0 8.7-.4 14.5-6.2 4.9-4.9 7.4-10.7 6.3-14.3 2.1-1.3 4.1-2.9 5.8-4.7 11.6-11.5 12.1-29.5 12.1-33zm-35 54.4c2-2.9 3.3-6.2 3.6-9.7 3.6-1.3 7.1-2.9 10.4-4.8-.2 2.4-2 6.4-5.6 10-2.3 2.2-5.2 3.7-8.4 4.5zm29.4-39.7c-2 6.6-4.9 12-8.9 15.9-6.6 6.7-16.9 10.6-22.6 12.4l-7.6-7.6c3.2-10 7.4-17.9 12.2-22.8 3.9-3.9 9.2-6.9 15.9-8.9.7 2.6 2.1 5 3.9 7 2 1.9 4.5 3.3 7.1 4zm2.2-13.1c-.2 3.4-.6 6.7-1.3 10-2.1-.5-4-1.6-5.5-3.1s-2.6-3.4-3.1-5.5c3.3-.7 6.6-1.2 9.9-1.4zm-38.1 17.6c-1.9 3.3-3.5 6.8-4.8 10.4-3.5.4-6.8 1.6-9.7 3.6.7-3.2 2.3-6.1 4.6-8.5 3.8-3.9 7.7-5.4 9.9-5.5h0z" fill="url(#U)"/><radialGradient id="V" cx="-20.602" cy="-209.65" r="1" gradientTransform="matrix(6.87 0 0 6.88 322.52 1542.09)" gradientUnits="userSpaceOnUse"><stop offset=".18" stop-color="#f18b3c"/><stop offset=".61" stop-color="#ed701e"/><stop offset="1" stop-color="#e95400"/></radialGradient><path d="M181.3 92.7c-1.9 0-3.6.7-4.9 2.1-2.6 2.7-2.6 7.1 0 9.8 2.7 2.6 7.1 2.6 9.7-.2 2.6-2.7 2.6-6.9 0-9.5-1.2-1.4-2.9-2.2-4.8-2.2zm3.6 7c0 2-1.6 3.6-3.6 3.6-1 0-1.9-.4-2.6-1.1s-1.1-1.6-1.1-2.5c0-1 .4-1.9 1.1-2.5h0c.7-.7 1.6-1.1 2.6-1.2 1 0 1.9.4 2.5 1.1h0c.7.7 1.1 1.6 1.1 2.6z" fill="url(#V)"/><radialGradient id="W" cx="-23.032" cy="-205.907" r="1" gradientTransform="matrix(7.53 0 0 7.54 323.73 1684.1901)" gradientUnits="userSpaceOnUse"><stop offset=".18" stop-color="#f18b3c"/><stop offset=".61" stop-color="#ed701e"/><stop offset="1" stop-color="#e95400"/></radialGradient><path d="M156.1 124.8c-1.4-1.4-3.4-2-5.3-1.7-2 .2-3.7 1.5-4.6 3.3v.1c-.1.1-.1.2-.1.3L143 136h0c-.2.6 0 1.2.4 1.7.3.3.7.5 1.2.5h.4l9.1-3.1c.2 0 .3-.1.4-.2 1.8-.9 3-2.6 3.3-4.6s-.3-4-1.7-5.5zm-2.4 2.4h0c.7.7 1 1.6.9 2.6-.1.9-.6 1.7-1.4 2.1l-6 1.9 1.9-6c.5-.8 1.3-1.3 2.2-1.5.9-.1 1.8.2 2.4.9h0z" fill="url(#W)"/><radialGradient id="X" cx="-38.144" cy="-178.227" r="1" gradientTransform="matrix(25.16 0 0 25.15 1201.65 4590.8701)" gradientUnits="userSpaceOnUse"><stop offset=".18" stop-color="#f18b3c"/><stop offset=".61" stop-color="#ed701e"/><stop offset="1" stop-color="#e95400"/></radialGradient><path d="M271.5 108.5l-9.9-17.4c-.5-.8-1.5-1.1-2.4-.7l-4.6 2.6c-.9.5-1.2 1.6-.7 2.5h0l.6 1.2c-.4.1-.8.2-1.2.1-.7-.1-1.4-.3-2.1-.5-3.4-.9-9.1-2.4-14.7 0-1 .4-2 1-2.8 1.7-.5 0-.9-.1-1.4-.2l-.7-.1c-.8-.3-1.6-.8-2.2-1.4l.4-.7c.5-.9.2-2-.7-2.5h0l-4.5-2.6a2.2 2.2 0 0 0-1.4-.2 1.44 1.44 0 0 0-1.1.9L212 108.8c-.2.4-.3.9-.1 1.4a1.44 1.44 0 0 0 .9 1.1l4.5 2.6c.2.2.5.3.8.3h.6a1.44 1.44 0 0 0 1.1-.9l.6-1c.6.8 1.3 1.5 1.9 2.2-.4.6-.6 1.3-.6 2 0 1.2.6 2.3 1.5 3 .5.3 1 .5 1.5.6v.4c.2 1 .7 1.8 1.5 2.4.6.5 1.3.7 2.1.7h.4c.7 1.6 2.4 2.6 4.1 2.3.3.6.7 1.1 1.2 1.5.6.5 1.3.7 2.1.7h.8c.8-.1 1.5-.5 2.1-1.1 1.7.8 3.5 1.2 5.3 1.3.8 0 1.5-.1 2.2-.4 1.1-.3 2.1-1 2.7-2h.1c1 0 2-.3 2.8-.9s1.4-1.4 1.7-2.4c.9-.2 1.8-.7 2.4-1.4.4-.5.8-1.1 1-1.7 1.2-.2 2.3-.9 3.1-1.9.6-.9.8-2 .5-3 0-.2-.1-.4-.2-.5.9-.5 1.8-1.2 2.6-1.9l.4.7c.2.4.6.7 1.1.9h.5c.3 0 .6-.1.9-.2l4.5-2.6c.4-.2.7-.6.9-1.1v-.1c.2-.4.2-.9 0-1.3zm-44.9-13.2l-7.7 13.5-1.2 2-2.8-1.5 8.9-15.6 2.8 1.6zm29.4 18.1c.5.4.9.8 1.4 1.2l.3.2a.55.55 0 0 1 .3.5c.1.2 0 .5-.1.7-.4.4-.9.6-1.5.7l-8.7-5.4c-.7-.4-1.5-.2-2 .4a1.39 1.39 0 0 0-.2 1.1 1.27 1.27 0 0 0 .7.9l8.2 5.2c-.1.2-.2.3-.3.5-.3.3-.7.5-1.1.5l-7.7-4.3c-.7-.5-1.6-.3-2 .4-.5.7-.3 1.6.4 2l.1.1c.1 0 .1.1.2.1l7.1 3.9c-.1.3-.3.5-.5.6-.5.3-1.1.4-1.7.3-.1 0-.1 0-.1-.1h0l-6.1-3.1c-.4-.1-.7-.1-1.1 0-.2.1-.4.2-.5.4-.5-.7-1.3-1.2-2.1-1.5v-1c-.2-1-.7-1.8-1.5-2.4-.5-.3-1-.5-1.6-.6v-.4c-.2-1-.8-1.8-1.6-2.4s-1.8-.8-2.8-.6a3.1 3.1 0 0 0-1.8.9c-.2-.2-.5-.4-.7-.6-1.5-1-3.4-.8-4.7.4-.8-.8-1.5-1.7-2.2-2.6l6-10.5c.9.7 2 1.3 3.1 1.7l.5.1c-.5.9-.9 1.8-1.1 2.8-.3 1.4.1 2.8 1.1 3.8s2.4 1.4 3.7 1.1 2.5-1 3.4-2l1.4-1.8 1.7-.4c5.2 2.3 10 5.3 14.3 8.9l.2.1-.4.2zm-31.3 2.6l1.2-1.7c.2-.2.4-.3.7-.3.2 0 .3 0 .4.1.3.2.4.6.3 1L226 117c-.3.3-.7.4-1.1.2-.3-.3-.4-.8-.2-1.2h0zm16 8.4c.4-.6.6-1.2.7-1.9l4.7 2.4c-.2.1-.3.2-.5.3-1.7.3-3.4 0-4.9-.8zm-13.2-4.6c0-.1.1-.2.2-.3l3.5-4.9c.1-.3.4-.4.7-.4.1 0 .3 0 .4.1a.55.55 0 0 1 .3.5c0 .2 0 .4-.1.6l-3.3 4.7-.2.3-.1.1c-.1.2-.3.4-.5.4-.2.1-.4.1-.6 0-.4-.2-.5-.7-.3-1.1h0zm3.8 2.9c-.1-.2-.1-.4 0-.6 0-.1.1-.2.2-.3l2.8-3.9c.2-.2.4-.3.6-.3s.4.1.5.2.2.3.3.4c0 .2 0 .4-.1.6l-2.7 3.8-.1.1a.89.89 0 0 1-1 .6c-.1 0-.1 0-.1-.1-.2-.1-.3-.3-.4-.5zm5.7 2c-.2.2-.4.2-.6.3-.2 0-.4-.1-.6-.2-.2-.2-.3-.5-.2-.8l1.5-2.1c.3-.3.7-.4 1.1-.2.4.3.4.7.2 1.1l-1.4 1.9zm5-23.4h-1.1l-2.4.6c-.4.1-.8.4-1 .7l-1.5 2.1c-.4.5-1 .9-1.7 1-.4.1-.8 0-1-.3-.3-.3-.4-.7-.3-1.1.3-1.3 1-2.5 2-3.4.8-.8 1.7-1.4 2.7-1.8 4.7-2.1 9.8-.7 12.9.1.8.3 1.6.5 2.5.6 1 .1 1.9-.1 2.8-.5l5.8 10.3c-.8 1-1.8 1.8-2.9 2.3-5-4.3-10.6-7.9-16.6-10.6h-.2zm14.8-6.3l2.8-1.6 8.9 15.6-2.8 1.6-8.9-15.6z" fill="url(#X)"/></svg>