<svg xmlns="http://www.w3.org/2000/svg" width="214.8" height="38.1" xmlns:v="https://vecta.io/nano"><path d="M34.3 19.1a14.98 14.98 0 0 0-15-15 14.98 14.98 0 0 0-15 15c0 7.4 5.4 13.7 12.7 14.8V23.5h-3.8v-4.3H17v-3.3c0-3.8 2.2-5.8 5.7-5.8 1.1 0 2.2.1 3.4.3V14h-1.9c-1.2-.2-2.3.7-2.4 1.8v.5 2.8H26l-.7 4.3h-3.5V34c7.1-1.2 12.5-7.5 12.5-14.9z" fill="#1977f3"/><path d="M25.1 23.5l.7-4.3h-4.2v-2.8c-.1-1.2.7-2.2 1.9-2.4h.5 2v-3.7a18.7 18.7 0 0 0-3.4-.3c-3.4 0-5.7 2.1-5.7 5.8v3.3h-3.8v4.3h3.8V34c1.6.2 3.1.2 4.7 0V23.5h3.5z" fill="#fefefe"/><circle cx="54.3" cy="19.2" r="15" fill="#2787f5"/><path d="M62.8 14.6c.1-.4 0-.7-.6-.7h-2c-.4 0-.7.2-.9.6-.6 1.4-1.4 2.8-2.4 4-.5.5-.7.6-.9.6s-.3-.1-.3-.6v-3.9c0-.5-.1-.7-.5-.7h-3.1c-.2 0-.5.2-.5.4h0c0 .5.7.6.8 1.9V19c0 .6-.1.8-.4.8-.7 0-2.3-2.4-3.2-5.2-.2-.5-.4-.8-.9-.8h-2c-.6 0-.7.3-.7.6 0 .5.7 3.1 3.1 6.5 1.3 2.1 3.5 3.4 6 3.6 1.2 0 1.4-.3 1.4-.8 0-2.2-.1-2.4.5-2.4.3 0 .8.1 1.9 1.3 1.3 1.3 1.6 1.9 2.3 1.9h2c.6 0 .9-.3.7-.9-.4-1.2-2.9-3.5-3-3.7-.3-.4-.2-.5 0-.9.1 0 2.5-3.3 2.7-4.4z" fill="#fff"/><circle cx="89.3" cy="19.2" r="15" fill="#1da1f2"/><path d="M95.9 15.7v.4a9.82 9.82 0 0 1-9.8 9.8c-1.9 0-3.7-.5-5.3-1.5h.9c1.6 0 3.1-.5 4.3-1.5a3.33 3.33 0 0 1-3.2-2.4c.2 0 .4.1.6.1.3 0 .6 0 .9-.1a3.44 3.44 0 0 1-2.8-3.4h0c.5.3 1 .4 1.6.4a3.48 3.48 0 0 1-1.1-4.6c1.8 2.1 4.3 3.5 7.1 3.6-.1-.3-.1-.5-.1-.8-.1-1.9 1.4-3.5 3.3-3.5 1 0 2 .4 2.7 1.2.8-.2 1.5-.4 2.2-.9-.3.8-.8 1.5-1.6 1.9.7-.1 1.4-.3 2-.5-.4.7-1 1.3-1.7 1.8z" fill="#fff"/><linearGradient id="A" gradientUnits="userSpaceOnUse" x1="-838.749" y1="557.359" x2="-838.715" y2="557.359" gradientTransform="matrix(6.613093e-14 1080 1080 -6.613093e-14 -601823.375 905855.25)"><stop offset="0" stop-color="#37aee2"/><stop offset=".47" stop-color="#30a8db"/><stop offset="1" stop-color="#1e96c8"/></linearGradient><circle cx="124.3" cy="19.2" r="15" fill="url(#A)"/><path d="M132.6 13.4L130 25.3c-.2.9-.7 1-1.4.7l-3.8-2.8L123 25c-.2.2-.5.4-.8.4l.3-3.9 7.1-6.4c.3-.3-.1-.4-.5-.2l-8.8 5.5-3.8-1.2c-.9-.3-.9-.9.2-1.2l14.8-5.7c.7-.3 1.3.1 1.1 1.1z" fill="#fff"/><circle cx="159.3" cy="19.2" r="15" fill="#f89f00"/><path d="M162.8 21.5c-.8.5-1.8.8-2.8.9l.6.6 2.3 2.3c.9.9-.5 2.2-1.4 1.4l-2.3-2.3-2.3 2.3c-.9.9-2.3-.5-1.4-1.4l2.3-2.3.6-.6c-1-.1-1.9-.4-2.8-.9-1-.6-1.4-1-1-1.8.2-.4.9-.9 1.7-.2 1.8 1.2 4.1 1.2 5.8 0 .9-.7 1.4-.3 1.7.2.4.8 0 1.2-1 1.8h0zm-7.5-6.2c0-2.2 1.8-4 4-4s4 1.8 4 4-1.8 4-4 4h0c-2.2 0-4-1.8-4-4zm2 0c0 1.1.9 2 2 1.9s2-.9 1.9-2c0-1.1-.9-1.9-2-1.9-1 0-1.9.9-1.9 2h0z" fill="#fff"/><linearGradient id="B" gradientUnits="userSpaceOnUse" x1="-838.702" y1="557.304" x2="-838.676" y2="557.304" gradientTransform="matrix(679.26 -839.65 -839.65 -679.26 1037821.8125 -325631.3438)"><stop offset="0" stop-color="#f8dd00"/><stop offset=".05" stop-color="#f8d801"/><stop offset=".1" stop-color="#f7cb02"/><stop offset=".16" stop-color="#f7b405"/><stop offset=".22" stop-color="#f69408"/><stop offset=".28" stop-color="#f56c0d"/><stop offset=".35" stop-color="#f33b13"/><stop offset=".4" stop-color="#f20b18"/><stop offset=".48" stop-color="#ee0d1d"/><stop offset=".58" stop-color="#e3122d"/><stop offset=".7" stop-color="#d11b47"/><stop offset=".82" stop-color="#b8286b"/><stop offset=".95" stop-color="#983799"/><stop offset="1" stop-color="#893faf"/></linearGradient><circle cx="194.3" cy="19.2" r="15" fill="url(#B)"/><path d="M194.3 15a4.23 4.23 0 0 0-4.2 4.2 4.23 4.23 0 0 0 4.2 4.2 4.23 4.23 0 0 0 4.2-4.2 4.16 4.16 0 0 0-4.2-4.2zm0 6.9a2.69 2.69 0 0 1-2.7-2.7 2.69 2.69 0 1 1 5.4 0h0a2.69 2.69 0 0 1-2.7 2.7zm5.3-7.1c-.1.5-.5.9-1.1.9-.5 0-.8-.4-.9-.9s.3-1 .9-1.1c.5-.1 1 .3 1.1.9h0v.2zm2.8 1c0-1.3-.4-2.5-1.3-3.4s-2.2-1.4-3.4-1.3c-1.4-.1-5.4-.1-6.8 0-1.3 0-2.5.4-3.4 1.3s-1.3 2.2-1.3 3.4c-.1 1.4-.1 5.4 0 6.8 0 1.3.4 2.5 1.3 3.4s2.2 1.3 3.4 1.3c1.4.1 5.4.1 6.8 0 1.3 0 2.5-.5 3.4-1.3.9-.9 1.3-2.2 1.3-3.4v-6.8zm-1.7 8.2c-.3.7-.8 1.3-1.5 1.6-1.1.4-3.6.3-4.8.3s-3.7.1-4.8-.3c-.7-.3-1.3-.8-1.6-1.6-.4-1.1-.3-3.6-.3-4.8s-.1-3.7.3-4.8c.3-.7.8-1.3 1.6-1.6 1.1-.4 3.6-.3 4.8-.3s3.8-.1 4.8.3c.7.3 1.3.8 1.6 1.6.4 1.1.3 3.6.3 4.8 0 1.1 0 3.7-.4 4.8h0z" fill="#fff"/></svg>