<svg width="192" height="58" viewBox="0 0 192 58" fill="none" xmlns="http://www.w3.org/2000/svg">
<g clip-path="url(#clip0)" filter="url(#filter0_d)">
<path d="M46.952 14.8865L31.8917 4.12842V9.14851H21.8506H10.3755V20.6237V34.6025L21.8506 26.4065V20.6237H31.8917V25.6438L46.952 14.8865Z" fill="#B900B6"/>
<path d="M6.71826 37.2325L21.7795 47.9907V42.9697H31.8197H43.2948V31.4954V17.5166L31.8197 25.7126V31.4954H21.7795V26.4753L6.71826 37.2325Z" fill="#00A6DC"/>
<path d="M30.3117 1.05859V7.56937H8.7954V33.808L4 37.2323L23.3597 51.0604V44.5496H44.875V18.312L49.6704 14.8867L30.3117 1.05859ZM41.7146 41.3902H20.1993V44.9205L9.43661 37.2323L20.1993 29.5451V33.0754H33.3999V26.5253L41.7146 20.5864V41.3902ZM23.1341 30.0584V22.0606H30.5373V30.0584H23.1341ZM33.472 22.5739V19.0436H20.2706V25.5937L11.9558 31.5326V10.7289H33.4711V7.19944L44.2329 14.8867L33.472 22.5739Z" fill="white"/>
</g>
<path d="M78.2178 15.8594C76.3949 15.8594 74.9834 16.5469 73.9834 17.9219C72.9834 19.2865 72.4834 21.1927 72.4834 23.6406C72.4834 28.7344 74.3949 31.2812 78.2178 31.2812C79.8219 31.2812 81.7646 30.8802 84.0459 30.0781V34.1406C82.1709 34.9219 80.0771 35.3125 77.7646 35.3125C74.4417 35.3125 71.9001 34.3073 70.1396 32.2969C68.3792 30.276 67.499 27.3802 67.499 23.6094C67.499 21.2344 67.9313 19.1562 68.7959 17.375C69.6605 15.5833 70.9001 14.2135 72.5146 13.2656C74.1396 12.3073 76.0407 11.8281 78.2178 11.8281C80.4365 11.8281 82.6657 12.3646 84.9053 13.4375L83.3428 17.375C82.4886 16.9688 81.6292 16.6146 80.7646 16.3125C79.9001 16.0104 79.0511 15.8594 78.2178 15.8594ZM110.295 23.5469C110.295 27.3281 109.358 30.2344 107.483 32.2656C105.608 34.2969 102.92 35.3125 99.4203 35.3125C95.9203 35.3125 93.2328 34.2969 91.3578 32.2656C89.4828 30.2344 88.5453 27.3177 88.5453 23.5156C88.5453 19.7135 89.4828 16.8125 91.3578 14.8125C93.2432 12.8021 95.9411 11.7969 99.4515 11.7969C102.962 11.7969 105.644 12.8073 107.498 14.8281C109.363 16.849 110.295 19.7552 110.295 23.5469ZM93.6234 23.5469C93.6234 26.099 94.1078 28.0208 95.0765 29.3125C96.0453 30.6042 97.4932 31.25 99.4203 31.25C103.285 31.25 105.217 28.6823 105.217 23.5469C105.217 18.401 103.295 15.8281 99.4515 15.8281C97.5244 15.8281 96.0713 16.4792 95.0921 17.7812C94.113 19.0729 93.6234 20.9948 93.6234 23.5469ZM115.67 35V12.1562H120.513V35H115.67ZM147.169 35H141.013L131.075 17.7188H130.935C131.133 20.7708 131.232 22.9479 131.232 24.25V35H126.903V12.1562H133.013L142.935 29.2656H143.044C142.888 26.2969 142.81 24.1979 142.81 22.9688V12.1562H147.169V35ZM167.95 35H151.981V31.6406L157.715 25.8438C159.413 24.1042 160.523 22.901 161.043 22.2344C161.564 21.5573 161.939 20.9323 162.168 20.3594C162.398 19.7865 162.512 19.1927 162.512 18.5781C162.512 17.6615 162.257 16.9792 161.747 16.5312C161.247 16.0833 160.575 15.8594 159.731 15.8594C158.845 15.8594 157.986 16.0625 157.153 16.4688C156.319 16.875 155.45 17.4531 154.543 18.2031L151.918 15.0938C153.043 14.1354 153.976 13.4583 154.715 13.0625C155.455 12.6667 156.262 12.3646 157.137 12.1562C158.012 11.9375 158.991 11.8281 160.075 11.8281C161.502 11.8281 162.762 12.0885 163.856 12.6094C164.95 13.1302 165.799 13.8594 166.403 14.7969C167.007 15.7344 167.309 16.8073 167.309 18.0156C167.309 19.0677 167.122 20.0573 166.747 20.9844C166.382 21.901 165.809 22.8438 165.028 23.8125C164.257 24.7812 162.892 26.1615 160.934 27.9531L157.997 30.7188V30.9375H167.95V35ZM187.387 30.2656H184.637V35H179.918V30.2656H170.168V26.9062L180.183 12.1562H184.637V26.5156H187.387V30.2656ZM179.918 26.5156V22.6406C179.918 21.9948 179.944 21.0573 179.996 19.8281C180.048 18.599 180.09 17.8854 180.121 17.6875H179.996C179.61 18.5417 179.147 19.375 178.605 20.1875L174.418 26.5156H179.918Z" fill="#202020"/>
<path d="M75.2193 40.3186C75.2193 41.5238 74.9205 42.4502 74.3229 43.0977C73.7252 43.7451 72.8686 44.0688 71.7529 44.0688C70.6373 44.0688 69.7807 43.7451 69.183 43.0977C68.5854 42.4502 68.2865 41.5205 68.2865 40.3086C68.2865 39.0967 68.5854 38.172 69.183 37.5345C69.784 36.8937 70.6439 36.5732 71.7629 36.5732C72.8818 36.5732 73.7368 36.8953 74.3278 37.5395C74.9222 38.1836 75.2193 39.11 75.2193 40.3186ZM69.9052 40.3186C69.9052 41.132 70.0596 41.7446 70.3684 42.1563C70.6771 42.5681 71.1387 42.7739 71.7529 42.7739C72.9848 42.7739 73.6007 41.9555 73.6007 40.3186C73.6007 38.6783 72.9881 37.8582 71.7629 37.8582C71.1486 37.8582 70.6854 38.0657 70.3733 38.4808C70.0612 38.8925 69.9052 39.5051 69.9052 40.3186ZM76.5762 40.6323C76.5762 39.354 76.8186 38.3845 77.3034 37.7237C77.7914 37.0597 78.5518 36.6396 79.5844 36.4637C80.0858 36.3773 80.8345 36.2678 81.8306 36.135L82.0049 37.4598C81.5733 37.5096 80.808 37.6158 79.7089 37.7785C79.2906 37.8449 78.9785 37.9445 78.7726 38.0773C78.5667 38.2102 78.4123 38.3994 78.3094 38.6451C78.2098 38.8908 78.1484 39.2179 78.1251 39.6263H78.1998C78.3758 39.354 78.6082 39.1448 78.8971 38.9987C79.186 38.8526 79.4964 38.7796 79.8285 38.7796C80.5158 38.7796 81.0503 38.9904 81.4322 39.4121C81.814 39.8305 82.0049 40.4314 82.0049 41.215C82.0049 42.1182 81.7625 42.8204 81.2778 43.3218C80.7963 43.8198 80.1306 44.0688 79.2806 44.0688C78.4306 44.0688 77.7665 43.765 77.2884 43.1574C76.8136 42.5465 76.5762 41.7048 76.5762 40.6323ZM79.3703 42.8387C80.0908 42.8387 80.451 42.3423 80.451 41.3495C80.451 40.3833 80.1256 39.9002 79.4748 39.9002C79.2956 39.9002 79.1163 39.9417 78.937 40.0247C78.761 40.1077 78.5983 40.2173 78.4489 40.3534C78.3028 40.4862 78.1949 40.6207 78.1251 40.7568C78.1251 41.4309 78.2331 41.9472 78.4489 42.3058C78.6647 42.661 78.9718 42.8387 79.3703 42.8387ZM90.5835 43.9692H89.1641V39.5814L89.0844 39.8902C88.9051 40.5908 88.744 41.1204 88.6013 41.479L87.6151 43.9692H86.5344L85.5333 41.4591C85.3905 41.0938 85.2378 40.5809 85.0751 39.9201L84.9805 39.5814V43.9692H83.566V38.4011H85.6578L86.6141 40.7768C86.7137 41.0324 86.805 41.3263 86.888 41.6583C86.9743 41.9903 87.0324 42.2742 87.0623 42.51C87.1719 42.0119 87.2565 41.655 87.3163 41.4392C87.3794 41.22 87.4474 41.0191 87.5205 40.8365C87.5935 40.6539 87.9239 39.8421 88.5116 38.4011H90.5835V43.9692ZM94.7942 39.3772C94.4721 39.3772 94.2198 39.4802 94.0371 39.686C93.8545 39.8886 93.7499 40.1774 93.7234 40.5526H95.855C95.8484 40.1774 95.7504 39.8886 95.5612 39.686C95.3719 39.4802 95.1162 39.3772 94.7942 39.3772ZM95.0083 44.0688C94.1118 44.0688 93.4113 43.8215 92.9066 43.3268C92.4019 42.832 92.1495 42.1314 92.1495 41.225C92.1495 40.292 92.382 39.5715 92.8468 39.0635C93.315 38.5521 93.9608 38.2965 94.7842 38.2965C95.5711 38.2965 96.1837 38.5206 96.622 38.9688C97.0603 39.4171 97.2794 40.0363 97.2794 40.8266V41.5637H93.6885C93.7051 41.9953 93.8329 42.3323 94.072 42.5747C94.3111 42.8171 94.6464 42.9383 95.0781 42.9383C95.4134 42.9383 95.7305 42.9034 96.0293 42.8337C96.3282 42.764 96.6403 42.6527 96.9657 42.5V43.6754C96.7 43.8082 96.4161 43.9062 96.114 43.9692C95.8118 44.0356 95.4433 44.0688 95.0083 44.0688ZM100.34 38.4011V40.5427H102.461V38.4011H103.98V43.9692H102.461V41.6732H100.34V43.9692H98.8206V38.4011H100.34ZM115.442 38.4011H117.115L114.909 41.0706L117.31 43.9692H115.586L113.31 41.1453V43.9692H111.791V38.4011H113.31V41.1055L115.442 38.4011ZM121.471 44.0688C120.816 44.0688 120.303 43.8314 119.932 43.3566H119.852C119.905 43.8215 119.932 44.0904 119.932 44.1635V46.4196H118.413V38.4011H119.648L119.862 39.1232H119.932C120.287 38.5721 120.813 38.2965 121.51 38.2965C122.168 38.2965 122.682 38.5505 123.054 39.0585C123.426 39.5665 123.612 40.2721 123.612 41.1752C123.612 41.7695 123.524 42.2858 123.348 42.7241C123.176 43.1624 122.928 43.4961 122.606 43.7252C122.284 43.9543 121.906 44.0688 121.471 44.0688ZM121.022 39.5117C120.647 39.5117 120.373 39.6279 120.201 39.8604C120.028 40.0895 119.938 40.4696 119.932 41.0009V41.1652C119.932 41.7629 120.02 42.1912 120.196 42.4502C120.375 42.7092 120.657 42.8387 121.042 42.8387C121.723 42.8387 122.063 42.2775 122.063 41.1553C122.063 40.6074 121.979 40.1974 121.809 39.9251C121.643 39.6495 121.381 39.5117 121.022 39.5117ZM126.642 38.4011V40.6024C126.642 40.8349 126.604 41.4026 126.528 42.3058L129.098 38.4011H130.926V43.9692H129.456V41.7479C129.456 41.3528 129.49 40.795 129.556 40.0745L126.996 43.9692H125.173V38.4011H126.642ZM137.891 38.4011V43.9692H136.367V39.5416H134.349V43.9692H132.83V38.4011H137.891ZM144.397 38.4011V39.5416H142.574V43.9692H141.055V39.5416H139.228V38.4011H144.397ZM146.954 41.1752C146.954 41.7264 147.044 42.1431 147.223 42.4253C147.406 42.7075 147.701 42.8486 148.11 42.8486C148.515 42.8486 148.805 42.7092 148.981 42.4303C149.161 42.148 149.25 41.7297 149.25 41.1752C149.25 40.624 149.161 40.2106 148.981 39.9351C148.802 39.6595 148.508 39.5217 148.1 39.5217C147.695 39.5217 147.403 39.6595 147.223 39.9351C147.044 40.2073 146.954 40.6207 146.954 41.1752ZM150.804 41.1752C150.804 42.0816 150.565 42.7905 150.087 43.3019C149.609 43.8132 148.943 44.0688 148.09 44.0688C147.555 44.0688 147.084 43.9526 146.676 43.7202C146.267 43.4845 145.953 43.1475 145.734 42.7092C145.515 42.2709 145.405 41.7596 145.405 41.1752C145.405 40.2654 145.643 39.5582 146.118 39.0535C146.593 38.5488 147.26 38.2965 148.12 38.2965C148.654 38.2965 149.126 38.4127 149.534 38.6451C149.943 38.8775 150.256 39.2112 150.476 39.6462C150.695 40.0812 150.804 40.5908 150.804 41.1752ZM157.505 39.8604C157.505 40.1592 157.411 40.4148 157.221 40.6273C157.035 40.8365 156.76 40.971 156.395 41.0308V41.0706C156.79 41.1171 157.102 41.2532 157.331 41.479C157.563 41.7015 157.68 41.9771 157.68 42.3058C157.68 42.847 157.467 43.2604 157.042 43.5459C156.617 43.8281 156.009 43.9692 155.219 43.9692H152.365V38.4011H155.219C155.983 38.4011 156.554 38.5256 156.932 38.7746C157.314 39.0203 157.505 39.3822 157.505 39.8604ZM156.106 42.2261C156.106 42.0069 156.021 41.8492 155.852 41.7529C155.682 41.6533 155.428 41.6035 155.09 41.6035H153.884V42.9184H155.12C155.442 42.9184 155.686 42.8586 155.852 42.7391C156.021 42.6162 156.106 42.4452 156.106 42.2261ZM155.966 39.9799C155.966 39.6412 155.697 39.4719 155.159 39.4719H153.884V40.5726H154.985C155.307 40.5726 155.551 40.5261 155.717 40.4331C155.883 40.3401 155.966 40.1891 155.966 39.9799ZM162.732 43.9692L162.438 43.2122H162.398C162.143 43.5343 161.879 43.7584 161.606 43.8846C161.337 44.0074 160.985 44.0688 160.551 44.0688C160.016 44.0688 159.594 43.9161 159.285 43.6106C158.98 43.3052 158.827 42.8702 158.827 42.3058C158.827 41.7147 159.033 41.2798 159.445 41.0009C159.86 40.7187 160.484 40.5626 161.317 40.5327L162.284 40.5028V40.2588C162.284 39.6943 161.995 39.4121 161.417 39.4121C160.972 39.4121 160.449 39.5466 159.848 39.8155L159.345 38.7896C159.986 38.4542 160.697 38.2865 161.477 38.2865C162.224 38.2865 162.797 38.4492 163.195 38.7746C163.594 39.1 163.793 39.5947 163.793 40.2588V43.9692H162.732ZM162.284 41.3894L161.696 41.4093C161.254 41.4226 160.926 41.5022 160.71 41.6483C160.494 41.7944 160.386 42.0169 160.386 42.3157C160.386 42.744 160.632 42.9582 161.123 42.9582C161.475 42.9582 161.756 42.8569 161.965 42.6544C162.177 42.4519 162.284 42.1829 162.284 41.8476V41.3894ZM170.653 43.9692H169.134V39.5416H167.735C167.628 40.7867 167.499 41.7164 167.346 42.3307C167.193 42.9416 166.989 43.3849 166.733 43.6604C166.481 43.9327 166.149 44.0688 165.737 44.0688C165.385 44.0688 165.097 44.0157 164.871 43.9095V42.6942C165.033 42.7606 165.196 42.7938 165.359 42.7938C165.548 42.7938 165.706 42.6577 165.832 42.3854C165.961 42.1132 166.076 41.66 166.176 41.0258C166.279 40.3883 166.367 39.5134 166.44 38.4011H170.653V43.9692ZM180.248 41.1752C180.248 42.0883 180.017 42.7988 179.555 43.3068C179.094 43.8148 178.455 44.0688 177.638 44.0688C176.904 44.0688 176.316 43.863 175.875 43.4513C175.437 43.0396 175.171 42.4469 175.078 41.6732H174.077V43.9692H172.558V38.4011H174.077V40.5427H175.098C175.194 39.8321 175.468 39.281 175.92 38.8892C176.375 38.494 176.957 38.2965 177.668 38.2965C178.455 38.2965 179.081 38.5555 179.545 39.0734C180.014 39.5881 180.248 40.2887 180.248 41.1752ZM176.607 41.1752C176.607 41.7297 176.688 42.148 176.851 42.4303C177.014 42.7092 177.283 42.8486 177.658 42.8486C178.026 42.8486 178.292 42.7092 178.455 42.4303C178.617 42.148 178.699 41.7297 178.699 41.1752C178.699 40.6207 178.616 40.2073 178.45 39.9351C178.287 39.6595 178.02 39.5217 177.648 39.5217C177.279 39.5217 177.014 39.6595 176.851 39.9351C176.688 40.2106 176.607 40.624 176.607 41.1752ZM186.416 38.4011V39.5416H184.593V43.9692H183.074V39.5416H181.246V38.4011H186.416Z" fill="#202020"/>
<defs>
<filter id="filter0_d" x="0" y="0" width="59.3661" height="58" filterUnits="userSpaceOnUse" color-interpolation-filters="sRGB">
<feFlood flood-opacity="0" result="BackgroundImageFix"/>
<feColorMatrix in="SourceAlpha" type="matrix" values="0 0 0 0 0 0 0 0 0 0 0 0 0 0 0 0 0 0 127 0"/>
<feOffset dy="3"/>
<feGaussianBlur stdDeviation="2"/>
<feColorMatrix type="matrix" values="0 0 0 0 0.125 0 0 0 0 0.125 0 0 0 0 0.125 0 0 0 0.2 0"/>
<feBlend mode="normal" in2="BackgroundImageFix" result="effect1_dropShadow"/>
<feBlend mode="normal" in="SourceGraphic" in2="effect1_dropShadow" result="shape"/>
</filter>
<clipPath id="clip0">
<rect width="51.3661" height="50" fill="white" transform="translate(4 1)"/>
</clipPath>
</defs>
</svg>
